#N canvas 619 221 537 473 10;
#X obj 34 230 delwrite~ \$0-del-1 22000;
#X obj 34 304 line~;
#X obj 79 206 delwrite~ \$0-del-2 22000;
#X obj 243 200 param.change;
#X obj 34 399 dac~ 1 2, f 13;
#X obj 34 183 adc~ 1 2;
#X obj 34 257 param.get 1;
#X msg 77 279 set \$1;
#X obj 208 120 hsl 180 15 0 10000 0 0 \$0-size-sld-s \$0-size-sld-r
empty -2 -8 0 10 -108775 -1 -1 0 1;
#X obj 401 120 nbx 5 15 -1e+37 1e+37 0 0 \$0-size-nbx-s \$0-size-nbx-r
empty 0 -8 0 10 -108775 -1 -1 0 256;
#X text 289 83 R170: ETITEPNOITINUP ESODNU;
#X text 366 66 EVIV BULGROZ !;
#X text 372 48 REVERSE DELAY;
#X text 348 143 by Pierre Guillot;
#X msg 34 279 \$1 20;
#X text 343 100 Envelope Time (ms);
#X obj 77 321 s \$0-size-sld-r;
#X obj 243 222 param.set 1 \$0-size-sld-s;
#X obj 87 300 s \$0-size-nbx-r;
#X obj 242 247 r \$0-size-sld-s;
#X msg 242 268 set \$1;
#X obj 242 289 s \$0-size-nbx-r;
#X obj 242 317 r \$0-size-nbx-s;
#X obj 242 338 s \$0-size-sld-r;
#X obj 109 374 delback~ \$0-del-2;
#X obj 34 354 delback~ \$0-del-1;
#X connect 1 0 24 0;
#X connect 1 0 25 0;
#X connect 5 0 0 0;
#X connect 5 1 2 0;
#X connect 6 0 14 0;
#X connect 6 0 7 0;
#X connect 7 0 16 0;
#X connect 7 0 18 0;
#X connect 14 0 1 0;
#X connect 19 0 20 0;
#X connect 20 0 21 0;
#X connect 22 0 23 0;
#X connect 24 0 4 1;
#X connect 25 0 4 0;
#X coords 0 -1 1 1 460 160 1 2 2;
