#N canvas 553 70 251 339 10;
#X obj 67 43 r gui;
#X obj 67 65 route mouse;
#X obj 43 289 s camomile;
#X obj 43 242 pack f f, f 20;
#X msg 43 265 param change \$1 \$2;
#X obj 106 159 t b f, f 7;
#X obj 67 131 t b f, f 16;
#X obj 16 183 t b f;
#X msg 106 111 0;
#X obj 16 18 r camo.param.change;
#X obj 67 87 sel 1, f 7;
#X msg 67 109 1;
#N canvas 0 23 156 140 once.1 0;
#X obj 15 84 t f b, f 8;
#X obj 78 84 f 0;
#X obj 15 19 inlet;
#X obj 60 19 inlet;
#X obj 15 106 outlet;
#X obj 60 41 f 1;
#X obj 15 62 spigot 0;
#X connect 0 0 4 0;
#X connect 0 1 1 0;
#X connect 1 0 6 1;
#X connect 2 0 6 0;
#X connect 3 0 5 0;
#X connect 5 0 6 1;
#X connect 6 0 0 0;
#X restore 16 159 pd once.1;
#N canvas 0 23 156 140 once.0 0;
#X obj 89 69 f 0;
#X obj 15 19 inlet;
#X obj 60 19 inlet;
#X obj 15 106 outlet;
#X obj 60 41 f 1;
#X obj 15 62 spigot 0;
#X obj 15 84 t b b, f 8;
#X connect 0 0 5 1;
#X connect 1 0 5 0;
#X connect 2 0 4 0;
#X connect 4 0 5 1;
#X connect 5 0 6 0;
#X connect 6 0 3 0;
#X connect 6 1 0 0;
#X restore 106 211 pd once.0;
#X connect 0 0 1 0;
#X connect 1 0 10 0;
#X connect 3 0 4 0;
#X connect 4 0 2 0;
#X connect 5 0 13 0;
#X connect 5 1 3 1;
#X connect 6 0 12 1;
#X connect 6 1 3 1;
#X connect 7 0 13 1;
#X connect 7 1 3 0;
#X connect 8 0 5 0;
#X connect 9 0 12 0;
#X connect 10 0 11 0;
#X connect 10 1 8 0;
#X connect 11 0 6 0;
#X connect 12 0 7 0;
#X connect 13 0 3 0;
