#N canvas 842 398 570 392 10;
#X obj 34 190 delwrite~ \$0-del-1 22000;
#X obj 36 86 hsl 180 15 0 10000 0 0 \$0-window-size-s \$0-window-size-r
empty -2 -8 0 10 -262144 -1 -1 0 1;
#X obj 34 264 line~;
#X obj 87 166 delwrite~ \$0-del-2 22000;
#X obj 323 10 param.change;
#X obj 229 86 nbx 5 15 -1e+37 1e+37 0 0 empty \$0-window-size-r empty
0 -8 0 10 -262144 -1 -1 0 256;
#X msg 229 61 set \$1;
#X obj 34 349 dac~ 1 2, f 13;
#X obj 34 143 adc~ 1 2;
#X msg 34 239 \$1 100;
#X obj 323 32 param.set 1 \$0-window-size-s;
#X obj 34 217 param.get 1;
#X obj 256 250 array define \$0-env 515;
#N canvas 0 23 320 653 delback~ 0;
#X obj 36 282 *~ 512;
#X obj 36 304 +~ 1;
#X obj 149 229 +~ 0.5;
#X obj 149 251 wrap~;
#X obj 149 282 *~ 512;
#X obj 149 304 +~ 1;
#X obj 36 327 tabread4~ \$0-env;
#X obj 149 327 tabread4~ \$0-env;
#X obj 36 518 *~;
#X obj 149 518 *~;
#X obj 167 475 +~ 1.5;
#X obj 54 475 +~ 1.5;
#X obj 36 180 phasor~;
#X obj 36 602 outlet~ backward signal;
#X obj 117 62 max~ 0.02;
#X obj 117 40 inlet~ window size;
#X obj 36 146 *~ 2;
#X obj 36 67 sig~ 1000;
#X obj 36 89 /~, f 12;
#X obj 167 451 *~;
#X obj 54 451 *~;
#X obj 54 496 vd~ \$0-del-1;
#X obj 167 496 vd~ \$0-del-1;
#X connect 0 0 1 0;
#X connect 1 0 6 0;
#X connect 2 0 3 0;
#X connect 3 0 4 0;
#X connect 3 0 19 0;
#X connect 4 0 5 0;
#X connect 5 0 7 0;
#X connect 6 0 8 0;
#X connect 7 0 9 0;
#X connect 8 0 13 0;
#X connect 9 0 13 0;
#X connect 10 0 22 0;
#X connect 11 0 21 0;
#X connect 12 0 0 0;
#X connect 12 0 2 0;
#X connect 12 0 20 0;
#X connect 14 0 18 1;
#X connect 14 0 19 1;
#X connect 14 0 20 1;
#X connect 15 0 14 0;
#X connect 16 0 12 0;
#X connect 17 0 18 0;
#X connect 18 0 16 0;
#X connect 19 0 10 0;
#X connect 20 0 11 0;
#X connect 21 0 8 1;
#X connect 22 0 9 1;
#X restore 34 314 pd delback~;
#N canvas 0 23 320 653 delback~ 0;
#X obj 36 282 *~ 512;
#X obj 36 304 +~ 1;
#X obj 149 229 +~ 0.5;
#X obj 149 251 wrap~;
#X obj 149 282 *~ 512;
#X obj 149 304 +~ 1;
#X obj 36 327 tabread4~ \$0-env;
#X obj 149 327 tabread4~ \$0-env;
#X obj 36 518 *~;
#X obj 149 518 *~;
#X obj 167 475 +~ 1.5;
#X obj 54 475 +~ 1.5;
#X obj 36 180 phasor~;
#X obj 36 602 outlet~ backward signal;
#X obj 117 62 max~ 0.02;
#X obj 117 40 inlet~ window size;
#X obj 36 146 *~ 2;
#X obj 36 67 sig~ 1000;
#X obj 36 89 /~, f 12;
#X obj 167 451 *~;
#X obj 54 451 *~;
#X obj 167 496 vd~ \$0-del-2;
#X obj 54 496 vd~ \$0-del-2;
#X connect 0 0 1 0;
#X connect 1 0 6 0;
#X connect 2 0 3 0;
#X connect 3 0 4 0;
#X connect 3 0 19 0;
#X connect 4 0 5 0;
#X connect 5 0 7 0;
#X connect 6 0 8 0;
#X connect 7 0 9 0;
#X connect 8 0 13 0;
#X connect 9 0 13 0;
#X connect 10 0 21 0;
#X connect 11 0 22 0;
#X connect 12 0 0 0;
#X connect 12 0 2 0;
#X connect 12 0 20 0;
#X connect 14 0 18 1;
#X connect 14 0 19 1;
#X connect 14 0 20 1;
#X connect 15 0 14 0;
#X connect 16 0 12 0;
#X connect 17 0 18 0;
#X connect 18 0 16 0;
#X connect 19 0 10 0;
#X connect 20 0 11 0;
#X connect 21 0 9 1;
#X connect 22 0 8 1;
#X restore 122 314 pd delback~;
#X msg 97 239 set \$1;
#X obj 97 261 s \$0-window-size-r;
#N canvas 803 53 267 299 gen.array 0;
#X obj 18 254 array set \$0-env, f 28;
#X obj 18 97 t f f, f 14;
#X obj 114 194 + 1;
#X obj 18 53 until;
#X obj 55 74 + 1;
#X obj 18 32 f 515;
#X obj 18 10 loadbang;
#X obj 18 185 cos;
#X obj 18 207 + 1;
#X obj 18 229 / 2;
#X obj 18 141 / 512;
#X obj 18 163 * 6.28319;
#X obj 18 119 - 256;
#X obj 18 74 f -1;
#X connect 1 0 12 0;
#X connect 1 1 2 0;
#X connect 2 0 0 1;
#X connect 3 0 13 0;
#X connect 4 0 13 1;
#X connect 5 0 3 0;
#X connect 6 0 5 0;
#X connect 7 0 8 0;
#X connect 8 0 9 0;
#X connect 9 0 0 0;
#X connect 10 0 11 0;
#X connect 11 0 7 0;
#X connect 12 0 10 0;
#X connect 13 0 4 0;
#X connect 13 0 1 0;
#X restore 256 228 pd gen.array;
#X text 55 42 R170: ETITEPNOITINUP ESODNU, f 30;
#X text 55 25 EVIV BULGROZ !;
#X text 55 7 REVERSE DELAY;
#X text 31 66 Delay Time (ms);
#X text 195 107 by Pierre Guillot;
#X connect 1 0 6 0;
#X connect 2 0 13 0;
#X connect 2 0 14 0;
#X connect 5 0 1 0;
#X connect 6 0 5 0;
#X connect 8 0 0 0;
#X connect 8 1 3 0;
#X connect 9 0 2 0;
#X connect 11 0 9 0;
#X connect 11 0 15 0;
#X connect 13 0 7 0;
#X connect 14 0 7 1;
#X connect 15 0 16 0;
#X coords 0 -1 1 1 300 120 1 2 2;
