#N canvas 670 295 768 527 10;
#X obj 242 194 adc~;
#X obj 134 251 dac~;
#X obj 1 2 c.camomile @size 112 143 @pinned 1 @name "Stereo Gain" @font
"Courier" 11 "roman" "normal" @bdsize 2 @bgcolor 0.754894 0.735133
0.715371 1 @bdcolor 0.501945 0.501945 0.501945 1 @txtcolor 0.501945
0.501945 0.501945 1;
#X obj 26 47 c.meter~ @size 13 86 @pinned 0 @interval 50 @bgcolor 0.75
0.75 0.75 1 @bdcolor 0.5 0.5 0.5 1 @coldcolor 0 0.6 0 0.8 @tepidcolor
0.6 0.73 0 0.8 @warmcolor 0.85 0.85 0 0.8 @hotcolor 1 0.6 0 0.8 @overcolor
1 0 0 0.8;
#X obj 8 47 c.gain~ @size 13 86 @pinned 0 @ramp 20 @bgcolor 0.75 0.75
0.75 1 @bdcolor 0.5 0.5 0.5 1 @kncolor 0.5 0.5 0.5 1 @param0 "GainLeft"
"dB" 1;
#X obj 88 47 c.meter~ @size 13 86 @pinned 0 @interval 50 @bgcolor 0.754894
0.754894 0.754894 1 @bdcolor 0.501945 0.501945 0.501945 1 @coldcolor
0 0.6 0 0.8 @tepidcolor 0.6 0.73 0 0.8 @warmcolor 0.85 0.85 0 0.8 @hotcolor
1 0.6 0 0.8 @overcolor 1 0 0 0.8;
#X obj 70 47 c.gain~ @size 13 86 @pinned 0 @ramp 20 @bgcolor 0.75 0.75
0.75 1 @bdcolor 0.5 0.5 0.5 1 @kncolor 0.5 0.5 0.5 1 @param0 "GainRight"
"dB" 1;
#X obj 4 26 c.comment @size 53 15 @pinned 0 @font "Courier" 11 "roman"
"normal" @bgcolor 0.754894 0.735133 0.715371 1 @bdcolor 0.754894 0.735133
0.715371 1 @textcolor 0.501945 0.501945 0.501945 1 @text "Left";
#X obj 67 26 c.comment @size 40 15 @pinned 0 @font "Courier" 11 "roman"
"normal" @bgcolor 0.754894 0.735133 0.715371 1 @bdcolor 0.754894 0.735133
0.715371 1 @textcolor 0.501945 0.501945 0.501945 1 @text "Right";
#X connect 0 0 4 0;
#X connect 0 1 6 0;
#X connect 4 0 3 0;
#X connect 4 0 1 0;
#X connect 6 0 5 0;
#X connect 6 0 1 1;
