#N canvas 377 41 626 411 10;
#X obj 32 6 loadbang;
#X obj 59 67 hsl 128 15 0 22050 0 0 empty \$0-rate Rate_Hz -3 -6 0
10 -262144 -1 -1 127 1;
#X obj 195 67 nbx 5 15 0 22050 0 0 empty \$0-rate empty 0 -8 0 10 -262144
-1 -1 0 256;
#X text 438 30 Input 2;
#X text 437 354 Output 2;
#X text 286 354 Output 1;
#X obj 357 32 adc~ 1 2, f 11;
#X obj 357 354 dac~ 1 2, f 11;
#X obj 441 146 osc~;
#X obj 357 326 *~, f 4;
#X obj 420 326 *~, f 4;
#X text 298 30 Input 1;
#X text 349 8 Ring Modulation;
#X text 441 68 Rate;
#X text 438 47 Oscillator;
#X msg 32 30 220;
#X obj 441 87 r \$0-rate;
#X obj 59 97 hsl 128 15 0 100 0 0 empty \$0-depth Depth_% -3 -6 0 10
-262144 -1 -1 12700 1;
#X obj 195 97 nbx 5 15 0 100 0 0 empty \$0-depth empty 0 -8 0 10 -262144
-1 -1 0 256;
#X msg 32 60 100;
#X obj 511 139 / 100;
#X obj 511 161 \$1 20;
#X obj 511 183 line~;
#X obj 441 217 *~;
#X obj 496 225 -~;
#X obj 511 109 clip 0 100;
#X obj 496 204 sig~ 1;
#X obj 395 288 *~;
#X obj 325 288 *~;
#X obj 511 87 r \$0-depth;
#X text 510 68 Depth;
#X connect 0 0 15 0;
#X connect 0 0 19 0;
#X connect 6 0 9 0;
#X connect 6 0 28 0;
#X connect 6 1 10 0;
#X connect 6 1 27 0;
#X connect 8 0 23 0;
#X connect 9 0 7 0;
#X connect 10 0 7 1;
#X connect 15 0 1 0;
#X connect 16 0 8 0;
#X connect 19 0 17 0;
#X connect 20 0 21 0;
#X connect 21 0 22 0;
#X connect 22 0 23 1;
#X connect 22 0 24 1;
#X connect 23 0 10 1;
#X connect 23 0 9 1;
#X connect 24 0 27 1;
#X connect 24 0 28 1;
#X connect 25 0 20 0;
#X connect 26 0 24 0;
#X connect 27 0 7 1;
#X connect 28 0 7 0;
#X connect 29 0 25 0;
#X coords 0 -1 1 1 206 70 2 50 50;
