#N canvas 355 93 852 463 10;
#X obj 203 396 noteout, f 20;
#N canvas 387 123 854 291 init 0;
#X obj 10 107 s \$0-note-pitch-1;
#X obj 10 128 s \$0-note-pitch-2;
#X obj 10 148 s \$0-note-pitch-3;
#X obj 10 168 s \$0-note-pitch-4;
#X obj 10 189 s \$0-note-pitch-5;
#X obj 10 210 s \$0-note-pitch-6;
#X obj 10 230 s \$0-note-pitch-7;
#X obj 10 250 s \$0-note-pitch-8;
#X obj 260 107 s \$0-note-velocity-1;
#X obj 260 128 s \$0-note-velocity-2;
#X obj 260 148 s \$0-note-velocity-3;
#X obj 260 168 s \$0-note-velocity-4;
#X obj 260 189 s \$0-note-velocity-5;
#X obj 260 210 s \$0-note-velocity-6;
#X obj 260 230 s \$0-note-velocity-7;
#X obj 260 250 s \$0-note-velocity-8;
#X obj 140 107 s \$0-note-start-1;
#X obj 140 128 s \$0-note-start-2;
#X obj 140 148 s \$0-note-start-3;
#X obj 140 168 s \$0-note-start-4;
#X obj 140 189 s \$0-note-start-5;
#X obj 140 210 s \$0-note-start-6;
#X obj 140 230 s \$0-note-start-7;
#X obj 140 250 s \$0-note-start-8;
#X obj 400 107 s \$0-note-length-1;
#X obj 400 128 s \$0-note-length-2;
#X obj 400 148 s \$0-note-length-3;
#X obj 400 168 s \$0-note-length-4;
#X obj 400 189 s \$0-note-length-5;
#X obj 400 210 s \$0-note-length-6;
#X obj 400 230 s \$0-note-length-7;
#X obj 400 250 s \$0-note-length-8;
#X obj 333 12 loadbang;
#X obj 530 107 s \$0-note-state-1;
#X obj 530 250 s \$0-note-state-8;
#X obj 530 230 s \$0-note-state-7;
#X obj 530 210 s \$0-note-state-6;
#X obj 530 189 s \$0-note-state-5;
#X obj 530 168 s \$0-note-state-4;
#X obj 529 148 s \$0-note-state-3;
#X obj 530 128 s \$0-note-state-2;
#X obj 640 74 f 3;
#X obj 650 128 s \$0-tone;
#X obj 649 148 s \$0-halftone;
#X obj 649 168 s \$0-cent;
#X obj 680 74 f 0;
#X obj 650 107 s \$0-octave;
#X obj 333 40 f 0;
#X connect 32 0 41 0;
#X connect 32 0 45 0;
#X connect 32 0 47 0;
#X connect 41 0 42 0;
#X connect 41 0 43 0;
#X connect 41 0 46 0;
#X connect 45 0 44 0;
#X connect 47 0 0 0;
#X connect 47 0 1 0;
#X connect 47 0 2 0;
#X connect 47 0 3 0;
#X connect 47 0 4 0;
#X connect 47 0 5 0;
#X connect 47 0 6 0;
#X connect 47 0 7 0;
#X connect 47 0 16 0;
#X connect 47 0 17 0;
#X connect 47 0 18 0;
#X connect 47 0 19 0;
#X connect 47 0 20 0;
#X connect 47 0 21 0;
#X connect 47 0 22 0;
#X connect 47 0 23 0;
#X connect 47 0 8 0;
#X connect 47 0 9 0;
#X connect 47 0 10 0;
#X connect 47 0 11 0;
#X connect 47 0 12 0;
#X connect 47 0 13 0;
#X connect 47 0 14 0;
#X connect 47 0 15 0;
#X connect 47 0 24 0;
#X connect 47 0 25 0;
#X connect 47 0 26 0;
#X connect 47 0 27 0;
#X connect 47 0 28 0;
#X connect 47 0 29 0;
#X connect 47 0 30 0;
#X connect 47 0 31 0;
#X connect 47 0 34 0;
#X connect 47 0 35 0;
#X connect 47 0 36 0;
#X connect 47 0 37 0;
#X connect 47 0 38 0;
#X connect 47 0 39 0;
#X connect 47 0 40 0;
#X connect 47 0 33 0;
#X restore 355 335 pd init;
#X obj 36 39 tgl 15 0 \$0-note-state-1-s \$0-note-state-1 State-1 0
-8 0 10 -262144 -1 -1 0 1;
#X obj 36 79 nbx 5 14 0 127 0 0 \$0-note-pitch-1-s \$0-note-pitch-1
Pitch-1 0 -8 0 10 -262144 -1 -1 0 256;
#X obj 36 119 nbx 5 14 0 127 0 0 \$0-note-velocity-1-s \$0-note-velocity-1
Velocity-1 0 -8 0 10 -262144 -1 -1 0 256;
#X obj 36 159 nbx 5 14 0 127 0 0 \$0-note-start-1-s \$0-note-start-1
Start-1_ppq 0 -8 0 10 -262144 -1 -1 0 256;
#X obj 36 199 nbx 5 14 0 127 0 0 \$0-note-length-1-s \$0-note-length-1
Length-1_ppq 0 -8 0 10 -262144 -1 -1 0 256;
#X obj 116 39 tgl 15 0 \$0-note-state-2-s \$0-note-state-2 State-2
0 -8 0 10 -262144 -1 -1 0 1;
#X obj 116 79 nbx 5 14 0 127 0 0 \$0-note-pitch-2-s \$0-note-pitch-2
Pitch-2 0 -8 0 10 -262144 -1 -1 0 256;
#X obj 116 119 nbx 5 14 0 127 0 0 \$0-note-velocity-2-s \$0-note-velocity-2
Velocity-2 0 -8 0 10 -262144 -1 -1 0 256;
#X obj 116 159 nbx 5 14 0 127 0 0 \$0-note-start-2-s \$0-note-start-2
Start-2_ppq 0 -8 0 10 -262144 -1 -1 0 256;
#X obj 116 199 nbx 5 14 0 127 0 0 \$0-note-length-2-s \$0-note-length-2
Length-2_ppq 0 -8 0 10 -262144 -1 -1 0 256;
#X obj 196 39 tgl 15 0 \$0-note-state-3-s \$0-note-state-3 State-3
0 -8 0 10 -262144 -1 -1 0 1;
#X obj 196 79 nbx 5 14 0 127 0 0 \$0-note-pitch-3-s \$0-note-pitch-3
Pitch-3 0 -8 0 10 -262144 -1 -1 0 256;
#X obj 196 119 nbx 5 14 0 127 0 0 \$0-note-velocity-3-s \$0-note-velocity-3
Velocity-3 0 -8 0 10 -262144 -1 -1 0 256;
#X obj 196 159 nbx 5 14 0 127 0 0 \$0-note-start-3-s \$0-note-start-3
Start-3_ppq 0 -8 0 10 -262144 -1 -1 0 256;
#X obj 196 199 nbx 5 14 0 127 0 0 \$0-note-length-3-s \$0-note-length-3
Length-3_ppq 0 -8 0 10 -262144 -1 -1 0 256;
#X obj 276 39 tgl 15 0 \$0-note-state-4-s \$0-note-state-4 State-4
0 -8 0 10 -262144 -1 -1 0 1;
#X obj 276 79 nbx 5 14 0 127 0 0 \$0-note-pitch-4-s \$0-note-pitch-4
Pitch-4 0 -8 0 10 -262144 -1 -1 0 256;
#X obj 276 119 nbx 5 14 0 127 0 0 \$0-note-velocity-4-s \$0-note-velocity-4
Velocity-4 0 -8 0 10 -262144 -1 -1 0 256;
#X obj 276 159 nbx 5 14 0 127 0 0 \$0-note-start-4-s \$0-note-start-4
Start-4_ppq 0 -8 0 10 -262144 -1 -1 0 256;
#X obj 276 199 nbx 5 14 0 127 0 0 \$0-note-length-4-s \$0-note-length-4
Length-4_ppq 0 -8 0 10 -262144 -1 -1 0 256;
#X obj 356 39 tgl 15 0 \$0-note-state-5-s \$0-note-state-5 State-5
0 -8 0 10 -262144 -1 -1 0 1;
#X obj 356 79 nbx 5 14 0 127 0 0 \$0-note-pitch-5-s \$0-note-pitch-5
Pitch-5 0 -8 0 10 -262144 -1 -1 0 256;
#X obj 356 119 nbx 5 14 0 127 0 0 \$0-note-velocity-5-s \$0-note-velocity-5
Velocity-5 0 -8 0 10 -262144 -1 -1 0 256;
#X obj 356 159 nbx 5 14 0 127 0 0 \$0-note-start-5-s \$0-note-start-5
Start-5_ppq 0 -8 0 10 -262144 -1 -1 0 256;
#X obj 356 199 nbx 5 14 0 127 0 0 \$0-note-length-5-s \$0-note-length-5
Length-5_ppq 0 -8 0 10 -262144 -1 -1 0 256;
#X obj 436 39 tgl 15 0 \$0-note-state-6-s \$0-note-state-6 State-6
0 -8 0 10 -262144 -1 -1 0 1;
#X obj 436 79 nbx 5 14 0 127 0 0 \$0-note-pitch-6-s \$0-note-pitch-6
Pitch-6 0 -8 0 10 -262144 -1 -1 0 256;
#X obj 436 119 nbx 5 14 0 127 0 0 \$0-note-velocity-6-s \$0-note-velocity-6
Velocity-6 0 -8 0 10 -262144 -1 -1 0 256;
#X obj 436 159 nbx 5 14 0 127 0 0 \$0-note-start-6-s \$0-note-start-6
Start-6_ppq 0 -8 0 10 -262144 -1 -1 0 256;
#X obj 436 199 nbx 5 14 0 127 0 0 \$0-note-length-6-s \$0-note-length-6
Length-6_ppq 0 -8 0 10 -262144 -1 -1 0 256;
#X obj 516 39 tgl 15 0 \$0-note-state-7-s \$0-note-state-7 State-7
0 -8 0 10 -262144 -1 -1 0 1;
#X obj 516 79 nbx 5 14 0 127 0 0 \$0-note-pitch-7-s \$0-note-pitch-7
Pitch-7 0 -8 0 10 -262144 -1 -1 0 256;
#X obj 516 119 nbx 5 14 0 127 0 0 \$0-note-velocity-7-s \$0-note-velocity-7
Velocity-7 0 -8 0 10 -262144 -1 -1 0 256;
#X obj 516 159 nbx 5 14 0 127 0 0 \$0-note-start-7-s \$0-note-start-7
Start-7_ppq 0 -8 0 10 -262144 -1 -1 0 256;
#X obj 516 199 nbx 5 14 0 127 0 0 \$0-note-length-7-s \$0-note-length-7
Length-7_ppq 0 -8 0 10 -262144 -1 -1 0 256;
#X obj 596 39 tgl 15 0 \$0-note-state-8-s \$0-note-state-8 State-8
0 -8 0 10 -262144 -1 -1 0 1;
#X obj 596 79 nbx 5 14 0 127 0 0 \$0-note-pitch-8-s \$0-note-pitch-8
Pitch-8 0 -8 0 10 -262144 -1 -1 0 256;
#X obj 596 119 nbx 5 14 0 127 0 0 \$0-note-velocity-8-s \$0-note-velocity-8
Velocity-8 0 -8 0 10 -262144 -1 -1 0 256;
#X obj 596 159 nbx 5 14 0 127 0 0 \$0-note-start-8-s \$0-note-start-8
Start-8_ppq 0 -8 0 10 -262144 -1 -1 0 256;
#X obj 596 199 nbx 5 14 0 127 0 0 \$0-note-length-8-s \$0-note-length-8
Length-8_ppq 0 -8 0 10 -262144 -1 -1 0 256;
#X obj 684 78 hradio 15 1 0 7 \$0-octave-s \$0-octave Octave 0 -8 0
10 -262144 -1 -1 3;
#X obj 684 118 hradio 15 1 0 7 \$0-tone-s \$0-tone Tone 0 -8 0 10 -262144
-1 -1 3;
#X obj 684 158 hradio 15 1 0 7 \$0-halftone-s \$0-halftone Half-Tone
0 -8 0 10 -262144 -1 -1 3;
#X obj 687 198 hsl 100 15 0 100 0 0 \$0-cent-s \$0-cent Cent_% -2 -8
0 10 -262144 -1 -1 0 1;
#N canvas 720 88 931 663 generator 0;
#N canvas 230 155 450 667 Note1 0;
#X obj 38 324 change;
#X obj 38 346 sel 1;
#X obj 38 302 >=, f 5;
#X obj 53 370 r \$0-note-pitch-1-s;
#X obj 83 400 r \$0-note-velocity-1-s;
#X obj 38 435 pack f f;
#X obj 65 109 r \$0-note-start-1-s;
#X obj 135 577 outlet;
#X obj 272 192 +, f 5;
#X obj 272 171 t b f;
#N canvas 0 22 164 201 fmod 0;
#X obj 22 82 /;
#X obj 22 104 wrap;
#X obj 22 126 *;
#X obj 67 20 r \$0_ppq-limit;
#X obj 22 22 inlet;
#X obj 22 148 outlet;
#X obj 67 42 t b f f;
#X connect 0 0 1 0;
#X connect 1 0 2 0;
#X connect 2 0 5 0;
#X connect 3 0 6 0;
#X connect 4 0 0 0;
#X connect 6 0 0 0;
#X connect 6 1 0 1;
#X connect 6 2 2 1;
#X restore 272 371 pd fmod;
#X obj 260 459 r \$0-note-pitch-1-s;
#X obj 65 156 t f f;
#X obj 38 13 inlet;
#X obj 92 179 == 0;
#X obj 38 409 f;
#X obj 245 505 pack f 0;
#X obj 245 438 sel 1;
#X obj 245 416 change;
#X obj 245 395 >=, f 5;
#X obj 245 481 f;
#X obj 305 236 == 0;
#X obj 305 258 * 0.5;
#X obj 272 346 +, f 6;
#X obj 245 287 +;
#X obj 92 201 * 0.5;
#X obj 65 228 +, f 5;
#X obj 38 228 +;
#X obj 38 55 spigot, f 9;
#X obj 89 13 r \$0-note-state-1-s;
#X obj 89 35 change;
#X obj 272 126 r \$0-note-length-1-s;
#X obj 272 214 t f f, f 6;
#N canvas 0 22 164 201 fmod 0;
#X obj 22 82 /;
#X obj 22 104 wrap;
#X obj 22 126 *;
#X obj 67 20 r \$0_ppq-limit;
#X obj 22 22 inlet;
#X obj 22 148 outlet;
#X obj 67 42 t b f f;
#X connect 0 0 1 0;
#X connect 1 0 2 0;
#X connect 2 0 5 0;
#X connect 3 0 6 0;
#X connect 4 0 0 0;
#X connect 6 0 0 0;
#X connect 6 1 0 1;
#X connect 6 2 2 1;
#X restore 245 311 pd fmod;
#N canvas 0 22 164 201 fmod 0;
#X obj 22 82 /;
#X obj 22 104 wrap;
#X obj 22 126 *;
#X obj 67 20 r \$0_ppq-limit;
#X obj 22 22 inlet;
#X obj 22 148 outlet;
#X obj 67 42 t b f f;
#X connect 0 0 1 0;
#X connect 1 0 2 0;
#X connect 2 0 5 0;
#X connect 3 0 6 0;
#X connect 4 0 0 0;
#X connect 6 0 0 0;
#X connect 6 1 0 1;
#X connect 6 2 2 1;
#X restore 38 258 pd fmod;
#N canvas 0 22 164 201 fmod 0;
#X obj 22 82 /;
#X obj 22 104 wrap;
#X obj 22 126 *;
#X obj 22 22 inlet;
#X obj 22 148 outlet;
#X obj 67 42 t b f f;
#X obj 67 20 r \$0_ppq-limit;
#X connect 0 0 1 0;
#X connect 1 0 2 0;
#X connect 2 0 4 0;
#X connect 3 0 0 0;
#X connect 5 0 0 0;
#X connect 5 1 0 1;
#X connect 5 2 2 1;
#X connect 6 0 5 0;
#X restore 65 279 pd fmod;
#X connect 0 0 1 0;
#X connect 1 0 15 0;
#X connect 2 0 0 0;
#X connect 3 0 15 1;
#X connect 4 0 5 1;
#X connect 5 0 7 0;
#X connect 6 0 12 0;
#X connect 6 0 8 0;
#X connect 8 0 32 0;
#X connect 9 0 8 0;
#X connect 9 1 8 1;
#X connect 10 0 19 1;
#X connect 11 0 20 1;
#X connect 12 0 26 0;
#X connect 12 1 14 0;
#X connect 13 0 28 0;
#X connect 14 0 25 0;
#X connect 15 0 5 0;
#X connect 16 0 7 0;
#X connect 17 0 20 0;
#X connect 18 0 17 0;
#X connect 19 0 18 0;
#X connect 20 0 16 0;
#X connect 21 0 22 0;
#X connect 22 0 23 1;
#X connect 22 0 24 1;
#X connect 23 0 10 0;
#X connect 24 0 33 0;
#X connect 25 0 26 1;
#X connect 25 0 27 1;
#X connect 26 0 35 0;
#X connect 27 0 34 0;
#X connect 28 0 27 0;
#X connect 28 0 24 0;
#X connect 29 0 30 0;
#X connect 30 0 28 1;
#X connect 31 0 9 0;
#X connect 32 0 23 0;
#X connect 32 1 21 0;
#X connect 33 0 19 0;
#X connect 34 0 2 0;
#X connect 35 0 2 1;
#X restore 23 231 pd Note1;
#X obj 263 289 outlet;
#X obj 263 121 inlet;
#N canvas 230 155 450 667 Note2 0;
#X obj 38 324 change;
#X obj 38 346 sel 1;
#X obj 38 302 >=, f 5;
#X obj 53 370 r \$0-note-pitch-2-s;
#X obj 83 400 r \$0-note-velocity-2-s;
#X obj 38 435 pack f f;
#X obj 65 109 r \$0-note-start-2-s;
#X obj 135 577 outlet;
#X obj 272 192 +, f 5;
#X obj 272 171 t b f;
#N canvas 0 22 164 201 fmod 0;
#X obj 22 82 /;
#X obj 22 104 wrap;
#X obj 22 126 *;
#X obj 67 20 r \$0_ppq-limit;
#X obj 22 22 inlet;
#X obj 22 148 outlet;
#X obj 67 42 t b f f;
#X connect 0 0 1 0;
#X connect 1 0 2 0;
#X connect 2 0 5 0;
#X connect 3 0 6 0;
#X connect 4 0 0 0;
#X connect 6 0 0 0;
#X connect 6 1 0 1;
#X connect 6 2 2 1;
#X restore 272 371 pd fmod;
#X obj 260 459 r \$0-note-pitch-2-s;
#X obj 65 156 t f f;
#X obj 38 13 inlet;
#X obj 92 179 == 0;
#X obj 38 409 f;
#X obj 245 505 pack f 0;
#X obj 245 438 sel 1;
#X obj 245 416 change;
#X obj 245 395 >=, f 5;
#X obj 245 481 f;
#X obj 305 236 == 0;
#X obj 305 258 * 0.5;
#X obj 272 346 +, f 6;
#X obj 245 287 +;
#X obj 92 201 * 0.5;
#X obj 65 228 +, f 5;
#X obj 38 228 +;
#X obj 38 55 spigot, f 9;
#X obj 89 13 r \$0-note-state-2-s;
#X obj 89 35 change;
#X obj 272 126 r \$0-note-length-2-s;
#X obj 272 214 t f f, f 6;
#N canvas 0 22 164 201 fmod 0;
#X obj 22 82 /;
#X obj 22 104 wrap;
#X obj 22 126 *;
#X obj 67 20 r \$0_ppq-limit;
#X obj 22 22 inlet;
#X obj 22 148 outlet;
#X obj 67 42 t b f f;
#X connect 0 0 1 0;
#X connect 1 0 2 0;
#X connect 2 0 5 0;
#X connect 3 0 6 0;
#X connect 4 0 0 0;
#X connect 6 0 0 0;
#X connect 6 1 0 1;
#X connect 6 2 2 1;
#X restore 245 311 pd fmod;
#N canvas 0 22 164 201 fmod 0;
#X obj 22 82 /;
#X obj 22 104 wrap;
#X obj 22 126 *;
#X obj 67 20 r \$0_ppq-limit;
#X obj 22 22 inlet;
#X obj 22 148 outlet;
#X obj 67 42 t b f f;
#X connect 0 0 1 0;
#X connect 1 0 2 0;
#X connect 2 0 5 0;
#X connect 3 0 6 0;
#X connect 4 0 0 0;
#X connect 6 0 0 0;
#X connect 6 1 0 1;
#X connect 6 2 2 1;
#X restore 38 258 pd fmod;
#N canvas 0 22 164 201 fmod 0;
#X obj 22 82 /;
#X obj 22 104 wrap;
#X obj 22 126 *;
#X obj 22 22 inlet;
#X obj 22 148 outlet;
#X obj 67 42 t b f f;
#X obj 67 20 r \$0_ppq-limit;
#X connect 0 0 1 0;
#X connect 1 0 2 0;
#X connect 2 0 4 0;
#X connect 3 0 0 0;
#X connect 5 0 0 0;
#X connect 5 1 0 1;
#X connect 5 2 2 1;
#X connect 6 0 5 0;
#X restore 65 279 pd fmod;
#X connect 0 0 1 0;
#X connect 1 0 15 0;
#X connect 2 0 0 0;
#X connect 3 0 15 1;
#X connect 4 0 5 1;
#X connect 5 0 7 0;
#X connect 6 0 12 0;
#X connect 6 0 8 0;
#X connect 8 0 32 0;
#X connect 9 0 8 0;
#X connect 9 1 8 1;
#X connect 10 0 19 1;
#X connect 11 0 20 1;
#X connect 12 0 26 0;
#X connect 12 1 14 0;
#X connect 13 0 28 0;
#X connect 14 0 25 0;
#X connect 15 0 5 0;
#X connect 16 0 7 0;
#X connect 17 0 20 0;
#X connect 18 0 17 0;
#X connect 19 0 18 0;
#X connect 20 0 16 0;
#X connect 21 0 22 0;
#X connect 22 0 23 1;
#X connect 22 0 24 1;
#X connect 23 0 10 0;
#X connect 24 0 33 0;
#X connect 25 0 26 1;
#X connect 25 0 27 1;
#X connect 26 0 35 0;
#X connect 27 0 34 0;
#X connect 28 0 27 0;
#X connect 28 0 24 0;
#X connect 29 0 30 0;
#X connect 30 0 28 1;
#X connect 31 0 9 0;
#X connect 32 0 23 0;
#X connect 32 1 21 0;
#X connect 33 0 19 0;
#X connect 34 0 2 0;
#X connect 35 0 2 1;
#X restore 83 231 pd Note2;
#N canvas 230 155 450 667 Note3 0;
#X obj 38 324 change;
#X obj 38 346 sel 1;
#X obj 38 302 >=, f 5;
#X obj 53 370 r \$0-note-pitch-3-s;
#X obj 83 400 r \$0-note-velocity-3-s;
#X obj 38 435 pack f f;
#X obj 65 109 r \$0-note-start-3-s;
#X obj 135 577 outlet;
#X obj 272 192 +, f 5;
#X obj 272 171 t b f;
#N canvas 0 22 164 201 fmod 0;
#X obj 22 82 /;
#X obj 22 104 wrap;
#X obj 22 126 *;
#X obj 67 20 r \$0_ppq-limit;
#X obj 22 22 inlet;
#X obj 22 148 outlet;
#X obj 67 42 t b f f;
#X connect 0 0 1 0;
#X connect 1 0 2 0;
#X connect 2 0 5 0;
#X connect 3 0 6 0;
#X connect 4 0 0 0;
#X connect 6 0 0 0;
#X connect 6 1 0 1;
#X connect 6 2 2 1;
#X restore 272 371 pd fmod;
#X obj 260 459 r \$0-note-pitch-3-s;
#X obj 65 156 t f f;
#X obj 38 13 inlet;
#X obj 92 179 == 0;
#X obj 38 409 f;
#X obj 245 505 pack f 0;
#X obj 245 438 sel 1;
#X obj 245 416 change;
#X obj 245 395 >=, f 5;
#X obj 245 481 f;
#X obj 305 236 == 0;
#X obj 305 258 * 0.5;
#X obj 272 346 +, f 6;
#X obj 245 287 +;
#X obj 92 201 * 0.5;
#X obj 65 228 +, f 5;
#X obj 38 228 +;
#X obj 38 55 spigot, f 9;
#X obj 89 13 r \$0-note-state-3-s;
#X obj 89 35 change;
#X obj 272 126 r \$0-note-length-3-s;
#X obj 272 214 t f f, f 6;
#N canvas 0 22 164 201 fmod 0;
#X obj 22 82 /;
#X obj 22 104 wrap;
#X obj 22 126 *;
#X obj 67 20 r \$0_ppq-limit;
#X obj 22 22 inlet;
#X obj 22 148 outlet;
#X obj 67 42 t b f f;
#X connect 0 0 1 0;
#X connect 1 0 2 0;
#X connect 2 0 5 0;
#X connect 3 0 6 0;
#X connect 4 0 0 0;
#X connect 6 0 0 0;
#X connect 6 1 0 1;
#X connect 6 2 2 1;
#X restore 245 311 pd fmod;
#N canvas 0 22 164 201 fmod 0;
#X obj 22 82 /;
#X obj 22 104 wrap;
#X obj 22 126 *;
#X obj 67 20 r \$0_ppq-limit;
#X obj 22 22 inlet;
#X obj 22 148 outlet;
#X obj 67 42 t b f f;
#X connect 0 0 1 0;
#X connect 1 0 2 0;
#X connect 2 0 5 0;
#X connect 3 0 6 0;
#X connect 4 0 0 0;
#X connect 6 0 0 0;
#X connect 6 1 0 1;
#X connect 6 2 2 1;
#X restore 38 258 pd fmod;
#N canvas 0 22 164 201 fmod 0;
#X obj 22 82 /;
#X obj 22 104 wrap;
#X obj 22 126 *;
#X obj 22 22 inlet;
#X obj 22 148 outlet;
#X obj 67 42 t b f f;
#X obj 67 20 r \$0_ppq-limit;
#X connect 0 0 1 0;
#X connect 1 0 2 0;
#X connect 2 0 4 0;
#X connect 3 0 0 0;
#X connect 5 0 0 0;
#X connect 5 1 0 1;
#X connect 5 2 2 1;
#X connect 6 0 5 0;
#X restore 65 279 pd fmod;
#X connect 0 0 1 0;
#X connect 1 0 15 0;
#X connect 2 0 0 0;
#X connect 3 0 15 1;
#X connect 4 0 5 1;
#X connect 5 0 7 0;
#X connect 6 0 12 0;
#X connect 6 0 8 0;
#X connect 8 0 32 0;
#X connect 9 0 8 0;
#X connect 9 1 8 1;
#X connect 10 0 19 1;
#X connect 11 0 20 1;
#X connect 12 0 26 0;
#X connect 12 1 14 0;
#X connect 13 0 28 0;
#X connect 14 0 25 0;
#X connect 15 0 5 0;
#X connect 16 0 7 0;
#X connect 17 0 20 0;
#X connect 18 0 17 0;
#X connect 19 0 18 0;
#X connect 20 0 16 0;
#X connect 21 0 22 0;
#X connect 22 0 23 1;
#X connect 22 0 24 1;
#X connect 23 0 10 0;
#X connect 24 0 33 0;
#X connect 25 0 26 1;
#X connect 25 0 27 1;
#X connect 26 0 35 0;
#X connect 27 0 34 0;
#X connect 28 0 27 0;
#X connect 28 0 24 0;
#X connect 29 0 30 0;
#X connect 30 0 28 1;
#X connect 31 0 9 0;
#X connect 32 0 23 0;
#X connect 32 1 21 0;
#X connect 33 0 19 0;
#X connect 34 0 2 0;
#X connect 35 0 2 1;
#X restore 143 231 pd Note3;
#N canvas 230 155 450 667 Note4 0;
#X obj 38 324 change;
#X obj 38 346 sel 1;
#X obj 38 302 >=, f 5;
#X obj 53 370 r \$0-note-pitch-4-s;
#X obj 83 400 r \$0-note-velocity-4-s;
#X obj 38 435 pack f f;
#X obj 65 109 r \$0-note-start-4-s;
#X obj 135 577 outlet;
#X obj 272 192 +, f 5;
#X obj 272 171 t b f;
#N canvas 0 22 164 201 fmod 0;
#X obj 22 82 /;
#X obj 22 104 wrap;
#X obj 22 126 *;
#X obj 67 20 r \$0_ppq-limit;
#X obj 22 22 inlet;
#X obj 22 148 outlet;
#X obj 67 42 t b f f;
#X connect 0 0 1 0;
#X connect 1 0 2 0;
#X connect 2 0 5 0;
#X connect 3 0 6 0;
#X connect 4 0 0 0;
#X connect 6 0 0 0;
#X connect 6 1 0 1;
#X connect 6 2 2 1;
#X restore 272 371 pd fmod;
#X obj 260 459 r \$0-note-pitch-4-s;
#X obj 65 156 t f f;
#X obj 38 13 inlet;
#X obj 92 179 == 0;
#X obj 38 409 f;
#X obj 245 505 pack f 0;
#X obj 245 438 sel 1;
#X obj 245 416 change;
#X obj 245 395 >=, f 5;
#X obj 245 481 f;
#X obj 305 236 == 0;
#X obj 305 258 * 0.5;
#X obj 272 346 +, f 6;
#X obj 245 287 +;
#X obj 92 201 * 0.5;
#X obj 65 228 +, f 5;
#X obj 38 228 +;
#X obj 38 55 spigot, f 9;
#X obj 89 13 r \$0-note-state-4-s;
#X obj 89 35 change;
#X obj 272 126 r \$0-note-length-4-s;
#X obj 272 214 t f f, f 6;
#N canvas 0 22 164 201 fmod 0;
#X obj 22 82 /;
#X obj 22 104 wrap;
#X obj 22 126 *;
#X obj 67 20 r \$0_ppq-limit;
#X obj 22 22 inlet;
#X obj 22 148 outlet;
#X obj 67 42 t b f f;
#X connect 0 0 1 0;
#X connect 1 0 2 0;
#X connect 2 0 5 0;
#X connect 3 0 6 0;
#X connect 4 0 0 0;
#X connect 6 0 0 0;
#X connect 6 1 0 1;
#X connect 6 2 2 1;
#X restore 245 311 pd fmod;
#N canvas 0 22 164 201 fmod 0;
#X obj 22 82 /;
#X obj 22 104 wrap;
#X obj 22 126 *;
#X obj 67 20 r \$0_ppq-limit;
#X obj 22 22 inlet;
#X obj 22 148 outlet;
#X obj 67 42 t b f f;
#X connect 0 0 1 0;
#X connect 1 0 2 0;
#X connect 2 0 5 0;
#X connect 3 0 6 0;
#X connect 4 0 0 0;
#X connect 6 0 0 0;
#X connect 6 1 0 1;
#X connect 6 2 2 1;
#X restore 38 258 pd fmod;
#N canvas 0 22 164 201 fmod 0;
#X obj 22 82 /;
#X obj 22 104 wrap;
#X obj 22 126 *;
#X obj 22 22 inlet;
#X obj 22 148 outlet;
#X obj 67 42 t b f f;
#X obj 67 20 r \$0_ppq-limit;
#X connect 0 0 1 0;
#X connect 1 0 2 0;
#X connect 2 0 4 0;
#X connect 3 0 0 0;
#X connect 5 0 0 0;
#X connect 5 1 0 1;
#X connect 5 2 2 1;
#X connect 6 0 5 0;
#X restore 65 279 pd fmod;
#X connect 0 0 1 0;
#X connect 1 0 15 0;
#X connect 2 0 0 0;
#X connect 3 0 15 1;
#X connect 4 0 5 1;
#X connect 5 0 7 0;
#X connect 6 0 12 0;
#X connect 6 0 8 0;
#X connect 8 0 32 0;
#X connect 9 0 8 0;
#X connect 9 1 8 1;
#X connect 10 0 19 1;
#X connect 11 0 20 1;
#X connect 12 0 26 0;
#X connect 12 1 14 0;
#X connect 13 0 28 0;
#X connect 14 0 25 0;
#X connect 15 0 5 0;
#X connect 16 0 7 0;
#X connect 17 0 20 0;
#X connect 18 0 17 0;
#X connect 19 0 18 0;
#X connect 20 0 16 0;
#X connect 21 0 22 0;
#X connect 22 0 23 1;
#X connect 22 0 24 1;
#X connect 23 0 10 0;
#X connect 24 0 33 0;
#X connect 25 0 26 1;
#X connect 25 0 27 1;
#X connect 26 0 35 0;
#X connect 27 0 34 0;
#X connect 28 0 27 0;
#X connect 28 0 24 0;
#X connect 29 0 30 0;
#X connect 30 0 28 1;
#X connect 31 0 9 0;
#X connect 32 0 23 0;
#X connect 32 1 21 0;
#X connect 33 0 19 0;
#X connect 34 0 2 0;
#X connect 35 0 2 1;
#X restore 203 231 pd Note4;
#N canvas 230 155 450 667 Note5 0;
#X obj 38 324 change;
#X obj 38 346 sel 1;
#X obj 38 302 >=, f 5;
#X obj 53 370 r \$0-note-pitch-5-s;
#X obj 83 400 r \$0-note-velocity-5-s;
#X obj 38 435 pack f f;
#X obj 65 109 r \$0-note-start-5-s;
#X obj 135 577 outlet;
#X obj 272 192 +, f 5;
#X obj 272 171 t b f;
#N canvas 0 22 164 201 fmod 0;
#X obj 22 82 /;
#X obj 22 104 wrap;
#X obj 22 126 *;
#X obj 67 20 r \$0_ppq-limit;
#X obj 22 22 inlet;
#X obj 22 148 outlet;
#X obj 67 42 t b f f;
#X connect 0 0 1 0;
#X connect 1 0 2 0;
#X connect 2 0 5 0;
#X connect 3 0 6 0;
#X connect 4 0 0 0;
#X connect 6 0 0 0;
#X connect 6 1 0 1;
#X connect 6 2 2 1;
#X restore 272 371 pd fmod;
#X obj 260 459 r \$0-note-pitch-5-s;
#X obj 65 156 t f f;
#X obj 38 13 inlet;
#X obj 92 179 == 0;
#X obj 38 409 f;
#X obj 245 505 pack f 0;
#X obj 245 438 sel 1;
#X obj 245 416 change;
#X obj 245 395 >=, f 5;
#X obj 245 481 f;
#X obj 305 236 == 0;
#X obj 305 258 * 0.5;
#X obj 272 346 +, f 6;
#X obj 245 287 +;
#X obj 92 201 * 0.5;
#X obj 65 228 +, f 5;
#X obj 38 228 +;
#X obj 38 55 spigot, f 9;
#X obj 89 13 r \$0-note-state-5-s;
#X obj 89 35 change;
#X obj 272 126 r \$0-note-length-5-s;
#X obj 272 214 t f f, f 6;
#N canvas 0 22 164 201 fmod 0;
#X obj 22 82 /;
#X obj 22 104 wrap;
#X obj 22 126 *;
#X obj 67 20 r \$0_ppq-limit;
#X obj 22 22 inlet;
#X obj 22 148 outlet;
#X obj 67 42 t b f f;
#X connect 0 0 1 0;
#X connect 1 0 2 0;
#X connect 2 0 5 0;
#X connect 3 0 6 0;
#X connect 4 0 0 0;
#X connect 6 0 0 0;
#X connect 6 1 0 1;
#X connect 6 2 2 1;
#X restore 245 311 pd fmod;
#N canvas 0 22 164 201 fmod 0;
#X obj 22 82 /;
#X obj 22 104 wrap;
#X obj 22 126 *;
#X obj 67 20 r \$0_ppq-limit;
#X obj 22 22 inlet;
#X obj 22 148 outlet;
#X obj 67 42 t b f f;
#X connect 0 0 1 0;
#X connect 1 0 2 0;
#X connect 2 0 5 0;
#X connect 3 0 6 0;
#X connect 4 0 0 0;
#X connect 6 0 0 0;
#X connect 6 1 0 1;
#X connect 6 2 2 1;
#X restore 38 258 pd fmod;
#N canvas 0 22 164 201 fmod 0;
#X obj 22 82 /;
#X obj 22 104 wrap;
#X obj 22 126 *;
#X obj 22 22 inlet;
#X obj 22 148 outlet;
#X obj 67 42 t b f f;
#X obj 67 20 r \$0_ppq-limit;
#X connect 0 0 1 0;
#X connect 1 0 2 0;
#X connect 2 0 4 0;
#X connect 3 0 0 0;
#X connect 5 0 0 0;
#X connect 5 1 0 1;
#X connect 5 2 2 1;
#X connect 6 0 5 0;
#X restore 65 279 pd fmod;
#X connect 0 0 1 0;
#X connect 1 0 15 0;
#X connect 2 0 0 0;
#X connect 3 0 15 1;
#X connect 4 0 5 1;
#X connect 5 0 7 0;
#X connect 6 0 12 0;
#X connect 6 0 8 0;
#X connect 8 0 32 0;
#X connect 9 0 8 0;
#X connect 9 1 8 1;
#X connect 10 0 19 1;
#X connect 11 0 20 1;
#X connect 12 0 26 0;
#X connect 12 1 14 0;
#X connect 13 0 28 0;
#X connect 14 0 25 0;
#X connect 15 0 5 0;
#X connect 16 0 7 0;
#X connect 17 0 20 0;
#X connect 18 0 17 0;
#X connect 19 0 18 0;
#X connect 20 0 16 0;
#X connect 21 0 22 0;
#X connect 22 0 23 1;
#X connect 22 0 24 1;
#X connect 23 0 10 0;
#X connect 24 0 33 0;
#X connect 25 0 26 1;
#X connect 25 0 27 1;
#X connect 26 0 35 0;
#X connect 27 0 34 0;
#X connect 28 0 27 0;
#X connect 28 0 24 0;
#X connect 29 0 30 0;
#X connect 30 0 28 1;
#X connect 31 0 9 0;
#X connect 32 0 23 0;
#X connect 32 1 21 0;
#X connect 33 0 19 0;
#X connect 34 0 2 0;
#X connect 35 0 2 1;
#X restore 263 231 pd Note5;
#N canvas 230 155 450 667 Note6 0;
#X obj 38 324 change;
#X obj 38 346 sel 1;
#X obj 38 302 >=, f 5;
#X obj 53 370 r \$0-note-pitch-6-s;
#X obj 83 400 r \$0-note-velocity-6-s;
#X obj 38 435 pack f f;
#X obj 65 109 r \$0-note-start-6-s;
#X obj 135 577 outlet;
#X obj 272 192 +, f 5;
#X obj 272 171 t b f;
#N canvas 0 22 164 201 fmod 0;
#X obj 22 82 /;
#X obj 22 104 wrap;
#X obj 22 126 *;
#X obj 67 20 r \$0_ppq-limit;
#X obj 22 22 inlet;
#X obj 22 148 outlet;
#X obj 67 42 t b f f;
#X connect 0 0 1 0;
#X connect 1 0 2 0;
#X connect 2 0 5 0;
#X connect 3 0 6 0;
#X connect 4 0 0 0;
#X connect 6 0 0 0;
#X connect 6 1 0 1;
#X connect 6 2 2 1;
#X restore 272 371 pd fmod;
#X obj 260 459 r \$0-note-pitch-6-s;
#X obj 65 156 t f f;
#X obj 38 13 inlet;
#X obj 92 179 == 0;
#X obj 38 409 f;
#X obj 245 505 pack f 0;
#X obj 245 438 sel 1;
#X obj 245 416 change;
#X obj 245 395 >=, f 5;
#X obj 245 481 f;
#X obj 305 236 == 0;
#X obj 305 258 * 0.5;
#X obj 272 346 +, f 6;
#X obj 245 287 +;
#X obj 92 201 * 0.5;
#X obj 65 228 +, f 5;
#X obj 38 228 +;
#X obj 38 55 spigot, f 9;
#X obj 89 13 r \$0-note-state-6-s;
#X obj 89 35 change;
#X obj 272 126 r \$0-note-length-6-s;
#X obj 272 214 t f f, f 6;
#N canvas 0 22 164 201 fmod 0;
#X obj 22 82 /;
#X obj 22 104 wrap;
#X obj 22 126 *;
#X obj 67 20 r \$0_ppq-limit;
#X obj 22 22 inlet;
#X obj 22 148 outlet;
#X obj 67 42 t b f f;
#X connect 0 0 1 0;
#X connect 1 0 2 0;
#X connect 2 0 5 0;
#X connect 3 0 6 0;
#X connect 4 0 0 0;
#X connect 6 0 0 0;
#X connect 6 1 0 1;
#X connect 6 2 2 1;
#X restore 245 311 pd fmod;
#N canvas 0 22 164 201 fmod 0;
#X obj 22 82 /;
#X obj 22 104 wrap;
#X obj 22 126 *;
#X obj 67 20 r \$0_ppq-limit;
#X obj 22 22 inlet;
#X obj 22 148 outlet;
#X obj 67 42 t b f f;
#X connect 0 0 1 0;
#X connect 1 0 2 0;
#X connect 2 0 5 0;
#X connect 3 0 6 0;
#X connect 4 0 0 0;
#X connect 6 0 0 0;
#X connect 6 1 0 1;
#X connect 6 2 2 1;
#X restore 38 258 pd fmod;
#N canvas 0 22 164 201 fmod 0;
#X obj 22 82 /;
#X obj 22 104 wrap;
#X obj 22 126 *;
#X obj 22 22 inlet;
#X obj 22 148 outlet;
#X obj 67 42 t b f f;
#X obj 67 20 r \$0_ppq-limit;
#X connect 0 0 1 0;
#X connect 1 0 2 0;
#X connect 2 0 4 0;
#X connect 3 0 0 0;
#X connect 5 0 0 0;
#X connect 5 1 0 1;
#X connect 5 2 2 1;
#X connect 6 0 5 0;
#X restore 65 279 pd fmod;
#X connect 0 0 1 0;
#X connect 1 0 15 0;
#X connect 2 0 0 0;
#X connect 3 0 15 1;
#X connect 4 0 5 1;
#X connect 5 0 7 0;
#X connect 6 0 12 0;
#X connect 6 0 8 0;
#X connect 8 0 32 0;
#X connect 9 0 8 0;
#X connect 9 1 8 1;
#X connect 10 0 19 1;
#X connect 11 0 20 1;
#X connect 12 0 26 0;
#X connect 12 1 14 0;
#X connect 13 0 28 0;
#X connect 14 0 25 0;
#X connect 15 0 5 0;
#X connect 16 0 7 0;
#X connect 17 0 20 0;
#X connect 18 0 17 0;
#X connect 19 0 18 0;
#X connect 20 0 16 0;
#X connect 21 0 22 0;
#X connect 22 0 23 1;
#X connect 22 0 24 1;
#X connect 23 0 10 0;
#X connect 24 0 33 0;
#X connect 25 0 26 1;
#X connect 25 0 27 1;
#X connect 26 0 35 0;
#X connect 27 0 34 0;
#X connect 28 0 27 0;
#X connect 28 0 24 0;
#X connect 29 0 30 0;
#X connect 30 0 28 1;
#X connect 31 0 9 0;
#X connect 32 0 23 0;
#X connect 32 1 21 0;
#X connect 33 0 19 0;
#X connect 34 0 2 0;
#X connect 35 0 2 1;
#X restore 323 231 pd Note6;
#N canvas 230 155 450 667 Note7 0;
#X obj 38 324 change;
#X obj 38 346 sel 1;
#X obj 38 302 >=, f 5;
#X obj 53 370 r \$0-note-pitch-7-s;
#X obj 83 400 r \$0-note-velocity-7-s;
#X obj 38 435 pack f f;
#X obj 65 109 r \$0-note-start-7-s;
#X obj 135 577 outlet;
#X obj 272 192 +, f 5;
#X obj 272 171 t b f;
#N canvas 0 22 164 201 fmod 0;
#X obj 22 82 /;
#X obj 22 104 wrap;
#X obj 22 126 *;
#X obj 67 20 r \$0_ppq-limit;
#X obj 22 22 inlet;
#X obj 22 148 outlet;
#X obj 67 42 t b f f;
#X connect 0 0 1 0;
#X connect 1 0 2 0;
#X connect 2 0 5 0;
#X connect 3 0 6 0;
#X connect 4 0 0 0;
#X connect 6 0 0 0;
#X connect 6 1 0 1;
#X connect 6 2 2 1;
#X restore 272 371 pd fmod;
#X obj 260 459 r \$0-note-pitch-7-s;
#X obj 65 156 t f f;
#X obj 38 13 inlet;
#X obj 92 179 == 0;
#X obj 38 409 f;
#X obj 245 505 pack f 0;
#X obj 245 438 sel 1;
#X obj 245 416 change;
#X obj 245 395 >=, f 5;
#X obj 245 481 f;
#X obj 305 236 == 0;
#X obj 305 258 * 0.5;
#X obj 272 346 +, f 6;
#X obj 245 287 +;
#X obj 92 201 * 0.5;
#X obj 65 228 +, f 5;
#X obj 38 228 +;
#X obj 38 55 spigot, f 9;
#X obj 89 13 r \$0-note-state-7-s;
#X obj 89 35 change;
#X obj 272 126 r \$0-note-length-7-s;
#X obj 272 214 t f f, f 6;
#N canvas 0 22 164 201 fmod 0;
#X obj 22 82 /;
#X obj 22 104 wrap;
#X obj 22 126 *;
#X obj 67 20 r \$0_ppq-limit;
#X obj 22 22 inlet;
#X obj 22 148 outlet;
#X obj 67 42 t b f f;
#X connect 0 0 1 0;
#X connect 1 0 2 0;
#X connect 2 0 5 0;
#X connect 3 0 6 0;
#X connect 4 0 0 0;
#X connect 6 0 0 0;
#X connect 6 1 0 1;
#X connect 6 2 2 1;
#X restore 245 311 pd fmod;
#N canvas 0 22 164 201 fmod 0;
#X obj 22 82 /;
#X obj 22 104 wrap;
#X obj 22 126 *;
#X obj 67 20 r \$0_ppq-limit;
#X obj 22 22 inlet;
#X obj 22 148 outlet;
#X obj 67 42 t b f f;
#X connect 0 0 1 0;
#X connect 1 0 2 0;
#X connect 2 0 5 0;
#X connect 3 0 6 0;
#X connect 4 0 0 0;
#X connect 6 0 0 0;
#X connect 6 1 0 1;
#X connect 6 2 2 1;
#X restore 38 258 pd fmod;
#N canvas 0 22 164 201 fmod 0;
#X obj 22 82 /;
#X obj 22 104 wrap;
#X obj 22 126 *;
#X obj 22 22 inlet;
#X obj 22 148 outlet;
#X obj 67 42 t b f f;
#X obj 67 20 r \$0_ppq-limit;
#X connect 0 0 1 0;
#X connect 1 0 2 0;
#X connect 2 0 4 0;
#X connect 3 0 0 0;
#X connect 5 0 0 0;
#X connect 5 1 0 1;
#X connect 5 2 2 1;
#X connect 6 0 5 0;
#X restore 65 279 pd fmod;
#X connect 0 0 1 0;
#X connect 1 0 15 0;
#X connect 2 0 0 0;
#X connect 3 0 15 1;
#X connect 4 0 5 1;
#X connect 5 0 7 0;
#X connect 6 0 12 0;
#X connect 6 0 8 0;
#X connect 8 0 32 0;
#X connect 9 0 8 0;
#X connect 9 1 8 1;
#X connect 10 0 19 1;
#X connect 11 0 20 1;
#X connect 12 0 26 0;
#X connect 12 1 14 0;
#X connect 13 0 28 0;
#X connect 14 0 25 0;
#X connect 15 0 5 0;
#X connect 16 0 7 0;
#X connect 17 0 20 0;
#X connect 18 0 17 0;
#X connect 19 0 18 0;
#X connect 20 0 16 0;
#X connect 21 0 22 0;
#X connect 22 0 23 1;
#X connect 22 0 24 1;
#X connect 23 0 10 0;
#X connect 24 0 33 0;
#X connect 25 0 26 1;
#X connect 25 0 27 1;
#X connect 26 0 35 0;
#X connect 27 0 34 0;
#X connect 28 0 27 0;
#X connect 28 0 24 0;
#X connect 29 0 30 0;
#X connect 30 0 28 1;
#X connect 31 0 9 0;
#X connect 32 0 23 0;
#X connect 32 1 21 0;
#X connect 33 0 19 0;
#X connect 34 0 2 0;
#X connect 35 0 2 1;
#X restore 384 231 pd Note7;
#N canvas 230 155 450 667 Note8 0;
#X obj 38 324 change;
#X obj 38 346 sel 1;
#X obj 38 302 >=, f 5;
#X obj 53 370 r \$0-note-pitch-8-s;
#X obj 83 400 r \$0-note-velocity-8-s;
#X obj 38 435 pack f f;
#X obj 65 109 r \$0-note-start-8-s;
#X obj 135 577 outlet;
#X obj 272 192 +, f 5;
#X obj 272 171 t b f;
#N canvas 0 22 164 201 fmod 0;
#X obj 22 82 /;
#X obj 22 104 wrap;
#X obj 22 126 *;
#X obj 67 20 r \$0_ppq-limit;
#X obj 22 22 inlet;
#X obj 22 148 outlet;
#X obj 67 42 t b f f;
#X connect 0 0 1 0;
#X connect 1 0 2 0;
#X connect 2 0 5 0;
#X connect 3 0 6 0;
#X connect 4 0 0 0;
#X connect 6 0 0 0;
#X connect 6 1 0 1;
#X connect 6 2 2 1;
#X restore 272 371 pd fmod;
#X obj 260 459 r \$0-note-pitch-8-s;
#X obj 65 156 t f f;
#X obj 38 13 inlet;
#X obj 92 179 == 0;
#X obj 38 409 f;
#X obj 245 505 pack f 0;
#X obj 245 438 sel 1;
#X obj 245 416 change;
#X obj 245 395 >=, f 5;
#X obj 245 481 f;
#X obj 305 236 == 0;
#X obj 305 258 * 0.5;
#X obj 272 346 +, f 6;
#X obj 245 287 +;
#X obj 92 201 * 0.5;
#X obj 65 228 +, f 5;
#X obj 38 228 +;
#X obj 38 55 spigot, f 9;
#X obj 89 13 r \$0-note-state-8-s;
#X obj 89 35 change;
#X obj 272 126 r \$0-note-length-8-s;
#X obj 272 214 t f f, f 6;
#N canvas 0 22 164 201 fmod 0;
#X obj 22 82 /;
#X obj 22 104 wrap;
#X obj 22 126 *;
#X obj 67 20 r \$0_ppq-limit;
#X obj 22 22 inlet;
#X obj 22 148 outlet;
#X obj 67 42 t b f f;
#X connect 0 0 1 0;
#X connect 1 0 2 0;
#X connect 2 0 5 0;
#X connect 3 0 6 0;
#X connect 4 0 0 0;
#X connect 6 0 0 0;
#X connect 6 1 0 1;
#X connect 6 2 2 1;
#X restore 245 311 pd fmod;
#N canvas 0 22 164 201 fmod 0;
#X obj 22 82 /;
#X obj 22 104 wrap;
#X obj 22 126 *;
#X obj 67 20 r \$0_ppq-limit;
#X obj 22 22 inlet;
#X obj 22 148 outlet;
#X obj 67 42 t b f f;
#X connect 0 0 1 0;
#X connect 1 0 2 0;
#X connect 2 0 5 0;
#X connect 3 0 6 0;
#X connect 4 0 0 0;
#X connect 6 0 0 0;
#X connect 6 1 0 1;
#X connect 6 2 2 1;
#X restore 38 258 pd fmod;
#N canvas 0 22 164 201 fmod 0;
#X obj 22 82 /;
#X obj 22 104 wrap;
#X obj 22 126 *;
#X obj 22 22 inlet;
#X obj 22 148 outlet;
#X obj 67 42 t b f f;
#X obj 67 20 r \$0_ppq-limit;
#X connect 0 0 1 0;
#X connect 1 0 2 0;
#X connect 2 0 4 0;
#X connect 3 0 0 0;
#X connect 5 0 0 0;
#X connect 5 1 0 1;
#X connect 5 2 2 1;
#X connect 6 0 5 0;
#X restore 65 279 pd fmod;
#X connect 0 0 1 0;
#X connect 1 0 15 0;
#X connect 2 0 0 0;
#X connect 3 0 15 1;
#X connect 4 0 5 1;
#X connect 5 0 7 0;
#X connect 6 0 12 0;
#X connect 6 0 8 0;
#X connect 8 0 32 0;
#X connect 9 0 8 0;
#X connect 9 1 8 1;
#X connect 10 0 19 1;
#X connect 11 0 20 1;
#X connect 12 0 26 0;
#X connect 12 1 14 0;
#X connect 13 0 28 0;
#X connect 14 0 25 0;
#X connect 15 0 5 0;
#X connect 16 0 7 0;
#X connect 17 0 20 0;
#X connect 18 0 17 0;
#X connect 19 0 18 0;
#X connect 20 0 16 0;
#X connect 21 0 22 0;
#X connect 22 0 23 1;
#X connect 22 0 24 1;
#X connect 23 0 10 0;
#X connect 24 0 33 0;
#X connect 25 0 26 1;
#X connect 25 0 27 1;
#X connect 26 0 35 0;
#X connect 27 0 34 0;
#X connect 28 0 27 0;
#X connect 28 0 24 0;
#X connect 29 0 30 0;
#X connect 30 0 28 1;
#X connect 31 0 9 0;
#X connect 32 0 23 0;
#X connect 32 1 21 0;
#X connect 33 0 19 0;
#X connect 34 0 2 0;
#X connect 35 0 2 1;
#X restore 444 231 pd Note8;
#X connect 0 0 1 0;
#X connect 2 0 0 0;
#X connect 2 0 3 0;
#X connect 2 0 4 0;
#X connect 2 0 5 0;
#X connect 2 0 6 0;
#X connect 2 0 7 0;
#X connect 2 0 8 0;
#X connect 2 0 9 0;
#X connect 3 0 1 0;
#X connect 4 0 1 0;
#X connect 5 0 1 0;
#X connect 6 0 1 0;
#X connect 7 0 1 0;
#X connect 8 0 1 0;
#X connect 9 0 1 0;
#X restore 203 343 pd generator;
#N canvas 483 58 718 392 pitcher 0;
#X obj 142 34 inlet;
#X obj 142 56 unpack;
#X obj 142 278 +;
#X obj 208 99 * 12;
#X obj 208 171 +, f 4;
#X obj 249 146 t b f;
#X obj 208 79 - 3;
#X obj 249 99 - 3;
#X obj 249 121 * 2;
#X obj 208 201 +, f 4;
#X obj 319 146 t b f;
#X obj 319 99 - 3;
#X obj 142 310 outlet;
#X obj 172 340 outlet;
#X obj 409 146 t b f;
#X obj 409 99 / 100;
#X obj 208 233 +, f 4;
#X obj 208 57 r \$0-octave-s;
#X obj 249 77 r \$0-tone-s;
#X obj 319 77 r \$0-halftone-s;
#X obj 409 77 r \$0-halftone-s;
#X connect 0 0 1 0;
#X connect 1 0 2 0;
#X connect 1 1 13 0;
#X connect 2 0 12 0;
#X connect 3 0 4 0;
#X connect 4 0 9 0;
#X connect 5 0 4 0;
#X connect 5 1 4 1;
#X connect 6 0 3 0;
#X connect 7 0 8 0;
#X connect 8 0 5 0;
#X connect 9 0 16 0;
#X connect 10 0 9 0;
#X connect 10 1 9 1;
#X connect 11 0 10 0;
#X connect 14 0 16 0;
#X connect 14 1 16 1;
#X connect 15 0 14 0;
#X connect 16 0 2 1;
#X connect 17 0 6 0;
#X connect 18 0 7 0;
#X connect 19 0 11 0;
#X connect 20 0 15 0;
#X restore 203 365 pd pitcher;
#N canvas 118 400 450 300 playhead 0;
#X obj 23 22 r \$0-playhead;
#X obj 23 44 route measure;
#X obj 146 125 -, f 5;
#X obj 23 66 unpack f f f f f, f 28;
#X obj 200 129 / 4;
#X obj 200 151 % 2;
#X obj 173 95 t f f;
#X obj 200 172 == 0;
#X obj 105 139 / 4;
#X obj 64 189 *, f 5;
#X obj 64 271 s \$0_ppq-limit;
#X obj 105 161 t b f, f 6;
#X obj 146 248 outlet;
#X obj 105 103 change;
#X obj 64 123 change;
#X connect 0 0 1 0;
#X connect 1 0 3 0;
#X connect 2 0 12 0;
#X connect 3 1 14 0;
#X connect 3 2 13 0;
#X connect 3 3 2 0;
#X connect 3 4 6 0;
#X connect 4 0 5 0;
#X connect 5 0 7 0;
#X connect 6 0 2 1;
#X connect 6 1 4 0;
#X connect 8 0 11 0;
#X connect 9 0 10 0;
#X connect 11 0 9 0;
#X connect 11 1 9 1;
#X connect 13 0 8 0;
#X connect 14 0 9 0;
#X restore 203 320 pd playhead;
#X connect 46 0 47 0;
#X connect 47 0 0 0;
#X connect 47 1 0 1;
#X connect 48 0 46 0;
#X coords 0 -1 1 1 800 220 2 10 10;
