#N canvas 574 38 832 581 10;
#X obj 413 253 dac~;
#X obj 413 16 notein;
#X obj 413 161 phasor~;
#X obj 413 122 mtof;
#X obj 413 203 *~;
#X obj 463 160 line~;
#X obj 463 107 / 127;
#X msg 463 129 \$1 20;
#X obj 452 228 lop~ 2000;
#X connect 1 0 3 0;
#X connect 1 1 6 0;
#X connect 2 0 4 0;
#X connect 3 0 2 0;
#X connect 4 0 8 0;
#X connect 5 0 4 1;
#X connect 6 0 7 0;
#X connect 7 0 5 0;
#X connect 8 0 0 0;
#X connect 8 0 0 1;
#X coords 0 -1 1 1 300 80 2 10 10;
