#N canvas 735 173 454 430 10;
#X obj 59 67 hsl 128 15 0 22050 0 0 \$0-rate-s \$0-rate Rate_Hz -3
-6 0 10 -262144 -1 -1 3 1;
#X obj 195 67 nbx 5 15 0 22050 0 0 empty \$0-rate empty 0 -8 0 10 -262144
-1 -1 5 256;
#X obj 63 173 adc~ 1 2, f 11;
#X obj 63 385 dac~ 1 2, f 11;
#X obj 147 227 osc~;
#X obj 63 357 *~, f 4;
#X obj 126 357 *~, f 4;
#X text 147 179 Rate;
#X obj 59 97 hsl 128 15 0 100 0 0 \$0-depth-s \$0-depth Depth_% -3
-6 0 10 -262144 -1 -1 12700 1;
#X obj 195 97 nbx 5 15 0 100 0 0 empty \$0-depth empty 0 -8 0 10 -262144
-1 -1 100 256;
#X obj 216 225 / 100;
#X obj 216 247 \$1 20;
#X obj 216 269 line~;
#X obj 147 298 *~, f 12;
#X obj 216 175 clip 0 100;
#X text 92 33 Amplitude Modulation;
#X obj 147 249 -~ 1;
#X obj 147 271 *~ 0.5;
#X obj 147 320 +~ 1;
#X text 215 134 Depth;
#X text 60 152 Input 1 & 2;
#X text 59 405 Output 1 & 2;
#N canvas 0 22 450 300 (subpatch) 0;
#X obj 14 18 inlet;
#X msg 14 40 set \$1;
#X obj 14 62 outlet;
#X connect 0 0 1 0;
#X connect 1 0 2 0;
#X restore 32 50 pd;
#N canvas 0 22 450 300 (subpatch) 0;
#X obj 14 18 inlet;
#X msg 14 40 set \$1;
#X obj 14 62 outlet;
#X connect 0 0 1 0;
#X connect 1 0 2 0;
#X restore 32 80 pd;
#X obj 147 198 r \$0-rate-s;
#X obj 216 153 r \$0-depth-s;
#N canvas 0 22 450 300 init 0;
#X obj 174 75 loadbang;
#X msg 174 97 100;
#X obj 174 119 s \$0-depth;
#X obj 244 119 s \$0-rate;
#X msg 244 97 5;
#X connect 0 0 1 0;
#X connect 0 0 4 0;
#X connect 1 0 2 0;
#X connect 4 0 3 0;
#X restore 197 363 pd init;
#X obj 290 33 text define -k \$0-parameters;
#A set;
#X connect 0 0 22 0;
#X connect 1 0 0 0;
#X connect 2 0 5 0;
#X connect 2 1 6 0;
#X connect 4 0 16 0;
#X connect 5 0 3 0;
#X connect 6 0 3 1;
#X connect 8 0 23 0;
#X connect 9 0 8 0;
#X connect 10 0 11 0;
#X connect 11 0 12 0;
#X connect 12 0 13 1;
#X connect 13 0 18 0;
#X connect 14 0 10 0;
#X connect 16 0 17 0;
#X connect 17 0 13 0;
#X connect 18 0 6 1;
#X connect 18 0 5 1;
#X connect 22 0 1 0;
#X connect 23 0 9 0;
#X connect 24 0 4 0;
#X connect 25 0 14 0;
#X coords 0 -1 1 1 206 90 2 50 30;
