#N canvas 679 189 450 300 10;
#X obj 84 193 netsend;
#X obj 84 221 print netsend1;
#X obj 123 251 print netsend2;
#X msg 216 129 connect localhost 2000;
#X obj 99 54 nbx 5 14 0 100 0 0 empty \$0-send Send 56 8 0 10 -262144
-1 -1 100 256;
#X obj 23 53 tgl 15 0 empty \$0-connect Connect 17 7 0 10 -262144 -1
-1 0 1;
#X obj 170 97 sel 0 1;
#X msg 170 158 disconnect;
#X msg 84 167 send \$1;
#X text 24 12 Open camo.receive in PD., f 25;
#X text 24 25 Click on connect., f 25;
#X text 24 37 Draw the numbox., f 25;
#X connect 0 0 1 0;
#X connect 0 1 2 0;
#X connect 3 0 0 0;
#X connect 4 0 8 0;
#X connect 5 0 6 0;
#X connect 6 0 7 0;
#X connect 6 1 3 0;
#X connect 7 0 0 0;
#X connect 8 0 0 0;
#X coords 0 -1 1 1 180 60 1 10 10;
