#N canvas 582 81 862 723 10;
#X obj 531 124 notein, f 18;
#X obj 531 221 pack 0 0 0;
#X obj 531 243 route 1 2 3 4 5 6;
#N canvas 0 22 450 300 onesyn 0;
#X obj 186 149 osc~;
#X obj 186 126 mtof;
#X obj 186 101 unpack, f 8;
#X obj 186 171 *~, f 8;
#X obj 186 70 inlet;
#X obj 186 195 outlet~;
#X obj 231 147 line~;
#X msg 231 124 \$1 20;
#X connect 0 0 3 0;
#X connect 1 0 0 0;
#X connect 2 0 1 0;
#X connect 2 1 7 0;
#X connect 3 0 5 0;
#X connect 4 0 2 0;
#X connect 6 0 3 1;
#X connect 7 0 6 0;
#X restore 531 263 pd onesyn;
#N canvas 0 22 450 300 onesyn 0;
#X obj 186 149 osc~;
#X obj 186 126 mtof;
#X obj 186 101 unpack, f 8;
#X obj 186 171 *~, f 8;
#X obj 186 70 inlet;
#X obj 186 195 outlet~;
#X obj 231 147 line~;
#X msg 231 124 \$1 20;
#X connect 0 0 3 0;
#X connect 1 0 0 0;
#X connect 2 0 1 0;
#X connect 2 1 7 0;
#X connect 3 0 5 0;
#X connect 4 0 2 0;
#X connect 6 0 3 1;
#X connect 7 0 6 0;
#X restore 547 283 pd onesyn;
#N canvas 0 22 450 300 onesyn 0;
#X obj 186 149 osc~;
#X obj 186 126 mtof;
#X obj 186 101 unpack, f 8;
#X obj 186 171 *~, f 8;
#X obj 186 70 inlet;
#X obj 186 195 outlet~;
#X obj 231 147 line~;
#X msg 231 124 \$1 20;
#X connect 0 0 3 0;
#X connect 1 0 0 0;
#X connect 2 0 1 0;
#X connect 2 1 7 0;
#X connect 3 0 5 0;
#X connect 4 0 2 0;
#X connect 6 0 3 1;
#X connect 7 0 6 0;
#X restore 564 303 pd onesyn;
#N canvas 0 22 450 300 onesyn 0;
#X obj 186 149 osc~;
#X obj 186 126 mtof;
#X obj 186 101 unpack, f 8;
#X obj 186 171 *~, f 8;
#X obj 186 70 inlet;
#X obj 186 195 outlet~;
#X obj 231 147 line~;
#X msg 231 124 \$1 20;
#X connect 0 0 3 0;
#X connect 1 0 0 0;
#X connect 2 0 1 0;
#X connect 2 1 7 0;
#X connect 3 0 5 0;
#X connect 4 0 2 0;
#X connect 6 0 3 1;
#X connect 7 0 6 0;
#X restore 580 323 pd onesyn;
#N canvas 0 22 450 300 onesyn 0;
#X obj 186 149 osc~;
#X obj 186 126 mtof;
#X obj 186 101 unpack, f 8;
#X obj 186 171 *~, f 8;
#X obj 186 70 inlet;
#X obj 186 195 outlet~;
#X obj 231 147 line~;
#X msg 231 124 \$1 20;
#X connect 0 0 3 0;
#X connect 1 0 0 0;
#X connect 2 0 1 0;
#X connect 2 1 7 0;
#X connect 3 0 5 0;
#X connect 4 0 2 0;
#X connect 6 0 3 1;
#X connect 7 0 6 0;
#X restore 597 343 pd onesyn;
#N canvas 0 22 450 300 onesyn 0;
#X obj 186 149 osc~;
#X obj 186 126 mtof;
#X obj 186 101 unpack, f 8;
#X obj 186 171 *~, f 8;
#X obj 186 70 inlet;
#X obj 186 195 outlet~;
#X obj 231 147 line~;
#X msg 231 124 \$1 20;
#X connect 0 0 3 0;
#X connect 1 0 0 0;
#X connect 2 0 1 0;
#X connect 2 1 7 0;
#X connect 3 0 5 0;
#X connect 4 0 2 0;
#X connect 6 0 3 1;
#X connect 7 0 6 0;
#X restore 613 363 pd onesyn;
#X obj 531 418 *~ 0.15;
#X obj 531 440 dac~ 1 2;
#X obj 531 165 poly 6 1;
#X obj 582 194 / 200;
#X connect 0 0 11 0;
#X connect 0 1 11 1;
#X connect 1 0 2 0;
#X connect 2 0 3 0;
#X connect 2 1 4 0;
#X connect 2 2 5 0;
#X connect 2 3 6 0;
#X connect 2 4 7 0;
#X connect 2 5 8 0;
#X connect 3 0 9 0;
#X connect 4 0 9 0;
#X connect 5 0 9 0;
#X connect 6 0 9 0;
#X connect 7 0 9 0;
#X connect 8 0 9 0;
#X connect 9 0 10 0;
#X connect 9 0 10 1;
#X connect 11 0 1 0;
#X connect 11 1 1 1;
#X connect 11 2 12 0;
#X connect 12 0 1 2;
#X coords 0 -1 1 1 300 80 2 10 10;
