#N canvas 62 211 1221 559 10;
#X obj 768 222 notein, f 8;
#X obj 834 222 ctlin;
#X obj 894 222 bendin;
#X obj 834 274 / 127;
#X obj 894 274 / 8192;
#X obj 894 296 s \$0-bend;
#X obj 834 296 s \$0-ctl;
#X obj 768 274 pack;
#X obj 768 296 s \$0-note;
#N canvas 773 23 502 804 oscillator-1 0;
#X obj 11 531 mtof~;
#X obj 11 220 +, f 4;
#X obj 26 147 - 3;
#X obj 26 168 * 12;
#X obj 11 32 unpack;
#X obj 11 287 line~;
#X obj 11 441 +~;
#X obj 26 369 *;
#X obj 26 391 pack f 30;
#X obj 26 413 line~;
#X obj 11 104 +, f 4;
#X obj 11 800 *~;
#X obj 26 777 line~;
#X obj 11 265 pack;
#X obj 26 317 r \$0-bend;
#X obj 11 557 phasor~;
#X obj 11 579 *~ 2045;
#X obj 11 601 +~ 1;
#X obj 26 755 pack f 20;
#X obj 41 341 r \$0-bendsize;
#X obj 11 10 r \$0-note;
#X msg 77 603 set \$1;
#X text 84 11 Receive the MIDI note;
#X obj 26 462 inlet~;
#X obj 11 823 outlet~;
#X obj 11 628 tabread4~;
#X obj 26 53 r \$0-tune-s;
#X obj 26 126 r \$0-osc-range-1-s;
#X obj 77 558 r \$0-osc-wf-1-s;
#X obj 77 581 makefilename wf-\$0-%d;
#X obj 26 734 *, f 5;
#X obj 86 698 t b f;
#X obj 11 505 +~;
#X obj 32 242 r \$0-glide-s;
#X obj 26 652 r \$0-osc-volume-1-s;
#X obj 86 672 r \$0-osc-on-1-s;
#X obj 26 674 * 10;
#X obj 26 696 dbtorms;
#X obj 26 190 t b f;
#X obj 26 75 t b f;
#X connect 0 0 15 0;
#X connect 1 0 13 0;
#X connect 2 0 3 0;
#X connect 3 0 38 0;
#X connect 4 0 10 0;
#X connect 5 0 6 0;
#X connect 6 0 32 0;
#X connect 7 0 8 0;
#X connect 8 0 9 0;
#X connect 9 0 6 1;
#X connect 10 0 1 0;
#X connect 11 0 24 0;
#X connect 12 0 11 1;
#X connect 13 0 5 0;
#X connect 14 0 7 0;
#X connect 15 0 16 0;
#X connect 16 0 17 0;
#X connect 17 0 25 0;
#X connect 18 0 12 0;
#X connect 19 0 7 1;
#X connect 20 0 4 0;
#X connect 21 0 25 0;
#X connect 23 0 32 1;
#X connect 25 0 11 0;
#X connect 26 0 39 0;
#X connect 27 0 2 0;
#X connect 28 0 29 0;
#X connect 29 0 21 0;
#X connect 30 0 18 0;
#X connect 31 0 30 0;
#X connect 31 1 30 1;
#X connect 32 0 0 0;
#X connect 33 0 13 1;
#X connect 34 0 36 0;
#X connect 35 0 31 0;
#X connect 36 0 37 0;
#X connect 37 0 30 0;
#X connect 38 0 1 0;
#X connect 38 1 1 1;
#X connect 39 0 10 0;
#X connect 39 1 10 1;
#X restore 967 234 pd oscillator-1;
#N canvas 453 23 502 804 oscillator-2 0;
#X obj 11 631 mtof~;
#X obj 11 220 +, f 5;
#X obj 26 147 - 3;
#X obj 26 168 * 12;
#X obj 11 32 unpack;
#X obj 11 387 line~;
#X obj 11 541 +~;
#X obj 26 469 *;
#X obj 26 491 pack f 30;
#X obj 26 513 line~;
#X obj 11 104 +, f 4;
#X obj 11 930 *~;
#X obj 26 907 line~;
#X obj 26 53 r \$0-tune;
#X obj 11 365 pack;
#X obj 26 417 r \$0-bend;
#X obj 11 657 phasor~;
#X obj 11 679 *~ 2045;
#X obj 11 701 +~ 1;
#X obj 41 441 r \$0-bendsize;
#X obj 11 10 r \$0-note;
#X obj 26 562 inlet~;
#X obj 11 605 +~;
#X obj 11 953 outlet~;
#X msg 77 703 set \$1;
#X obj 11 728 tabread4~;
#X obj 26 126 r \$0-osc-range-2-s;
#X obj 77 658 r \$0-osc-wf-2-s;
#X obj 11 322 +, f 4;
#X obj 26 264 int;
#X obj 77 681 makefilename wf-\$0-%d;
#X obj 26 885 pack f 20;
#X obj 26 864 *, f 5;
#X obj 56 838 t b f;
#X obj 32 342 r \$0-glide-s;
#X obj 26 752 r \$0-osc-volume-2-s;
#X obj 56 772 r \$0-osc-on-2-s;
#X obj 26 774 * 10;
#X obj 26 796 dbtorms;
#X obj 26 75 t b f;
#X obj 26 190 t b f;
#X obj 26 242 r \$0-osc-frequency-2-s;
#X obj 26 286 t b f;
#X connect 0 0 16 0;
#X connect 1 0 28 0;
#X connect 2 0 3 0;
#X connect 3 0 40 0;
#X connect 4 0 10 0;
#X connect 5 0 6 0;
#X connect 6 0 22 0;
#X connect 7 0 8 0;
#X connect 8 0 9 0;
#X connect 9 0 6 1;
#X connect 10 0 1 0;
#X connect 11 0 23 0;
#X connect 12 0 11 1;
#X connect 13 0 39 0;
#X connect 14 0 5 0;
#X connect 15 0 7 0;
#X connect 16 0 17 0;
#X connect 17 0 18 0;
#X connect 18 0 25 0;
#X connect 19 0 7 1;
#X connect 20 0 4 0;
#X connect 21 0 22 1;
#X connect 22 0 0 0;
#X connect 24 0 25 0;
#X connect 25 0 11 0;
#X connect 26 0 2 0;
#X connect 27 0 30 0;
#X connect 28 0 14 0;
#X connect 29 0 42 0;
#X connect 30 0 24 0;
#X connect 31 0 12 0;
#X connect 32 0 31 0;
#X connect 33 0 32 0;
#X connect 33 1 32 1;
#X connect 34 0 14 1;
#X connect 35 0 37 0;
#X connect 36 0 33 0;
#X connect 37 0 38 0;
#X connect 38 0 32 0;
#X connect 39 0 10 0;
#X connect 39 1 10 1;
#X connect 40 0 1 0;
#X connect 40 1 1 1;
#X connect 41 0 29 0;
#X connect 42 0 28 0;
#X connect 42 1 28 1;
#X restore 977 255 pd oscillator-2;
#N canvas 292 23 502 804 oscillator-3 0;
#X obj 11 801 mtof~;
#X obj 11 300 +, f 5;
#X obj 26 227 - 3;
#X obj 26 248 * 12;
#X obj 11 32 unpack;
#X obj 11 557 line~;
#X obj 11 711 +~;
#X obj 26 639 *;
#X obj 26 661 pack f 30;
#X obj 26 683 line~;
#X obj 11 184 +, f 5;
#X obj 11 1080 *~;
#X obj 26 1057 line~;
#X obj 26 133 r \$0-tune;
#X obj 11 535 pack;
#X obj 26 587 r \$0-bend;
#X obj 11 827 phasor~;
#X obj 11 849 *~ 2045;
#X obj 11 871 +~ 1;
#X obj 41 611 r \$0-bendsize;
#X obj 11 10 r \$0-note;
#X obj 11 775 +~;
#X obj 11 1103 outlet~;
#X msg 77 873 set \$1;
#X obj 11 898 tabread4~;
#X obj 26 206 r \$0-osc-range-3-s;
#X obj 77 778 r \$0-osc-wf-3-s;
#X obj 11 492 +, f 4;
#X obj 26 344 int;
#X obj 77 851 makefilename wf-\$0-%d;
#X obj 77 800 sel 1;
#X obj 77 822 f 6;
#X obj 26 1035 pack f 20;
#X obj 26 1014 *, f 5;
#X obj 86 988 t b f;
#X obj 26 449 * 1, f 5;
#X obj 53 388 f 1;
#X obj 81 388 f 6;
#X obj 53 410 t b f;
#X obj 26 155 t b f;
#X obj 26 270 t b f;
#X obj 26 471 t b f;
#X obj 32 512 r \$0-glide-s;
#X obj 26 944 * 10;
#X obj 26 922 r \$0-osc-volume-3-s;
#X obj 86 962 r \$0-osc-on-3-s;
#X obj 26 966 dbtorms;
#X obj 26 322 r \$0-osc-frequency-3-s;
#X obj 53 344 r \$0-osc-ctrl-3-s;
#X obj 62 32 r \$0-osc-ctrl-3-s;
#X obj 11 100 spigot, f 9;
#X obj 53 366 sel 1 0, f 10;
#X obj 62 54 t f f;
#X obj 92 92 sel 0;
#X obj 92 114 f 1;
#X obj 150 923 s~ \$0-osc-3-sig;
#X obj 26 742 inlet~;
#X connect 0 0 16 0;
#X connect 1 0 27 0;
#X connect 2 0 3 0;
#X connect 3 0 40 0;
#X connect 4 0 50 0;
#X connect 5 0 6 0;
#X connect 6 0 21 0;
#X connect 7 0 8 0;
#X connect 8 0 9 0;
#X connect 9 0 6 1;
#X connect 10 0 1 0;
#X connect 11 0 22 0;
#X connect 12 0 11 1;
#X connect 13 0 39 0;
#X connect 14 0 5 0;
#X connect 15 0 7 0;
#X connect 16 0 17 0;
#X connect 17 0 18 0;
#X connect 18 0 24 0;
#X connect 19 0 7 1;
#X connect 20 0 4 0;
#X connect 21 0 0 0;
#X connect 23 0 24 0;
#X connect 24 0 11 0;
#X connect 24 0 55 0;
#X connect 25 0 2 0;
#X connect 26 0 30 0;
#X connect 27 0 14 0;
#X connect 28 0 35 0;
#X connect 29 0 23 0;
#X connect 30 0 31 0;
#X connect 30 1 29 0;
#X connect 31 0 29 0;
#X connect 32 0 12 0;
#X connect 33 0 32 0;
#X connect 34 0 33 0;
#X connect 34 1 33 1;
#X connect 35 0 41 0;
#X connect 36 0 38 0;
#X connect 37 0 38 0;
#X connect 38 0 35 0;
#X connect 38 1 35 1;
#X connect 39 0 10 0;
#X connect 39 1 10 1;
#X connect 40 0 1 0;
#X connect 40 1 1 1;
#X connect 41 0 27 0;
#X connect 41 1 27 1;
#X connect 42 0 14 1;
#X connect 43 0 46 0;
#X connect 44 0 43 0;
#X connect 45 0 34 0;
#X connect 46 0 33 0;
#X connect 47 0 28 0;
#X connect 48 0 51 0;
#X connect 49 0 52 0;
#X connect 50 0 10 0;
#X connect 51 0 36 0;
#X connect 51 1 37 0;
#X connect 52 0 53 0;
#X connect 52 1 50 1;
#X connect 53 0 54 0;
#X connect 54 0 10 0;
#X connect 56 0 21 1;
#X restore 987 275 pd oscillator-3;
#X obj 768 249 poly 1 1;
#N canvas 427 58 494 387 wf 0;
#N canvas 494 152 450 300 counter 0;
#X obj 36 91 until;
#X obj 36 113 f;
#X obj 68 114 + 1;
#X obj 36 69 f 2048;
#X obj 81 69 f 0;
#X obj 36 24 inlet;
#X obj 36 46 t b b, f 8;
#X obj 36 135 outlet;
#X connect 0 0 1 0;
#X connect 1 0 2 0;
#X connect 1 0 7 0;
#X connect 2 0 1 1;
#X connect 3 0 0 0;
#X connect 4 0 1 1;
#X connect 5 0 6 0;
#X connect 6 0 3 0;
#X connect 6 1 4 0;
#X restore 23 53 pd counter;
#X obj 23 11 loadbang;
#N canvas 1047 260 450 300 gen-tri 0;
#X obj 51 10 inlet;
#X obj 51 32 t f f, f 9;
#X obj 51 215 pack, f 9;
#X obj 51 237 outlet;
#X obj 51 54 moses 1024;
#X obj 51 172 / 511.5;
#X obj 51 194 - 1;
#X obj 108 100 t b f;
#X obj 108 144 -, f 5;
#X obj 108 122 f 1023;
#X obj 108 78 - 1024;
#X connect 0 0 1 0;
#X connect 1 0 4 0;
#X connect 1 1 2 1;
#X connect 2 0 3 0;
#X connect 4 0 5 0;
#X connect 4 1 10 0;
#X connect 5 0 6 0;
#X connect 6 0 2 0;
#X connect 7 0 9 0;
#X connect 7 1 8 1;
#X connect 8 0 5 0;
#X connect 9 0 8 0;
#X connect 10 0 7 0;
#X restore 83 74 pd gen-tri;
#X obj 23 33 bng 15 250 50 0 empty empty empty 17 7 0 10 -262144 -1
-1;
#N canvas 1047 260 450 300 gen-saw-tri 0;
#X obj 51 10 inlet;
#X obj 51 32 t f f, f 9;
#X obj 51 215 pack, f 9;
#X obj 51 237 outlet;
#X obj 51 54 moses 1024;
#X obj 51 172 / 511.5;
#X obj 51 194 - 1;
#X obj 108 100 t b f;
#X obj 108 144 -, f 5;
#X obj 108 122 f 1023;
#X obj 108 78 - 1024;
#X obj 108 166 / 1023;
#X obj 108 188 - 1;
#X connect 0 0 1 0;
#X connect 1 0 4 0;
#X connect 1 1 2 1;
#X connect 2 0 3 0;
#X connect 4 0 5 0;
#X connect 4 1 10 0;
#X connect 5 0 6 0;
#X connect 6 0 2 0;
#X connect 7 0 9 0;
#X connect 7 1 8 1;
#X connect 8 0 11 0;
#X connect 9 0 8 0;
#X connect 10 0 7 0;
#X connect 11 0 12 0;
#X connect 12 0 2 0;
#X restore 73 116 pd gen-saw-tri;
#X text 358 10 Triangular;
#X text 358 30 Sawtooth Triangular;
#X text 358 50 Sawtooth;
#N canvas 946 390 450 300 gen-saw 0;
#X obj 51 10 inlet;
#X obj 51 32 t f f, f 9;
#X obj 51 215 pack, f 9;
#X obj 51 237 outlet;
#X obj 51 194 - 1;
#X obj 51 162 / 1024;
#X connect 0 0 1 0;
#X connect 1 0 5 0;
#X connect 1 1 2 1;
#X connect 2 0 3 0;
#X connect 4 0 2 0;
#X connect 5 0 4 0;
#X restore 63 157 pd gen-saw;
#X text 358 69 Square;
#N canvas 687 263 450 300 gen-sqr 0;
#X obj 51 10 inlet;
#X obj 51 32 t f f, f 9;
#X obj 51 215 pack, f 9;
#X obj 51 237 outlet;
#X obj 51 54 moses 1024;
#X msg 51 76 1;
#X msg 108 76 -1;
#X connect 0 0 1 0;
#X connect 1 0 4 0;
#X connect 1 1 2 1;
#X connect 2 0 3 0;
#X connect 4 0 5 0;
#X connect 4 1 6 0;
#X connect 5 0 2 0;
#X connect 6 0 2 0;
#X restore 53 198 pd gen-sqr;
#X text 358 89 Wide Rectangular;
#X text 358 109 Narrow Rectangular;
#N canvas 687 263 450 300 gen-wrect 0;
#X obj 51 10 inlet;
#X obj 51 32 t f f, f 9;
#X obj 51 215 pack, f 9;
#X obj 51 237 outlet;
#X msg 51 76 1;
#X msg 108 76 -1;
#X obj 51 54 moses 1536;
#X connect 0 0 1 0;
#X connect 1 0 6 0;
#X connect 1 1 2 1;
#X connect 2 0 3 0;
#X connect 4 0 2 0;
#X connect 5 0 2 0;
#X connect 6 0 4 0;
#X connect 6 1 5 0;
#X restore 43 239 pd gen-wrect;
#N canvas 687 263 450 300 gen-nrect 0;
#X obj 51 10 inlet;
#X obj 51 32 t f f, f 9;
#X obj 51 215 pack, f 9;
#X obj 51 237 outlet;
#X msg 51 76 1;
#X msg 108 76 -1;
#X obj 51 54 moses 512;
#X connect 0 0 1 0;
#X connect 1 0 6 0;
#X connect 1 1 2 1;
#X connect 2 0 3 0;
#X connect 4 0 2 0;
#X connect 5 0 2 0;
#X connect 6 0 4 0;
#X connect 6 1 5 0;
#X restore 33 280 pd gen-nrect;
#X text 358 130 Reverse Sawtooth;
#N canvas 309 200 450 300 gen-rsaw 0;
#X obj 51 10 inlet;
#X obj 51 32 t f f, f 9;
#X obj 51 215 pack, f 9;
#X obj 51 237 outlet;
#X obj 51 54 / 1024;
#X obj 51 76 - 1;
#X obj 51 98 * -1;
#X connect 0 0 1 0;
#X connect 1 0 4 0;
#X connect 1 1 2 1;
#X connect 2 0 3 0;
#X connect 4 0 5 0;
#X connect 5 0 6 0;
#X connect 6 0 2 0;
#X restore 23 321 pd gen-rsaw;
#X obj 189 10 array define wf-\$0-0 2048;
#X obj 189 30 array define wf-\$0-1 2048;
#X obj 189 50 array define wf-\$0-2 2048;
#X obj 189 70 array define wf-\$0-3 2048;
#X obj 189 90 array define wf-\$0-4 2048;
#X obj 189 110 array define wf-\$0-5 2048;
#X obj 189 131 array define wf-\$0-6 2048;
#X obj 83 97 tabwrite wf-\$0-0;
#X obj 73 138 tabwrite wf-\$0-1;
#X obj 63 179 tabwrite wf-\$0-2;
#X obj 53 220 tabwrite wf-\$0-3;
#X obj 43 261 tabwrite wf-\$0-4;
#X obj 33 302 tabwrite wf-\$0-5;
#X obj 23 343 tabwrite wf-\$0-6;
#X connect 0 0 2 0;
#X connect 0 0 4 0;
#X connect 0 0 8 0;
#X connect 0 0 10 0;
#X connect 0 0 13 0;
#X connect 0 0 14 0;
#X connect 0 0 16 0;
#X connect 1 0 3 0;
#X connect 2 0 24 0;
#X connect 3 0 0 0;
#X connect 4 0 25 0;
#X connect 8 0 26 0;
#X connect 10 0 27 0;
#X connect 13 0 28 0;
#X connect 14 0 29 0;
#X connect 16 0 30 0;
#X restore 842 52 pd wf;
#X obj 815 155 tgl 15 0 empty empty empty 17 7 0 10 -262144 -1 -1 1
1;
#X obj 470 253 vsl 15 128 0 10 0 0 \$0-volume-s \$0-volume Volume 0
-9 0 10 -262144 -1 -1 0 1;
#X obj 1077 316 *~;
#X obj 1092 289 line~;
#X obj 1092 268 pack f 20;
#X obj 1092 202 r \$0-volume-s;
#X obj 1092 223 * 10;
#X obj 1092 245 dbtorms;
#X text 468 396 Output;
#X text 28 191 CONTROLLERS;
#X text 295 191 OSCILLATOR BANK;
#X text 197 171 OSCILLATOR-1;
#X obj 191 45 hradio 15 1 0 6 \$0-osc-range-1-s \$0-osc-range-1 Range-1
0 -8 0 10 -262144 -1 -1 4;
#X obj 191 91 hradio 15 1 0 6 \$0-osc-wf-1-s \$0-osc-wf-1 Waveform-1
0 -8 0 10 -262144 -1 -1 0;
#X obj 300 136 hsl 85 15 -8 8 0 0 \$0-osc-frequency-2-s \$0-osc-frequency-2
Frequency-2 -2 -8 0 10 -262144 -1 -1 6400 1;
#X obj 297 44 hradio 15 1 0 6 \$0-osc-range-2-s \$0-osc-range-2 Range-2
0 -8 0 10 -262144 -1 -1 4;
#X obj 297 90 hradio 15 1 0 6 \$0-osc-wf-2-s \$0-osc-wf-2 Waveform-2
0 -8 0 10 -262144 -1 -1 2;
#X text 303 171 OSCILLATOR-2;
#X obj 410 136 hsl 85 15 -8 8 0 0 \$0-osc-frequency-3-s \$0-osc-frequency-3
Frequency-3 -2 -8 0 10 -262144 -1 -1 7900 1;
#X obj 407 44 hradio 15 1 0 6 \$0-osc-range-3-s \$0-osc-range-3 Range-3
0 -8 0 10 -262144 -1 -1 1;
#X obj 407 90 hradio 15 1 0 6 \$0-osc-wf-3-s \$0-osc-wf-3 Waveform-3
0 -8 0 10 -262144 -1 -1 3;
#X text 413 171 OSCILLATOR-3;
#X obj 1077 338 dac~;
#N canvas 667 102 450 300 init 0;
#X obj 46 27 loadbang;
#X obj 46 101 s \$0-volume;
#X msg 46 49 8;
#X obj 36 161 s \$0-osc-range-2;
#X obj 16 134 s \$0-osc-range-1;
#X obj 66 182 s \$0-osc-range-3;
#X msg 16 80 3;
#X obj 175 126 s \$0-osc-wf-1;
#X obj 175 146 s \$0-osc-wf-2;
#X obj 175 166 s \$0-osc-wf-3;
#X msg 156 92 0;
#X obj 293 153 s \$0-osc-frequency-3;
#X obj 293 123 s \$0-osc-frequency-2;
#X obj 175 206 s \$0-osc-volumue-1;
#X obj 175 226 s \$0-osc-volumue-2;
#X obj 175 246 s \$0-osc-volumue-3;
#X obj 295 206 s \$0-osc-on-1;
#X obj 295 226 s \$0-osc-on-2;
#X obj 295 246 s \$0-osc-on-3;
#X obj 295 267 s \$0-osc-ctrl-3;
#X msg 302 181 1;
#X obj 201 64 s \$0-osc-mod;
#X msg 198 38 0;
#X obj 304 65 s \$0-mod-mix;
#X connect 0 0 2 0;
#X connect 0 0 6 0;
#X connect 0 0 10 0;
#X connect 0 0 20 0;
#X connect 0 0 22 0;
#X connect 2 0 1 0;
#X connect 6 0 4 0;
#X connect 6 0 3 0;
#X connect 6 0 5 0;
#X connect 10 0 7 0;
#X connect 10 0 8 0;
#X connect 10 0 9 0;
#X connect 10 0 11 0;
#X connect 10 0 12 0;
#X connect 10 0 13 0;
#X connect 10 0 14 0;
#X connect 10 0 15 0;
#X connect 10 0 16 0;
#X connect 10 0 17 0;
#X connect 10 0 18 0;
#X connect 20 0 19 0;
#X connect 22 0 21 0;
#X connect 22 0 23 0;
#X restore 842 76 pd init;
#X text 75 411 MIXER;
#X obj 127 264 tgl 15 0 \$0-osc-on-1-s \$0-osc-on-1 On-1 -2 -8 0 10
-262144 -1 -1 1 1;
#X obj 127 310 tgl 15 0 \$0-osc-on-2-s \$0-osc-on-2 On-2 -2 -8 0 10
-262144 -1 -1 1 1;
#X obj 127 356 tgl 15 0 \$0-osc-on-3-s \$0-osc-on-3 On-3 -2 -8 0 10
-262144 -1 -1 0 1;
#X obj 30 356 hsl 85 15 0 10 0 0 \$0-osc-volume-3-s \$0-osc-volume-3
Volume-3 -2 -8 0 10 -262144 -1 -1 7100 1;
#X obj 30 310 hsl 85 15 0 10 0 0 \$0-osc-volume-2-s \$0-osc-volume-2
Volume-2 -2 -8 0 10 -262144 -1 -1 6400 1;
#X obj 30 264 hsl 85 15 0 10 0 0 \$0-osc-volume-1-s \$0-osc-volume-1
Volume-1 -2 -8 0 10 -262144 -1 -1 8000 1;
#X obj 508 136 tgl 15 0 \$0-osc-ctrl-3-s \$0-osc-ctrl-3 Ctrl-3 -8 -8
0 10 -262144 -1 -1 1 1;
#X obj 147 91 tgl 15 0 \$0-osc-mod-s \$0-osc-mod Osc-Mod -12 -8 0 10
-262144 -1 -1 1 1;
#X obj 30 137 hsl 85 15 0 10 0 0 \$0-mod-mix-s \$0-mod-mix Modulation-Mix
-2 -8 0 10 -262144 -1 -1 0 1;
#X obj 30 91 hsl 85 15 -2.5 2.5 0 0 \$0-mod-tune-s \$0-mod-tune Tune
-2 -8 0 10 -262144 -1 -1 0 1;
#X obj 30 45 hsl 85 15 0 10 0 0 \$0-glide-s \$0-glide Glide -2 -8 0
10 -262144 -1 -1 4500 1;
#X msg 817 177 33 \$1;
#N canvas 545 69 581 503 modulation 0;
#X obj 26 433 outlet~;
#X obj 26 18 r \$0-mod-freq;
#X obj 35 184 r \$0-mod-mix-s;
#X obj 192 327 r~ \$0-osc-3-sig;
#X obj 35 206 / 10;
#X obj 35 248 t b f;
#X obj 35 270 f 1;
#X obj 35 292 -, f 5;
#X obj 95 256 line~;
#X obj 95 236 pack f 20;
#X obj 27 353 *~;
#X obj 95 347 line~;
#X obj 95 327 pack f 20;
#X obj 107 385 *~;
#X connect 2 0 4 0;
#X connect 3 0 13 0;
#X connect 4 0 5 0;
#X connect 4 0 9 0;
#X connect 5 0 6 0;
#X connect 5 1 7 1;
#X connect 6 0 7 0;
#X connect 7 0 12 0;
#X connect 8 0 10 1;
#X connect 9 0 8 0;
#X connect 10 0 0 0;
#X connect 11 0 13 1;
#X connect 12 0 11 0;
#X connect 13 0 0 0;
#X restore 997 102 pd modulation;
#X obj 997 144 *~ 0;
#X obj 1018 123 r \$0-osc-mod-s;
#X obj 1029 170 print~;
#X obj 1095 159 bng 15 250 50 0 empty empty empty 17 7 0 10 -262144
-1 -1;
#X obj 190 264 hsl 85 15 0 10 0 0 \$0-ext-volume-s \$0-ext-volume Input-Volume
-2 -8 0 10 -262144 -1 -1 0 1;
#X obj 287 264 tgl 15 0 \$0-in-state-s \$0-in-state In-On -6 -8 0 10
-262144 -1 -1 0 1;
#X obj 190 311 hsl 85 15 0 10 0 0 \$0-noise-volume-s \$0-noise-volume
Noise-Volume -2 -8 0 10 -262144 -1 -1 0 1;
#X obj 287 311 tgl 15 0 \$0-in-state-s \$0-in-state In-On -6 -8 0 10
-262144 -1 -1 0 1;
#X connect 0 0 12 0;
#X connect 0 1 12 1;
#X connect 1 0 3 0;
#X connect 2 0 4 0;
#X connect 3 0 6 0;
#X connect 4 0 5 0;
#X connect 7 0 8 0;
#X connect 9 0 16 0;
#X connect 10 0 16 0;
#X connect 11 0 16 0;
#X connect 12 1 7 0;
#X connect 12 2 7 1;
#X connect 14 0 50 0;
#X connect 16 0 36 0;
#X connect 16 0 36 1;
#X connect 17 0 16 1;
#X connect 18 0 17 0;
#X connect 19 0 20 0;
#X connect 20 0 21 0;
#X connect 21 0 18 0;
#X connect 50 0 7 0;
#X connect 51 0 52 0;
#X connect 52 0 9 0;
#X connect 52 0 10 0;
#X connect 52 0 11 0;
#X connect 52 0 54 0;
#X connect 53 0 52 1;
#X connect 55 0 54 0;
