#N canvas 377 41 626 411 10;
#X obj 32 6 loadbang;
#X obj 59 67 hsl 128 15 0 20 0 0 empty \$0-rate Rate_Hz -3 -6 0 10
-262144 -1 -1 6350 1;
#X obj 195 67 nbx 5 15 0 20 0 0 empty \$0-rate empty 0 -8 0 10 -262144
-1 -1 0 256;
#X text 438 40 Input 2;
#X text 437 364 Output 2;
#X text 286 364 Output 1;
#X obj 357 42 adc~ 1 2, f 11;
#X obj 357 364 dac~ 1 2, f 11;
#X obj 441 126 osc~;
#X obj 357 336 *~, f 4;
#X obj 420 336 *~, f 4;
#X text 298 40 Input 1;
#X text 441 78 Rate;
#X text 438 57 Oscillator;
#X obj 441 97 r \$0-rate;
#X obj 59 97 hsl 128 15 0 100 0 0 empty \$0-depth Depth_% -3 -6 0 10
-262144 -1 -1 12700 1;
#X obj 195 97 nbx 5 15 0 100 0 0 empty \$0-depth empty 0 -8 0 10 -262144
-1 -1 0 256;
#X msg 32 60 100;
#X obj 513 149 / 100;
#X obj 513 171 \$1 20;
#X obj 513 193 line~;
#X obj 441 227 *~;
#X obj 513 119 clip 0 100;
#X obj 441 170 *~ 0.5;
#X text 512 78 Depth;
#X obj 513 97 r \$0-depth;
#X obj 441 148 +~ 1;
#X obj 441 283 +~, f 10;
#X obj 498 219 sig~ 1;
#X obj 498 244 -~;
#X text 359 18 Tremolo;
#X msg 32 30 10;
#X connect 0 0 31 0;
#X connect 0 0 17 0;
#X connect 6 0 9 0;
#X connect 6 1 10 0;
#X connect 8 0 26 0;
#X connect 9 0 7 0;
#X connect 10 0 7 1;
#X connect 14 0 8 0;
#X connect 17 0 15 0;
#X connect 18 0 19 0;
#X connect 19 0 20 0;
#X connect 20 0 21 1;
#X connect 20 0 29 1;
#X connect 21 0 27 0;
#X connect 22 0 18 0;
#X connect 23 0 21 0;
#X connect 25 0 22 0;
#X connect 26 0 23 0;
#X connect 27 0 10 1;
#X connect 27 0 9 1;
#X connect 28 0 29 0;
#X connect 29 0 27 1;
#X connect 31 0 1 0;
#X coords 0 -1 1 1 206 70 2 50 50;
