#N canvas 600 109 647 577 10;
#X obj 32 6 loadbang;
#X obj 59 67 hsl 128 15 0 20 0 0 empty \$0-rate Rate_Hz -3 -6 0 10
-262144 -1 -1 6350 1;
#X obj 195 67 nbx 5 15 0 20 0 0 empty \$0-rate empty 0 -8 0 10 -262144
-1 -1 0 256;
#X text 274 180 Input 2;
#X obj 193 182 adc~ 1 2, f 11;
#X text 134 180 Input 1;
#X text 441 78 Rate;
#X text 438 57 Oscillator;
#X obj 441 97 r \$0-rate;
#X obj 59 97 hsl 128 15 0 10 0 0 empty \$0-depth Depth_ms -3 -6 0 10
-262144 -1 -1 1270 1;
#X obj 195 97 nbx 5 15 0 10 0 0 empty \$0-depth empty 0 -8 0 10 -262144
-1 -1 0 256;
#X obj 516 149 / 100;
#X obj 516 171 \$1 20;
#X obj 516 193 line~;
#X text 515 78 Depth;
#X obj 516 97 r \$0-depth;
#X msg 32 30 10;
#X obj 193 209 delwrite~ \$0-delay1 1000;
#X obj 256 240 delwrite~ \$0-delay2 1000;
#X obj 441 186 osc~;
#X obj 441 208 *~;
#X obj 441 156 / 2;
#X obj 441 303 +~ 1.5;
#X obj 441 248 *~, f 13;
#X obj 441 332 vd~ \$0-delay1;
#X text 370 370 Output 1;
#X obj 441 370 dac~ 1 2, f 18;
#X obj 546 332 vd~ \$0-delay1;
#X text 571 370 Output 2;
#X obj 516 119 max 0.02;
#X text 195 158 Vibrato;
#X msg 32 60 1;
#X connect 0 0 16 0;
#X connect 0 0 31 0;
#X connect 4 0 17 0;
#X connect 4 1 18 0;
#X connect 8 0 21 0;
#X connect 11 0 12 0;
#X connect 12 0 13 0;
#X connect 13 0 23 1;
#X connect 15 0 29 0;
#X connect 16 0 1 0;
#X connect 19 0 20 0;
#X connect 19 0 20 1;
#X connect 20 0 23 0;
#X connect 21 0 19 0;
#X connect 22 0 24 0;
#X connect 23 0 22 0;
#X connect 23 0 27 0;
#X connect 24 0 26 0;
#X connect 27 0 26 1;
#X connect 29 0 11 0;
#X connect 31 0 9 0;
#X coords 0 -1 1 1 206 70 2 50 50;
