#N canvas 0 22 909 517 10;
#X obj 1 2 c.camomile @size 600 400 @fontname "Helvetica" @fontweight
"normal" @fontslant "roman" @fontsize 11 @receive "" @send "" @pinned
1 @bgcolor 0.75 0.75 0.75 1 @bdcolor 0.5 0.5 0.5 1;
#X text 688 136 Size delay feedback array;
#X obj 686 265 c.number @size 53 15 @fontname "Helvetica" @fontweight
"normal" @fontslant "roman" @fontsize 11 @receive "" @send "" @pinned
0 @presetname "" @min 0 @max 0 @decimal 4 @bgcolor 0.75 0.75 0.75 1
@bdcolor 0.5 0.5 0.5 1 @textcolor 0 0 0 1;
#X obj 647 197 c.slider @size 15 120 @fontname "Helvetica" @fontweight
"normal" @fontslant "roman" @fontsize 11 @receive "" @send "" @pinned
0 @presetname "" @mode 0 @min 0 @max 1 @bgcolor 0.75 0.75 0.75 1 @bdcolor
0.5 0.5 0.5 1 @kncolor 0.5 0.5 0.5 1;
#X msg 647 172 set \$1;
#X obj 636 348 adc~ 1;
#X obj 636 478 dac~ 1;
#N canvas 467 105 608 675 grain 0;
#X obj 564 175 clip~ 0 1;
#X obj 564 138 line~;
#X obj 542 440 *~;
#X obj 263 362 *~;
#X obj 34 315 *~ 513;
#X obj 136 131 random;
#X obj 136 207 +;
#X obj 136 109 metro;
#X obj 136 180 t b f;
#X obj 136 75 c.loadmess 1;
#X obj -6 114 c.prepend set;
#X obj 136 154 * 0.1;
#X obj 34 281 phasor~ 1;
#X msg 564 114 \$1 20;
#X obj 34 344 tabread4~;
#X obj 393 272 samphold~;
#X obj 393 130 noise~;
#X obj 393 159 *~ 1;
#X obj 393 187 +~;
#X obj 393 244 +~ 1;
#X obj 393 213 abs~;
#X obj 439 130 * 0.1;
#X obj 263 316 samphold~;
#X obj 263 179 +~ 1;
#X obj 263 205 *~ 0.5;
#X obj 263 139 noise~;
#N canvas 65 381 450 300 delme 0;
#X obj 89 47 inlet~;
#X obj 88 264 outlet~;
#X obj 37 48 inlet~;
#X obj -17 50 inlet~;
#X obj 56 167 *~;
#X obj 88 201 vd~ \$0-hoa_grain;
#X obj 89 127 delwrite~ \$0-hoa_grain 5500;
#X obj 88 172 +~ 2;
#X connect 0 0 6 0;
#X connect 2 0 4 0;
#X connect 3 0 7 0;
#X connect 4 0 6 0;
#X connect 5 0 4 0;
#X connect 5 0 1 0;
#X connect 7 0 5 0;
#X restore 542 324 pd delme;
#X obj 135 230 t b f;
#X obj 34 260 /;
#X msg 53 223 1000;
#N canvas 0 50 450 300 >~ 0;
#X obj 67 114 max~ 0;
#X obj 67 175 -~ 0;
#X obj 130 188 /~;
#X obj 130 152 sig~ -1;
#X obj 145 114 -~;
#X obj 67 212 *~;
#X obj 67 17 inlet~;
#X obj 67 252 outlet~;
#X obj 132 15 inlet;
#X connect 0 0 1 0;
#X connect 1 0 5 0;
#X connect 2 0 5 1;
#X connect 3 0 2 0;
#X connect 4 0 2 1;
#X connect 5 0 7 0;
#X connect 6 0 0 0;
#X connect 6 0 4 1;
#X connect 8 0 4 0;
#X connect 8 0 1 1;
#X connect 8 0 0 1;
#X restore 263 234 pd >~ 1;
#X obj 53 61 inlet~;
#X obj 490 565 outlet~;
#X obj 495 4 inlet;
#X obj 362 17 inlet;
#X obj 313 19 inlet;
#X obj 161 43 inlet;
#X obj 218 23 inlet;
#X connect 0 0 26 1;
#X connect 1 0 0 0;
#X connect 2 0 32 0;
#X connect 3 0 2 1;
#X connect 4 0 14 0;
#X connect 5 0 11 0;
#X connect 6 0 27 0;
#X connect 6 0 28 1;
#X connect 7 0 5 0;
#X connect 8 0 6 0;
#X connect 8 1 6 1;
#X connect 9 0 7 0;
#X connect 10 0 14 0;
#X connect 11 0 8 0;
#X connect 12 0 4 0;
#X connect 12 0 15 1;
#X connect 12 0 22 1;
#X connect 13 0 1 0;
#X connect 14 0 3 1;
#X connect 15 0 26 0;
#X connect 16 0 17 0;
#X connect 17 0 18 0;
#X connect 18 0 20 0;
#X connect 19 0 15 0;
#X connect 20 0 19 0;
#X connect 21 0 17 1;
#X connect 22 0 3 0;
#X connect 23 0 24 0;
#X connect 24 0 30 0;
#X connect 25 0 23 0;
#X connect 26 0 2 0;
#X connect 27 0 29 0;
#X connect 27 1 28 1;
#X connect 28 0 12 0;
#X connect 29 0 28 0;
#X connect 30 0 22 0;
#X connect 31 0 26 2;
#X connect 33 0 10 0;
#X connect 34 0 30 1;
#X connect 35 0 13 0;
#X connect 36 0 6 0;
#X connect 36 0 7 1;
#X connect 36 0 5 1;
#X connect 37 0 21 0;
#X connect 37 0 18 1;
#X restore 636 416 pd grain, f 43;
#X connect 2 0 4 0;
#X connect 3 0 2 0;
#X connect 4 0 3 0;
#X connect 5 0 7 0;
#X connect 7 0 6 0;
