#N canvas 199 194 576 506 10;
#X obj 125 127 c.knob @size 37 37 @pinned 0 @ignoreclick 0 @endless
0 @minmax 0 300 @bdsize 1 @bgcolor 0 0.600754 0.545421 1 @bdcolor 0
0.596801 0.541469 1 @necolor 0 0.478231 0.422899 1 @param0 "LowGain"
"dB" 4;
#X obj 2 62 c.camomile @size 296 148 @pinned 1 @ignoreclick 0 @name
"Distortion" @font "Futura" 12 "roman" "normal" @bdsize 1 @bgcolor
0 0.600754 0.545421 1 @bdcolor 0 0.478231 0.422899 1 @txtcolor 0 0
0 1;
#X obj 78 88 c.number @size 41 15 @pinned 0 @ignoreclick 0 @decimal
4 @minmax 0 44100 @font "Futura" 11 "roman" "normal" @bdsize 1 @bgcolor
0 0.600754 0.545421 1 @bdcolor 0 0.478231 0.422899 1 @textcolor 0 0
0 1 @param0 "LowFrequency" "Hz" 1;
#X obj 72 30 f 500;
#X obj 227 88 c.number @size 41 15 @pinned 0 @ignoreclick 0 @decimal
4 @minmax 0 44100 @font "Futura" 11 "roman" "normal" @bdsize 1 @bgcolor
0 0.600754 0.545421 1 @bdcolor 0 0.478231 0.422899 1 @textcolor 0 0
0 1 @param0 "HighFrequency" "Hz" 2;
#X obj 162 30 f 15000;
#X obj 35 305 adc~ 1 2, f 16;
#X obj 174 127 c.knob @size 37 37 @pinned 0 @ignoreclick 0 @endless
0 @minmax 0 300 @bdsize 1 @bgcolor 0 0.600754 0.545421 1 @bdcolor 0
0.596801 0.541469 1 @necolor 0 0.478231 0.422899 1 @param0 "MediumGain"
"dB" 5;
#X obj 223 127 c.knob @size 37 37 @pinned 0 @ignoreclick 0 @endless
0 @minmax 0 300 @bdsize 1 @bgcolor 0 0.600754 0.545421 1 @bdcolor 0
0.596801 0.541469 1 @necolor 0 0.478231 0.422899 1 @param0 "HighGain"
"dB" 6;
#X obj 35 376 dac~ 1 2, f 16;
#X obj 65 5 bng 15 250 50 0 empty empty empty 17 7 0 10 -262144 -1
-1;
#X obj 56 127 c.knob @size 37 37 @pinned 0 @ignoreclick 0 @endless
0 @minmax 0 300 @bdsize 1 @bgcolor 0 0.600754 0.545421 1 @bdcolor 0
0.596801 0.541469 1 @necolor 0 0.478231 0.422899 1 @param0 "MasterGain"
"dB" 3;
#X obj 8 0 loadbang;
#X obj 9 88 c.comment @size 66 15 @pinned 0 @ignoreclick 0 @font "Futura"
11 "roman" "normal" @bgcolor 0 0.600754 0.545421 1 @bdcolor 0 0.600754
0.545421 1 @textcolor 0 0 0 1 @text "Low Frequency :";
#X obj 155 88 c.comment @size 69 15 @pinned 0 @ignoreclick 0 @font
"Futura" 11 "roman" "normal" @bgcolor 0 0.600754 0.545421 1 @bdcolor
0 0.600754 0.545421 1 @textcolor 0 0 0 1 @text "High Frequency :"
;
#X obj 59 108 c.comment @size 44 15 @pinned 0 @ignoreclick 0 @font
"Futura" 11 "roman" "normal" @bgcolor 0 0.600754 0.545421 1 @bdcolor
0 0.600754 0.545421 1 @textcolor 0 0 0 1 @text "Overall";
#X obj 133 108 c.comment @size 30 15 @pinned 0 @ignoreclick 0 @font
"Futura" 11 "roman" "normal" @bgcolor 0 0.600754 0.545421 1 @bdcolor
0 0.600754 0.545421 1 @textcolor 0 0 0 1 @text "Low";
#X obj 174 108 c.comment @size 49 15 @pinned 0 @ignoreclick 0 @font
"Futura" 11 "roman" "normal" @bgcolor 0 0.600754 0.545421 1 @bdcolor
0 0.600754 0.545421 1 @textcolor 0 0 0 1 @text "Medium";
#X obj 230 108 c.comment @size 30 15 @pinned 0 @ignoreclick 0 @font
"Futura" 11 "roman" "normal" @bgcolor 0 0.600754 0.545421 1 @bdcolor
0 0.600754 0.545421 1 @textcolor 0 0 0 1 @text "High";
#X obj 5 30 f 0;
#X obj 300 128 s \$0-lowf;
#X obj 370 128 s \$0-highf;
#N canvas 531 349 451 362 disto_band 0;
#X obj 115 59 inlet~;
#X obj 115 128 lop~;
#X obj 188 128 lop~;
#X obj 188 150 hip~;
#X obj 258 128 hip~;
#X obj 279 68 r \$0-highf;
#X obj 209 68 r \$0-lowf;
#X obj 188 318 outlet~;
#N canvas 0 22 436 602 disto 0;
#X obj 106 72 dbtorms;
#X obj 91 351 min~;
#X obj 91 413 max~;
#X obj 91 475 +~;
#X obj 91 517 +~;
#X obj 106 223 +~ 1;
#X obj 91 247 *~;
#X obj 91 539 outlet~;
#X obj 139 435 *~;
#X obj 196 435 *~;
#X obj 106 116 line~;
#X obj 106 94 pack 0 20;
#X obj 106 50 inlet;
#X obj 251 124 / 100;
#X obj 251 146 t b f;
#X obj 251 168 f 1;
#X obj 251 190 -, f 5;
#X obj 251 32 clip 0 100;
#X obj 198 187 +, f 5;
#X obj 170 145 t f b f, f 10;
#X obj 170 215 /, f 5;
#X obj 130 167 t b f;
#X obj 251 258 line~;
#X obj 251 236 pack 0 20;
#X obj 196 351 max~;
#X obj 196 413 -~;
#X obj 139 351 min~;
#X obj 170 259 line~;
#X obj 170 237 pack 0 20;
#X obj 251 56 t b f;
#X obj 251 100 -, f 5;
#X obj 251 78 f 100;
#X obj 251 10 inlet;
#X obj 91 194 inlet~;
#X obj 251 280 *~ -1;
#X obj 139 413 -~, f 9;
#X connect 0 0 11 0;
#X connect 0 0 21 0;
#X connect 1 0 2 0;
#X connect 2 0 3 0;
#X connect 3 0 4 0;
#X connect 4 0 7 0;
#X connect 5 0 6 1;
#X connect 6 0 1 0;
#X connect 6 0 24 0;
#X connect 6 0 26 0;
#X connect 8 0 3 1;
#X connect 9 0 4 1;
#X connect 10 0 5 0;
#X connect 11 0 10 0;
#X connect 12 0 0 0;
#X connect 13 0 14 0;
#X connect 13 0 19 0;
#X connect 14 0 15 0;
#X connect 14 1 16 1;
#X connect 15 0 16 0;
#X connect 16 0 23 0;
#X connect 17 0 29 0;
#X connect 18 0 20 1;
#X connect 19 0 20 0;
#X connect 19 1 18 0;
#X connect 19 2 18 1;
#X connect 20 0 28 0;
#X connect 21 0 20 0;
#X connect 21 1 18 0;
#X connect 22 0 1 1;
#X connect 22 0 24 1;
#X connect 22 0 25 1;
#X connect 22 0 34 0;
#X connect 23 0 22 0;
#X connect 24 0 25 0;
#X connect 25 0 9 0;
#X connect 26 0 35 0;
#X connect 27 0 8 1;
#X connect 27 0 9 1;
#X connect 28 0 27 0;
#X connect 29 0 31 0;
#X connect 29 1 30 1;
#X connect 30 0 13 0;
#X connect 31 0 30 0;
#X connect 32 0 17 0;
#X connect 33 0 6 0;
#X connect 34 0 26 1;
#X connect 34 0 2 1;
#X connect 34 0 35 1;
#X connect 35 0 8 0;
#X restore 188 293 pd disto;
#N canvas 0 22 436 602 disto 0;
#X obj 106 72 dbtorms;
#X obj 91 351 min~;
#X obj 91 413 max~;
#X obj 91 475 +~;
#X obj 91 517 +~;
#X obj 106 223 +~ 1;
#X obj 91 247 *~;
#X obj 91 539 outlet~;
#X obj 139 435 *~;
#X obj 196 435 *~;
#X obj 106 116 line~;
#X obj 106 94 pack 0 20;
#X obj 106 50 inlet;
#X obj 251 124 / 100;
#X obj 251 146 t b f;
#X obj 251 168 f 1;
#X obj 251 190 -, f 5;
#X obj 251 32 clip 0 100;
#X obj 198 187 +, f 5;
#X obj 170 145 t f b f, f 10;
#X obj 170 215 /, f 5;
#X obj 130 167 t b f;
#X obj 251 258 line~;
#X obj 251 236 pack 0 20;
#X obj 196 351 max~;
#X obj 196 413 -~;
#X obj 139 351 min~;
#X obj 170 259 line~;
#X obj 170 237 pack 0 20;
#X obj 251 56 t b f;
#X obj 251 100 -, f 5;
#X obj 251 78 f 100;
#X obj 251 10 inlet;
#X obj 91 194 inlet~;
#X obj 251 280 *~ -1;
#X obj 139 413 -~, f 16;
#X connect 0 0 11 0;
#X connect 0 0 21 0;
#X connect 1 0 2 0;
#X connect 2 0 3 0;
#X connect 3 0 4 0;
#X connect 4 0 7 0;
#X connect 5 0 6 1;
#X connect 6 0 1 0;
#X connect 6 0 24 0;
#X connect 6 0 26 0;
#X connect 8 0 3 1;
#X connect 9 0 4 1;
#X connect 10 0 5 0;
#X connect 11 0 10 0;
#X connect 12 0 0 0;
#X connect 13 0 14 0;
#X connect 13 0 19 0;
#X connect 14 0 15 0;
#X connect 14 1 16 1;
#X connect 15 0 16 0;
#X connect 16 0 23 0;
#X connect 17 0 29 0;
#X connect 18 0 20 1;
#X connect 19 0 20 0;
#X connect 19 1 18 0;
#X connect 19 2 18 1;
#X connect 20 0 28 0;
#X connect 21 0 20 0;
#X connect 21 1 18 0;
#X connect 22 0 1 1;
#X connect 22 0 24 1;
#X connect 22 0 25 1;
#X connect 22 0 34 0;
#X connect 23 0 22 0;
#X connect 24 0 25 0;
#X connect 25 0 9 0;
#X connect 26 0 35 0;
#X connect 27 0 8 1;
#X connect 27 0 9 1;
#X connect 28 0 27 0;
#X connect 29 0 31 0;
#X connect 29 1 30 1;
#X connect 30 0 13 0;
#X connect 31 0 30 0;
#X connect 32 0 17 0;
#X connect 33 0 6 0;
#X connect 34 0 26 1;
#X connect 34 0 2 1;
#X connect 34 0 35 1;
#X connect 35 0 8 0;
#X restore 115 223 pd disto;
#X obj 137 178 r \$0-low-g;
#X obj 213 248 r \$0-master-g;
#X obj 239 268 r \$0-master-h;
#X obj 160 198 r \$0-low-h;
#N canvas 0 22 436 602 disto 0;
#X obj 106 72 dbtorms;
#X obj 91 351 min~;
#X obj 91 413 max~;
#X obj 91 475 +~;
#X obj 91 517 +~;
#X obj 106 223 +~ 1;
#X obj 91 247 *~;
#X obj 91 539 outlet~;
#X obj 139 435 *~;
#X obj 196 435 *~;
#X obj 106 116 line~;
#X obj 106 94 pack 0 20;
#X obj 106 50 inlet;
#X obj 251 124 / 100;
#X obj 251 146 t b f;
#X obj 251 168 f 1;
#X obj 251 190 -, f 5;
#X obj 251 32 clip 0 100;
#X obj 198 187 +, f 5;
#X obj 170 145 t f b f, f 10;
#X obj 170 215 /, f 5;
#X obj 130 167 t b f;
#X obj 251 258 line~;
#X obj 251 236 pack 0 20;
#X obj 196 351 max~;
#X obj 196 413 -~;
#X obj 139 351 min~;
#X obj 170 259 line~;
#X obj 170 237 pack 0 20;
#X obj 251 56 t b f;
#X obj 251 100 -, f 5;
#X obj 251 78 f 100;
#X obj 251 10 inlet;
#X obj 91 194 inlet~;
#X obj 251 280 *~ -1;
#X obj 139 413 -~, f 16;
#X connect 0 0 11 0;
#X connect 0 0 21 0;
#X connect 1 0 2 0;
#X connect 2 0 3 0;
#X connect 3 0 4 0;
#X connect 4 0 7 0;
#X connect 5 0 6 1;
#X connect 6 0 1 0;
#X connect 6 0 24 0;
#X connect 6 0 26 0;
#X connect 8 0 3 1;
#X connect 9 0 4 1;
#X connect 10 0 5 0;
#X connect 11 0 10 0;
#X connect 12 0 0 0;
#X connect 13 0 14 0;
#X connect 13 0 19 0;
#X connect 14 0 15 0;
#X connect 14 1 16 1;
#X connect 15 0 16 0;
#X connect 16 0 23 0;
#X connect 17 0 29 0;
#X connect 18 0 20 1;
#X connect 19 0 20 0;
#X connect 19 1 18 0;
#X connect 19 2 18 1;
#X connect 20 0 28 0;
#X connect 21 0 20 0;
#X connect 21 1 18 0;
#X connect 22 0 1 1;
#X connect 22 0 24 1;
#X connect 22 0 25 1;
#X connect 22 0 34 0;
#X connect 23 0 22 0;
#X connect 24 0 25 0;
#X connect 25 0 9 0;
#X connect 26 0 35 0;
#X connect 27 0 8 1;
#X connect 27 0 9 1;
#X connect 28 0 27 0;
#X connect 29 0 31 0;
#X connect 29 1 30 1;
#X connect 30 0 13 0;
#X connect 31 0 30 0;
#X connect 32 0 17 0;
#X connect 33 0 6 0;
#X connect 34 0 26 1;
#X connect 34 0 2 1;
#X connect 34 0 35 1;
#X connect 35 0 8 0;
#X restore 188 223 pd disto;
#X obj 210 178 r \$0-mid-g;
#X obj 233 198 r \$0-mid-h;
#N canvas 0 22 436 602 disto 0;
#X obj 106 72 dbtorms;
#X obj 91 351 min~;
#X obj 91 413 max~;
#X obj 91 475 +~;
#X obj 91 517 +~;
#X obj 106 223 +~ 1;
#X obj 91 247 *~;
#X obj 91 539 outlet~;
#X obj 139 435 *~;
#X obj 196 435 *~;
#X obj 106 116 line~;
#X obj 106 94 pack 0 20;
#X obj 106 50 inlet;
#X obj 251 124 / 100;
#X obj 251 146 t b f;
#X obj 251 168 f 1;
#X obj 251 190 -, f 5;
#X obj 251 32 clip 0 100;
#X obj 198 187 +, f 5;
#X obj 170 145 t f b f, f 10;
#X obj 170 215 /, f 5;
#X obj 130 167 t b f;
#X obj 251 258 line~;
#X obj 251 236 pack 0 20;
#X obj 196 351 max~;
#X obj 196 413 -~;
#X obj 139 351 min~;
#X obj 170 259 line~;
#X obj 170 237 pack 0 20;
#X obj 251 56 t b f;
#X obj 251 100 -, f 5;
#X obj 251 78 f 100;
#X obj 251 10 inlet;
#X obj 91 194 inlet~;
#X obj 251 280 *~ -1;
#X obj 139 413 -~, f 16;
#X connect 0 0 11 0;
#X connect 0 0 21 0;
#X connect 1 0 2 0;
#X connect 2 0 3 0;
#X connect 3 0 4 0;
#X connect 4 0 7 0;
#X connect 5 0 6 1;
#X connect 6 0 1 0;
#X connect 6 0 24 0;
#X connect 6 0 26 0;
#X connect 8 0 3 1;
#X connect 9 0 4 1;
#X connect 10 0 5 0;
#X connect 11 0 10 0;
#X connect 12 0 0 0;
#X connect 13 0 14 0;
#X connect 13 0 19 0;
#X connect 14 0 15 0;
#X connect 14 1 16 1;
#X connect 15 0 16 0;
#X connect 16 0 23 0;
#X connect 17 0 29 0;
#X connect 18 0 20 1;
#X connect 19 0 20 0;
#X connect 19 1 18 0;
#X connect 19 2 18 1;
#X connect 20 0 28 0;
#X connect 21 0 20 0;
#X connect 21 1 18 0;
#X connect 22 0 1 1;
#X connect 22 0 24 1;
#X connect 22 0 25 1;
#X connect 22 0 34 0;
#X connect 23 0 22 0;
#X connect 24 0 25 0;
#X connect 25 0 9 0;
#X connect 26 0 35 0;
#X connect 27 0 8 1;
#X connect 27 0 9 1;
#X connect 28 0 27 0;
#X connect 29 0 31 0;
#X connect 29 1 30 1;
#X connect 30 0 13 0;
#X connect 31 0 30 0;
#X connect 32 0 17 0;
#X connect 33 0 6 0;
#X connect 34 0 26 1;
#X connect 34 0 2 1;
#X connect 34 0 35 1;
#X connect 35 0 8 0;
#X restore 258 223 pd disto;
#X obj 280 178 r \$0-high-g;
#X obj 303 198 r \$0-high-h;
#X connect 0 0 1 0;
#X connect 0 0 2 0;
#X connect 0 0 4 0;
#X connect 1 0 9 0;
#X connect 2 0 3 0;
#X connect 3 0 14 0;
#X connect 4 0 17 0;
#X connect 5 0 2 1;
#X connect 5 0 4 1;
#X connect 6 0 1 1;
#X connect 6 0 3 1;
#X connect 8 0 7 0;
#X connect 9 0 8 0;
#X connect 10 0 9 1;
#X connect 11 0 8 1;
#X connect 12 0 8 2;
#X connect 13 0 9 2;
#X connect 14 0 8 0;
#X connect 15 0 14 1;
#X connect 16 0 14 2;
#X connect 17 0 8 0;
#X connect 18 0 17 1;
#X connect 19 0 17 2;
#X restore 35 335 pd disto_band;
#N canvas 531 349 451 362 disto_band 0;
#X obj 115 59 inlet~;
#X obj 115 128 lop~;
#X obj 188 128 lop~;
#X obj 188 150 hip~;
#X obj 258 128 hip~;
#X obj 279 68 r \$0-highf;
#X obj 209 68 r \$0-lowf;
#X obj 188 318 outlet~;
#N canvas 0 22 436 602 disto 0;
#X obj 106 72 dbtorms;
#X obj 91 351 min~;
#X obj 91 413 max~;
#X obj 91 475 +~;
#X obj 91 517 +~;
#X obj 106 223 +~ 1;
#X obj 91 247 *~;
#X obj 91 539 outlet~;
#X obj 139 435 *~;
#X obj 196 435 *~;
#X obj 106 116 line~;
#X obj 106 94 pack 0 20;
#X obj 106 50 inlet;
#X obj 251 124 / 100;
#X obj 251 146 t b f;
#X obj 251 168 f 1;
#X obj 251 190 -, f 5;
#X obj 251 32 clip 0 100;
#X obj 198 187 +, f 5;
#X obj 170 145 t f b f, f 10;
#X obj 170 215 /, f 5;
#X obj 130 167 t b f;
#X obj 251 258 line~;
#X obj 251 236 pack 0 20;
#X obj 196 351 max~;
#X obj 196 413 -~;
#X obj 139 351 min~;
#X obj 170 259 line~;
#X obj 170 237 pack 0 20;
#X obj 251 56 t b f;
#X obj 251 100 -, f 5;
#X obj 251 78 f 100;
#X obj 251 10 inlet;
#X obj 91 194 inlet~;
#X obj 251 280 *~ -1;
#X obj 139 413 -~, f 9;
#X connect 0 0 11 0;
#X connect 0 0 21 0;
#X connect 1 0 2 0;
#X connect 2 0 3 0;
#X connect 3 0 4 0;
#X connect 4 0 7 0;
#X connect 5 0 6 1;
#X connect 6 0 1 0;
#X connect 6 0 24 0;
#X connect 6 0 26 0;
#X connect 8 0 3 1;
#X connect 9 0 4 1;
#X connect 10 0 5 0;
#X connect 11 0 10 0;
#X connect 12 0 0 0;
#X connect 13 0 14 0;
#X connect 13 0 19 0;
#X connect 14 0 15 0;
#X connect 14 1 16 1;
#X connect 15 0 16 0;
#X connect 16 0 23 0;
#X connect 17 0 29 0;
#X connect 18 0 20 1;
#X connect 19 0 20 0;
#X connect 19 1 18 0;
#X connect 19 2 18 1;
#X connect 20 0 28 0;
#X connect 21 0 20 0;
#X connect 21 1 18 0;
#X connect 22 0 1 1;
#X connect 22 0 24 1;
#X connect 22 0 25 1;
#X connect 22 0 34 0;
#X connect 23 0 22 0;
#X connect 24 0 25 0;
#X connect 25 0 9 0;
#X connect 26 0 35 0;
#X connect 27 0 8 1;
#X connect 27 0 9 1;
#X connect 28 0 27 0;
#X connect 29 0 31 0;
#X connect 29 1 30 1;
#X connect 30 0 13 0;
#X connect 31 0 30 0;
#X connect 32 0 17 0;
#X connect 33 0 6 0;
#X connect 34 0 26 1;
#X connect 34 0 2 1;
#X connect 34 0 35 1;
#X connect 35 0 8 0;
#X restore 188 293 pd disto;
#N canvas 0 22 436 602 disto 0;
#X obj 106 72 dbtorms;
#X obj 91 351 min~;
#X obj 91 413 max~;
#X obj 91 475 +~;
#X obj 91 517 +~;
#X obj 106 223 +~ 1;
#X obj 91 247 *~;
#X obj 91 539 outlet~;
#X obj 139 435 *~;
#X obj 196 435 *~;
#X obj 106 116 line~;
#X obj 106 94 pack 0 20;
#X obj 106 50 inlet;
#X obj 251 124 / 100;
#X obj 251 146 t b f;
#X obj 251 168 f 1;
#X obj 251 190 -, f 5;
#X obj 251 32 clip 0 100;
#X obj 198 187 +, f 5;
#X obj 170 145 t f b f, f 10;
#X obj 170 215 /, f 5;
#X obj 130 167 t b f;
#X obj 251 258 line~;
#X obj 251 236 pack 0 20;
#X obj 196 351 max~;
#X obj 196 413 -~;
#X obj 139 351 min~;
#X obj 170 259 line~;
#X obj 170 237 pack 0 20;
#X obj 251 56 t b f;
#X obj 251 100 -, f 5;
#X obj 251 78 f 100;
#X obj 251 10 inlet;
#X obj 91 194 inlet~;
#X obj 251 280 *~ -1;
#X obj 139 413 -~, f 16;
#X connect 0 0 11 0;
#X connect 0 0 21 0;
#X connect 1 0 2 0;
#X connect 2 0 3 0;
#X connect 3 0 4 0;
#X connect 4 0 7 0;
#X connect 5 0 6 1;
#X connect 6 0 1 0;
#X connect 6 0 24 0;
#X connect 6 0 26 0;
#X connect 8 0 3 1;
#X connect 9 0 4 1;
#X connect 10 0 5 0;
#X connect 11 0 10 0;
#X connect 12 0 0 0;
#X connect 13 0 14 0;
#X connect 13 0 19 0;
#X connect 14 0 15 0;
#X connect 14 1 16 1;
#X connect 15 0 16 0;
#X connect 16 0 23 0;
#X connect 17 0 29 0;
#X connect 18 0 20 1;
#X connect 19 0 20 0;
#X connect 19 1 18 0;
#X connect 19 2 18 1;
#X connect 20 0 28 0;
#X connect 21 0 20 0;
#X connect 21 1 18 0;
#X connect 22 0 1 1;
#X connect 22 0 24 1;
#X connect 22 0 25 1;
#X connect 22 0 34 0;
#X connect 23 0 22 0;
#X connect 24 0 25 0;
#X connect 25 0 9 0;
#X connect 26 0 35 0;
#X connect 27 0 8 1;
#X connect 27 0 9 1;
#X connect 28 0 27 0;
#X connect 29 0 31 0;
#X connect 29 1 30 1;
#X connect 30 0 13 0;
#X connect 31 0 30 0;
#X connect 32 0 17 0;
#X connect 33 0 6 0;
#X connect 34 0 26 1;
#X connect 34 0 2 1;
#X connect 34 0 35 1;
#X connect 35 0 8 0;
#X restore 115 223 pd disto;
#X obj 137 178 r \$0-low-g;
#X obj 213 248 r \$0-master-g;
#X obj 239 268 r \$0-master-h;
#X obj 160 198 r \$0-low-h;
#N canvas 0 22 436 602 disto 0;
#X obj 106 72 dbtorms;
#X obj 91 351 min~;
#X obj 91 413 max~;
#X obj 91 475 +~;
#X obj 91 517 +~;
#X obj 106 223 +~ 1;
#X obj 91 247 *~;
#X obj 91 539 outlet~;
#X obj 139 435 *~;
#X obj 196 435 *~;
#X obj 106 116 line~;
#X obj 106 94 pack 0 20;
#X obj 106 50 inlet;
#X obj 251 124 / 100;
#X obj 251 146 t b f;
#X obj 251 168 f 1;
#X obj 251 190 -, f 5;
#X obj 251 32 clip 0 100;
#X obj 198 187 +, f 5;
#X obj 170 145 t f b f, f 10;
#X obj 170 215 /, f 5;
#X obj 130 167 t b f;
#X obj 251 258 line~;
#X obj 251 236 pack 0 20;
#X obj 196 351 max~;
#X obj 196 413 -~;
#X obj 139 351 min~;
#X obj 170 259 line~;
#X obj 170 237 pack 0 20;
#X obj 251 56 t b f;
#X obj 251 100 -, f 5;
#X obj 251 78 f 100;
#X obj 251 10 inlet;
#X obj 91 194 inlet~;
#X obj 251 280 *~ -1;
#X obj 139 413 -~, f 16;
#X connect 0 0 11 0;
#X connect 0 0 21 0;
#X connect 1 0 2 0;
#X connect 2 0 3 0;
#X connect 3 0 4 0;
#X connect 4 0 7 0;
#X connect 5 0 6 1;
#X connect 6 0 1 0;
#X connect 6 0 24 0;
#X connect 6 0 26 0;
#X connect 8 0 3 1;
#X connect 9 0 4 1;
#X connect 10 0 5 0;
#X connect 11 0 10 0;
#X connect 12 0 0 0;
#X connect 13 0 14 0;
#X connect 13 0 19 0;
#X connect 14 0 15 0;
#X connect 14 1 16 1;
#X connect 15 0 16 0;
#X connect 16 0 23 0;
#X connect 17 0 29 0;
#X connect 18 0 20 1;
#X connect 19 0 20 0;
#X connect 19 1 18 0;
#X connect 19 2 18 1;
#X connect 20 0 28 0;
#X connect 21 0 20 0;
#X connect 21 1 18 0;
#X connect 22 0 1 1;
#X connect 22 0 24 1;
#X connect 22 0 25 1;
#X connect 22 0 34 0;
#X connect 23 0 22 0;
#X connect 24 0 25 0;
#X connect 25 0 9 0;
#X connect 26 0 35 0;
#X connect 27 0 8 1;
#X connect 27 0 9 1;
#X connect 28 0 27 0;
#X connect 29 0 31 0;
#X connect 29 1 30 1;
#X connect 30 0 13 0;
#X connect 31 0 30 0;
#X connect 32 0 17 0;
#X connect 33 0 6 0;
#X connect 34 0 26 1;
#X connect 34 0 2 1;
#X connect 34 0 35 1;
#X connect 35 0 8 0;
#X restore 188 223 pd disto;
#X obj 210 178 r \$0-mid-g;
#X obj 233 198 r \$0-mid-h;
#N canvas 0 22 436 602 disto 0;
#X obj 106 72 dbtorms;
#X obj 91 351 min~;
#X obj 91 413 max~;
#X obj 91 475 +~;
#X obj 91 517 +~;
#X obj 106 223 +~ 1;
#X obj 91 247 *~;
#X obj 91 539 outlet~;
#X obj 139 435 *~;
#X obj 196 435 *~;
#X obj 106 116 line~;
#X obj 106 94 pack 0 20;
#X obj 106 50 inlet;
#X obj 251 124 / 100;
#X obj 251 146 t b f;
#X obj 251 168 f 1;
#X obj 251 190 -, f 5;
#X obj 251 32 clip 0 100;
#X obj 198 187 +, f 5;
#X obj 170 145 t f b f, f 10;
#X obj 170 215 /, f 5;
#X obj 130 167 t b f;
#X obj 251 258 line~;
#X obj 251 236 pack 0 20;
#X obj 196 351 max~;
#X obj 196 413 -~;
#X obj 139 351 min~;
#X obj 170 259 line~;
#X obj 170 237 pack 0 20;
#X obj 251 56 t b f;
#X obj 251 100 -, f 5;
#X obj 251 78 f 100;
#X obj 251 10 inlet;
#X obj 91 194 inlet~;
#X obj 251 280 *~ -1;
#X obj 139 413 -~, f 16;
#X connect 0 0 11 0;
#X connect 0 0 21 0;
#X connect 1 0 2 0;
#X connect 2 0 3 0;
#X connect 3 0 4 0;
#X connect 4 0 7 0;
#X connect 5 0 6 1;
#X connect 6 0 1 0;
#X connect 6 0 24 0;
#X connect 6 0 26 0;
#X connect 8 0 3 1;
#X connect 9 0 4 1;
#X connect 10 0 5 0;
#X connect 11 0 10 0;
#X connect 12 0 0 0;
#X connect 13 0 14 0;
#X connect 13 0 19 0;
#X connect 14 0 15 0;
#X connect 14 1 16 1;
#X connect 15 0 16 0;
#X connect 16 0 23 0;
#X connect 17 0 29 0;
#X connect 18 0 20 1;
#X connect 19 0 20 0;
#X connect 19 1 18 0;
#X connect 19 2 18 1;
#X connect 20 0 28 0;
#X connect 21 0 20 0;
#X connect 21 1 18 0;
#X connect 22 0 1 1;
#X connect 22 0 24 1;
#X connect 22 0 25 1;
#X connect 22 0 34 0;
#X connect 23 0 22 0;
#X connect 24 0 25 0;
#X connect 25 0 9 0;
#X connect 26 0 35 0;
#X connect 27 0 8 1;
#X connect 27 0 9 1;
#X connect 28 0 27 0;
#X connect 29 0 31 0;
#X connect 29 1 30 1;
#X connect 30 0 13 0;
#X connect 31 0 30 0;
#X connect 32 0 17 0;
#X connect 33 0 6 0;
#X connect 34 0 26 1;
#X connect 34 0 2 1;
#X connect 34 0 35 1;
#X connect 35 0 8 0;
#X restore 258 223 pd disto;
#X obj 280 178 r \$0-high-g;
#X obj 303 198 r \$0-high-h;
#X connect 0 0 1 0;
#X connect 0 0 2 0;
#X connect 0 0 4 0;
#X connect 1 0 9 0;
#X connect 2 0 3 0;
#X connect 3 0 14 0;
#X connect 4 0 17 0;
#X connect 5 0 2 1;
#X connect 5 0 4 1;
#X connect 6 0 1 1;
#X connect 6 0 3 1;
#X connect 8 0 7 0;
#X connect 9 0 8 0;
#X connect 10 0 9 1;
#X connect 11 0 8 1;
#X connect 12 0 8 2;
#X connect 13 0 9 2;
#X connect 14 0 8 0;
#X connect 15 0 14 1;
#X connect 16 0 14 2;
#X connect 17 0 8 0;
#X connect 18 0 17 1;
#X connect 19 0 17 2;
#X restore 128 335 pd disto_band;
#X obj 125 167 c.knob @size 37 37 @pinned 0 @ignoreclick 0 @endless
0 @minmax 0 100 @bdsize 1 @bgcolor 0 0.600754 0.545421 1 @bdcolor 0
0.596801 0.541469 1 @necolor 0 0.478231 0.422899 1 @param0 "LowHardness"
"%" 8;
#X obj 174 167 c.knob @size 37 37 @pinned 0 @ignoreclick 0 @endless
0 @minmax 0 100 @bdsize 1 @bgcolor 0 0.600754 0.545421 1 @bdcolor 0
0.596801 0.541469 1 @necolor 0 0.478231 0.422899 1 @param0 "MediumHardness"
"%" 9;
#X obj 223 167 c.knob @size 37 37 @pinned 0 @ignoreclick 0 @endless
0 @minmax 0 100 @bdsize 1 @bgcolor 0 0.600754 0.545421 1 @bdcolor 0
0.596801 0.541469 1 @necolor 0 0.478231 0.422899 1 @param0 "HighHardness"
"%" 9;
#X obj 56 167 c.knob @size 37 37 @pinned 0 @ignoreclick 0 @endless
0 @minmax 0 100 @bdsize 1 @bgcolor 0 0.600754 0.545421 1 @bdcolor 0
0.596801 0.541469 1 @necolor 0 0.478231 0.422899 1 @param0 "MasterHardness"
"%" 7;
#X obj 8 138 c.comment @size 44 15 @pinned 0 @ignoreclick 0 @font "Futura"
11 "roman" "normal" @bgcolor 0 0.600754 0.545421 1 @bdcolor 0 0.600754
0.545421 1 @textcolor 0 0 0 1 @text "Overdrive";
#X obj 8 178 c.comment @size 46 15 @pinned 0 @ignoreclick 0 @font "Futura"
11 "roman" "normal" @bgcolor 0 0.600754 0.545421 1 @bdcolor 0 0.600754
0.545421 1 @textcolor 0 0 0 1 @text "Hardness";
#X obj 56 228 s \$0-master-g;
#X obj 125 228 s \$0-low-g;
#X obj 174 228 s \$0-mid-g;
#X obj 223 228 s \$0-high-g;
#X obj 56 258 s \$0-master-h;
#X obj 125 258 s \$0-low-h;
#X obj 174 258 s \$0-mid-h;
#X obj 223 258 s \$0-high-h;
#X obj 122 88 c.comment @size 30 15 @pinned 0 @ignoreclick 0 @font
"Futura" 11 "roman" "normal" @bgcolor 0 0.600754 0.545421 1 @bdcolor
0 0.600754 0.545421 1 @textcolor 0 0 0 1 @text "Hz";
#X obj 272 88 c.comment @size 30 15 @pinned 0 @ignoreclick 0 @font
"Futura" 11 "roman" "normal" @bgcolor 0 0.600754 0.545421 1 @bdcolor
0 0.600754 0.545421 1 @textcolor 0 0 0 1 @text "Hz";
#X obj 35 30 f 50;
#X obj 92 190 c.number @size 30 15 @pinned 0 @ignoreclick 1 @decimal
4 @minmax 0 44100 @font "Futura" 11 "roman" "normal" @bdsize 0 @bgcolor
0 0.603922 0.54902 0 @bdcolor 0 0.478231 0.422899 1 @textcolor 0 0
0 1 @param0 "HighFrequency" "Hz" 10;
#X msg 281 290 bgcolor 0 0.603922 0.54902 0;
#X connect 0 0 31 0;
#X connect 2 0 20 0;
#X connect 3 0 2 0;
#X connect 4 0 21 0;
#X connect 5 0 4 0;
#X connect 6 0 22 0;
#X connect 6 1 23 0;
#X connect 7 0 32 0;
#X connect 8 0 33 0;
#X connect 10 0 3 0;
#X connect 10 0 5 0;
#X connect 10 0 19 0;
#X connect 10 0 40 0;
#X connect 11 0 30 0;
#X connect 12 0 19 0;
#X connect 12 0 3 0;
#X connect 12 0 5 0;
#X connect 12 0 40 0;
#X connect 19 0 11 0;
#X connect 19 0 0 0;
#X connect 19 0 7 0;
#X connect 19 0 8 0;
#X connect 22 0 9 0;
#X connect 23 0 9 1;
#X connect 24 0 35 0;
#X connect 25 0 36 0;
#X connect 26 0 37 0;
#X connect 27 0 34 0;
#X connect 27 0 41 0;
#X connect 40 0 27 0;
#X connect 40 0 24 0;
#X connect 40 0 25 0;
#X connect 40 0 26 0;
#X connect 42 0 41 0;
