#N canvas 600 109 647 577 10;
#X obj 32 6 loadbang;
#X obj 195 67 nbx 5 15 0 20 0 0 empty \$0-rate empty 0 -8 0 10 -262144
-1 -1 0 256;
#X text 216 325 Input 2;
#X obj 135 327 adc~ 1 2, f 11;
#X text 76 325 Input 1;
#X text 441 78 Rate;
#X text 438 57 Oscillator;
#X obj 441 97 r \$0-rate;
#X obj 516 149 / 100;
#X obj 516 171 \$1 20;
#X obj 516 193 line~;
#X text 515 78 Depth;
#X obj 516 97 r \$0-depth;
#X msg 32 30 10;
#X obj 135 354 delwrite~ \$0-delay1 1000;
#X obj 198 385 delwrite~ \$0-delay2 1000;
#X obj 441 186 osc~;
#X obj 441 208 *~;
#X obj 441 156 / 2;
#X obj 441 303 +~ 1.5;
#X obj 441 248 *~, f 13;
#X obj 441 332 vd~ \$0-delay1;
#X text 370 370 Output 1;
#X obj 441 370 dac~ 1 2, f 18;
#X obj 546 332 vd~ \$0-delay1;
#X text 571 370 Output 2;
#X obj 516 119 max 0.02;
#X text 137 303 Vibrato;
#X msg 32 60 1;
#X obj 64 63 hradio 15 1 0 8 empty \$0-rate zaza 0 -8 0 10 -262144
-1 -1 0;
#X obj 87 122 vradio 20 1 0 5 empty empty empty 0 -8 0 10 -262144 -1
-1 0;
#X connect 0 0 13 0;
#X connect 0 0 28 0;
#X connect 3 0 14 0;
#X connect 3 1 15 0;
#X connect 7 0 18 0;
#X connect 8 0 9 0;
#X connect 9 0 10 0;
#X connect 10 0 20 1;
#X connect 12 0 26 0;
#X connect 16 0 17 0;
#X connect 16 0 17 1;
#X connect 17 0 20 0;
#X connect 18 0 16 0;
#X connect 19 0 21 0;
#X connect 20 0 19 0;
#X connect 20 0 24 0;
#X connect 21 0 23 0;
#X connect 24 0 23 1;
#X connect 26 0 8 0;
#X coords 0 -1 1 1 206 200 2 50 50;
