#N canvas 734 94 832 581 10;
#X obj 93 335 dac~, f 9;
#X obj 94 272 osc~ 220;
#X obj 16 57 hsl 128 15 0 100 0 0 empty \$0-amplitude Amplitude_dB
-3 -6 0 10 -262144 -1 -1 12700 1;
#X obj 187 225 dbtorms;
#X msg 187 247 \$1 20;
#X obj 187 269 line~;
#X obj 94 301 *~;
#X obj 278 64 loadbang;
#X msg 278 86 220;
#X msg 319 87 90;
#X obj 16 22 hsl 128 15 0 5000 0 0 empty \$0-frequency Frequency_Hz
-3 -6 0 10 -262144 -1 -1 559 1;
#X obj 21 80 tgl 15 0 empty \$0-state State 17 7 0 10 -262144 -1 -1
0 1;
#X obj 93 81 nbx 5 14 -1e+37 1e+37 0 0 empty \$0-state empty 0 -8 0
10 -262144 -1 -1 0 256;
#X connect 1 0 6 0;
#X connect 2 0 3 0;
#X connect 3 0 4 0;
#X connect 4 0 5 0;
#X connect 5 0 6 1;
#X connect 6 0 0 1;
#X connect 6 0 0 0;
#X connect 7 0 8 0;
#X connect 7 0 9 0;
#X connect 8 0 10 0;
#X connect 9 0 2 0;
#X connect 10 0 1 0;
#X coords 0 -1 1 1 150 100 2 5 5;
