#N canvas 401 50 772 723 10;
#X obj 59 97 hsl 128 15 0 10 0 0 \$0-depth-s \$0-depth Depth_ms -3
-6 0 10 -262144 -1 -1 127 1;
#X obj 59 67 hsl 128 15 0 5 0 0 empty \$0-rate Rate_Hz -3 -6 0 10 -262144
-1 -1 2540 1;
#X obj 195 67 nbx 5 15 0 5 0 0 empty \$0-rate empty 0 -8 0 10 -262144
-1 -1 1 256;
#X obj 195 97 nbx 5 15 0 10 0 0 empty \$0-depth empty 0 -8 0 10 -262144
-1 -1 0.1 256;
#X obj 59 128 hsl 128 15 0 10 0 0 \$0-shift-s \$0-shift Shift_ms -3
-6 0 10 -262144 -1 -1 127 1;
#X obj 195 128 nbx 5 15 0 10 0 0 empty \$0-shift empty 0 -8 0 10 -262144
-1 -1 0.1 256;
#X obj 59 158 hsl 128 15 0 100 0 0 \$0-feedback-s \$0-feedback Feeback_%
-3 -6 0 10 -262144 -1 -1 12700 1;
#X obj 195 158 nbx 5 15 0 100 0 0 empty \$0-feedback empty 0 -8 0 10
-262144 -1 -1 100 256;
#X obj 59 188 hsl 128 15 0 100 0 0 empty \$0-spread Spread_% -3 -6
0 10 -262144 -1 -1 12700 1;
#X obj 195 188 nbx 5 15 0 100 0 0 empty \$0-spread empty 0 -8 0 10
-262144 -1 -1 100 256;
#X obj 318 316 +~ 1;
#X obj 318 343 *~ 0.5;
#X text 390 173 Low Frequency Oscillator;
#X obj 297 636 +~, f 4;
#X obj 570 636 +~, f 4;
#X obj 570 316 +~ 1;
#X obj 570 343 *~ 0.5;
#X obj 430 226 phasor~ 1;
#X obj 318 289 cos~;
#X obj 570 289 cos~;
#X obj 434 316 line~;
#X msg 434 292 \$1 20;
#X obj 318 392 *~;
#X obj 570 392 *~;
#X obj 434 416 line~;
#X msg 434 391 \$1 20;
#X obj 318 452 +~;
#X obj 570 452 +~;
#X obj 585 236 line~;
#X msg 585 212 \$1 20;
#X obj 570 263 +~;
#X obj 464 566 line~;
#X msg 464 534 \$1 20;
#X obj 570 604 *~;
#X obj 318 604 *~;
#X obj 585 188 * 0.5;
#X text 648 30 Input 2;
#X obj 315 89 delwrite~ \$0-delay-1 5000;
#X obj 601 89 delwrite~ \$0-delay-2 5000;
#X obj 318 499 vd~ \$0-delay-1, f 16;
#X obj 570 499 vd~ \$0-delay-2, f 16;
#X text 646 684 Output 2;
#X text 226 684 Output 1;
#X text 109 37 Stereo Flanger;
#X obj 464 505 / 100;
#X obj 585 165 / 100, f 16;
#X obj 297 32 adc~ 1 2, f 50;
#X obj 297 684 dac~ 1 2, f 46;
#X text 329 65 Write Head 1;
#X text 605 65 Write Head 2;
#X text 608 475 Read Head 2;
#X text 331 475 Read Head 1;
#X obj 434 366 clip 0 4000;
#X obj 434 270 clip 0 4000;
#X obj 464 475 clip 0 100;
#X obj 585 135 clip 0 100;
#X obj 297 658 *~ 0.5;
#X obj 570 658 *~ 0.5;
#X obj 26 246 loadbang;
#X msg 39 270 1;
#X msg 45 364 0.1;
#X msg 40 410 100;
#X msg 25 464 100;
#X msg 50 313 0.1;
#N canvas 0 22 450 300 (subpatch) 0;
#X obj 14 18 inlet;
#X msg 14 40 set \$1;
#X obj 14 62 outlet;
#X connect 0 0 1 0;
#X connect 1 0 2 0;
#X restore 32 50 pd;
#N canvas 0 22 450 300 (subpatch) 0;
#X obj 14 18 inlet;
#X msg 14 40 set \$1;
#X obj 14 62 outlet;
#X connect 0 0 1 0;
#X connect 1 0 2 0;
#X restore 32 80 pd;
#X obj 39 292 s \$0-rate;
#X obj 431 200 r \$0-rate-s;
#X obj 434 248 r \$0-depth-s;
#X obj 50 335 s \$0-depth;
#X obj 45 386 s \$0-shift;
#N canvas 0 22 450 300 (subpatch) 0;
#X obj 14 18 inlet;
#X msg 14 40 set \$1;
#X obj 14 62 outlet;
#X connect 0 0 1 0;
#X connect 1 0 2 0;
#X restore 32 111 pd;
#N canvas 0 22 450 300 (subpatch) 0;
#X obj 14 18 inlet;
#X msg 14 40 set \$1;
#X obj 14 62 outlet;
#X connect 0 0 1 0;
#X connect 1 0 2 0;
#X restore 32 141 pd;
#X obj 434 344 r \$0-shift-s;
#X obj 464 453 r \$0-feedback-s;
#X obj 585 113 r \$0-spread-s;
#X obj 40 432 s \$0-feedback;
#X obj 25 486 s \$0-spread;
#N canvas 0 22 450 300 (subpatch) 0;
#X obj 14 18 inlet;
#X msg 14 40 set \$1;
#X obj 14 62 outlet;
#X connect 0 0 1 0;
#X connect 1 0 2 0;
#X restore 32 172 pd;
#X connect 0 0 65 0;
#X connect 1 0 64 0;
#X connect 2 0 1 0;
#X connect 3 0 0 0;
#X connect 4 0 71 0;
#X connect 5 0 4 0;
#X connect 6 0 72 0;
#X connect 7 0 6 0;
#X connect 8 0 78 0;
#X connect 9 0 8 0;
#X connect 10 0 11 0;
#X connect 11 0 22 0;
#X connect 13 0 56 0;
#X connect 14 0 57 0;
#X connect 15 0 16 0;
#X connect 16 0 23 0;
#X connect 17 0 18 0;
#X connect 17 0 30 0;
#X connect 18 0 10 0;
#X connect 19 0 15 0;
#X connect 20 0 22 1;
#X connect 20 0 23 1;
#X connect 21 0 20 0;
#X connect 22 0 26 0;
#X connect 23 0 27 0;
#X connect 24 0 26 1;
#X connect 24 0 27 1;
#X connect 25 0 24 0;
#X connect 26 0 39 0;
#X connect 27 0 40 0;
#X connect 28 0 30 1;
#X connect 29 0 28 0;
#X connect 30 0 19 0;
#X connect 31 0 34 1;
#X connect 31 0 33 1;
#X connect 32 0 31 0;
#X connect 33 0 14 0;
#X connect 34 0 13 1;
#X connect 35 0 29 0;
#X connect 39 0 34 0;
#X connect 40 0 33 0;
#X connect 44 0 32 0;
#X connect 45 0 35 0;
#X connect 46 0 13 0;
#X connect 46 0 37 0;
#X connect 46 1 14 1;
#X connect 46 1 38 0;
#X connect 52 0 25 0;
#X connect 53 0 21 0;
#X connect 54 0 44 0;
#X connect 55 0 45 0;
#X connect 56 0 47 0;
#X connect 57 0 47 1;
#X connect 58 0 59 0;
#X connect 58 0 63 0;
#X connect 58 0 60 0;
#X connect 58 0 61 0;
#X connect 58 0 62 0;
#X connect 59 0 66 0;
#X connect 60 0 70 0;
#X connect 61 0 76 0;
#X connect 62 0 77 0;
#X connect 63 0 69 0;
#X connect 64 0 2 0;
#X connect 65 0 3 0;
#X connect 67 0 17 0;
#X connect 68 0 53 0;
#X connect 71 0 5 0;
#X connect 72 0 7 0;
#X connect 73 0 52 0;
#X connect 74 0 54 0;
#X connect 75 0 55 0;
#X connect 78 0 9 0;
#X coords 0 -1 1 1 206 180 2 50 30;
