#N canvas 309 89 1032 534 10;
#X obj 1 2 c.camomile @size 401 191 @pinned 1 @font "Trattatello" 14
"roman" "normal" @bgcolor 0.138331 0.16995 0.16995 1 @bdcolor 0.869512
0.233187 0.142284 1 @txtcolor 0.869512 0.233187 0.142284 1;
#X text 688 136 Size delay feedback array;
#X obj 22 55 c.slider @size 15 120 @pinned 0 @minmax 0 1000 @bgcolor
0.138331 0.16995 0.16995 1 @bdcolor 0.501945 0.501945 0.501945 1 @kncolor
0.501945 0.501945 0.501945 1 @param0 "Size" "ms" 1;
#X obj 293 30 c.menu @size 100 18 @pinned 0 @hover 0 @items "Hanning"
"Poisson" "Triangle" "Sync" @states 0 0 0 0 @font "Chalkboard" 14 "roman"
"normal" @bgcolor 0.138331 0.16995 0.16995 0.75 @bdcolor 0.869512 0.241092
0.142284 0.5 @textcolor 0.869512 0.241092 0.142284 0 @param0 "" ""
1;
#X obj 696 278 nbx 5 14 -1e+37 1e+37 0 0 empty empty empty 0 -8 0 10
-262144 -1 -1 629.31 256;
#X obj 757 278 nbx 5 14 -1e+37 1e+37 0 0 empty empty empty 0 -8 0 10
-262144 -1 -1 0 256;
#X obj 816 278 nbx 5 14 -1e+37 1e+37 0 0 empty empty empty 0 -8 0 10
-262144 -1 -1 0 256;
#X obj 875 281 nbx 5 14 -1e+37 1e+37 0 0 empty empty empty 0 -8 0 10
-262144 -1 -1 0 256;
#X obj 619 10 table \$0-array 512;
#N canvas 257 105 728 632 grain 0;
#X obj 564 175 clip~ 0 1;
#X obj 564 138 line~;
#X obj 302 553 *~;
#X obj 263 362 *~;
#X msg 564 114 \$1 20;
#X obj 393 272 samphold~;
#X obj 393 130 noise~;
#X obj 393 159 *~ 1;
#X obj 393 187 +~;
#X obj 393 244 +~ 1;
#X obj 393 213 abs~;
#X obj 439 130 * 0.1;
#X obj 263 316 samphold~;
#X obj 263 179 +~ 1;
#X obj 263 205 *~ 0.5;
#X obj 263 139 noise~;
#N canvas 0 50 450 300 >~ 0;
#X obj 67 114 max~ 0;
#X obj 67 175 -~ 0;
#X obj 130 188 /~;
#X obj 130 152 sig~ -1;
#X obj 145 114 -~;
#X obj 67 212 *~;
#X obj 67 17 inlet~;
#X obj 67 252 outlet~;
#X obj 132 15 inlet;
#X connect 0 0 1 0;
#X connect 1 0 5 0;
#X connect 2 0 5 1;
#X connect 3 0 2 0;
#X connect 4 0 2 1;
#X connect 5 0 7 0;
#X connect 6 0 0 0;
#X connect 6 0 4 1;
#X connect 8 0 4 0;
#X connect 8 0 1 1;
#X connect 8 0 0 1;
#X restore 263 234 pd >~ 1;
#X obj 53 61 inlet~;
#X obj 302 585 outlet~;
#X obj 362 17 inlet;
#X obj 313 19 inlet;
#X obj 166 66 inlet;
#X obj 218 23 inlet, f 6;
#N canvas 0 22 459 424 grain_size 0;
#X obj 34 322 *~ 513;
#X obj 34 136 random;
#X obj 34 212 +, f 5;
#X obj 34 114 metro;
#X obj 34 185 t b f;
#X obj 34 80 c.loadmess 1;
#X obj 34 159 * 0.1;
#X obj 34 301 phasor~ 1;
#X obj 34 235 t b f;
#X obj 34 280 /, f 5;
#X obj 34 257 f 1000;
#X obj 34 379 outlet~;
#X obj 143 87 inlet;
#X obj 34 344 tabread4~ \$0-array, f 41;
#X connect 0 0 13 0;
#X connect 1 0 6 0;
#X connect 2 0 8 0;
#X connect 3 0 1 0;
#X connect 4 0 2 0;
#X connect 4 1 2 1;
#X connect 5 0 3 0;
#X connect 6 0 4 0;
#X connect 7 0 0 0;
#X connect 8 0 10 0;
#X connect 8 1 9 1;
#X connect 9 0 7 0;
#X connect 10 0 9 0;
#X connect 12 0 1 1;
#X connect 12 0 3 1;
#X connect 12 0 2 0;
#X connect 13 0 11 0;
#X restore 167 96 pd grain_size;
#X obj 355 429 *~;
#X obj 393 471 +~ 2;
#X obj 404 424 delwrite~ \$0-buf1 5500;
#X obj 393 500 vd~ \$0-buf1;
#X connect 0 0 24 0;
#X connect 1 0 0 0;
#X connect 2 0 18 0;
#X connect 3 0 2 1;
#X connect 4 0 1 0;
#X connect 5 0 25 0;
#X connect 6 0 7 0;
#X connect 7 0 8 0;
#X connect 8 0 10 0;
#X connect 9 0 5 0;
#X connect 10 0 9 0;
#X connect 11 0 7 1;
#X connect 12 0 3 0;
#X connect 13 0 14 0;
#X connect 14 0 16 0;
#X connect 15 0 13 0;
#X connect 16 0 12 0;
#X connect 17 0 26 0;
#X connect 19 0 16 1;
#X connect 20 0 4 0;
#X connect 21 0 23 0;
#X connect 22 0 11 0;
#X connect 22 0 8 1;
#X connect 23 0 12 1;
#X connect 23 0 3 1;
#X connect 23 0 5 1;
#X connect 24 0 26 0;
#X connect 25 0 27 0;
#X connect 27 0 24 0;
#X connect 27 0 2 0;
#X restore 636 416 pd grain;
#N canvas 237 132 503 391 grain_env 0;
#X obj 270 148 / 256;
#X obj 270 193 * 1;
#X obj 270 247 * 0.5;
#X obj 270 219 sin;
#X obj 270 271 + 0.5;
#X obj 271 8 c.loadmess;
#X obj 270 120 t f f;
#X obj 270 299 pack;
#X obj 270 169 - 0.5;
#X obj 271 32 t b b;
#X obj 270 76 until;
#X obj 270 97 f;
#X obj 297 98 + 1;
#X msg 270 55 512;
#X msg 313 165 3.14159;
#X obj 270 323 tabwrite \$0-array;
#X connect 0 0 8 0;
#X connect 1 0 3 0;
#X connect 2 0 4 0;
#X connect 3 0 2 0;
#X connect 4 0 7 0;
#X connect 5 0 9 0;
#X connect 6 0 0 0;
#X connect 6 1 7 1;
#X connect 7 0 15 0;
#X connect 8 0 1 0;
#X connect 9 0 13 0;
#X connect 9 1 14 0;
#X connect 10 0 11 0;
#X connect 11 0 12 0;
#X connect 11 0 6 0;
#X connect 12 0 11 1;
#X connect 13 0 10 0;
#X connect 14 0 1 1;
#X restore 619 31 pd grain_env;
#N canvas 257 105 728 632 grain 0;
#X obj 564 175 clip~ 0 1;
#X obj 564 138 line~;
#X obj 302 553 *~;
#X obj 263 362 *~;
#X msg 564 114 \$1 20;
#X obj 393 272 samphold~;
#X obj 393 130 noise~;
#X obj 393 159 *~ 1;
#X obj 393 187 +~;
#X obj 393 244 +~ 1;
#X obj 393 213 abs~;
#X obj 439 130 * 0.1;
#X obj 263 316 samphold~;
#X obj 263 179 +~ 1;
#X obj 263 205 *~ 0.5;
#X obj 263 139 noise~;
#N canvas 0 50 450 300 >~ 0;
#X obj 67 114 max~ 0;
#X obj 67 175 -~ 0;
#X obj 130 188 /~;
#X obj 130 152 sig~ -1;
#X obj 145 114 -~;
#X obj 67 212 *~;
#X obj 67 17 inlet~;
#X obj 67 252 outlet~;
#X obj 132 15 inlet;
#X connect 0 0 1 0;
#X connect 1 0 5 0;
#X connect 2 0 5 1;
#X connect 3 0 2 0;
#X connect 4 0 2 1;
#X connect 5 0 7 0;
#X connect 6 0 0 0;
#X connect 6 0 4 1;
#X connect 8 0 4 0;
#X connect 8 0 1 1;
#X connect 8 0 0 1;
#X restore 263 234 pd >~ 1;
#X obj 53 61 inlet~;
#X obj 302 585 outlet~;
#X obj 362 17 inlet;
#X obj 313 19 inlet;
#X obj 166 66 inlet;
#X obj 218 23 inlet, f 6;
#N canvas 0 22 459 424 grain_size 0;
#X obj 34 322 *~ 513;
#X obj 34 136 random;
#X obj 34 212 +, f 5;
#X obj 34 114 metro;
#X obj 34 185 t b f;
#X obj 34 80 c.loadmess 1;
#X obj 34 159 * 0.1;
#X obj 34 301 phasor~ 1;
#X obj 34 235 t b f;
#X obj 34 280 /, f 5;
#X obj 34 257 f 1000;
#X obj 34 379 outlet~;
#X obj 143 87 inlet;
#X obj 34 344 tabread4~ \$0-array, f 41;
#X connect 0 0 13 0;
#X connect 1 0 6 0;
#X connect 2 0 8 0;
#X connect 3 0 1 0;
#X connect 4 0 2 0;
#X connect 4 1 2 1;
#X connect 5 0 3 0;
#X connect 6 0 4 0;
#X connect 7 0 0 0;
#X connect 8 0 10 0;
#X connect 8 1 9 1;
#X connect 9 0 7 0;
#X connect 10 0 9 0;
#X connect 12 0 1 1;
#X connect 12 0 3 1;
#X connect 12 0 2 0;
#X connect 13 0 11 0;
#X restore 167 96 pd grain_size;
#X obj 355 429 *~;
#X obj 393 471 +~ 2;
#X obj 404 424 delwrite~ \$0-buf2 5500;
#X obj 393 501 vd~ \$0-buf2;
#X connect 0 0 24 0;
#X connect 1 0 0 0;
#X connect 2 0 18 0;
#X connect 3 0 2 1;
#X connect 4 0 1 0;
#X connect 5 0 25 0;
#X connect 6 0 7 0;
#X connect 7 0 8 0;
#X connect 8 0 10 0;
#X connect 9 0 5 0;
#X connect 10 0 9 0;
#X connect 11 0 7 1;
#X connect 12 0 3 0;
#X connect 13 0 14 0;
#X connect 14 0 16 0;
#X connect 15 0 13 0;
#X connect 16 0 12 0;
#X connect 17 0 26 0;
#X connect 19 0 16 1;
#X connect 20 0 4 0;
#X connect 21 0 23 0;
#X connect 22 0 11 0;
#X connect 22 0 8 1;
#X connect 23 0 12 1;
#X connect 23 0 3 1;
#X connect 23 0 5 1;
#X connect 24 0 26 0;
#X connect 25 0 27 0;
#X connect 27 0 24 0;
#X connect 27 0 2 0;
#X restore 716 416 pd grain;
#N canvas 257 105 728 632 grain 0;
#X obj 564 175 clip~ 0 1;
#X obj 564 138 line~;
#X obj 302 553 *~;
#X obj 263 362 *~;
#X msg 564 114 \$1 20;
#X obj 393 272 samphold~;
#X obj 393 130 noise~;
#X obj 393 159 *~ 1;
#X obj 393 187 +~;
#X obj 393 244 +~ 1;
#X obj 393 213 abs~;
#X obj 439 130 * 0.1;
#X obj 263 316 samphold~;
#X obj 263 179 +~ 1;
#X obj 263 205 *~ 0.5;
#X obj 263 139 noise~;
#N canvas 0 50 450 300 >~ 0;
#X obj 67 114 max~ 0;
#X obj 67 175 -~ 0;
#X obj 130 188 /~;
#X obj 130 152 sig~ -1;
#X obj 145 114 -~;
#X obj 67 212 *~;
#X obj 67 17 inlet~;
#X obj 67 252 outlet~;
#X obj 132 15 inlet;
#X connect 0 0 1 0;
#X connect 1 0 5 0;
#X connect 2 0 5 1;
#X connect 3 0 2 0;
#X connect 4 0 2 1;
#X connect 5 0 7 0;
#X connect 6 0 0 0;
#X connect 6 0 4 1;
#X connect 8 0 4 0;
#X connect 8 0 1 1;
#X connect 8 0 0 1;
#X restore 263 234 pd >~ 1;
#X obj 53 61 inlet~;
#X obj 302 585 outlet~;
#X obj 362 17 inlet;
#X obj 313 19 inlet;
#X obj 166 66 inlet;
#X obj 218 23 inlet, f 6;
#N canvas 0 22 459 424 grain_size 0;
#X obj 34 322 *~ 513;
#X obj 34 136 random;
#X obj 34 212 +, f 5;
#X obj 34 114 metro;
#X obj 34 185 t b f;
#X obj 34 80 c.loadmess 1;
#X obj 34 159 * 0.1;
#X obj 34 301 phasor~ 1;
#X obj 34 235 t b f;
#X obj 34 280 /, f 5;
#X obj 34 257 f 1000;
#X obj 34 379 outlet~;
#X obj 143 87 inlet;
#X obj 34 344 tabread4~ \$0-array, f 41;
#X connect 0 0 13 0;
#X connect 1 0 6 0;
#X connect 2 0 8 0;
#X connect 3 0 1 0;
#X connect 4 0 2 0;
#X connect 4 1 2 1;
#X connect 5 0 3 0;
#X connect 6 0 4 0;
#X connect 7 0 0 0;
#X connect 8 0 10 0;
#X connect 8 1 9 1;
#X connect 9 0 7 0;
#X connect 10 0 9 0;
#X connect 12 0 1 1;
#X connect 12 0 3 1;
#X connect 12 0 2 0;
#X connect 13 0 11 0;
#X restore 167 96 pd grain_size;
#X obj 355 429 *~;
#X obj 393 471 +~ 2;
#X obj 404 424 delwrite~ \$0-buf3 5500;
#X obj 393 500 vd~ \$0-buf3;
#X connect 0 0 24 0;
#X connect 1 0 0 0;
#X connect 2 0 18 0;
#X connect 3 0 2 1;
#X connect 4 0 1 0;
#X connect 5 0 25 0;
#X connect 6 0 7 0;
#X connect 7 0 8 0;
#X connect 8 0 10 0;
#X connect 9 0 5 0;
#X connect 10 0 9 0;
#X connect 11 0 7 1;
#X connect 12 0 3 0;
#X connect 13 0 14 0;
#X connect 14 0 16 0;
#X connect 15 0 13 0;
#X connect 16 0 12 0;
#X connect 17 0 26 0;
#X connect 19 0 16 1;
#X connect 20 0 4 0;
#X connect 21 0 23 0;
#X connect 22 0 11 0;
#X connect 22 0 8 1;
#X connect 23 0 12 1;
#X connect 23 0 3 1;
#X connect 23 0 5 1;
#X connect 24 0 26 0;
#X connect 25 0 27 0;
#X connect 27 0 24 0;
#X connect 27 0 2 0;
#X restore 786 416 pd grain;
#N canvas 257 105 728 632 grain 0;
#X obj 564 175 clip~ 0 1;
#X obj 564 138 line~;
#X obj 302 553 *~;
#X obj 263 362 *~;
#X msg 564 114 \$1 20;
#X obj 393 272 samphold~;
#X obj 393 130 noise~;
#X obj 393 159 *~ 1;
#X obj 393 187 +~;
#X obj 393 244 +~ 1;
#X obj 393 213 abs~;
#X obj 439 130 * 0.1;
#X obj 263 316 samphold~;
#X obj 263 179 +~ 1;
#X obj 263 205 *~ 0.5;
#X obj 263 139 noise~;
#N canvas 0 50 450 300 >~ 0;
#X obj 67 114 max~ 0;
#X obj 67 175 -~ 0;
#X obj 130 188 /~;
#X obj 130 152 sig~ -1;
#X obj 145 114 -~;
#X obj 67 212 *~;
#X obj 67 17 inlet~;
#X obj 67 252 outlet~;
#X obj 132 15 inlet;
#X connect 0 0 1 0;
#X connect 1 0 5 0;
#X connect 2 0 5 1;
#X connect 3 0 2 0;
#X connect 4 0 2 1;
#X connect 5 0 7 0;
#X connect 6 0 0 0;
#X connect 6 0 4 1;
#X connect 8 0 4 0;
#X connect 8 0 1 1;
#X connect 8 0 0 1;
#X restore 263 234 pd >~ 1;
#X obj 53 61 inlet~;
#X obj 302 585 outlet~;
#X obj 362 17 inlet;
#X obj 313 19 inlet;
#X obj 166 66 inlet;
#X obj 218 23 inlet, f 6;
#N canvas 0 22 459 424 grain_size 0;
#X obj 34 322 *~ 513;
#X obj 34 136 random;
#X obj 34 212 +, f 5;
#X obj 34 114 metro;
#X obj 34 185 t b f;
#X obj 34 80 c.loadmess 1;
#X obj 34 159 * 0.1;
#X obj 34 301 phasor~ 1;
#X obj 34 235 t b f;
#X obj 34 280 /, f 5;
#X obj 34 257 f 1000;
#X obj 34 379 outlet~;
#X obj 143 87 inlet;
#X obj 34 344 tabread4~ \$0-array, f 41;
#X connect 0 0 13 0;
#X connect 1 0 6 0;
#X connect 2 0 8 0;
#X connect 3 0 1 0;
#X connect 4 0 2 0;
#X connect 4 1 2 1;
#X connect 5 0 3 0;
#X connect 6 0 4 0;
#X connect 7 0 0 0;
#X connect 8 0 10 0;
#X connect 8 1 9 1;
#X connect 9 0 7 0;
#X connect 10 0 9 0;
#X connect 12 0 1 1;
#X connect 12 0 3 1;
#X connect 12 0 2 0;
#X connect 13 0 11 0;
#X restore 167 96 pd grain_size;
#X obj 355 429 *~;
#X obj 393 471 +~ 2;
#X obj 404 424 delwrite~ \$0-buf4 5500;
#X obj 393 501 vd~ \$0-buf4;
#X connect 0 0 24 0;
#X connect 1 0 0 0;
#X connect 2 0 18 0;
#X connect 3 0 2 1;
#X connect 4 0 1 0;
#X connect 5 0 25 0;
#X connect 6 0 7 0;
#X connect 7 0 8 0;
#X connect 8 0 10 0;
#X connect 9 0 5 0;
#X connect 10 0 9 0;
#X connect 11 0 7 1;
#X connect 12 0 3 0;
#X connect 13 0 14 0;
#X connect 14 0 16 0;
#X connect 15 0 13 0;
#X connect 16 0 12 0;
#X connect 17 0 26 0;
#X connect 19 0 16 1;
#X connect 20 0 4 0;
#X connect 21 0 23 0;
#X connect 22 0 11 0;
#X connect 22 0 8 1;
#X connect 23 0 12 1;
#X connect 23 0 3 1;
#X connect 23 0 5 1;
#X connect 24 0 26 0;
#X connect 25 0 27 0;
#X connect 27 0 24 0;
#X connect 27 0 2 0;
#X restore 866 416 pd grain;
#X obj 110 54 c.slider @size 15 120 @pinned 0 @minmax 0 5000 @bgcolor
0.138331 0.16995 0.16995 1 @bdcolor 0.501945 0.501945 0.501945 1 @kncolor
0.501945 0.501945 0.501945 1 @param0 "Delay" "ms" 2;
#X obj 188 55 c.slider @size 15 120 @pinned 0 @minmax 0 100 @bgcolor
0.138331 0.16995 0.16995 1 @bdcolor 0.501945 0.501945 0.501945 1 @kncolor
0.501945 0.501945 0.501945 1 @param0 "Feedback" "%" 3;
#X obj 267 56 c.slider @size 15 120 @pinned 0 @minmax 0 100 @bgcolor
0.138331 0.16995 0.16995 1 @bdcolor 0.501945 0.501945 0.501945 1 @kncolor
0.501945 0.501945 0.501945 1 @param0 "Rarefaction" "%" 4;
#X obj -8 317 loadbang;
#X obj 2 337 f 100;
#X obj 16 292 bng 15 250 50 0 empty empty empty 17 7 0 10 -262144 -1
-1;
#X msg 107 248 set \$1;
#X obj 18 30 c.comment @size 53 18 @pinned 0 @font "Chalkduster" 14
"roman" "normal" @bgcolor 0.138331 0.16995 0.16995 1 @bdcolor 0.138331
0.16995 0.16995 1 @textcolor 0.869512 0.241092 0.142284 1 @text "Size :"
;
#X obj 46 157 c.number @size 40 18 @pinned 0 @decimal 4 @minmax 0 1000
@font "Chalkboard" 14 "roman" "normal" @bgcolor 0.138331 0.16995 0.16995
1 @bdcolor 0.501945 0.501945 0.501945 1 @textcolor 0.501945 0.501945
0.501945 1 @param0 "" "" 1;
#X obj 135 157 c.number @size 40 18 @pinned 0 @decimal 4 @minmax 0
1000 @font "Chalkboard" 14 "roman" "normal" @bgcolor 0.138331 0.16995
0.16995 1 @bdcolor 0.501945 0.501945 0.501945 1 @textcolor 0.501945
0.501945 0.501945 1 @param0 "" "" 1;
#X obj 215 157 c.number @size 40 18 @pinned 0 @decimal 4 @minmax 0
1000 @font "Chalkboard" 14 "roman" "normal" @bgcolor 0.138331 0.16995
0.16995 1 @bdcolor 0.501945 0.501945 0.501945 1 @textcolor 0.501945
0.501945 0.501945 1 @param0 "" "" 1;
#X obj 295 157 c.number @size 40 18 @pinned 0 @decimal 4 @minmax 0
1000 @font "Chalkboard" 14 "roman" "normal" @bgcolor 0.138331 0.16995
0.16995 1 @bdcolor 0.501945 0.501945 0.501945 1 @textcolor 0.501945
0.501945 0.501945 1 @param0 "" "" 1;
#X obj 108 30 c.comment @size 71 18 @pinned 0 @font "Chalkduster" 14
"roman" "normal" @bgcolor 0.138331 0.16995 0.16995 1 @bdcolor 0.138331
0.16995 0.16995 1 @textcolor 0.869512 0.241092 0.142284 1 @text "Delay :"
;
#X obj 188 30 c.comment @size 93 18 @pinned 0 @font "Chalkduster" 14
"roman" "normal" @bgcolor 0.138331 0.16995 0.16995 1 @bdcolor 0.138331
0.16995 0.16995 1 @textcolor 0.869512 0.241092 0.142284 1 @text "Feedback :"
;
#X obj 725 330 adc~ 1 2;
#X obj 636 478 dac~ 1 2;
#X obj 861 242 / 100;
#X obj 804 246 / 100;
#X connect 2 0 22 0;
#X connect 2 0 4 0;
#X connect 4 0 9 1;
#X connect 4 0 11 1;
#X connect 4 0 12 1;
#X connect 4 0 13 1;
#X connect 5 0 9 2;
#X connect 5 0 11 2;
#X connect 5 0 12 2;
#X connect 5 0 13 2;
#X connect 6 0 9 3;
#X connect 6 0 11 3;
#X connect 6 0 12 3;
#X connect 6 0 13 3;
#X connect 7 0 9 4;
#X connect 7 0 11 4;
#X connect 7 0 12 4;
#X connect 7 0 13 4;
#X connect 9 0 29 0;
#X connect 9 0 29 1;
#X connect 11 0 29 0;
#X connect 11 0 29 1;
#X connect 12 0 29 0;
#X connect 12 0 29 1;
#X connect 13 0 29 0;
#X connect 13 0 29 1;
#X connect 14 0 5 0;
#X connect 15 0 31 0;
#X connect 16 0 30 0;
#X connect 17 0 18 0;
#X connect 18 0 2 0;
#X connect 19 0 18 0;
#X connect 20 0 2 0;
#X connect 22 0 20 0;
#X connect 28 0 9 0;
#X connect 28 0 11 0;
#X connect 28 0 12 0;
#X connect 28 0 13 0;
#X connect 28 1 9 0;
#X connect 28 1 11 0;
#X connect 28 1 12 0;
#X connect 28 1 13 0;
#X connect 30 0 7 0;
#X connect 31 0 6 0;
