#N canvas 488 45 647 577 10;
#X obj 185 168 nbx 5 15 0 20 0 0 empty \$0-zaza empty 0 -8 0 10 -262144
-1 -1 0 256;
#X obj 54 168 hradio 15 1 0 8 empty \$0-zaza zaza 0 -8 0 10 -262144
-1 -1 0;
#X obj 56 76 hsl 128 15 0 20 0 0 empty \$0-rate Rate_Hz -3 -6 0 10
-262144 -1 -1 0 1;
#X obj 192 100 nbx 5 15 0 20 0 0 empty \$0-rate empty 0 -8 0 10 -262144
-1 -1 0 256;
#X obj 54 106 hsl 128 15 100 0 0 0 empty \$0-depth Depth_% -3 -6 0
10 -262144 -1 -1 0 1;
#X obj 192 130 nbx 5 15 0 100 0 0 empty \$0-depth empty 0 -8 0 10 -262144
-1 -1 0 256;
#X obj 185 198 nbx 5 15 20 0 0 0 empty \$0-zozo empty 0 -8 0 10 -262144
-1 -1 0 256;
#X obj 54 198 hradio 15 1 0 8 empty \$0-zozo zozo 0 -8 0 10 -262144
-1 -1 3;
#X obj 276 77 vsl 15 128 0 80 0 0 empty \$0-rate empty 0 -9 0 10 -262144
-1 -1 0 1;
#X obj 306 77 vsl 15 128 40 0 0 0 empty \$0-rate empty 0 -9 0 10 -262144
-1 -1 0 1;
#X obj 77 246 tgl 15 0 empty empty empty 17 7 0 10 -262144 -1 -1 0
1;
#X obj 77 266 tgl 20 0 empty empty empty 17 7 0 10 -262144 -1 -1 0
1;
#X obj 130 225 vradio 8 1 0 8 empty empty empty 0 -8 0 10 -262144 -1
-1 0;
#X obj 181 269 vradio 15 1 0 4 empty empty empty 0 -8 0 10 -262144
-1 -1 0;
#X obj 133 475 print zaza;
#X obj 135 357 loadbang;
#X msg 135 379 1;
#X obj 133 409 metro 500;
#X obj 406 149 r pd;
#X obj 406 171 route dsp;
#X obj 406 213 samplerate~;
#X obj 406 255 print samplerate;
#X obj 406 193 bang;
#X obj 398 401 camo.subpatch;
#X obj 409 363 adc~;
#X obj 398 423 dac~, f 13;
#X obj 236 377 r \$0-playhead;
#X obj 291 291 zaza;
#X connect 10 0 11 0;
#X connect 15 0 16 0;
#X connect 16 0 17 0;
#X connect 18 0 19 0;
#X connect 19 0 22 0;
#X connect 22 0 20 0;
#X connect 23 0 25 0;
#X connect 23 1 25 1;
#X connect 24 0 23 0;
#X connect 24 1 23 1;
#X coords 0 -1 1 1 300 300 2 50 50;
