#N canvas 482 41 355 437 10;
#X obj 59 67 hsl 128 15 0 20 0 0 \$0-rate-s \$0-rate Rate_Hz -3 -6
0 10 -262144 -1 -1 6350 1;
#X obj 195 67 nbx 5 15 0 20 0 0 empty \$0-rate empty 0 -8 0 10 -262144
-1 -1 10 256;
#X obj 79 139 adc~ 1 2, f 11;
#X obj 79 371 dac~ 1 2, f 11;
#X obj 163 170 osc~;
#X obj 79 343 *~, f 4;
#X obj 142 343 *~, f 4;
#X obj 59 97 hsl 128 15 0 100 0 0 \$0-depth-s \$0-depth Depth_% -3
-6 0 10 -262144 -1 -1 12700 1;
#X obj 195 97 nbx 5 15 0 100 0 0 empty \$0-depth empty 0 -8 0 10 -262144
-1 -1 100 256;
#X obj 235 193 / 100;
#X obj 235 215 \$1 20;
#X obj 235 237 line~;
#X obj 163 271 *~;
#X obj 235 163 clip 0 100;
#X obj 163 214 *~ 0.5;
#X obj 163 192 +~ 1;
#X obj 163 310 +~, f 10;
#X obj 220 263 sig~ 1;
#X obj 220 288 -~;
#X text 126 36 Tremolo;
#N canvas 0 22 450 300 init 0;
#X obj 35 41 loadbang;
#X obj 28 97 s \$0-rate;
#X obj 39 140 s \$0-depth;
#X msg 28 75 10;
#X msg 39 118 100;
#X connect 0 0 3 0;
#X connect 0 0 4 0;
#X connect 3 0 1 0;
#X connect 4 0 2 0;
#X restore 21 161 pd init;
#X obj 163 141 r \$0-rate-s;
#X obj 235 141 r \$0-depth-s;
#N canvas 0 22 450 300 (subpatch) 0;
#X obj 14 18 inlet;
#X msg 14 40 set \$1;
#X obj 14 62 outlet;
#X connect 0 0 1 0;
#X connect 1 0 2 0;
#X restore 32 50 pd;
#N canvas 0 22 450 300 (subpatch) 0;
#X obj 14 18 inlet;
#X msg 14 40 set \$1;
#X obj 14 62 outlet;
#X connect 0 0 1 0;
#X connect 1 0 2 0;
#X restore 32 80 pd;
#X connect 0 0 23 0;
#X connect 1 0 0 0;
#X connect 2 0 5 0;
#X connect 2 1 6 0;
#X connect 4 0 15 0;
#X connect 5 0 3 0;
#X connect 6 0 3 1;
#X connect 7 0 24 0;
#X connect 8 0 7 0;
#X connect 9 0 10 0;
#X connect 10 0 11 0;
#X connect 11 0 12 1;
#X connect 11 0 18 1;
#X connect 12 0 16 0;
#X connect 13 0 9 0;
#X connect 14 0 12 0;
#X connect 15 0 14 0;
#X connect 16 0 6 1;
#X connect 16 0 5 1;
#X connect 17 0 18 0;
#X connect 18 0 16 1;
#X connect 21 0 4 0;
#X connect 22 0 13 0;
#X connect 23 0 1 0;
#X connect 24 0 8 0;
#X coords 0 -1 1 1 206 90 2 50 30;
