#N canvas 168 23 834 775 10;
#N canvas 0 22 1044 795 wf 0;
#X obj 16 13 r \$0-organ-harmonic-1-s;
#X obj 56 75 t b f;
#X obj 84 148 t b f;
#X obj 112 233 t b f;
#X obj 139 316 t b f;
#X obj 112 191 r \$0-organ-harmonic-4-s;
#X obj 139 274 r \$0-organ-harmonic-5-s;
#X obj 66 33 r \$0-organ-harmonic-3-s;
#X obj 124 116 r \$0-organ-harmonic-2-s;
#X obj 167 412 t b f;
#X obj 195 507 t b f;
#X obj 222 592 t b f;
#X obj 56 710 pack 0 0 0 0 0 0 0 0 0 0, f 42;
#X obj 278 677 t b f;
#X obj 167 360 r \$0-organ-harmonic-6-s;
#X obj 195 455 r \$0-organ-harmonic-7-s;
#X obj 222 550 r \$0-organ-harmonic-8-s;
#X obj 278 635 r \$0-organ-harmonic-9-s;
#X obj 56 732 list prepend cosinesum 2048 0;
#X obj 16 55 / 100;
#X obj 83 97 / 100;
#X msg 56 798 normalize 1;
#X obj 56 754 list trim;
#X obj 56 776 t b a;
#X obj 111 170 / 100;
#X obj 139 255 / 100;
#X obj 166 338 / 100;
#X obj 194 434 / 100;
#X obj 222 529 / 100;
#X obj 249 614 / 100;
#X obj 305 699 / 100;
#X obj 792 41 array define wf-organ-\$0 2051;
#X obj 56 825 s wf-organ-\$0;
#X obj 466 85 t b f;
#X obj 494 148 t b f;
#X obj 522 233 t b f;
#X obj 549 316 t b f;
#X obj 577 402 t b f;
#X obj 605 487 t b f;
#X obj 632 572 t b f;
#X obj 466 700 pack 0 0 0 0 0 0 0 0 0 0, f 42;
#X obj 688 657 t b f;
#X obj 466 722 list prepend cosinesum 2048 0;
#X obj 426 65 / 100;
#X obj 493 107 / 100;
#X msg 466 788 normalize 1;
#X obj 466 744 list trim;
#X obj 466 766 t b a;
#X obj 521 170 / 100;
#X obj 549 255 / 100;
#X obj 576 338 / 100;
#X obj 604 424 / 100;
#X obj 632 509 / 100;
#X obj 659 594 / 100;
#X obj 715 679 / 100;
#X obj 792 71 array define wf-percussion-\$0 2051;
#X obj 426 13 r \$0-percussion-harmonic-1-s;
#X obj 466 43 r \$0-percussion-harmonic-3-s;
#X obj 544 106 r \$0-percussion-harmonic-2-s;
#X obj 522 190 r \$0-percussion-harmonic-4-s;
#X obj 549 274 r \$0-percussion-harmonic-5-s;
#X obj 577 360 r \$0-percussion-harmonic-6-s;
#X obj 605 445 r \$0-percussion-harmonic-7-s;
#X obj 642 530 r \$0-percussion-harmonic-8-s;
#X obj 688 615 r \$0-percussion-harmonic-9-s;
#X obj 466 815 s wf-percussion-\$0;
#X obj 426 35 change;
#X obj 688 637 change;
#X obj 632 552 change;
#X obj 605 467 change;
#X obj 577 382 change;
#X obj 549 296 change;
#X obj 522 213 change;
#X obj 544 128 change;
#X obj 466 65 change;
#X obj 16 35 change;
#X obj 278 657 change;
#X obj 222 572 change;
#X obj 195 477 change;
#X obj 167 382 change;
#X obj 139 296 change;
#X obj 112 213 change;
#X obj 124 138 change;
#X obj 66 55 change;
#X connect 0 0 75 0;
#X connect 1 0 12 0;
#X connect 1 1 20 0;
#X connect 2 0 12 0;
#X connect 2 1 24 0;
#X connect 3 0 12 0;
#X connect 3 1 25 0;
#X connect 4 0 12 0;
#X connect 4 1 26 0;
#X connect 5 0 81 0;
#X connect 6 0 80 0;
#X connect 7 0 83 0;
#X connect 8 0 82 0;
#X connect 9 0 12 0;
#X connect 9 1 27 0;
#X connect 10 0 12 0;
#X connect 10 1 28 0;
#X connect 11 0 12 0;
#X connect 11 1 29 0;
#X connect 12 0 18 0;
#X connect 13 0 12 0;
#X connect 13 1 30 0;
#X connect 14 0 79 0;
#X connect 15 0 78 0;
#X connect 16 0 77 0;
#X connect 17 0 76 0;
#X connect 18 0 22 0;
#X connect 19 0 12 0;
#X connect 20 0 12 1;
#X connect 21 0 32 0;
#X connect 22 0 23 0;
#X connect 23 0 21 0;
#X connect 23 1 32 0;
#X connect 24 0 12 2;
#X connect 25 0 12 3;
#X connect 26 0 12 4;
#X connect 27 0 12 5;
#X connect 28 0 12 6;
#X connect 29 0 12 7;
#X connect 30 0 12 9;
#X connect 33 0 40 0;
#X connect 33 1 44 0;
#X connect 34 0 40 0;
#X connect 34 1 48 0;
#X connect 35 0 40 0;
#X connect 35 1 49 0;
#X connect 36 0 40 0;
#X connect 36 1 50 0;
#X connect 37 0 40 0;
#X connect 37 1 51 0;
#X connect 38 0 40 0;
#X connect 38 1 52 0;
#X connect 39 0 40 0;
#X connect 39 1 53 0;
#X connect 40 0 42 0;
#X connect 41 0 40 0;
#X connect 41 1 54 0;
#X connect 42 0 46 0;
#X connect 43 0 40 0;
#X connect 44 0 40 1;
#X connect 45 0 65 0;
#X connect 46 0 47 0;
#X connect 47 0 45 0;
#X connect 47 1 65 0;
#X connect 48 0 40 2;
#X connect 49 0 40 3;
#X connect 50 0 40 4;
#X connect 51 0 40 5;
#X connect 52 0 40 6;
#X connect 53 0 40 7;
#X connect 54 0 40 9;
#X connect 56 0 66 0;
#X connect 57 0 74 0;
#X connect 58 0 73 0;
#X connect 59 0 72 0;
#X connect 60 0 71 0;
#X connect 61 0 70 0;
#X connect 62 0 69 0;
#X connect 63 0 68 0;
#X connect 64 0 67 0;
#X connect 66 0 43 0;
#X connect 67 0 41 0;
#X connect 68 0 39 0;
#X connect 69 0 38 0;
#X connect 70 0 37 0;
#X connect 71 0 36 0;
#X connect 72 0 35 0;
#X connect 73 0 34 0;
#X connect 74 0 33 0;
#X connect 75 0 19 0;
#X connect 76 0 13 0;
#X connect 77 0 11 0;
#X connect 78 0 10 0;
#X connect 79 0 9 0;
#X connect 80 0 4 0;
#X connect 81 0 3 0;
#X connect 82 0 2 0;
#X connect 83 0 1 0;
#X restore 52 603 pd wf;
#X obj 348 708 dac~;
#X obj 224 423 notein, f 22;
#N canvas 332 289 597 279 synthesizer 0;
#X obj 31 99 / 2;
#X obj 31 79 mtof;
#X obj 31 154 *~, f 23;
#X obj 31 46 unpack f f, f 23;
#X obj 171 226 outlet~;
#X obj 161 13 inlet;
#N canvas 569 347 586 474 adsr 0;
#X obj 229 223 pack f f;
#X obj 160 63 t b b;
#X obj 160 338 f 0;
#X obj 160 360 pack f f;
#X obj 160 19 inlet;
#X obj 160 42 sel 0, f 12;
#X obj 229 398 line~;
#X obj 326 49 inlet;
#X obj 405 49 inlet;
#X obj 186 203 delay;
#X msg 186 144 stop;
#X obj 229 65 t b f b;
#X obj 229 420 outlet~, f 8;
#X connect 0 0 6 0;
#X connect 1 0 2 0;
#X connect 1 1 10 0;
#X connect 2 0 3 0;
#X connect 3 0 6 0;
#X connect 4 0 5 0;
#X connect 5 0 1 0;
#X connect 5 1 11 0;
#X connect 6 0 12 0;
#X connect 7 0 0 1;
#X connect 7 0 9 1;
#X connect 8 0 3 1;
#X connect 9 0 2 0;
#X connect 10 0 9 0;
#X connect 11 0 9 0;
#X connect 11 1 0 0;
#X connect 11 2 10 0;
#X restore 166 104 pd adsr;
#X obj 291 99 / 2;
#X obj 291 79 mtof;
#X obj 291 154 *~, f 23;
#X obj 291 46 unpack f f, f 23;
#X obj 291 132 tabosc4~ wf-organ-\$0;
#N canvas 882 280 586 474 adsr 0;
#X obj 229 253 pack f f;
#X obj 160 123 t b b;
#X obj 160 338 f 0;
#X obj 160 360 pack f f;
#X msg 187 144 clear;
#X obj 160 49 inlet;
#X obj 160 72 sel 0, f 12;
#X obj 229 398 line~;
#X obj 250 49 inlet;
#X obj 274 79 inlet;
#X obj 304 109 inlet;
#X obj 394 139 inlet, f 14;
#X obj 304 186 / 100;
#X obj 229 216 *, f 13;
#X obj 229 420 outlet~;
#X obj 229 105 t f b;
#X obj 229 187 pipe, f 9;
#X connect 0 0 7 0;
#X connect 1 0 2 0;
#X connect 1 1 4 0;
#X connect 2 0 3 0;
#X connect 3 0 7 0;
#X connect 4 0 16 0;
#X connect 5 0 6 0;
#X connect 6 0 1 0;
#X connect 6 1 15 0;
#X connect 7 0 14 0;
#X connect 8 0 16 1;
#X connect 9 0 0 1;
#X connect 10 0 12 0;
#X connect 11 0 3 1;
#X connect 12 0 13 1;
#X connect 13 0 0 0;
#X connect 15 0 16 0;
#X connect 16 0 13 0;
#X restore 426 129 pd adsr;
#X obj 31 132 tabosc4~ wf-percussion-\$0;
#X obj 188 46 r \$0-attack-s;
#X obj 211 66 r \$0-decay-s;
#X obj 438 46 r \$0-attack-s;
#X obj 451 66 r \$0-decay-s;
#X obj 464 87 r \$0-sustain-s;
#X obj 477 108 r \$0-release-s;
#X connect 0 0 13 0;
#X connect 1 0 0 0;
#X connect 2 0 4 0;
#X connect 3 0 1 0;
#X connect 3 1 6 0;
#X connect 5 0 3 0;
#X connect 5 0 10 0;
#X connect 6 0 2 1;
#X connect 7 0 11 0;
#X connect 8 0 7 0;
#X connect 9 0 4 0;
#X connect 10 0 8 0;
#X connect 10 1 12 0;
#X connect 11 0 9 0;
#X connect 12 0 9 1;
#X connect 13 0 2 0;
#X connect 14 0 6 1;
#X connect 15 0 6 2;
#X connect 16 0 12 1;
#X connect 17 0 12 2;
#X connect 18 0 12 3;
#X connect 19 0 12 4;
#X restore 224 545 pd synthesizer;
#X obj 224 494 pack f f f, f 11;
#X obj 43 57 hsl 128 15 0 100 0 0 \$0-percussion-harmonic-1-s \$0-percussion-harmonic-1
Percussion-Harmonic-1_% -2 -8 0 10 -262144 -1 -1 0 1;
#X text 235 57 16';
#X obj 43 97 hsl 128 15 0 100 0 0 \$0-percussion-harmonic-2-s \$0-percussion-harmonic-2
Percussion-Harmonic-2_% -2 -8 0 10 -262144 -1 -1 0 1;
#X text 235 97 5'1/3;
#X obj 43 137 hsl 128 15 0 100 0 0 \$0-percussion-harmonic-3-s \$0-percussion-harmonic-3
Percussion-Harmonic-3_% -2 -8 0 10 -262144 -1 -1 0 1;
#X text 235 137 8';
#X obj 43 177 hsl 128 15 0 100 0 0 \$0-percussion-harmonic-4-s \$0-percussion-harmonic-4
Percussion-Harmonic-4_% -2 -8 0 10 -262144 -1 -1 0 1;
#X text 235 177 4';
#X obj 43 217 hsl 128 15 0 100 0 0 \$0-percussion-harmonic-5-s \$0-percussion-harmonic-5
Percussion-Harmonic-5_% -2 -8 0 10 -262144 -1 -1 0 1;
#X text 235 217 2'2/3;
#X obj 43 257 hsl 128 15 0 100 0 0 \$0-percussion-harmonic-6-s \$0-percussion-harmonic-6
Percussion-Harmonic-6_% -2 -8 0 10 -262144 -1 -1 0 1;
#X text 235 258 2';
#X obj 43 297 hsl 128 15 0 100 0 0 \$0-percussion-harmonic-7-s \$0-percussion-harmonic-7
Percussion-Harmonic-7_% -2 -8 0 10 -262144 -1 -1 0 1;
#X text 235 297 1'3/5;
#X obj 43 337 hsl 128 15 0 100 0 0 \$0-percussion-harmonic-8-s \$0-percussion-harmonic-8
Percussion-Harmonic-8_% -2 -8 0 10 -262144 -1 -1 0 1;
#X text 235 337 1'1/3;
#X obj 43 377 hsl 128 15 0 100 0 0 \$0-percussion-harmonic-9-s \$0-percussion-harmonic-9
Percussion-Harmonic-9_% -2 -8 0 10 -262144 -1 -1 0 1;
#X text 235 377 1';
#X obj 553 57 hsl 128 15 0 100 0 0 \$0-organ-harmonic-1-s \$0-organ-harmonic-1
Organ-Harmonic-1_% -2 -8 0 10 -262144 -1 -1 0 1;
#X text 745 57 16';
#X obj 553 97 hsl 128 15 0 100 0 0 \$0-organ-harmonic-2-s \$0-organ-harmonic-2
Organ-Harmonic-2_% -2 -8 0 10 -262144 -1 -1 0 1;
#X text 745 97 5'1/3;
#X obj 553 137 hsl 128 15 0 100 0 0 \$0-organ-harmonic-3-s \$0-organ-harmonic-3
Organ-Harmonic-3_% -2 -8 0 10 -262144 -1 -1 0 1;
#X text 745 137 8';
#X obj 553 177 hsl 128 15 0 100 0 0 \$0-organ-harmonic-4-s \$0-organ-harmonic-4
Organ-Harmonic-4_% -2 -8 0 10 -262144 -1 -1 0 1;
#X text 745 177 4';
#X obj 553 217 hsl 128 15 0 100 0 0 \$0-organ-harmonic-5-s \$0-organ-harmonic-5
Organ-Harmonic-5_% -2 -8 0 10 -262144 -1 -1 0 1;
#X text 745 217 2'2/3;
#X obj 553 257 hsl 128 15 0 100 0 0 \$0-organ-harmonic-6-s \$0-organ-harmonic-6
Organ-Harmonic-6_% -2 -8 0 10 -262144 -1 -1 0 1;
#X text 745 258 2';
#X obj 553 297 hsl 128 15 0 100 0 0 \$0-organ-harmonic-7-s \$0-organ-harmonic-7
Organ-Harmonic-7_% -2 -8 0 10 -262144 -1 -1 0 1;
#X text 745 297 1'3/5;
#X obj 553 337 hsl 128 15 0 100 0 0 \$0-organ-harmonic-8-s \$0-organ-harmonic-8
Organ-Harmonic-8_% -2 -8 0 10 -262144 -1 -1 0 1;
#X text 745 337 1'1/3;
#X obj 553 377 hsl 128 15 0 100 0 0 \$0-organ-harmonic-9-s \$0-organ-harmonic-9
Organ-Harmonic-9_% -2 -8 0 10 -262144 -1 -1 0 1;
#X text 745 377 1';
#X obj 178 57 nbx 5 15 0 100 0 0 empty \$0-percussion-harmonic-1 empty
0 -8 0 10 -262144 -1 -1 0 256;
#X obj 178 97 nbx 5 15 0 100 0 0 empty \$0-percussion-harmonic-2 empty
0 -8 0 10 -262144 -1 -1 0 256;
#X obj 178 137 nbx 5 15 0 100 0 0 empty \$0-percussion-harmonic-3 empty
0 -8 0 10 -262144 -1 -1 0 256;
#X obj 178 177 nbx 5 15 0 100 0 0 empty \$0-percussion-harmonic-4 empty
0 -8 0 10 -262144 -1 -1 0 256;
#X obj 178 217 nbx 5 15 0 100 0 0 empty \$0-percussion-harmonic-5 empty
0 -8 0 10 -262144 -1 -1 0 256;
#X obj 178 257 nbx 5 15 0 100 0 0 empty \$0-percussion-harmonic-6 empty
0 -8 0 10 -262144 -1 -1 0 256;
#X obj 178 297 nbx 5 15 0 100 0 0 empty \$0-percussion-harmonic-7 empty
0 -8 0 10 -262144 -1 -1 0 256;
#X obj 178 337 nbx 5 15 0 100 0 0 empty \$0-percussion-harmonic-8 empty
0 -8 0 10 -262144 -1 -1 0 256;
#X obj 178 377 nbx 5 15 0 100 0 0 empty \$0-percussion-harmonic-9 empty
0 -8 0 10 -262144 -1 -1 0 256;
#N canvas 0 22 450 300 (subpatch) 0;
#X obj 14 18 inlet;
#X msg 14 40 set \$1;
#X obj 14 62 outlet;
#X connect 0 0 1 0;
#X connect 1 0 2 0;
#X restore 17 40 pd;
#N canvas 0 22 450 300 (subpatch) 0;
#X obj 14 18 inlet;
#X msg 14 40 set \$1;
#X obj 14 62 outlet;
#X connect 0 0 1 0;
#X connect 1 0 2 0;
#X restore 17 80 pd;
#N canvas 0 22 450 300 (subpatch) 0;
#X obj 14 18 inlet;
#X msg 14 40 set \$1;
#X obj 14 62 outlet;
#X connect 0 0 1 0;
#X connect 1 0 2 0;
#X restore 17 120 pd;
#N canvas 0 22 450 300 (subpatch) 0;
#X obj 14 18 inlet;
#X msg 14 40 set \$1;
#X obj 14 62 outlet;
#X connect 0 0 1 0;
#X connect 1 0 2 0;
#X restore 17 160 pd;
#N canvas 0 22 450 300 (subpatch) 0;
#X obj 14 18 inlet;
#X msg 14 40 set \$1;
#X obj 14 62 outlet;
#X connect 0 0 1 0;
#X connect 1 0 2 0;
#X restore 17 200 pd;
#N canvas 0 22 450 300 (subpatch) 0;
#X obj 14 18 inlet;
#X msg 14 40 set \$1;
#X obj 14 62 outlet;
#X connect 0 0 1 0;
#X connect 1 0 2 0;
#X restore 17 240 pd;
#N canvas 0 22 450 300 (subpatch) 0;
#X obj 14 18 inlet;
#X msg 14 40 set \$1;
#X obj 14 62 outlet;
#X connect 0 0 1 0;
#X connect 1 0 2 0;
#X restore 17 280 pd;
#N canvas 0 22 450 300 (subpatch) 0;
#X obj 14 18 inlet;
#X msg 14 40 set \$1;
#X obj 14 62 outlet;
#X connect 0 0 1 0;
#X connect 1 0 2 0;
#X restore 17 320 pd;
#N canvas 0 22 450 300 (subpatch) 0;
#X obj 14 18 inlet;
#X msg 14 40 set \$1;
#X obj 14 62 outlet;
#X connect 0 0 1 0;
#X connect 1 0 2 0;
#X restore 17 360 pd;
#X obj 689 57 nbx 5 15 0 100 0 0 empty \$0-organ-harmonic-1 empty 0
-8 0 10 -262144 -1 -1 0 256;
#X obj 689 97 nbx 5 15 0 100 0 0 empty \$0-organ-harmonic-2 empty 0
-8 0 10 -262144 -1 -1 0 256;
#X obj 689 137 nbx 5 15 0 100 0 0 empty \$0-organ-harmonic-3 empty
0 -8 0 10 -262144 -1 -1 0 256;
#X obj 689 177 nbx 5 15 0 100 0 0 empty \$0-organ-harmonic-4 empty
0 -8 0 10 -262144 -1 -1 0 256;
#X obj 689 217 nbx 5 15 0 100 0 0 empty \$0-organ-harmonic-5 empty
0 -8 0 10 -262144 -1 -1 0 256;
#X obj 689 257 nbx 5 15 0 100 0 0 empty \$0-organ-harmonic-6 empty
0 -8 0 10 -262144 -1 -1 0 256;
#X obj 689 297 nbx 5 15 0 100 0 0 empty \$0-organ-harmonic-7 empty
0 -8 0 10 -262144 -1 -1 0 256;
#X obj 689 337 nbx 5 15 0 100 0 0 empty \$0-organ-harmonic-8 empty
0 -8 0 10 -262144 -1 -1 0 256;
#X obj 689 377 nbx 5 15 0 100 0 0 empty \$0-organ-harmonic-9 empty
0 -8 0 10 -262144 -1 -1 0 256;
#X text 350 211 ALMOND ORGAN;
#N canvas 0 22 450 300 (subpatch) 0;
#X obj 14 18 inlet;
#X msg 14 40 set \$1;
#X obj 14 62 outlet;
#X connect 0 0 1 0;
#X connect 1 0 2 0;
#X restore 527 40 pd;
#N canvas 0 22 450 300 (subpatch) 0;
#X obj 14 18 inlet;
#X msg 14 40 set \$1;
#X obj 14 62 outlet;
#X connect 0 0 1 0;
#X connect 1 0 2 0;
#X restore 527 80 pd;
#N canvas 0 22 450 300 (subpatch) 0;
#X obj 14 18 inlet;
#X msg 14 40 set \$1;
#X obj 14 62 outlet;
#X connect 0 0 1 0;
#X connect 1 0 2 0;
#X restore 527 120 pd;
#N canvas 0 22 450 300 (subpatch) 0;
#X obj 14 18 inlet;
#X msg 14 40 set \$1;
#X obj 14 62 outlet;
#X connect 0 0 1 0;
#X connect 1 0 2 0;
#X restore 527 160 pd;
#N canvas 0 22 450 300 (subpatch) 0;
#X obj 14 18 inlet;
#X msg 14 40 set \$1;
#X obj 14 62 outlet;
#X connect 0 0 1 0;
#X connect 1 0 2 0;
#X restore 527 200 pd;
#N canvas 0 22 450 300 (subpatch) 0;
#X obj 14 18 inlet;
#X msg 14 40 set \$1;
#X obj 14 62 outlet;
#X connect 0 0 1 0;
#X connect 1 0 2 0;
#X restore 527 240 pd;
#N canvas 0 22 450 300 (subpatch) 0;
#X obj 14 18 inlet;
#X msg 14 40 set \$1;
#X obj 14 62 outlet;
#X connect 0 0 1 0;
#X connect 1 0 2 0;
#X restore 527 280 pd;
#N canvas 0 22 450 300 (subpatch) 0;
#X obj 14 18 inlet;
#X msg 14 40 set \$1;
#X obj 14 62 outlet;
#X connect 0 0 1 0;
#X connect 1 0 2 0;
#X restore 527 320 pd;
#N canvas 0 22 450 300 (subpatch) 0;
#X obj 14 18 inlet;
#X msg 14 40 set \$1;
#X obj 14 62 outlet;
#X connect 0 0 1 0;
#X connect 1 0 2 0;
#X restore 527 360 pd;
#X obj 303 57 hsl 128 15 0 100 0 0 \$0-attack-s \$0-attack Attack_ms
-2 -8 0 10 -262144 -1 -1 0 1;
#X obj 303 97 hsl 128 15 0 1000 0 0 \$0-decay-s \$0-decay Decay_ms
-2 -8 0 10 -262144 -1 -1 0 1;
#X obj 303 177 hsl 128 15 0 1000 0 0 \$0-release-s \$0-release Release_ms
-2 -8 0 10 -262144 -1 -1 0 1;
#X obj 438 57 nbx 5 15 0 100 0 0 empty \$0-attack empty 0 -8 0 10 -262144
-1 -1 0 256;
#X obj 438 97 nbx 5 15 0 1000 0 0 empty \$0-decay empty 0 -8 0 10 -262144
-1 -1 0 256;
#X obj 438 177 nbx 5 15 0 1000 0 0 empty \$0-release empty 0 -8 0 10
-262144 -1 -1 0 256;
#N canvas 0 22 450 300 (subpatch) 0;
#X obj 14 18 inlet;
#X msg 14 40 set \$1;
#X obj 14 62 outlet;
#X connect 0 0 1 0;
#X connect 1 0 2 0;
#X restore 277 40 pd;
#N canvas 0 22 450 300 (subpatch) 0;
#X obj 14 18 inlet;
#X msg 14 40 set \$1;
#X obj 14 62 outlet;
#X connect 0 0 1 0;
#X connect 1 0 2 0;
#X restore 277 80 pd;
#N canvas 0 22 450 300 (subpatch) 0;
#X obj 14 18 inlet;
#X msg 14 40 set \$1;
#X obj 14 62 outlet;
#X connect 0 0 1 0;
#X connect 1 0 2 0;
#X restore 277 160 pd;
#X obj 303 137 hsl 128 15 0 100 0 0 \$0-sustain-s \$0-sustain Sustain_%
-2 -8 0 10 -262144 -1 -1 0 1;
#X obj 438 137 nbx 5 15 0 100 0 0 empty \$0-sustain empty 0 -8 0 10
-262144 -1 -1 0 256;
#N canvas 0 22 450 300 (subpatch) 0;
#X obj 14 18 inlet;
#X msg 14 40 set \$1;
#X obj 14 62 outlet;
#X connect 0 0 1 0;
#X connect 1 0 2 0;
#X restore 277 120 pd;
#X text 64 15 PERCUSSION HARMONICS;
#X text 362 15 ENVELOPE;
#X text 597 15 ORGAN HARMONICS;
#N canvas 332 289 597 279 synthesizer 0;
#X obj 31 99 / 2;
#X obj 31 79 mtof;
#X obj 31 154 *~, f 23;
#X obj 31 46 unpack f f, f 23;
#X obj 171 226 outlet~;
#X obj 161 13 inlet;
#N canvas 569 347 586 474 adsr 0;
#X obj 229 223 pack f f;
#X obj 160 63 t b b;
#X obj 160 338 f 0;
#X obj 160 360 pack f f;
#X obj 160 19 inlet;
#X obj 160 42 sel 0, f 12;
#X obj 229 398 line~;
#X obj 326 49 inlet;
#X obj 405 49 inlet;
#X obj 186 203 delay;
#X msg 186 144 stop;
#X obj 229 65 t b f b;
#X obj 229 420 outlet~, f 8;
#X connect 0 0 6 0;
#X connect 1 0 2 0;
#X connect 1 1 10 0;
#X connect 2 0 3 0;
#X connect 3 0 6 0;
#X connect 4 0 5 0;
#X connect 5 0 1 0;
#X connect 5 1 11 0;
#X connect 6 0 12 0;
#X connect 7 0 0 1;
#X connect 7 0 9 1;
#X connect 8 0 3 1;
#X connect 9 0 2 0;
#X connect 10 0 9 0;
#X connect 11 0 9 0;
#X connect 11 1 0 0;
#X connect 11 2 10 0;
#X restore 166 104 pd adsr;
#X obj 291 99 / 2;
#X obj 291 79 mtof;
#X obj 291 154 *~, f 23;
#X obj 291 46 unpack f f, f 23;
#X obj 291 132 tabosc4~ wf-organ-\$0;
#N canvas 882 280 586 474 adsr 0;
#X obj 229 253 pack f f;
#X obj 160 123 t b b;
#X obj 160 338 f 0;
#X obj 160 360 pack f f;
#X msg 187 144 clear;
#X obj 160 49 inlet;
#X obj 160 72 sel 0, f 12;
#X obj 229 398 line~;
#X obj 250 49 inlet;
#X obj 274 79 inlet;
#X obj 304 109 inlet;
#X obj 394 139 inlet, f 14;
#X obj 304 186 / 100;
#X obj 229 216 *, f 13;
#X obj 229 420 outlet~;
#X obj 229 105 t f b;
#X obj 229 187 pipe, f 9;
#X connect 0 0 7 0;
#X connect 1 0 2 0;
#X connect 1 1 4 0;
#X connect 2 0 3 0;
#X connect 3 0 7 0;
#X connect 4 0 16 0;
#X connect 5 0 6 0;
#X connect 6 0 1 0;
#X connect 6 1 15 0;
#X connect 7 0 14 0;
#X connect 8 0 16 1;
#X connect 9 0 0 1;
#X connect 10 0 12 0;
#X connect 11 0 3 1;
#X connect 12 0 13 1;
#X connect 13 0 0 0;
#X connect 15 0 16 0;
#X connect 16 0 13 0;
#X restore 426 129 pd adsr;
#X obj 31 132 tabosc4~ wf-percussion-\$0;
#X obj 188 46 r \$0-attack-s;
#X obj 211 66 r \$0-decay-s;
#X obj 438 46 r \$0-attack-s;
#X obj 451 66 r \$0-decay-s;
#X obj 464 87 r \$0-sustain-s;
#X obj 477 108 r \$0-release-s;
#X connect 0 0 13 0;
#X connect 1 0 0 0;
#X connect 2 0 4 0;
#X connect 3 0 1 0;
#X connect 3 1 6 0;
#X connect 5 0 3 0;
#X connect 5 0 10 0;
#X connect 6 0 2 1;
#X connect 7 0 11 0;
#X connect 8 0 7 0;
#X connect 9 0 4 0;
#X connect 10 0 8 0;
#X connect 10 1 12 0;
#X connect 11 0 9 0;
#X connect 12 0 9 1;
#X connect 13 0 2 0;
#X connect 14 0 6 1;
#X connect 15 0 6 2;
#X connect 16 0 12 1;
#X connect 17 0 12 2;
#X connect 18 0 12 3;
#X connect 19 0 12 4;
#X restore 252 565 pd synthesizer;
#N canvas 332 289 597 279 synthesizer 0;
#X obj 31 99 / 2;
#X obj 31 79 mtof;
#X obj 31 154 *~, f 23;
#X obj 31 46 unpack f f, f 23;
#X obj 171 226 outlet~;
#X obj 161 13 inlet;
#N canvas 569 347 586 474 adsr 0;
#X obj 229 223 pack f f;
#X obj 160 63 t b b;
#X obj 160 338 f 0;
#X obj 160 360 pack f f;
#X obj 160 19 inlet;
#X obj 160 42 sel 0, f 12;
#X obj 229 398 line~;
#X obj 326 49 inlet;
#X obj 405 49 inlet;
#X obj 186 203 delay;
#X msg 186 144 stop;
#X obj 229 65 t b f b;
#X obj 229 420 outlet~, f 8;
#X connect 0 0 6 0;
#X connect 1 0 2 0;
#X connect 1 1 10 0;
#X connect 2 0 3 0;
#X connect 3 0 6 0;
#X connect 4 0 5 0;
#X connect 5 0 1 0;
#X connect 5 1 11 0;
#X connect 6 0 12 0;
#X connect 7 0 0 1;
#X connect 7 0 9 1;
#X connect 8 0 3 1;
#X connect 9 0 2 0;
#X connect 10 0 9 0;
#X connect 11 0 9 0;
#X connect 11 1 0 0;
#X connect 11 2 10 0;
#X restore 166 104 pd adsr;
#X obj 291 99 / 2;
#X obj 291 79 mtof;
#X obj 291 154 *~, f 23;
#X obj 291 46 unpack f f, f 23;
#X obj 291 132 tabosc4~ wf-organ-\$0;
#N canvas 882 280 586 474 adsr 0;
#X obj 229 253 pack f f;
#X obj 160 123 t b b;
#X obj 160 338 f 0;
#X obj 160 360 pack f f;
#X msg 187 144 clear;
#X obj 160 49 inlet;
#X obj 160 72 sel 0, f 12;
#X obj 229 398 line~;
#X obj 250 49 inlet;
#X obj 274 79 inlet;
#X obj 304 109 inlet;
#X obj 394 139 inlet, f 14;
#X obj 304 186 / 100;
#X obj 229 216 *, f 13;
#X obj 229 420 outlet~;
#X obj 229 105 t f b;
#X obj 229 187 pipe, f 9;
#X connect 0 0 7 0;
#X connect 1 0 2 0;
#X connect 1 1 4 0;
#X connect 2 0 3 0;
#X connect 3 0 7 0;
#X connect 4 0 16 0;
#X connect 5 0 6 0;
#X connect 6 0 1 0;
#X connect 6 1 15 0;
#X connect 7 0 14 0;
#X connect 8 0 16 1;
#X connect 9 0 0 1;
#X connect 10 0 12 0;
#X connect 11 0 3 1;
#X connect 12 0 13 1;
#X connect 13 0 0 0;
#X connect 15 0 16 0;
#X connect 16 0 13 0;
#X restore 426 129 pd adsr;
#X obj 31 132 tabosc4~ wf-percussion-\$0;
#X obj 188 46 r \$0-attack-s;
#X obj 211 66 r \$0-decay-s;
#X obj 438 46 r \$0-attack-s;
#X obj 451 66 r \$0-decay-s;
#X obj 464 87 r \$0-sustain-s;
#X obj 477 108 r \$0-release-s;
#X connect 0 0 13 0;
#X connect 1 0 0 0;
#X connect 2 0 4 0;
#X connect 3 0 1 0;
#X connect 3 1 6 0;
#X connect 5 0 3 0;
#X connect 5 0 10 0;
#X connect 6 0 2 1;
#X connect 7 0 11 0;
#X connect 8 0 7 0;
#X connect 9 0 4 0;
#X connect 10 0 8 0;
#X connect 10 1 12 0;
#X connect 11 0 9 0;
#X connect 12 0 9 1;
#X connect 13 0 2 0;
#X connect 14 0 6 1;
#X connect 15 0 6 2;
#X connect 16 0 12 1;
#X connect 17 0 12 2;
#X connect 18 0 12 3;
#X connect 19 0 12 4;
#X restore 281 585 pd synthesizer;
#N canvas 332 289 597 279 synthesizer 0;
#X obj 31 99 / 2;
#X obj 31 79 mtof;
#X obj 31 154 *~, f 23;
#X obj 31 46 unpack f f, f 23;
#X obj 171 226 outlet~;
#X obj 161 13 inlet;
#N canvas 569 347 586 474 adsr 0;
#X obj 229 223 pack f f;
#X obj 160 63 t b b;
#X obj 160 338 f 0;
#X obj 160 360 pack f f;
#X obj 160 19 inlet;
#X obj 160 42 sel 0, f 12;
#X obj 229 398 line~;
#X obj 326 49 inlet;
#X obj 405 49 inlet;
#X obj 186 203 delay;
#X msg 186 144 stop;
#X obj 229 65 t b f b;
#X obj 229 420 outlet~, f 8;
#X connect 0 0 6 0;
#X connect 1 0 2 0;
#X connect 1 1 10 0;
#X connect 2 0 3 0;
#X connect 3 0 6 0;
#X connect 4 0 5 0;
#X connect 5 0 1 0;
#X connect 5 1 11 0;
#X connect 6 0 12 0;
#X connect 7 0 0 1;
#X connect 7 0 9 1;
#X connect 8 0 3 1;
#X connect 9 0 2 0;
#X connect 10 0 9 0;
#X connect 11 0 9 0;
#X connect 11 1 0 0;
#X connect 11 2 10 0;
#X restore 166 104 pd adsr;
#X obj 291 99 / 2;
#X obj 291 79 mtof;
#X obj 291 154 *~, f 23;
#X obj 291 46 unpack f f, f 23;
#X obj 291 132 tabosc4~ wf-organ-\$0;
#N canvas 882 280 586 474 adsr 0;
#X obj 229 253 pack f f;
#X obj 160 123 t b b;
#X obj 160 338 f 0;
#X obj 160 360 pack f f;
#X msg 187 144 clear;
#X obj 160 49 inlet;
#X obj 160 72 sel 0, f 12;
#X obj 229 398 line~;
#X obj 250 49 inlet;
#X obj 274 79 inlet;
#X obj 304 109 inlet;
#X obj 394 139 inlet, f 14;
#X obj 304 186 / 100;
#X obj 229 216 *, f 13;
#X obj 229 420 outlet~;
#X obj 229 105 t f b;
#X obj 229 187 pipe, f 9;
#X connect 0 0 7 0;
#X connect 1 0 2 0;
#X connect 1 1 4 0;
#X connect 2 0 3 0;
#X connect 3 0 7 0;
#X connect 4 0 16 0;
#X connect 5 0 6 0;
#X connect 6 0 1 0;
#X connect 6 1 15 0;
#X connect 7 0 14 0;
#X connect 8 0 16 1;
#X connect 9 0 0 1;
#X connect 10 0 12 0;
#X connect 11 0 3 1;
#X connect 12 0 13 1;
#X connect 13 0 0 0;
#X connect 15 0 16 0;
#X connect 16 0 13 0;
#X restore 426 129 pd adsr;
#X obj 31 132 tabosc4~ wf-percussion-\$0;
#X obj 188 46 r \$0-attack-s;
#X obj 211 66 r \$0-decay-s;
#X obj 438 46 r \$0-attack-s;
#X obj 451 66 r \$0-decay-s;
#X obj 464 87 r \$0-sustain-s;
#X obj 477 108 r \$0-release-s;
#X connect 0 0 13 0;
#X connect 1 0 0 0;
#X connect 2 0 4 0;
#X connect 3 0 1 0;
#X connect 3 1 6 0;
#X connect 5 0 3 0;
#X connect 5 0 10 0;
#X connect 6 0 2 1;
#X connect 7 0 11 0;
#X connect 8 0 7 0;
#X connect 9 0 4 0;
#X connect 10 0 8 0;
#X connect 10 1 12 0;
#X connect 11 0 9 0;
#X connect 12 0 9 1;
#X connect 13 0 2 0;
#X connect 14 0 6 1;
#X connect 15 0 6 2;
#X connect 16 0 12 1;
#X connect 17 0 12 2;
#X connect 18 0 12 3;
#X connect 19 0 12 4;
#X restore 310 605 pd synthesizer;
#N canvas 332 289 597 279 synthesizer 0;
#X obj 31 99 / 2;
#X obj 31 79 mtof;
#X obj 31 154 *~, f 23;
#X obj 31 46 unpack f f, f 23;
#X obj 171 226 outlet~;
#X obj 161 13 inlet;
#N canvas 569 347 586 474 adsr 0;
#X obj 229 223 pack f f;
#X obj 160 63 t b b;
#X obj 160 338 f 0;
#X obj 160 360 pack f f;
#X obj 160 19 inlet;
#X obj 160 42 sel 0, f 12;
#X obj 229 398 line~;
#X obj 326 49 inlet;
#X obj 405 49 inlet;
#X obj 186 203 delay;
#X msg 186 144 stop;
#X obj 229 65 t b f b;
#X obj 229 420 outlet~, f 8;
#X connect 0 0 6 0;
#X connect 1 0 2 0;
#X connect 1 1 10 0;
#X connect 2 0 3 0;
#X connect 3 0 6 0;
#X connect 4 0 5 0;
#X connect 5 0 1 0;
#X connect 5 1 11 0;
#X connect 6 0 12 0;
#X connect 7 0 0 1;
#X connect 7 0 9 1;
#X connect 8 0 3 1;
#X connect 9 0 2 0;
#X connect 10 0 9 0;
#X connect 11 0 9 0;
#X connect 11 1 0 0;
#X connect 11 2 10 0;
#X restore 166 104 pd adsr;
#X obj 291 99 / 2;
#X obj 291 79 mtof;
#X obj 291 154 *~, f 23;
#X obj 291 46 unpack f f, f 23;
#X obj 291 132 tabosc4~ wf-organ-\$0;
#N canvas 882 280 586 474 adsr 0;
#X obj 229 253 pack f f;
#X obj 160 123 t b b;
#X obj 160 338 f 0;
#X obj 160 360 pack f f;
#X msg 187 144 clear;
#X obj 160 49 inlet;
#X obj 160 72 sel 0, f 12;
#X obj 229 398 line~;
#X obj 250 49 inlet;
#X obj 274 79 inlet;
#X obj 304 109 inlet;
#X obj 394 139 inlet, f 14;
#X obj 304 186 / 100;
#X obj 229 216 *, f 13;
#X obj 229 420 outlet~;
#X obj 229 105 t f b;
#X obj 229 187 pipe, f 9;
#X connect 0 0 7 0;
#X connect 1 0 2 0;
#X connect 1 1 4 0;
#X connect 2 0 3 0;
#X connect 3 0 7 0;
#X connect 4 0 16 0;
#X connect 5 0 6 0;
#X connect 6 0 1 0;
#X connect 6 1 15 0;
#X connect 7 0 14 0;
#X connect 8 0 16 1;
#X connect 9 0 0 1;
#X connect 10 0 12 0;
#X connect 11 0 3 1;
#X connect 12 0 13 1;
#X connect 13 0 0 0;
#X connect 15 0 16 0;
#X connect 16 0 13 0;
#X restore 426 129 pd adsr;
#X obj 31 132 tabosc4~ wf-percussion-\$0;
#X obj 188 46 r \$0-attack-s;
#X obj 211 66 r \$0-decay-s;
#X obj 438 46 r \$0-attack-s;
#X obj 451 66 r \$0-decay-s;
#X obj 464 87 r \$0-sustain-s;
#X obj 477 108 r \$0-release-s;
#X connect 0 0 13 0;
#X connect 1 0 0 0;
#X connect 2 0 4 0;
#X connect 3 0 1 0;
#X connect 3 1 6 0;
#X connect 5 0 3 0;
#X connect 5 0 10 0;
#X connect 6 0 2 1;
#X connect 7 0 11 0;
#X connect 8 0 7 0;
#X connect 9 0 4 0;
#X connect 10 0 8 0;
#X connect 10 1 12 0;
#X connect 11 0 9 0;
#X connect 12 0 9 1;
#X connect 13 0 2 0;
#X connect 14 0 6 1;
#X connect 15 0 6 2;
#X connect 16 0 12 1;
#X connect 17 0 12 2;
#X connect 18 0 12 3;
#X connect 19 0 12 4;
#X restore 338 626 pd synthesizer;
#X obj 288 449 / 127;
#X obj 224 472 poly 10 1, f 11;
#N canvas 332 289 597 279 synthesizer 0;
#X obj 31 99 / 2;
#X obj 31 79 mtof;
#X obj 31 154 *~, f 23;
#X obj 31 46 unpack f f, f 23;
#X obj 171 226 outlet~;
#X obj 161 13 inlet;
#N canvas 569 347 586 474 adsr 0;
#X obj 229 223 pack f f;
#X obj 160 63 t b b;
#X obj 160 338 f 0;
#X obj 160 360 pack f f;
#X obj 160 19 inlet;
#X obj 160 42 sel 0, f 12;
#X obj 229 398 line~;
#X obj 326 49 inlet;
#X obj 405 49 inlet;
#X obj 186 203 delay;
#X msg 186 144 stop;
#X obj 229 65 t b f b;
#X obj 229 420 outlet~, f 8;
#X connect 0 0 6 0;
#X connect 1 0 2 0;
#X connect 1 1 10 0;
#X connect 2 0 3 0;
#X connect 3 0 6 0;
#X connect 4 0 5 0;
#X connect 5 0 1 0;
#X connect 5 1 11 0;
#X connect 6 0 12 0;
#X connect 7 0 0 1;
#X connect 7 0 9 1;
#X connect 8 0 3 1;
#X connect 9 0 2 0;
#X connect 10 0 9 0;
#X connect 11 0 9 0;
#X connect 11 1 0 0;
#X connect 11 2 10 0;
#X restore 166 104 pd adsr;
#X obj 291 99 / 2;
#X obj 291 79 mtof;
#X obj 291 154 *~, f 23;
#X obj 291 46 unpack f f, f 23;
#X obj 291 132 tabosc4~ wf-organ-\$0;
#N canvas 882 280 586 474 adsr 0;
#X obj 229 253 pack f f;
#X obj 160 123 t b b;
#X obj 160 338 f 0;
#X obj 160 360 pack f f;
#X msg 187 144 clear;
#X obj 160 49 inlet;
#X obj 160 72 sel 0, f 12;
#X obj 229 398 line~;
#X obj 250 49 inlet;
#X obj 274 79 inlet;
#X obj 304 109 inlet;
#X obj 394 139 inlet, f 14;
#X obj 304 186 / 100;
#X obj 229 216 *, f 13;
#X obj 229 420 outlet~;
#X obj 229 105 t f b;
#X obj 229 187 pipe, f 9;
#X connect 0 0 7 0;
#X connect 1 0 2 0;
#X connect 1 1 4 0;
#X connect 2 0 3 0;
#X connect 3 0 7 0;
#X connect 4 0 16 0;
#X connect 5 0 6 0;
#X connect 6 0 1 0;
#X connect 6 1 15 0;
#X connect 7 0 14 0;
#X connect 8 0 16 1;
#X connect 9 0 0 1;
#X connect 10 0 12 0;
#X connect 11 0 3 1;
#X connect 12 0 13 1;
#X connect 13 0 0 0;
#X connect 15 0 16 0;
#X connect 16 0 13 0;
#X restore 426 129 pd adsr;
#X obj 31 132 tabosc4~ wf-percussion-\$0;
#X obj 188 46 r \$0-attack-s;
#X obj 211 66 r \$0-decay-s;
#X obj 438 46 r \$0-attack-s;
#X obj 451 66 r \$0-decay-s;
#X obj 464 87 r \$0-sustain-s;
#X obj 477 108 r \$0-release-s;
#X connect 0 0 13 0;
#X connect 1 0 0 0;
#X connect 2 0 4 0;
#X connect 3 0 1 0;
#X connect 3 1 6 0;
#X connect 5 0 3 0;
#X connect 5 0 10 0;
#X connect 6 0 2 1;
#X connect 7 0 11 0;
#X connect 8 0 7 0;
#X connect 9 0 4 0;
#X connect 10 0 8 0;
#X connect 10 1 12 0;
#X connect 11 0 9 0;
#X connect 12 0 9 1;
#X connect 13 0 2 0;
#X connect 14 0 6 1;
#X connect 15 0 6 2;
#X connect 16 0 12 1;
#X connect 17 0 12 2;
#X connect 18 0 12 3;
#X connect 19 0 12 4;
#X restore 366 545 pd synthesizer;
#N canvas 332 289 597 279 synthesizer 0;
#X obj 31 99 / 2;
#X obj 31 79 mtof;
#X obj 31 154 *~, f 23;
#X obj 31 46 unpack f f, f 23;
#X obj 171 226 outlet~;
#X obj 161 13 inlet;
#N canvas 569 347 586 474 adsr 0;
#X obj 229 223 pack f f;
#X obj 160 63 t b b;
#X obj 160 338 f 0;
#X obj 160 360 pack f f;
#X obj 160 19 inlet;
#X obj 160 42 sel 0, f 12;
#X obj 229 398 line~;
#X obj 326 49 inlet;
#X obj 405 49 inlet;
#X obj 186 203 delay;
#X msg 186 144 stop;
#X obj 229 65 t b f b;
#X obj 229 420 outlet~, f 8;
#X connect 0 0 6 0;
#X connect 1 0 2 0;
#X connect 1 1 10 0;
#X connect 2 0 3 0;
#X connect 3 0 6 0;
#X connect 4 0 5 0;
#X connect 5 0 1 0;
#X connect 5 1 11 0;
#X connect 6 0 12 0;
#X connect 7 0 0 1;
#X connect 7 0 9 1;
#X connect 8 0 3 1;
#X connect 9 0 2 0;
#X connect 10 0 9 0;
#X connect 11 0 9 0;
#X connect 11 1 0 0;
#X connect 11 2 10 0;
#X restore 166 104 pd adsr;
#X obj 291 99 / 2;
#X obj 291 79 mtof;
#X obj 291 154 *~, f 23;
#X obj 291 46 unpack f f, f 23;
#X obj 291 132 tabosc4~ wf-organ-\$0;
#N canvas 882 280 586 474 adsr 0;
#X obj 229 253 pack f f;
#X obj 160 123 t b b;
#X obj 160 338 f 0;
#X obj 160 360 pack f f;
#X msg 187 144 clear;
#X obj 160 49 inlet;
#X obj 160 72 sel 0, f 12;
#X obj 229 398 line~;
#X obj 250 49 inlet;
#X obj 274 79 inlet;
#X obj 304 109 inlet;
#X obj 394 139 inlet, f 14;
#X obj 304 186 / 100;
#X obj 229 216 *, f 13;
#X obj 229 420 outlet~;
#X obj 229 105 t f b;
#X obj 229 187 pipe, f 9;
#X connect 0 0 7 0;
#X connect 1 0 2 0;
#X connect 1 1 4 0;
#X connect 2 0 3 0;
#X connect 3 0 7 0;
#X connect 4 0 16 0;
#X connect 5 0 6 0;
#X connect 6 0 1 0;
#X connect 6 1 15 0;
#X connect 7 0 14 0;
#X connect 8 0 16 1;
#X connect 9 0 0 1;
#X connect 10 0 12 0;
#X connect 11 0 3 1;
#X connect 12 0 13 1;
#X connect 13 0 0 0;
#X connect 15 0 16 0;
#X connect 16 0 13 0;
#X restore 426 129 pd adsr;
#X obj 31 132 tabosc4~ wf-percussion-\$0;
#X obj 188 46 r \$0-attack-s;
#X obj 211 66 r \$0-decay-s;
#X obj 438 46 r \$0-attack-s;
#X obj 451 66 r \$0-decay-s;
#X obj 464 87 r \$0-sustain-s;
#X obj 477 108 r \$0-release-s;
#X connect 0 0 13 0;
#X connect 1 0 0 0;
#X connect 2 0 4 0;
#X connect 3 0 1 0;
#X connect 3 1 6 0;
#X connect 5 0 3 0;
#X connect 5 0 10 0;
#X connect 6 0 2 1;
#X connect 7 0 11 0;
#X connect 8 0 7 0;
#X connect 9 0 4 0;
#X connect 10 0 8 0;
#X connect 10 1 12 0;
#X connect 11 0 9 0;
#X connect 12 0 9 1;
#X connect 13 0 2 0;
#X connect 14 0 6 1;
#X connect 15 0 6 2;
#X connect 16 0 12 1;
#X connect 17 0 12 2;
#X connect 18 0 12 3;
#X connect 19 0 12 4;
#X restore 395 565 pd synthesizer;
#N canvas 332 289 597 279 synthesizer 0;
#X obj 31 99 / 2;
#X obj 31 79 mtof;
#X obj 31 154 *~, f 23;
#X obj 31 46 unpack f f, f 23;
#X obj 171 226 outlet~;
#X obj 161 13 inlet;
#N canvas 569 347 586 474 adsr 0;
#X obj 229 223 pack f f;
#X obj 160 63 t b b;
#X obj 160 338 f 0;
#X obj 160 360 pack f f;
#X obj 160 19 inlet;
#X obj 160 42 sel 0, f 12;
#X obj 229 398 line~;
#X obj 326 49 inlet;
#X obj 405 49 inlet;
#X obj 186 203 delay;
#X msg 186 144 stop;
#X obj 229 65 t b f b;
#X obj 229 420 outlet~, f 8;
#X connect 0 0 6 0;
#X connect 1 0 2 0;
#X connect 1 1 10 0;
#X connect 2 0 3 0;
#X connect 3 0 6 0;
#X connect 4 0 5 0;
#X connect 5 0 1 0;
#X connect 5 1 11 0;
#X connect 6 0 12 0;
#X connect 7 0 0 1;
#X connect 7 0 9 1;
#X connect 8 0 3 1;
#X connect 9 0 2 0;
#X connect 10 0 9 0;
#X connect 11 0 9 0;
#X connect 11 1 0 0;
#X connect 11 2 10 0;
#X restore 166 104 pd adsr;
#X obj 291 99 / 2;
#X obj 291 79 mtof;
#X obj 291 154 *~, f 23;
#X obj 291 46 unpack f f, f 23;
#X obj 291 132 tabosc4~ wf-organ-\$0;
#N canvas 882 280 586 474 adsr 0;
#X obj 229 253 pack f f;
#X obj 160 123 t b b;
#X obj 160 338 f 0;
#X obj 160 360 pack f f;
#X msg 187 144 clear;
#X obj 160 49 inlet;
#X obj 160 72 sel 0, f 12;
#X obj 229 398 line~;
#X obj 250 49 inlet;
#X obj 274 79 inlet;
#X obj 304 109 inlet;
#X obj 394 139 inlet, f 14;
#X obj 304 186 / 100;
#X obj 229 216 *, f 13;
#X obj 229 420 outlet~;
#X obj 229 105 t f b;
#X obj 229 187 pipe, f 9;
#X connect 0 0 7 0;
#X connect 1 0 2 0;
#X connect 1 1 4 0;
#X connect 2 0 3 0;
#X connect 3 0 7 0;
#X connect 4 0 16 0;
#X connect 5 0 6 0;
#X connect 6 0 1 0;
#X connect 6 1 15 0;
#X connect 7 0 14 0;
#X connect 8 0 16 1;
#X connect 9 0 0 1;
#X connect 10 0 12 0;
#X connect 11 0 3 1;
#X connect 12 0 13 1;
#X connect 13 0 0 0;
#X connect 15 0 16 0;
#X connect 16 0 13 0;
#X restore 426 129 pd adsr;
#X obj 31 132 tabosc4~ wf-percussion-\$0;
#X obj 188 46 r \$0-attack-s;
#X obj 211 66 r \$0-decay-s;
#X obj 438 46 r \$0-attack-s;
#X obj 451 66 r \$0-decay-s;
#X obj 464 87 r \$0-sustain-s;
#X obj 477 108 r \$0-release-s;
#X connect 0 0 13 0;
#X connect 1 0 0 0;
#X connect 2 0 4 0;
#X connect 3 0 1 0;
#X connect 3 1 6 0;
#X connect 5 0 3 0;
#X connect 5 0 10 0;
#X connect 6 0 2 1;
#X connect 7 0 11 0;
#X connect 8 0 7 0;
#X connect 9 0 4 0;
#X connect 10 0 8 0;
#X connect 10 1 12 0;
#X connect 11 0 9 0;
#X connect 12 0 9 1;
#X connect 13 0 2 0;
#X connect 14 0 6 1;
#X connect 15 0 6 2;
#X connect 16 0 12 1;
#X connect 17 0 12 2;
#X connect 18 0 12 3;
#X connect 19 0 12 4;
#X restore 423 585 pd synthesizer;
#N canvas 332 289 597 279 synthesizer 0;
#X obj 31 99 / 2;
#X obj 31 79 mtof;
#X obj 31 154 *~, f 23;
#X obj 31 46 unpack f f, f 23;
#X obj 171 226 outlet~;
#X obj 161 13 inlet;
#N canvas 569 347 586 474 adsr 0;
#X obj 229 223 pack f f;
#X obj 160 63 t b b;
#X obj 160 338 f 0;
#X obj 160 360 pack f f;
#X obj 160 19 inlet;
#X obj 160 42 sel 0, f 12;
#X obj 229 398 line~;
#X obj 326 49 inlet;
#X obj 405 49 inlet;
#X obj 186 203 delay;
#X msg 186 144 stop;
#X obj 229 65 t b f b;
#X obj 229 420 outlet~, f 8;
#X connect 0 0 6 0;
#X connect 1 0 2 0;
#X connect 1 1 10 0;
#X connect 2 0 3 0;
#X connect 3 0 6 0;
#X connect 4 0 5 0;
#X connect 5 0 1 0;
#X connect 5 1 11 0;
#X connect 6 0 12 0;
#X connect 7 0 0 1;
#X connect 7 0 9 1;
#X connect 8 0 3 1;
#X connect 9 0 2 0;
#X connect 10 0 9 0;
#X connect 11 0 9 0;
#X connect 11 1 0 0;
#X connect 11 2 10 0;
#X restore 166 104 pd adsr;
#X obj 291 99 / 2;
#X obj 291 79 mtof;
#X obj 291 154 *~, f 23;
#X obj 291 46 unpack f f, f 23;
#X obj 291 132 tabosc4~ wf-organ-\$0;
#N canvas 882 280 586 474 adsr 0;
#X obj 229 253 pack f f;
#X obj 160 123 t b b;
#X obj 160 338 f 0;
#X obj 160 360 pack f f;
#X msg 187 144 clear;
#X obj 160 49 inlet;
#X obj 160 72 sel 0, f 12;
#X obj 229 398 line~;
#X obj 250 49 inlet;
#X obj 274 79 inlet;
#X obj 304 109 inlet;
#X obj 394 139 inlet, f 14;
#X obj 304 186 / 100;
#X obj 229 216 *, f 13;
#X obj 229 420 outlet~;
#X obj 229 105 t f b;
#X obj 229 187 pipe, f 9;
#X connect 0 0 7 0;
#X connect 1 0 2 0;
#X connect 1 1 4 0;
#X connect 2 0 3 0;
#X connect 3 0 7 0;
#X connect 4 0 16 0;
#X connect 5 0 6 0;
#X connect 6 0 1 0;
#X connect 6 1 15 0;
#X connect 7 0 14 0;
#X connect 8 0 16 1;
#X connect 9 0 0 1;
#X connect 10 0 12 0;
#X connect 11 0 3 1;
#X connect 12 0 13 1;
#X connect 13 0 0 0;
#X connect 15 0 16 0;
#X connect 16 0 13 0;
#X restore 426 129 pd adsr;
#X obj 31 132 tabosc4~ wf-percussion-\$0;
#X obj 188 46 r \$0-attack-s;
#X obj 211 66 r \$0-decay-s;
#X obj 438 46 r \$0-attack-s;
#X obj 451 66 r \$0-decay-s;
#X obj 464 87 r \$0-sustain-s;
#X obj 477 108 r \$0-release-s;
#X connect 0 0 13 0;
#X connect 1 0 0 0;
#X connect 2 0 4 0;
#X connect 3 0 1 0;
#X connect 3 1 6 0;
#X connect 5 0 3 0;
#X connect 5 0 10 0;
#X connect 6 0 2 1;
#X connect 7 0 11 0;
#X connect 8 0 7 0;
#X connect 9 0 4 0;
#X connect 10 0 8 0;
#X connect 10 1 12 0;
#X connect 11 0 9 0;
#X connect 12 0 9 1;
#X connect 13 0 2 0;
#X connect 14 0 6 1;
#X connect 15 0 6 2;
#X connect 16 0 12 1;
#X connect 17 0 12 2;
#X connect 18 0 12 3;
#X connect 19 0 12 4;
#X restore 452 605 pd synthesizer;
#N canvas 332 289 597 279 synthesizer 0;
#X obj 31 99 / 2;
#X obj 31 79 mtof;
#X obj 31 154 *~, f 23;
#X obj 31 46 unpack f f, f 23;
#X obj 171 226 outlet~;
#X obj 161 13 inlet;
#N canvas 569 347 586 474 adsr 0;
#X obj 229 223 pack f f;
#X obj 160 63 t b b;
#X obj 160 338 f 0;
#X obj 160 360 pack f f;
#X obj 160 19 inlet;
#X obj 160 42 sel 0, f 12;
#X obj 229 398 line~;
#X obj 326 49 inlet;
#X obj 405 49 inlet;
#X obj 186 203 delay;
#X msg 186 144 stop;
#X obj 229 65 t b f b;
#X obj 229 420 outlet~, f 8;
#X connect 0 0 6 0;
#X connect 1 0 2 0;
#X connect 1 1 10 0;
#X connect 2 0 3 0;
#X connect 3 0 6 0;
#X connect 4 0 5 0;
#X connect 5 0 1 0;
#X connect 5 1 11 0;
#X connect 6 0 12 0;
#X connect 7 0 0 1;
#X connect 7 0 9 1;
#X connect 8 0 3 1;
#X connect 9 0 2 0;
#X connect 10 0 9 0;
#X connect 11 0 9 0;
#X connect 11 1 0 0;
#X connect 11 2 10 0;
#X restore 166 104 pd adsr;
#X obj 291 99 / 2;
#X obj 291 79 mtof;
#X obj 291 154 *~, f 23;
#X obj 291 46 unpack f f, f 23;
#X obj 291 132 tabosc4~ wf-organ-\$0;
#N canvas 882 280 586 474 adsr 0;
#X obj 229 253 pack f f;
#X obj 160 123 t b b;
#X obj 160 338 f 0;
#X obj 160 360 pack f f;
#X msg 187 144 clear;
#X obj 160 49 inlet;
#X obj 160 72 sel 0, f 12;
#X obj 229 398 line~;
#X obj 250 49 inlet;
#X obj 274 79 inlet;
#X obj 304 109 inlet;
#X obj 394 139 inlet, f 14;
#X obj 304 186 / 100;
#X obj 229 216 *, f 13;
#X obj 229 420 outlet~;
#X obj 229 105 t f b;
#X obj 229 187 pipe, f 9;
#X connect 0 0 7 0;
#X connect 1 0 2 0;
#X connect 1 1 4 0;
#X connect 2 0 3 0;
#X connect 3 0 7 0;
#X connect 4 0 16 0;
#X connect 5 0 6 0;
#X connect 6 0 1 0;
#X connect 6 1 15 0;
#X connect 7 0 14 0;
#X connect 8 0 16 1;
#X connect 9 0 0 1;
#X connect 10 0 12 0;
#X connect 11 0 3 1;
#X connect 12 0 13 1;
#X connect 13 0 0 0;
#X connect 15 0 16 0;
#X connect 16 0 13 0;
#X restore 426 129 pd adsr;
#X obj 31 132 tabosc4~ wf-percussion-\$0;
#X obj 188 46 r \$0-attack-s;
#X obj 211 66 r \$0-decay-s;
#X obj 438 46 r \$0-attack-s;
#X obj 451 66 r \$0-decay-s;
#X obj 464 87 r \$0-sustain-s;
#X obj 477 108 r \$0-release-s;
#X connect 0 0 13 0;
#X connect 1 0 0 0;
#X connect 2 0 4 0;
#X connect 3 0 1 0;
#X connect 3 1 6 0;
#X connect 5 0 3 0;
#X connect 5 0 10 0;
#X connect 6 0 2 1;
#X connect 7 0 11 0;
#X connect 8 0 7 0;
#X connect 9 0 4 0;
#X connect 10 0 8 0;
#X connect 10 1 12 0;
#X connect 11 0 9 0;
#X connect 12 0 9 1;
#X connect 13 0 2 0;
#X connect 14 0 6 1;
#X connect 15 0 6 2;
#X connect 16 0 12 1;
#X connect 17 0 12 2;
#X connect 18 0 12 3;
#X connect 19 0 12 4;
#X restore 480 625 pd synthesizer;
#X obj 224 524 route 1 2 3 4 5 6 7 8 9 10, f 48;
#X text 319 240 A 10-voices synthesizer based on the Hammond organ.
, f 25;
#X connect 2 0 98 0;
#X connect 2 1 97 0;
#X connect 3 0 1 0;
#X connect 3 0 1 1;
#X connect 4 0 104 0;
#X connect 5 0 50 0;
#X connect 7 0 51 0;
#X connect 9 0 52 0;
#X connect 11 0 53 0;
#X connect 13 0 54 0;
#X connect 15 0 55 0;
#X connect 17 0 56 0;
#X connect 19 0 57 0;
#X connect 21 0 58 0;
#X connect 23 0 69 0;
#X connect 25 0 70 0;
#X connect 27 0 71 0;
#X connect 29 0 72 0;
#X connect 31 0 73 0;
#X connect 33 0 74 0;
#X connect 35 0 75 0;
#X connect 37 0 76 0;
#X connect 39 0 77 0;
#X connect 41 0 5 0;
#X connect 42 0 7 0;
#X connect 43 0 9 0;
#X connect 44 0 11 0;
#X connect 45 0 13 0;
#X connect 46 0 15 0;
#X connect 47 0 17 0;
#X connect 48 0 19 0;
#X connect 49 0 21 0;
#X connect 50 0 41 0;
#X connect 51 0 42 0;
#X connect 52 0 43 0;
#X connect 53 0 44 0;
#X connect 54 0 45 0;
#X connect 55 0 46 0;
#X connect 56 0 47 0;
#X connect 57 0 48 0;
#X connect 58 0 49 0;
#X connect 59 0 23 0;
#X connect 60 0 25 0;
#X connect 61 0 27 0;
#X connect 62 0 29 0;
#X connect 63 0 31 0;
#X connect 64 0 33 0;
#X connect 65 0 35 0;
#X connect 66 0 37 0;
#X connect 67 0 39 0;
#X connect 69 0 59 0;
#X connect 70 0 60 0;
#X connect 71 0 61 0;
#X connect 72 0 62 0;
#X connect 73 0 63 0;
#X connect 74 0 64 0;
#X connect 75 0 65 0;
#X connect 76 0 66 0;
#X connect 77 0 67 0;
#X connect 78 0 84 0;
#X connect 79 0 85 0;
#X connect 80 0 86 0;
#X connect 81 0 78 0;
#X connect 82 0 79 0;
#X connect 83 0 80 0;
#X connect 84 0 81 0;
#X connect 85 0 82 0;
#X connect 86 0 83 0;
#X connect 87 0 89 0;
#X connect 88 0 87 0;
#X connect 89 0 88 0;
#X connect 93 0 1 0;
#X connect 93 0 1 1;
#X connect 94 0 1 0;
#X connect 94 0 1 1;
#X connect 95 0 1 0;
#X connect 95 0 1 1;
#X connect 96 0 1 0;
#X connect 96 0 1 1;
#X connect 97 0 98 1;
#X connect 98 0 4 0;
#X connect 98 1 4 1;
#X connect 98 2 4 2;
#X connect 99 0 1 0;
#X connect 99 0 1 1;
#X connect 100 0 1 0;
#X connect 100 0 1 1;
#X connect 101 0 1 0;
#X connect 101 0 1 1;
#X connect 102 0 1 0;
#X connect 102 0 1 1;
#X connect 103 0 1 0;
#X connect 103 0 1 1;
#X connect 104 0 3 0;
#X connect 104 1 93 0;
#X connect 104 2 94 0;
#X connect 104 3 95 0;
#X connect 104 4 96 0;
#X connect 104 5 99 0;
#X connect 104 6 100 0;
#X connect 104 7 101 0;
#X connect 104 8 102 0;
#X connect 104 9 103 0;
#X coords 0 -1 1 1 800 400 2 5 5;
