#N canvas 609 60 862 723 10;
#X obj 16 16 tgl 15 0 empty \$0-start Start 17 7 0 10 -262144 -1 -1
0 1;
#X obj 315 69 r \$0-start;
#X obj 87 366 f;
#X obj 97 40 hradio 14 1 0 12 empty \$0-tone Tone 0 -18 0 10 -262144
-1 -1 1;
#X text 96 26 C Db D Eb E F Gb G Ab A Bb B;
#X obj 120 366 f;
#X obj 135 342 + 7;
#X obj 102 266 r \$0-tone;
#X obj 153 366 f;
#X obj 168 342 + 12;
#X obj 186 366 f;
#X obj 219 366 f;
#X obj 234 342 + 19;
#X obj 252 366 f;
#X obj 267 342 + 24;
#X obj 201 342 + 16;
#X obj 102 308 t f f f f f f f f f f f f, f 61;
#X obj 285 366 f;
#X obj 318 366 f;
#X obj 351 366 f;
#X obj 384 366 f;
#X obj 417 366 f;
#X obj 450 366 f;
#X obj 300 342 + 5;
#X obj 333 342 + 12;
#X obj 366 342 + 17;
#X obj 399 342 + 21;
#X obj 465 342 + 29;
#X obj 432 342 + 24;
#X obj 315 147 f 0;
#X obj 396 144 + 1;
#X obj 397 166 sel 11;
#X obj 397 188 f 0;
#X obj 87 241 sel 0 1 2 3 4 5 6 7 8 9 10, f 61;
#X obj 450 278 bang;
#X msg 372 456 127;
#X obj 102 288 + 36;
#X obj 11 310 until;
#X obj 11 285 f 12;
#X obj 11 332 f 0;
#X obj 41 332 + 1;
#X obj 6 259 t b b b;
#X obj 48 304 f 0;
#X obj 48 167 t f f;
#X obj 489 64 tgl 15 0 empty empty empty 17 7 0 10 -262144 -1 -1 0
1;
#X obj 315 122 metro 250;
#X obj 257 486 f;
#X obj 315 91 change;
#X obj 134 189 nbx 5 14 -1e+37 1e+37 0 0 empty empty empty 0 -8 0 10
-262144 -1 -1 0 256;
#X obj 257 532 pack 0 0;
#X obj 435 147 bng 15 250 50 0 empty empty empty 17 7 0 10 -262144
-1 -1;
#X obj 257 576 noteout;
#X obj 48 189 sel 0 6;
#X connect 1 0 47 0;
#X connect 2 0 46 0;
#X connect 5 0 46 0;
#X connect 6 0 5 1;
#X connect 7 0 36 0;
#X connect 8 0 46 0;
#X connect 9 0 8 1;
#X connect 10 0 46 0;
#X connect 11 0 46 0;
#X connect 12 0 11 1;
#X connect 13 0 46 0;
#X connect 14 0 13 1;
#X connect 15 0 10 1;
#X connect 16 0 2 1;
#X connect 16 1 6 0;
#X connect 16 2 9 0;
#X connect 16 3 15 0;
#X connect 16 4 12 0;
#X connect 16 5 14 0;
#X connect 16 6 23 0;
#X connect 16 7 24 0;
#X connect 16 8 25 0;
#X connect 16 9 26 0;
#X connect 16 10 28 0;
#X connect 16 11 27 0;
#X connect 17 0 46 0;
#X connect 18 0 46 0;
#X connect 19 0 46 0;
#X connect 20 0 46 0;
#X connect 21 0 46 0;
#X connect 22 0 46 0;
#X connect 23 0 17 1;
#X connect 24 0 18 1;
#X connect 25 0 19 1;
#X connect 26 0 20 1;
#X connect 27 0 22 1;
#X connect 28 0 21 1;
#X connect 29 0 31 0;
#X connect 29 0 43 0;
#X connect 30 0 29 1;
#X connect 31 0 32 0;
#X connect 31 1 30 0;
#X connect 32 0 29 1;
#X connect 33 0 2 0;
#X connect 33 1 5 0;
#X connect 33 2 8 0;
#X connect 33 3 10 0;
#X connect 33 4 11 0;
#X connect 33 5 13 0;
#X connect 33 6 17 0;
#X connect 33 7 18 0;
#X connect 33 8 19 0;
#X connect 33 9 20 0;
#X connect 33 10 21 0;
#X connect 33 11 34 0;
#X connect 34 0 22 0;
#X connect 35 0 49 1;
#X connect 36 0 16 0;
#X connect 37 0 39 0;
#X connect 38 0 37 0;
#X connect 39 0 40 0;
#X connect 39 0 33 0;
#X connect 40 0 39 1;
#X connect 41 0 35 0;
#X connect 41 1 38 0;
#X connect 41 2 42 0;
#X connect 42 0 39 1;
#X connect 42 0 49 1;
#X connect 43 0 33 0;
#X connect 43 1 52 0;
#X connect 44 0 45 0;
#X connect 45 0 29 0;
#X connect 46 0 49 0;
#X connect 47 0 45 0;
#X connect 48 0 36 0;
#X connect 49 0 51 0;
#X connect 50 0 32 0;
#X connect 52 0 41 0;
#X connect 52 1 41 0;
#X coords 0 -1 1 1 300 80 2 10 10;
