#N canvas 168 594 962 732 10;
#X obj 17 90 hradio 14 1 0 12 empty \$0-tone Tone 0 -18 0 10 -262144
-1 -1 3;
#X text 16 76 C Db D Eb E F Gb G Ab A Bb B;
#X obj 177 564 noteout;
#X obj 41 189 r \$0-playhead;
#X obj 41 211 route measure;
#X obj 119 292 -, f 5;
#X obj 41 233 unpack f f f f f, f 18;
#N canvas 394 380 450 300 time 0;
#X obj 121 35 inlet;
#X obj 181 35 inlet;
#X obj 121 57 change;
#X obj 181 57 change;
#X obj 121 89 != 4;
#X obj 121 131 print The time signature must be 4/4;
#X obj 121 111 sel 1, f 5;
#X connect 0 0 2 0;
#X connect 1 0 3 0;
#X connect 2 0 4 0;
#X connect 3 0 4 0;
#X connect 4 0 6 0;
#X connect 6 0 5 0;
#X restore 67 261 pd time sign;
#X text 16 14 A simple MIDI note generator that plays the bass line
of the famous Chameleon tune by Herbie Hancock and the Head Hunters.
, f 48;
#X obj 96 126 loadbang;
#X msg 96 148 3;
#X obj 173 296 / 4;
#X obj 173 318 % 2;
#X obj 146 262 t f f;
#N canvas 1 23 930 515 Measure1 1;
#X obj 58 192 >= 0;
#X obj 58 214 change;
#X msg 109 191 set 0;
#X obj 58 166 moses 0.1;
#X obj 158 214 change;
#X obj 58 236 sel 1;
#X obj 158 192 >= 0.75;
#X obj 158 236 sel 1;
#X obj 208 214 change;
#X obj 208 236 sel 1;
#X obj 208 192 >= 1.5;
#X obj 258 214 change;
#X obj 258 236 sel 1;
#X msg 259 261 41 0;
#X obj 308 214 change;
#X obj 308 236 sel 1;
#X obj 358 214 change;
#X obj 358 236 sel 1;
#X obj 308 192 >= 2.5;
#X msg 208 261 41 127;
#X msg 308 261 43 127;
#X msg 359 261 43 0;
#X obj 418 214 change;
#X obj 418 236 sel 1;
#X obj 519 214 change;
#X obj 519 236 sel 1;
#X obj 630 214 change;
#X obj 630 236 sel 1;
#X obj 630 192 >= 4.5;
#X obj 519 192 >= 4;
#X obj 418 192 >= 3.5;
#X msg 158 261 31 0;
#X msg 63 291 31 127;
#X obj 147 31 inlet;
#X obj 325 466 outlet;
#X obj 358 192 >= 3;
#X obj 258 192 >= 2;
#X msg 418 261 33 127;
#X msg 519 257 34 127;
#X msg 631 264 35 127;
#X obj 468 214 change;
#X obj 468 236 sel 1;
#X msg 468 261 33 0;
#X obj 569 214 change;
#X obj 569 236 sel 1;
#X msg 569 257 34 0;
#X obj 690 214 change;
#X obj 690 236 sel 1;
#X msg 691 264 35 0;
#X obj 690 192 >= 4.65;
#X obj 569 192 >= 4.15;
#X obj 468 192 >= 3.65;
#X connect 0 0 1 0;
#X connect 1 0 5 0;
#X connect 2 0 1 0;
#X connect 3 0 0 0;
#X connect 3 1 2 0;
#X connect 4 0 7 0;
#X connect 5 0 32 0;
#X connect 6 0 4 0;
#X connect 7 0 31 0;
#X connect 8 0 9 0;
#X connect 9 0 19 0;
#X connect 10 0 8 0;
#X connect 11 0 12 0;
#X connect 12 0 13 0;
#X connect 14 0 15 0;
#X connect 15 0 20 0;
#X connect 16 0 17 0;
#X connect 17 0 21 0;
#X connect 18 0 14 0;
#X connect 22 0 23 0;
#X connect 23 0 37 0;
#X connect 24 0 25 0;
#X connect 25 0 38 0;
#X connect 26 0 27 0;
#X connect 27 0 39 0;
#X connect 28 0 26 0;
#X connect 29 0 24 0;
#X connect 30 0 22 0;
#X connect 31 0 34 0;
#X connect 32 0 34 0;
#X connect 33 0 3 0;
#X connect 33 0 6 0;
#X connect 33 0 10 0;
#X connect 33 0 18 0;
#X connect 33 0 30 0;
#X connect 33 0 29 0;
#X connect 33 0 28 0;
#X connect 33 0 35 0;
#X connect 33 0 36 0;
#X connect 33 0 49 0;
#X connect 33 0 50 0;
#X connect 33 0 51 0;
#X connect 35 0 16 0;
#X connect 36 0 11 0;
#X connect 37 0 34 0;
#X connect 38 0 34 0;
#X connect 39 0 34 0;
#X connect 40 0 41 0;
#X connect 41 0 42 0;
#X connect 42 0 34 0;
#X connect 43 0 44 0;
#X connect 44 0 45 0;
#X connect 45 0 34 0;
#X connect 46 0 47 0;
#X connect 47 0 48 0;
#X connect 48 0 34 0;
#X connect 49 0 46 0;
#X connect 50 0 43 0;
#X connect 51 0 40 0;
#X restore 183 453 pd Measure1;
#N canvas 411 98 730 522 Measure2 1;
#X obj 58 192 >= 0;
#X obj 58 214 change;
#X msg 109 191 set 0;
#X obj 58 166 moses 0.1;
#X obj 158 214 change;
#X obj 58 236 sel 1;
#X obj 158 192 >= 0.75;
#X obj 158 236 sel 1;
#X obj 208 214 change;
#X obj 208 236 sel 1;
#X obj 208 192 >= 1.5;
#X obj 258 214 change;
#X obj 258 236 sel 1;
#X obj 308 214 change;
#X obj 308 236 sel 1;
#X obj 358 214 change;
#X obj 358 236 sel 1;
#X obj 308 192 >= 2.5;
#X obj 418 214 change;
#X obj 418 236 sel 1;
#X obj 519 214 change;
#X obj 519 236 sel 1;
#X obj 630 214 change;
#X obj 630 236 sel 1;
#X obj 630 192 >= 4.5;
#X obj 519 192 >= 4;
#X obj 418 192 >= 3.5;
#X obj 58 258 t b b;
#X obj 147 31 inlet;
#X obj 325 466 outlet;
#X msg 158 261 36 0;
#X msg 63 291 36 127;
#X msg 208 261 46 127;
#X msg 259 261 46 0;
#X msg 308 261 48 127;
#X msg 359 261 48 0;
#X obj 358 192 >= 3;
#X obj 258 192 >= 2;
#X msg 521 287 29 127;
#X msg 430 293 28 127;
#X msg 631 317 30 127;
#X obj 690 214 change;
#X obj 690 236 sel 1;
#X obj 690 192 >= 4.65;
#X msg 691 317 30 0;
#X obj 569 214 change;
#X obj 569 236 sel 1;
#X obj 569 192 >= 4.15;
#X msg 571 287 29 0;
#X obj 418 258 t b b;
#X obj 519 258 t b b;
#X msg 370 293 28 0;
#X obj 630 258 t b b;
#X connect 0 0 1 0;
#X connect 1 0 5 0;
#X connect 2 0 1 0;
#X connect 3 0 0 0;
#X connect 3 1 2 0;
#X connect 4 0 7 0;
#X connect 5 0 27 0;
#X connect 6 0 4 0;
#X connect 7 0 30 0;
#X connect 8 0 9 0;
#X connect 9 0 32 0;
#X connect 10 0 8 0;
#X connect 11 0 12 0;
#X connect 12 0 33 0;
#X connect 13 0 14 0;
#X connect 14 0 34 0;
#X connect 15 0 16 0;
#X connect 16 0 35 0;
#X connect 17 0 13 0;
#X connect 18 0 19 0;
#X connect 19 0 49 0;
#X connect 20 0 21 0;
#X connect 21 0 50 0;
#X connect 22 0 23 0;
#X connect 23 0 52 0;
#X connect 24 0 22 0;
#X connect 25 0 20 0;
#X connect 26 0 18 0;
#X connect 27 0 31 0;
#X connect 28 0 3 0;
#X connect 28 0 6 0;
#X connect 28 0 10 0;
#X connect 28 0 17 0;
#X connect 28 0 26 0;
#X connect 28 0 25 0;
#X connect 28 0 24 0;
#X connect 28 0 36 0;
#X connect 28 0 37 0;
#X connect 30 0 29 0;
#X connect 31 0 29 0;
#X connect 36 0 15 0;
#X connect 37 0 11 0;
#X connect 38 0 29 0;
#X connect 39 0 29 0;
#X connect 40 0 29 0;
#X connect 41 0 42 0;
#X connect 42 0 44 0;
#X connect 43 0 41 0;
#X connect 44 0 29 0;
#X connect 45 0 46 0;
#X connect 46 0 48 0;
#X connect 47 0 45 0;
#X connect 48 0 29 0;
#X connect 49 0 51 0;
#X connect 49 1 39 0;
#X connect 50 0 48 0;
#X connect 50 1 38 0;
#X connect 51 0 29 0;
#X connect 52 0 44 0;
#X connect 52 1 40 0;
#X restore 279 456 pd Measure2;
#X obj 161 402 spigot;
#X obj 183 366 == 0;
#X obj 231 402 spigot;
#X obj 183 485 unpack f f;
#X obj 183 507 + 18;
#X connect 3 0 4 0;
#X connect 4 0 6 0;
#X connect 5 0 16 0;
#X connect 5 0 18 0;
#X connect 6 1 7 0;
#X connect 6 2 7 1;
#X connect 6 3 5 0;
#X connect 6 4 13 0;
#X connect 9 0 10 0;
#X connect 10 0 0 0;
#X connect 11 0 12 0;
#X connect 12 0 17 0;
#X connect 12 0 18 1;
#X connect 13 0 5 1;
#X connect 13 1 11 0;
#X connect 14 0 19 0;
#X connect 15 0 19 0;
#X connect 16 0 14 0;
#X connect 17 0 16 1;
#X connect 18 0 15 0;
#X connect 19 0 20 0;
#X connect 19 1 2 1;
#X connect 20 0 2 0;
#X coords 0 -1 1 1 300 80 2 10 10;
