#N canvas 272 51 792 573 10;
#X obj 5 4 c.camomile @size 249 110 @pinned 1 @name "Floyd - On The Run"
@font "Futura" 12 "roman" "normal" @bdsize 1 @bgcolor 0.134379 0.162045
0.189712 1 @bdcolor 0.308281 0.703514 0.739085 1 @txtcolor 0.920892
0.920892 0.920892 1;
#X obj 309 331 line~;
#X obj 294 432 vcf~;
#X text 359 381 <-- Q (selectivity);
#X obj 293 187 clip~ 0 0.5;
#X obj 293 211 *~ 2;
#X obj 293 235 -~;
#X text 397 188 trick to;
#X text 398 205 make symmetric;
#X text 396 222 triangle wave;
#X obj 300 67 f;
#X obj 333 65 + 1;
#X obj 300 137 mtof;
#X obj 333 89 mod 8;
#X text 351 256 <-- center frequency;
#X obj 300 43 metro 85;
#X text 385 67 sequencer for;
#X text 400 84 8 note loop;
#X obj 300 18 tgl 15 0 empty \$0-metro empty 0 -6 0 8 -262144 -1 -1
1 1;
#X text 374 284 at least 61;
#X obj 300 161 phasor~;
#X text 572 536 updated for Pd version 0.39;
#X obj 300 113 tabread \$0-array1;
#X obj 294 460 vcf~;
#X obj 309 282 max 61;
#X text 360 329 smooth & convert to Hz.;
#X obj 322 383 max 3;
#X text 383 403 at least 3;
#X text 356 447 rejection of the stop bands without having;
#X text 357 429 Put two vcf objects in series for better;
#X text 355 465 to make the passband excessively narrow.;
#X obj 294 526 dac~;
#X obj 11 84 c.slider @size 193 16 @pinned 0 @minmax 3 12 @bdsize 1
@bgcolor 0.134379 0.162045 0.189712 1 @bdcolor 0.308281 0.703514 0.739085
1 @kncolor 0.920892 0.920892 0.920892 1 @param0 "Selectivity" "Q" 2
;
#X obj 50 -18 c.loadmess 5;
#X obj 11 46 c.slider @size 193 16 @pinned 0 @minmax 61 90 @bdsize
1 @bgcolor 0.134379 0.162045 0.189712 1 @bdcolor 0.308281 0.703514
0.739085 1 @kncolor 0.920892 0.920892 0.920892 1 @param0 "Frequency"
"Hz" 1;
#X obj 294 492 *~ 1.5;
#X obj 211 46 c.number @size 36 16 @pinned 0 @decimal 4 @minmax 61
200 @font "Futura" 12 "roman" "normal" @bdsize 1 @bgcolor 0.134379
0.162045 0.189712 1 @bdcolor 0.308281 0.703514 0.739085 1 @textcolor
0.920892 0.920892 0.920892 1 @param0 "" "" 1;
#X msg 200 31 set \$1;
#X obj 211 84 c.number @size 36 16 @pinned 0 @decimal 4 @minmax 3 20
@font "Futura" 12 "roman" "normal" @bdsize 1 @bgcolor 0.134379 0.162045
0.189712 1 @bdcolor 0.308281 0.703514 0.739085 1 @textcolor 0.920892
0.920892 0.920892 1 @param0 "" "" 1;
#X msg 204 84 set \$1;
#X obj 309 307 pack 0 5;
#X obj 19 27 c.comment @size 81 16 @pinned 0 @font "Futura" 12 "roman"
"normal" @bgcolor 0.134379 0.162045 0.189712 1 @bdcolor 0.134379 0.162045
0.189712 1 @textcolor 0.920892 0.920892 0.920892 1 @text "Frequency :"
;
#X obj 19 65 c.comment @size 79 16 @pinned 0 @font "Futura" 12 "roman"
"normal" @bgcolor 0.134379 0.162045 0.189712 1 @bdcolor 0.134379 0.162045
0.189712 1 @textcolor 0.920892 0.920892 0.920892 1 @text "Selectivity :"
;
#X obj 19 -33 c.loadmess 80;
#X obj 309 356 tabread4~ \$0-mtof;
#N canvas 0 22 450 300 (subpatch) 0;
#X array \$0-array1 8 float 2;
#X coords 0 300 1 299 200 100 0;
#X restore 506 39 graph;
#N canvas 0 22 450 300 (subpatch) 0;
#X array \$0-mtof 130 float 1;
#A 0 8.1758 8.66196 9.17702 9.72272 10.3009 10.9134 11.5623 12.2499
12.9783 13.75 14.5676 15.4339 16.3516 17.3239 18.354 19.4454 20.6017
21.8268 23.1247 24.4997 25.9565 27.5 29.1352 30.8677 32.7032 34.6478
36.7081 38.8909 41.2034 43.6535 46.2493 48.9994 51.9131 55 58.2705
61.7354 65.4064 69.2957 73.4162 77.7817 82.4069 87.3071 92.4986 97.9989
103.826 110 116.541 123.471 130.813 138.591 146.832 155.563 164.814
174.614 184.997 195.998 207.652 220 233.082 246.942 261.626 277.183
293.665 311.127 329.628 349.228 369.994 391.995 415.305 440 466.164
493.883 523.251 554.365 587.33 622.254 659.255 698.456 739.989 783.991
830.609 880 932.328 987.767 1046.5 1108.73 1174.66 1244.51 1318.51
1396.91 1479.98 1567.98 1661.22 1760 1864.66 1975.53 2093 2217.46 2349.32
2489.02 2637.02 2793.83 2959.96 3135.96 3322.44 3520 3729.31 3951.07
4186.01 4434.92 4698.64 4978.03 5274.04 5587.65 5919.91 6271.93 6644.88
7040 7458.62 7902.13 8372.02 8869.84 9397.27 9956.06 10548.1 11175.3
11839.8 12543.9 13289.8 14080;
#X coords 0 300 1 299 200 100 0;
#X restore 505 14 graph;
#X obj 563 68 loadbang;
#X obj 563 92 bng 15 250 50 0 empty empty empty 0 -6 0 8 -262144 -1
-1;
#X obj 563 111 f \$0;
#X msg 563 135 \; \$1-metro 1 \; \$1-array1 0 45 48 50 48 55 53 55
57;
#X connect 1 0 44 0;
#X connect 2 0 23 0;
#X connect 4 0 5 0;
#X connect 5 0 6 0;
#X connect 6 0 2 0;
#X connect 10 0 11 0;
#X connect 10 0 22 0;
#X connect 11 0 13 0;
#X connect 12 0 20 0;
#X connect 13 0 10 1;
#X connect 15 0 10 0;
#X connect 18 0 15 0;
#X connect 20 0 4 0;
#X connect 20 0 6 1;
#X connect 22 0 12 0;
#X connect 23 0 35 0;
#X connect 23 1 35 0;
#X connect 24 0 40 0;
#X connect 26 0 2 2;
#X connect 26 0 23 2;
#X connect 32 0 26 0;
#X connect 32 0 39 0;
#X connect 33 0 32 0;
#X connect 34 0 24 0;
#X connect 34 0 37 0;
#X connect 35 0 31 0;
#X connect 35 0 31 1;
#X connect 36 0 34 0;
#X connect 37 0 36 0;
#X connect 38 0 32 0;
#X connect 39 0 38 0;
#X connect 40 0 1 0;
#X connect 43 0 34 0;
#X connect 44 0 2 1;
#X connect 44 0 23 1;
#X connect 47 0 48 0;
#X connect 48 0 49 0;
#X connect 49 0 50 0;
