#N canvas 476 125 346 584 10;
#X obj 59 67 hsl 128 15 0 20 0 0 \$0-rate-s \$0-rate Rate_Hz -3 -6
0 10 -262144 -1 -1 0 1;
#X obj 195 67 nbx 5 15 0 20 0 0 empty \$0-rate empty 0 -8 0 10 -262144
-1 -1 0 256;
#X obj 87 134 adc~ 1 2, f 11;
#X text 89 235 Rate;
#X text 86 214 Oscillator;
#X obj 59 97 hsl 128 15 0 10 0 0 \$0-depth-s \$0-depth Depth_ms -3
-6 0 10 -262144 -1 -1 12700 1;
#X obj 195 97 nbx 5 15 0 10 0 0 empty \$0-depth empty 0 -8 0 10 -262144
-1 -1 10 256;
#X obj 164 306 / 100;
#X obj 164 328 \$1 20;
#X obj 164 350 line~;
#X text 163 235 Depth;
#X obj 87 161 delwrite~ \$0-delay1 1000;
#X obj 150 192 delwrite~ \$0-delay2 1000;
#X obj 89 343 osc~;
#X obj 89 365 *~;
#X obj 89 313 / 2;
#X obj 89 460 +~ 1.5;
#X obj 89 405 *~, f 13;
#X obj 89 489 vd~ \$0-delay1;
#X obj 89 527 dac~ 1 2, f 18;
#X obj 194 489 vd~ \$0-delay1;
#X obj 164 276 max 0.02;
#X text 125 36 Vibrato;
#N canvas 0 22 450 300 (subpatch) 0;
#X obj 14 18 inlet;
#X msg 14 40 set \$1;
#X obj 14 62 outlet;
#X connect 0 0 1 0;
#X connect 1 0 2 0;
#X restore 32 50 pd;
#N canvas 0 22 450 300 (subpatch) 0;
#X obj 14 18 inlet;
#X msg 14 40 set \$1;
#X obj 14 62 outlet;
#X connect 0 0 1 0;
#X connect 1 0 2 0;
#X restore 32 80 pd;
#X obj 89 254 r \$0-rate-s;
#X obj 164 254 r \$0-depth-s;
#N canvas 0 22 450 300 init 0;
#X obj 35 41 loadbang;
#X msg 39 118 0.1;
#X obj 28 97 s \$0-rate;
#X obj 39 140 s \$0-depth;
#X msg 28 75 10;
#X connect 0 0 4 0;
#X connect 0 0 1 0;
#X connect 1 0 3 0;
#X connect 4 0 2 0;
#X restore 21 161 pd init;
#X connect 0 0 23 0;
#X connect 1 0 0 0;
#X connect 2 0 11 0;
#X connect 2 1 12 0;
#X connect 5 0 24 0;
#X connect 6 0 5 0;
#X connect 7 0 8 0;
#X connect 8 0 9 0;
#X connect 9 0 17 1;
#X connect 13 0 14 0;
#X connect 13 0 14 1;
#X connect 14 0 17 0;
#X connect 15 0 13 0;
#X connect 16 0 18 0;
#X connect 17 0 16 0;
#X connect 17 0 20 0;
#X connect 18 0 19 0;
#X connect 20 0 19 1;
#X connect 21 0 7 0;
#X connect 23 0 1 0;
#X connect 24 0 6 0;
#X connect 25 0 15 0;
#X connect 26 0 21 0;
#X coords 0 -1 1 1 206 90 2 50 30;
