#N canvas 91 80 772 723 10;
#X obj 59 97 hsl 128 15 0 10 0 0 empty \$0-depth Depth_ms -3 -6 0 10
-262144 -1 -1 127 1;
#X obj 6 6 loadbang;
#X obj 59 67 hsl 128 15 0 5 0 0 empty \$0-rate Rate_Hz -3 -6 0 10 -262144
-1 -1 2540 1;
#X obj 195 67 nbx 5 15 0 5 0 0 empty \$0-rate empty 0 -8 0 10 -262144
-1 -1 0 256;
#X msg 19 30 1;
#X obj 195 97 nbx 5 15 0 10 0 0 empty \$0-depth empty 0 -8 0 10 -262144
-1 -1 0 256;
#X obj 59 128 hsl 128 15 0 10 0 0 empty \$0-shift Shift_ms -3 -6 0
10 -262144 -1 -1 127 1;
#X obj 195 128 nbx 5 15 0 10 0 0 empty \$0-shift empty 0 -8 0 10 -262144
-1 -1 0 256;
#X obj 59 158 hsl 128 15 0 100 0 0 empty \$0-feedback Feeback_% -3
-6 0 10 -262144 -1 -1 12700 1;
#X obj 195 158 nbx 5 15 0 10 0 0 empty \$0-feedback empty 0 -8 0 10
-262144 -1 -1 0 256;
#X obj 59 188 hsl 128 15 0 100 0 0 empty \$0-spread Spread_% -3 -6
0 10 -262144 -1 -1 12700 1;
#X obj 195 188 nbx 5 15 0 10 0 0 empty \$0-spread empty 0 -8 0 10 -262144
-1 -1 0 256;
#X msg 25 104 0.1;
#X msg 20 130 100;
#X msg 15 164 100;
#X msg 20 63 0.1;
#X obj 318 316 +~ 1;
#X obj 318 343 *~ 0.5;
#X text 390 173 Low Frequency Oscillator;
#X obj 297 636 +~, f 4;
#X obj 570 636 +~, f 4;
#X obj 571 316 +~ 1;
#X obj 571 343 *~ 0.5;
#X obj 430 226 phasor~ 1;
#X obj 318 289 cos~;
#X obj 571 289 cos~;
#X obj 434 316 line~;
#X msg 434 292 \$1 20;
#X obj 318 392 *~;
#X obj 571 392 *~;
#X obj 434 416 line~;
#X msg 434 391 \$1 20;
#X obj 318 452 +~;
#X obj 571 452 +~;
#X obj 572 236 line~;
#X msg 572 212 \$1 20;
#X obj 571 263 +~;
#X obj 464 566 line~;
#X msg 464 534 \$1 20;
#X obj 570 604 *~;
#X obj 318 604 *~;
#X obj 572 113 r \$0-spread;
#X obj 572 188 * 0.5;
#X obj 434 248 r \$0-depth;
#X obj 434 344 r \$0-shift;
#X obj 464 453 r \$0-feedback;
#X text 648 30 Input 2;
#X obj 315 89 delwrite~ \$0-delay-1 5000;
#X obj 601 89 delwrite~ \$0-delay-2 5000;
#X obj 318 499 vd~ \$0-delay-1, f 16;
#X obj 571 499 vd~ \$0-delay-2, f 16;
#X text 646 684 Output 2;
#X text 226 684 Output 1;
#X text 426 17 Stereo Flanger;
#X obj 431 200 r \$0-rate;
#X obj 464 505 / 100;
#X obj 572 165 / 100, f 16;
#X obj 297 32 adc~ 1 2, f 50;
#X obj 297 684 dac~ 1 2, f 46;
#X text 329 65 Write Head 1;
#X text 605 65 Write Head 2;
#X text 609 475 Read Head 2;
#X text 331 475 Read Head 1;
#X obj 434 366 clip 0 4000;
#X obj 434 270 clip 0 4000;
#X obj 464 475 clip 0 100;
#X obj 572 135 clip 0 100;
#X obj 297 658 *~ 0.5;
#X obj 570 658 *~ 0.5;
#X connect 1 0 4 0;
#X connect 1 0 15 0;
#X connect 1 0 12 0;
#X connect 1 0 13 0;
#X connect 1 0 14 0;
#X connect 4 0 2 0;
#X connect 12 0 6 0;
#X connect 13 0 8 0;
#X connect 14 0 10 0;
#X connect 15 0 0 0;
#X connect 16 0 17 0;
#X connect 17 0 28 0;
#X connect 19 0 67 0;
#X connect 20 0 68 0;
#X connect 21 0 22 0;
#X connect 22 0 29 0;
#X connect 23 0 24 0;
#X connect 23 0 36 0;
#X connect 24 0 16 0;
#X connect 25 0 21 0;
#X connect 26 0 28 1;
#X connect 26 0 29 1;
#X connect 27 0 26 0;
#X connect 28 0 32 0;
#X connect 29 0 33 0;
#X connect 30 0 32 1;
#X connect 30 0 33 1;
#X connect 31 0 30 0;
#X connect 32 0 49 0;
#X connect 33 0 50 0;
#X connect 34 0 36 1;
#X connect 35 0 34 0;
#X connect 36 0 25 0;
#X connect 37 0 40 1;
#X connect 37 0 39 1;
#X connect 38 0 37 0;
#X connect 39 0 20 0;
#X connect 40 0 19 1;
#X connect 41 0 66 0;
#X connect 42 0 35 0;
#X connect 43 0 64 0;
#X connect 44 0 63 0;
#X connect 45 0 65 0;
#X connect 49 0 40 0;
#X connect 50 0 39 0;
#X connect 54 0 23 0;
#X connect 55 0 38 0;
#X connect 56 0 42 0;
#X connect 57 0 19 0;
#X connect 57 0 47 0;
#X connect 57 1 20 1;
#X connect 57 1 48 0;
#X connect 63 0 31 0;
#X connect 64 0 27 0;
#X connect 65 0 55 0;
#X connect 66 0 56 0;
#X connect 67 0 58 0;
#X connect 68 0 58 1;
#X coords 0 -1 1 1 206 160 2 50 50;
