#N canvas 533 356 657 412 10;
#X msg 333 275 \$1 20;
#X obj 333 297 line~;
#X obj 333 224 pow, f 5;
#X obj 333 126 t b f, f 10;
#X obj 333 174 f 2;
#X obj 333 150 t b b;
#X obj 360 174 f 1;
#X obj 360 199 / 12;
#X obj 333 250 pow, f 10;
#X obj 333 13 adc~ 1 2;
#X obj 333 57 delwrite~ \$0-delay-1 2000;
#X obj 378 36 delwrite~ \$0-delay-2 2000;
#X obj 333 374 dac~ 1 2;
#X obj 333 322 delpitch~ \$0-delay-1 100;
#X obj 333 93 param.get 1;
#X obj 378 350 delpitch~ \$0-delay-2 100;
#X obj 404 12 param.change;
#X msg 414 146 set \$1;
#X obj 414 93 loadbang;
#X obj 414 125 f 0;
#X obj 147 124 nbx 5 15 -24 24 0 0 \$0-pitch-nbx-s \$0-pitch-nbx-r
empty 0 -8 0 10 -146257 -1 -1 0 256;
#X obj 150 150 hsl 140 15 -24 24 0 0 \$0-pitch-sld-s \$0-pitch-sld-r
empty -2 -8 0 10 -146257 -1 -1 6950 1;
#X text 146 80 ♪ AH AH AH ♪ JE RIS ♪;
#X text 186 179 by Pierre Guillot;
#X text 131 15 The original Pitch Shifter;
#X text 180 34 used by the;
#X msg 51 248 set \$1;
#X obj 51 228 r \$0-pitch-nbx-s;
#X obj 414 188 s \$0-pitch-nbx-r;
#X obj 183 247 s \$0-pitch-nbx-r;
#X obj 51 269 s \$0-pitch-sld-r;
#X obj 183 226 r \$0-pitch-sld-s;
#X obj 424 167 s \$0-pitch-sld-r;
#X text 135 55 Amazing Bianca Castafiore;
#X text 210 119 Transposition;
#X text 210 132 in tones;
#X obj 51 288 param.set 1 \$0-pitch-nbx-s;
#X connect 0 0 1 0;
#X connect 1 0 13 0;
#X connect 1 0 15 0;
#X connect 2 0 8 0;
#X connect 3 0 5 0;
#X connect 3 1 8 1;
#X connect 4 0 2 0;
#X connect 5 0 4 0;
#X connect 5 1 6 0;
#X connect 6 0 7 0;
#X connect 7 0 2 1;
#X connect 8 0 0 0;
#X connect 9 0 10 0;
#X connect 9 1 11 0;
#X connect 13 0 12 0;
#X connect 14 0 3 0;
#X connect 14 0 19 0;
#X connect 15 0 12 1;
#X connect 17 0 28 0;
#X connect 17 0 32 0;
#X connect 18 0 19 0;
#X connect 19 0 17 0;
#X connect 26 0 30 0;
#X connect 27 0 26 0;
#X connect 31 0 29 0;
#X coords 0 -1 1 1 301 201 2 2 2;
