#N canvas 476 256 657 412 10;
#X msg 273 275 \$1 20;
#X obj 273 297 line~;
#X obj 273 224 pow, f 5;
#X obj 273 126 t b f, f 10;
#X obj 273 174 f 2;
#X obj 273 150 t b b;
#X obj 305 174 f 1;
#X obj 305 199 / 12;
#X obj 273 250 pow, f 10;
#X obj 273 13 adc~ 1 2;
#X obj 273 57 delwrite~ \$0-delay-1 2000;
#X obj 326 36 delwrite~ \$0-delay-2 2000;
#X obj 273 374 dac~ 1 2;
#X obj 273 322 delpitch~ \$0-delay-1 100;
#X obj 273 93 param.get 1;
#X obj 326 350 delpitch~ \$0-delay-2 100;
#X obj 344 12 param.change;
#X msg 354 146 set \$1;
#X obj 354 168 s \$0-pitch;
#X obj 354 93 loadbang;
#X obj 354 125 f 0;
#X obj 3 3 cnv 15 229 119 empty empty empty 20 12 0 14 -244542 -66577
0;
#X obj 23 88 nbx 5 15 -24 24 0 0 empty \$0-pitch empty 0 -8 0 10 -145024
-1 -1 0 256;
#X obj 90 88 hsl 128 15 -24 24 0 0 empty \$0-pitch empty -2 -8 0 10
-145024 -1 -1 0 1;
#X msg 23 106 set \$1;
#X obj 23 128 param.set 1;
#X text 55 53 ♪ AH AH AH ♪ JE RIS ♪;
#X text 122 105 by Pierre Guillot;
#X text 22 72 Transposition in tones;
#X text 40 5 The original Pitch Shifter;
#X text 89 17 used by the;
#X text 65 28 Amazing Castafiore;
#X connect 0 0 1 0;
#X connect 1 0 13 0;
#X connect 1 0 15 0;
#X connect 2 0 8 0;
#X connect 3 0 5 0;
#X connect 3 1 8 1;
#X connect 4 0 2 0;
#X connect 5 0 4 0;
#X connect 5 1 6 0;
#X connect 6 0 7 0;
#X connect 7 0 2 1;
#X connect 8 0 0 0;
#X connect 9 0 10 0;
#X connect 9 1 11 0;
#X connect 13 0 12 0;
#X connect 14 0 3 0;
#X connect 14 0 20 0;
#X connect 15 0 12 1;
#X connect 17 0 18 0;
#X connect 19 0 20 0;
#X connect 20 0 17 0;
#X connect 22 0 24 0;
#X connect 22 0 25 0;
#X connect 23 0 22 0;
#X connect 24 0 23 0;
#X coords 0 -1 1 1 230 120 2 2 2;
