#N canvas 129 23 112 156 10;
#X obj 13 82 -, f 5;
#X obj 40 62 f;
#X obj 13 41 t f b;
#X obj 13 21 inlet;
#X obj 13 103 outlet;
#X connect 0 0 4 0;
#X connect 1 0 0 1;
#X connect 2 0 0 0;
#X connect 2 0 1 1;
#X connect 2 1 1 0;
#X connect 3 0 2 0;
