#N canvas 481 90 757 724 10;
#X obj 11 23 r \$1-oct-hr-s;
#X obj 11 108 s \$1-oct-nbx-r;
#X obj 108 24 r \$1-oct-nbx-s;
#X obj 108 45 int;
#X obj 108 66 clip -3 3;
#X obj 158 108 s \$1-oct-nbx-r;
#X obj 108 129 s \$1-oct-hr-r;
#X obj 11 44 - 3;
#X obj 108 87 + 3;
#X obj 108 175 int;
#X obj 108 196 clip -3 3;
#X obj 11 174 - 3;
#X obj 108 217 + 3;
#X obj 11 153 r \$1-ton-hr-s;
#X obj 11 238 s \$1-ton-nbx-r;
#X obj 108 154 r \$1-ton-nbx-s;
#X obj 108 259 s \$1-ton-hr-r;
#X obj 158 238 s \$1-ton-nbx-r;
#X obj 108 305 int;
#X obj 108 326 clip -3 3;
#X obj 11 304 - 3;
#X obj 108 347 + 3;
#X obj 108 284 r \$1-hto-nbx-s;
#X obj 11 368 s \$1-hto-nbx-r;
#X obj 158 368 s \$1-hto-nbx-r;
#X obj 11 283 r \$1-hto-hr-s;
#X obj 108 389 s \$1-hto-hr-r;
#X obj 108 445 int;
#X obj 11 423 r \$1-cent-sld-s;
#X obj 108 466 clip -100 100;
#X obj 108 529 s \$1-cent-sld-r;
#X obj 158 508 s \$1-cent-nbx-r;
#X obj 108 424 r \$1-cent-nbx-s;
#X obj 11 508 s \$1-cent-nbx-r;
#X msg 11 195 set \$1;
#X msg 11 65 set \$1;
#X msg 11 325 set \$1;
#X msg 11 444 set \$1;
#X msg 158 347 set \$1;
#X msg 158 487 set \$1;
#X msg 158 218 set \$1;
#X msg 158 87 set \$1;
#X obj 283 220 +, f 5;
#X obj 320 153 t b f;
#X obj 320 131 * 2;
#X obj 283 241 +, f 5;
#X obj 360 153 t b f;
#X obj 400 175 t b f;
#X obj 400 153 * 0.01;
#X obj 283 262 +, f 5;
#X obj 320 110 - 3;
#X obj 360 131 - 3;
#X obj 283 68 r \$1-oct-hr-s;
#X obj 283 89 - 3;
#X obj 283 110 * 12;
#X obj 320 89 r \$1-ton-hr-s;
#X obj 360 110 r \$1-hto-hr-s;
#X obj 400 131 r \$1-cent-sld-s;
#X obj 283 283 s \$1-pitch-nbx-r;
#X obj 303 308 r \$1-pitch-nbx-s;
#X msg 411 486 set \$1;
#X obj 411 507 s \$1-oct-hr-r;
#X msg 461 465 set \$1;
#X obj 461 486 s \$1-oct-nbx-r;
#X obj 354 373 t f f, f 10;
#X obj 354 495 -;
#X msg 354 603 set \$1;
#X msg 404 582 set \$1;
#X obj 303 329 clip -46 46;
#X obj 404 603 s \$1-ton-nbx-r;
#X obj 354 624 s \$1-ton-hr-r;
#X obj 303 350 t f f, f 9;
#X obj 303 609 -;
#X obj 303 630 int;
#X msg 303 673 set \$1;
#X msg 353 652 set \$1;
#X obj 303 694 s \$1-hto-hr-r;
#X obj 353 673 s \$1-hto-nbx-r;
#X obj 411 394 / 12;
#X obj 354 516 / 2;
#X obj 471 356 nbx 5 14 -1e+37 1e+37 0 0 empty empty empty 0 -8 0 10
-262144 -1 -1 14 256;
#X obj 549 483 nbx 5 14 -1e+37 1e+37 0 0 empty empty empty 0 -8 0 10
-262144 -1 -1 1 256;
#X obj 527 556 nbx 5 14 -1e+37 1e+37 0 0 empty empty empty 0 -8 0 10
-262144 -1 -1 1 256;
#X obj 411 466 + 3;
#X obj 354 583 + 3;
#X obj 303 653 + 3;
#X obj 471 679 nbx 5 14 -1e+37 1e+37 0 0 empty empty empty 0 -8 0 10
-262144 -1 -1 0 256;
#X obj 369 468 * 12;
#X obj 318 568 * 2;
#X obj 411 435 clip -3 3;
#X obj 411 415 int;
#X obj 354 557 clip -3 3;
#X obj 354 537 int;
#X obj 318 589 +;
#X connect 0 0 7 0;
#X connect 2 0 3 0;
#X connect 3 0 4 0;
#X connect 4 0 8 0;
#X connect 4 0 41 0;
#X connect 7 0 35 0;
#X connect 8 0 6 0;
#X connect 9 0 10 0;
#X connect 10 0 12 0;
#X connect 10 0 40 0;
#X connect 11 0 34 0;
#X connect 12 0 16 0;
#X connect 13 0 11 0;
#X connect 15 0 9 0;
#X connect 18 0 19 0;
#X connect 19 0 21 0;
#X connect 19 0 38 0;
#X connect 20 0 36 0;
#X connect 21 0 26 0;
#X connect 22 0 18 0;
#X connect 25 0 20 0;
#X connect 27 0 29 0;
#X connect 28 0 37 0;
#X connect 29 0 30 0;
#X connect 29 0 39 0;
#X connect 32 0 27 0;
#X connect 34 0 14 0;
#X connect 35 0 1 0;
#X connect 36 0 23 0;
#X connect 37 0 33 0;
#X connect 38 0 24 0;
#X connect 39 0 31 0;
#X connect 40 0 17 0;
#X connect 41 0 5 0;
#X connect 42 0 45 0;
#X connect 43 0 42 0;
#X connect 43 1 42 1;
#X connect 44 0 43 0;
#X connect 45 0 49 0;
#X connect 46 0 45 0;
#X connect 46 1 45 1;
#X connect 47 0 49 0;
#X connect 47 1 49 1;
#X connect 48 0 47 0;
#X connect 49 0 58 0;
#X connect 50 0 44 0;
#X connect 51 0 46 0;
#X connect 52 0 53 0;
#X connect 53 0 54 0;
#X connect 54 0 42 0;
#X connect 55 0 50 0;
#X connect 56 0 51 0;
#X connect 57 0 48 0;
#X connect 59 0 68 0;
#X connect 60 0 61 0;
#X connect 62 0 63 0;
#X connect 64 0 65 0;
#X connect 64 1 78 0;
#X connect 65 0 79 0;
#X connect 66 0 70 0;
#X connect 67 0 69 0;
#X connect 68 0 71 0;
#X connect 71 0 72 0;
#X connect 71 1 64 0;
#X connect 72 0 73 0;
#X connect 73 0 75 0;
#X connect 73 0 85 0;
#X connect 73 0 86 0;
#X connect 74 0 76 0;
#X connect 75 0 77 0;
#X connect 78 0 90 0;
#X connect 79 0 92 0;
#X connect 80 0 68 0;
#X connect 83 0 60 0;
#X connect 84 0 66 0;
#X connect 85 0 74 0;
#X connect 87 0 65 1;
#X connect 87 0 93 1;
#X connect 88 0 93 0;
#X connect 89 0 62 0;
#X connect 89 0 81 0;
#X connect 89 0 83 0;
#X connect 89 0 87 0;
#X connect 90 0 89 0;
#X connect 91 0 67 0;
#X connect 91 0 84 0;
#X connect 91 0 82 0;
#X connect 91 0 88 0;
#X connect 92 0 91 0;
#X connect 93 0 72 1;
