#N canvas -152 54 912 648 10;
#X msg 706 486 set \$1;
#X obj 706 507 s \$1-oct-nbx-r;
#X obj 649 396 t f f, f 10;
#X msg 649 544 set \$1;
#X obj 598 373 t f f, f 9;
#X msg 598 565 set \$1;
#X obj 706 417 / 12;
#X obj 706 438 int;
#X obj 649 502 int;
#X obj 649 565 s \$1-htone-nbx-r;
#X obj 598 394 t f f;
#X obj 625 415 int;
#X obj 598 436 -, f 5;
#X obj 598 586 s \$1-cent-nbx-r;
#X obj 598 457 * 100;
#X obj 598 478 int;
#X obj 706 463 clip -4 4;
#X obj 649 480 % 12;
#X obj 331 47 t f f, f 14;
#X obj 138 48 t f f, f 14;
#X obj 138 27 int;
#X obj 229 109 s \$1-htone-nbx-r;
#X obj 7 27 int;
#X obj 649 522 clip -12 12;
#X obj 331 27 int;
#X obj 400 117 / 100;
#X obj 331 168 +;
#X msg 229 89 set \$1;
#X obj 331 189 s \$1-htone-nbx-r;
#X obj 219 201 +;
#X obj 7 47 t f f;
#X msg 34 79 set \$1;
#X obj 34 99 s \$1-oct-nbx-r;
#X obj 207 129 / 12;
#X obj 207 150 int;
#X obj 138 141 +;
#X obj 138 172 s \$1-oct-nbx-r;
#X obj 204 227 +;
#X obj 7 68 * 12;
#X obj 412 68 mod 100;
#X obj 219 69 mod 12;
#X obj 412 89 / 100;
#X obj 400 138 int;
#X msg 450 89 set \$1;
#X obj 450 110 s \$1-cent-nbx-r;
#X obj 331 68 moses -1e-37;
#X msg 331 89 -1;
#X obj 138 69 moses -1e-37;
#X msg 138 90 -1;
#X obj 491 174 r \$1-oct-nbx-s;
#X obj 711 174 r \$1-cent-nbx-s;
#X obj 598 174 r \$1-htone-nbx-s;
#X obj 446 340 nbx 5 14 -1e+37 1e+37 0 0 empty empty empty 0 -8 0 10
-262144 -1 -1 -12 256;
#X obj 491 297 * 12;
#X obj 40 40 nbx 5 14 -1e+37 1e+37 0 0 empty empty empty 0 -8 0 10
-262144 -1 -1 0 256;
#X obj 491 195 clip -4 4;
#X msg 518 236 set \$1;
#X obj 518 257 s \$1-oct-nbx-r;
#X obj 598 195 clip -12 12;
#X obj 711 195 clip -100 100;
#X obj 491 216 t f f;
#X msg 625 236 set \$1;
#X obj 598 216 t f f;
#X obj 625 257 s \$1-htone-nbx-r;
#X msg 738 236 set \$1;
#X obj 711 216 t f f;
#X obj 738 257 s \$1-cent-nbx-r;
#X obj 711 298 / 100;
#X obj 711 277 diff;
#X obj 598 277 diff;
#X obj 491 277 diff;
#X obj 598 351 +;
#X obj 628 351 f;
#X connect 0 0 1 0;
#X connect 2 0 17 0;
#X connect 3 0 9 0;
#X connect 4 0 10 0;
#X connect 4 1 2 0;
#X connect 5 0 13 0;
#X connect 6 0 7 0;
#X connect 7 0 16 0;
#X connect 8 0 23 0;
#X connect 10 0 12 0;
#X connect 10 1 11 0;
#X connect 11 0 12 1;
#X connect 12 0 14 0;
#X connect 14 0 15 0;
#X connect 15 0 5 0;
#X connect 16 0 0 0;
#X connect 17 0 8 0;
#X connect 18 0 45 0;
#X connect 18 1 39 0;
#X connect 19 0 47 0;
#X connect 19 1 40 0;
#X connect 20 0 19 0;
#X connect 22 0 30 0;
#X connect 23 0 3 0;
#X connect 24 0 18 0;
#X connect 25 0 42 0;
#X connect 26 0 28 0;
#X connect 27 0 21 0;
#X connect 29 0 37 1;
#X connect 30 0 38 0;
#X connect 30 1 31 0;
#X connect 30 1 35 1;
#X connect 31 0 32 0;
#X connect 33 0 34 0;
#X connect 34 0 35 0;
#X connect 35 0 36 0;
#X connect 38 0 37 0;
#X connect 39 0 41 0;
#X connect 39 0 43 0;
#X connect 40 0 27 0;
#X connect 40 0 29 0;
#X connect 40 0 26 1;
#X connect 41 0 29 1;
#X connect 42 0 26 0;
#X connect 43 0 44 0;
#X connect 45 0 46 0;
#X connect 45 1 25 0;
#X connect 46 0 26 0;
#X connect 47 0 48 0;
#X connect 47 1 33 0;
#X connect 48 0 35 0;
#X connect 49 0 55 0;
#X connect 50 0 59 0;
#X connect 51 0 58 0;
#X connect 53 0 71 0;
#X connect 55 0 60 0;
#X connect 56 0 57 0;
#X connect 58 0 62 0;
#X connect 59 0 65 0;
#X connect 60 0 70 0;
#X connect 60 1 56 0;
#X connect 61 0 63 0;
#X connect 62 0 69 0;
#X connect 62 1 61 0;
#X connect 64 0 66 0;
#X connect 65 0 68 0;
#X connect 65 1 64 0;
#X connect 67 0 71 0;
#X connect 68 0 67 0;
#X connect 69 0 71 0;
#X connect 70 0 53 0;
#X connect 71 0 52 0;
#X connect 71 0 72 0;
#X connect 71 0 4 0;
#X connect 72 0 71 1;
