#N canvas 129 23 302 274 10;
#X obj 21 171 +, f 5;
#X obj 58 104 t b f;
#X obj 58 82 * 2;
#X obj 21 192 +, f 5;
#X obj 98 104 t b f;
#X obj 138 126 t b f;
#X obj 138 104 * 0.01;
#X obj 21 213 +, f 5;
#X obj 58 61 - 3;
#X obj 98 82 - 3;
#X obj 21 19 r \$1-oct-hr-s;
#X obj 21 40 - 3;
#X obj 21 61 * 12;
#X obj 58 40 r \$1-ton-hr-s;
#X obj 98 61 r \$1-hto-hr-s;
#X obj 138 82 r \$1-cent-sld-s;
#X obj 21 234 s \$1-pitch-nbx-r;
#X connect 0 0 3 0;
#X connect 1 0 0 0;
#X connect 1 1 0 1;
#X connect 2 0 1 0;
#X connect 3 0 7 0;
#X connect 4 0 3 0;
#X connect 4 1 3 1;
#X connect 5 0 7 0;
#X connect 5 1 7 1;
#X connect 6 0 5 0;
#X connect 7 0 16 0;
#X connect 8 0 2 0;
#X connect 9 0 4 0;
#X connect 10 0 11 0;
#X connect 11 0 12 0;
#X connect 12 0 0 0;
#X connect 13 0 8 0;
#X connect 14 0 9 0;
#X connect 15 0 6 0;
