#N canvas 683 219 573 534 12;
#X declare -path else;
#X obj 362 291 array define \$0-scale;
#X obj 316 245 array max \$0-scale;
#X obj 316 158 t b l l;
#X obj 339 212 array set \$0-scale;
#X obj 390 157 list length;
#X obj 390 181 array size \$0-scale;
#X obj 47 35 inlet;
#X obj 138 266 v i_\$0;
#X obj 138 291 tabread \$0-scale, f 8;
#X obj 138 367 -;
#X obj 115 401 +;
#X obj 115 229 t f b f;
#N canvas 1042 459 424 442 find-index 0;
#X obj 135 55 inlet;
#X obj 196 134 array get \$0-scale, f 9;
#X obj 196 182 iterate;
#X msg 181 263 1e+20;
#X obj 187 292 f;
#X obj 140 292 min;
#X obj 140 326 change;
#X obj 140 361 t f b;
#X obj 210 326 f;
#X obj 228 239 count;
#X obj 196 208 t f b;
#X obj 210 361 v i_\$0;
#X obj 140 239 -;
#X obj 140 263 abs;
#X obj 135 91 t b f b;
#X msg 284 132 reset;
#X msg 77 258 set -1;
#X connect 0 0 14 0;
#X connect 1 0 2 0;
#X connect 2 0 10 0;
#X connect 3 0 5 1;
#X connect 4 0 5 1;
#X connect 5 0 6 0;
#X connect 6 0 7 0;
#X connect 7 0 4 0;
#X connect 7 1 8 0;
#X connect 8 0 11 0;
#X connect 9 0 8 1;
#X connect 10 0 12 0;
#X connect 10 1 9 0;
#X connect 12 0 13 0;
#X connect 13 0 5 0;
#X connect 14 0 1 0;
#X connect 14 1 12 1;
#X connect 14 2 15 0;
#X connect 14 2 3 0;
#X connect 14 2 16 0;
#X connect 15 0 9 0;
#X connect 16 0 6 0;
#X restore 235 323 pd find-index;
#X obj 316 35 inlet;
#N canvas 999 363 587 334 init 0;
#X obj 226 256 outlet;
#X msg 293 156 0 100 200 300 400 500 600 700 800 900 1000 1100 1200
, f 26;
#X obj 107 41 lb -init 2, f 28;
#X obj 211 159 s \$0-bp;
#X obj 107 112 route bang list -bypass;
#X obj 27 97 pdcontrol;
#X msg 27 65 args;
#X obj 28 128 break -;
#X connect 1 0 0 0;
#X connect 2 0 6 0;
#X connect 2 1 1 0;
#X connect 4 1 0 0;
#X connect 4 2 3 0;
#X connect 5 0 7 0;
#X connect 6 0 5 0;
#X connect 7 0 4 0;
#X restore 327 123 pd init;
#X obj 115 485 outlet;
#X obj 387 330 declare -path else;
#X text 230 413 Part of ELSE \; https://github.com/porres/pd-else;
#X text 232 394 Alexandre Torres Porres (2020);
#X obj 47 177 router 2 2;
#X obj 141 140 == 1;
#X msg 141 196 1;
#X obj 141 164 sel 1 0;
#X msg 177 196 2;
#X obj 47 73 route float bypass;
#X obj 141 110 != 0;
#X obj 219 162 r \$0-bp;
#X obj 235 286 wrap2 0 1200;
#X connect 1 0 27 2;
#X connect 2 0 1 0;
#X connect 2 1 3 0;
#X connect 2 2 4 0;
#X connect 4 0 5 0;
#X connect 6 0 24 0;
#X connect 7 0 8 0;
#X connect 8 0 9 0;
#X connect 9 0 10 1;
#X connect 10 0 15 0;
#X connect 11 0 10 0;
#X connect 11 1 7 0;
#X connect 11 2 27 0;
#X connect 13 0 2 0;
#X connect 14 0 2 0;
#X connect 19 0 15 0;
#X connect 19 1 11 0;
#X connect 20 0 22 0;
#X connect 21 0 19 1;
#X connect 22 0 21 0;
#X connect 22 1 23 0;
#X connect 23 0 19 1;
#X connect 24 0 19 0;
#X connect 24 1 25 0;
#X connect 25 0 20 0;
#X connect 26 0 21 0;
#X connect 27 0 9 1;
#X connect 27 0 12 0;
