#N canvas 951 73 969 408 10;
#X declare -path else;
#X obj 175 70 inlet~ fwd;
#N canvas 637 72 689 446 guts 0;
#X obj 122 38 inlet;
#X obj 157 203 trigger float float bang, f 25;
#X msg 230 235 fast-forward \$1;
#X obj 230 269 send pd;
#X obj 157 235 delay;
#X obj 417 95 canvas.setname \$0-patch 1;
#X obj 157 174 max 10;
#N canvas 432 92 762 549 dynamic-patching 0;
#X obj 200 180 loop;
#X obj 200 203 t f f, f 6;
#X obj 200 229 * 15;
#N canvas 1054 234 810 520 load_args 0;
#X obj 187 58 inlet;
#X obj 423 214 s \$0-filename;
#X obj 469 156 dir 1;
#X msg 526 208 set \$1;
#X obj 526 184 makefilename %s/%%s;
#X obj 423 129 t s b;
#X obj 526 235 s \$0-set-path;
#X obj 187 162 args;
#X obj 187 216 break -;
#X obj 361 212 v ch_\$0;
#X msg 361 185 1;
#X obj 266 357 v ch_\$0;
#X obj 266 334 clip 1 64;
#X obj 226 382 s \$0-filename;
#X msg 423 95 symbol file.wav;
#X msg 469 130 dir;
#X obj 150 351 route float;
#X obj 108 286 unmerge 3;
#X obj 162 330 s \$0-time;
#X obj 342 280 max 5;
#X msg 283 272 50;
#X obj 187 190 trigger anything bang;
#X text 613 235 useless;
#X obj 159 125 bng 15 250 50 0 empty empty empty 17 7 0 10 -262144
-1 -1;
#X obj 187 245 route bang symbol float list -time;
#X connect 0 0 7 0;
#X connect 2 1 4 0;
#X connect 3 0 6 0;
#X connect 4 0 3 0;
#X connect 5 0 1 0;
#X connect 5 1 15 0;
#X connect 7 0 21 0;
#X connect 8 0 24 0;
#X connect 10 0 9 0;
#X connect 12 0 11 0;
#X connect 14 0 5 0;
#X connect 15 0 2 0;
#X connect 16 1 13 0;
#X connect 17 0 16 0;
#X connect 17 1 12 0;
#X connect 17 2 18 0;
#X connect 19 0 18 0;
#X connect 20 0 18 0;
#X connect 21 0 8 0;
#X connect 21 1 10 0;
#X connect 21 1 14 0;
#X connect 21 1 20 0;
#X connect 23 0 7 0;
#X connect 24 1 13 0;
#X connect 24 2 12 0;
#X connect 24 3 17 0;
#X connect 24 4 19 0;
#X restore 280 83 pd load_args;
#X obj 200 87 v ch_\$0;
#X obj 200 112 trigger float float;
#X obj 211 391 s \$0-patch;
#X obj 199 136 - 1;
#X obj 199 158 moses 1;
#X obj 200 258 + 250;
#X obj 211 286 pack f f f;
#X obj 239 258 + 1;
#X obj 191 52 lb -init 2;
#X msg 346 317 obj 175 175 writesf~ \$1 \, connect 0 0 6 0 \, connect
2 0 6 0, f 41;
#X obj 268 257 + 7;
#X msg 211 311 obj \$1 70 inlet~ \, connect \$3 0 6 \$2, f 19;
#X connect 0 0 1 0;
#X connect 1 0 2 0;
#X connect 1 1 11 0;
#X connect 1 1 14 0;
#X connect 2 0 9 0;
#X connect 4 0 5 0;
#X connect 5 0 7 0;
#X connect 5 1 13 0;
#X connect 7 0 8 0;
#X connect 8 1 0 0;
#X connect 9 0 10 0;
#X connect 10 0 15 0;
#X connect 11 0 10 1;
#X connect 12 0 4 0;
#X connect 12 1 3 0;
#X connect 13 0 6 0;
#X connect 14 0 10 2;
#X connect 15 0 6 0;
#X restore 455 125 pd dynamic-patching;
#X obj 157 143 f;
#X obj 355 354 s \$0-rec;
#X obj 205 144 r \$0-time;
#X obj 156 308 s \$0-done;
#X msg 183 269 stop;
#X obj 122 85 route bang rec set;
#X msg 355 230 open -rate \$2 \$1 \, start;
#X obj 355 202 pack s f;
#X obj 355 176 symbol;
#X obj 436 179 sr~;
#N canvas 317 52 476 342 set 0;
#X obj 270 183 makefilename;
#X obj 289 157 r \$0-set-path;
#X obj 270 135 r \$0-filename;
#X obj 224 146 symbol;
#X obj 117 115 route bang;
#X obj 156 177 savepanel;
#X obj 205 110 click;
#X obj 117 68 inlet;
#X obj 156 273 outlet;
#X connect 0 0 8 0;
#X connect 1 0 0 0;
#X connect 2 0 0 0;
#X connect 3 0 0 0;
#X connect 4 0 5 0;
#X connect 4 1 3 0;
#X connect 5 0 8 0;
#X connect 6 0 5 0;
#X connect 7 0 4 0;
#X restore 388 152 pd set;
#X obj 462 65 declare -path else;
#X connect 0 0 13 0;
#X connect 1 0 4 0;
#X connect 1 1 2 0;
#X connect 1 2 16 0;
#X connect 2 0 3 0;
#X connect 4 0 12 0;
#X connect 4 0 11 0;
#X connect 6 0 1 0;
#X connect 8 0 6 0;
#X connect 10 0 8 1;
#X connect 12 0 9 0;
#X connect 13 0 8 0;
#X connect 13 1 8 0;
#X connect 13 2 18 0;
#X connect 14 0 9 0;
#X connect 15 0 14 0;
#X connect 16 0 15 0;
#X connect 17 0 15 1;
#X connect 18 0 16 1;
#X restore 106 107 pd guts;
#X obj 101 137 r \$0-rec;
#X obj 99 211 r \$0-done;
#X obj 99 236 outlet;
#X text 93 299 Alexandre Torres Porres (2020) \; Part of ELSE \; https://github.com/porres/pd-else
;
#X connect 0 1 1 0;
#X connect 3 0 4 0;
