#N canvas 616 270 577 328 10;
#X declare -path else;
#X obj 72 216 *~ 0.5;
#X obj 140 187 cos~;
#X obj 140 237 +~ 0.5;
#X obj 140 212 *~ -0.5;
#X obj 208 212 *~ 2;
#X obj 73 31 inlet~;
#X obj 208 237 fold~;
#X obj 140 277 outlet~;
#X obj 88 130 r \$0-ch;
#X obj 72 238 sin~;
#X text 281 85 Part of ELSE \; https://github.com/porres/pd-else;
#X text 283 66 Alexandre Torres Porres (2018);
#X obj 73 66 +~ 0;
#X obj 73 94 wrap~;
#X obj 73 156 xgate~ 3 0 1, f 23;
#X obj 121 67 r \$0-phase;
#X obj 292 155 declare -path else;
#N canvas 0 23 450 300 init 0;
#X obj 169 177 sel sin hann tri;
#X msg 169 201 1;
#X msg 200 201 2;
#X msg 231 201 3;
#X obj 200 228 s \$0-ch;
#X obj 106 80 args;
#X obj 106 106 routetype float symbol list;
#X obj 232 132 unpack s f;
#X obj 289 199 s \$0-phase;
#X obj 289 174 clip 0 1;
#X obj 106 56 lb -init;
#X connect 0 0 1 0;
#X connect 0 1 2 0;
#X connect 0 2 3 0;
#X connect 1 0 4 0;
#X connect 2 0 4 0;
#X connect 3 0 4 0;
#X connect 5 0 6 0;
#X connect 6 0 9 0;
#X connect 6 1 0 0;
#X connect 6 2 7 0;
#X connect 7 0 0 0;
#X connect 7 1 9 0;
#X connect 9 0 8 0;
#X connect 10 0 5 0;
#X restore 313 208 pd init;
#X connect 0 0 9 0;
#X connect 1 0 3 0;
#X connect 2 0 7 0;
#X connect 3 0 2 0;
#X connect 4 0 6 0;
#X connect 5 0 12 0;
#X connect 6 0 7 0;
#X connect 8 0 14 0;
#X connect 9 0 7 0;
#X connect 12 0 13 0;
#X connect 13 0 14 0;
#X connect 14 0 0 0;
#X connect 14 1 1 0;
#X connect 14 2 4 0;
#X connect 15 0 12 1;
