#N canvas 878 130 505 289 12;
#X declare -path else;
#X obj 50 36 inlet;
#X obj 49 214 outlet~;
#X obj 249 209 outlet~;
#X obj 319 162 declare -path else;
#X text 172 98 Part of ELSE \; https://github.com/porres/pd-else;
#X text 174 79 Alexandre Torres Porres (2020);
#N canvas 845 238 331 363 route 0;
#X obj 188 227 insert all;
#X obj 203 169 dollsym 1;
#X msg 203 197 set \$1;
#X obj 188 308 outlet;
#X obj 49 26 inlet;
#X obj 203 143 symbol;
#X msg 48 247 \$1 bang;
#X obj 49 68 route bang float set;
#X obj 48 221 loop 16;
#X obj 94 180 r \$0-n;
#X obj 94 151 s \$0-n;
#X obj 94 123 clip 1 256;
#X connect 0 0 3 0;
#X connect 1 0 2 0;
#X connect 2 0 0 0;
#X connect 4 0 7 0;
#X connect 5 0 1 0;
#X connect 6 0 3 0;
#X connect 7 0 8 0;
#X connect 7 1 11 0;
#X connect 7 2 5 0;
#X connect 7 3 0 0;
#X connect 8 0 6 0;
#X connect 9 0 8 1;
#X connect 9 0 0 0;
#X connect 11 0 10 0;
#X restore 50 85 pd route;
#N canvas 374 165 1482 572 init 1;
#X obj 153 302 dollsym 1;
#X obj 604 481 outlet;
#X obj 132 257 symbol;
#X obj 250 314 insert all amp;
#X obj 358 314 insert all size;
#X obj 475 314 insert all dur;
#X obj 729 314 insert all pan;
#X msg 153 328 all set \$1;
#X obj 161 220 unpack f s;
#X obj 988 314 insert all scale;
#X obj 1112 314 insert all base, f 16;
#X obj 839 314 insert all autotune;
#X obj 75 85 lb -init;
#X obj 106 375 message;
#X obj 106 405 route bang;
#X obj 24 274 del 0;
#X obj 98 124 args -;
#X obj 603 313 insert all speed;
#X obj 1249 314 insert all pos, f 16;
#X obj 98 154 route float symbol list -amp -size -dur -speed -pan -autotune
-scale -base -pos -sync, f 150;
#X msg 1380 314 all sync 1;
#X obj 75 295 s \$0-n;
#X obj 75 257 clip 1 256, f 5;
#X connect 0 0 7 0;
#X connect 2 0 0 0;
#X connect 3 0 1 0;
#X connect 4 0 1 0;
#X connect 5 0 1 0;
#X connect 6 0 1 0;
#X connect 7 0 13 1;
#X connect 8 0 22 0;
#X connect 8 1 0 0;
#X connect 9 0 1 0;
#X connect 10 0 1 0;
#X connect 11 0 1 0;
#X connect 12 0 15 0;
#X connect 12 0 16 0;
#X connect 13 0 14 0;
#X connect 14 1 1 0;
#X connect 15 0 13 0;
#X connect 16 0 19 0;
#X connect 17 0 1 0;
#X connect 18 0 1 0;
#X connect 19 0 22 0;
#X connect 19 1 2 0;
#X connect 19 2 8 0;
#X connect 19 3 3 0;
#X connect 19 4 4 0;
#X connect 19 5 5 0;
#X connect 19 6 17 0;
#X connect 19 7 6 0;
#X connect 19 8 11 0;
#X connect 19 9 9 0;
#X connect 19 10 10 0;
#X connect 19 11 18 0;
#X connect 19 12 20 0;
#X connect 20 0 1 0;
#X connect 22 0 21 0;
#X restore 72 132 pd init;
#X obj 49 167 clone grain.sampler.grain 256;
#X connect 0 0 6 0;
#X connect 6 0 8 0;
#X connect 7 0 8 0;
#X connect 8 0 1 0;
#X connect 8 1 2 0;
