#N canvas 707 231 412 305 10;
#X declare -path else;
#X msg 204 158 0;
#X obj 204 187 v i_\$0;
#X obj 140 218 v sum_\$0;
#X obj 63 82 symbol \$1;
#X obj 63 29 inlet;
#X obj 114 29 inlet;
#X obj 140 257 outlet;
#X text 176 80 Part of ELSE \; https://github.com/porres/pd-else;
#X text 178 61 Alexandre Torres Porres (2018);
#N canvas 614 225 550 646 sum 0;
#X obj 124 81 list fromsymbol;
#X obj 124 467 list split 1;
#X obj 158 490 list;
#X obj 188 283 list split 2, f 18;
#X obj 187 230 t l l, f 23;
#X obj 302 406 list;
#X obj 188 345 sel 0 1;
#X obj 208 410 list;
#X obj 187 125 list length;
#X obj 187 153 >= 2;
#X obj 124 45 inlet;
#X obj 124 177 t l l;
#X obj 124 205 router;
#X obj 187 179 + 1;
#X obj 124 525 expr i_\$0 = i_\$0 + 1 \; sum_\$0 = sum_\$0 + if($f1
< 57 \, $f1 -48 \, if($f1 > 57 && $f1 < 88 \, $f1 - 55 \, $f1 -87))
* pow(16 \, i_\$0), f 52;
#X obj 188 309 expr $f1 == 48 && ($f2 == 88 || $f2 == 120);
#X connect 0 0 11 0;
#X connect 1 0 14 0;
#X connect 1 1 2 0;
#X connect 2 0 1 0;
#X connect 3 0 15 0;
#X connect 3 1 7 1;
#X connect 4 0 3 0;
#X connect 4 1 5 1;
#X connect 5 0 1 0;
#X connect 6 0 5 0;
#X connect 6 1 7 0;
#X connect 7 0 1 0;
#X connect 8 0 9 0;
#X connect 9 0 13 0;
#X connect 10 0 0 0;
#X connect 11 0 12 0;
#X connect 11 1 8 0;
#X connect 12 0 1 0;
#X connect 12 1 4 0;
#X connect 13 0 12 1;
#X connect 15 0 6 0;
#X restore 133 152 pd sum;
#X obj 63 124 trigger bang symbol bang;
#X obj 270 155 declare -path else;
#X connect 0 0 1 0;
#X connect 0 0 2 0;
#X connect 2 0 6 0;
#X connect 3 0 10 0;
#X connect 4 0 3 0;
#X connect 5 0 3 1;
#X connect 10 0 2 0;
#X connect 10 1 9 0;
#X connect 10 2 0 0;
