#N canvas 716 175 521 466 12;
#X declare -path else;
#X obj 70 296 message;
#X obj 67 136 timer;
#X obj 76 99 t b b a;
#X obj 70 364 outlet;
#X obj 76 40 inlet;
#X obj 223 40 inlet;
#X text 230 302 Part of ELSE \; https://github.com/porres/pd-else;
#X text 232 283 Alexandre Torres Porres (2019);
#X msg 173 206 start;
#X msg 165 177 stop;
#X obj 93 333 r \$0-bypass;
#X obj 223 145 max 0;
#X obj 223 113 f \$1;
#X obj 67 176 moses;
#X obj 165 145 del;
#X obj 165 232 tempo -ms, f 17;
#N canvas 68 23 450 300 bybass 0;
#X obj 184 85 inlet;
#X obj 258 84 inlet;
#X obj 184 256 outlet;
#X obj 258 213 s \$0-bypass;
#X obj 184 184 router;
#X obj 258 115 == 0;
#X obj 258 144 + 1;
#X connect 0 0 4 0;
#X connect 1 0 5 0;
#X connect 4 0 2 0;
#X connect 4 1 3 0;
#X connect 5 0 6 0;
#X connect 6 0 4 1;
#X restore 76 70 pd bybass;
#X obj 232 172 sel 0;
#X obj 240 80 lb -init;
#X obj 319 155 declare -path else;
#X connect 0 0 3 0;
#X connect 1 0 13 0;
#X connect 2 0 1 0;
#X connect 2 0 14 0;
#X connect 2 1 1 1;
#X connect 2 2 0 1;
#X connect 4 0 16 0;
#X connect 5 0 12 0;
#X connect 8 0 15 0;
#X connect 9 0 15 0;
#X connect 10 0 3 0;
#X connect 11 0 13 1;
#X connect 11 0 14 1;
#X connect 11 0 15 1;
#X connect 11 0 16 1;
#X connect 11 0 17 0;
#X connect 12 0 11 0;
#X connect 13 1 8 0;
#X connect 14 0 9 0;
#X connect 15 0 0 0;
#X connect 16 0 2 0;
#X connect 17 0 9 0;
#X connect 17 1 8 0;
#X connect 18 0 12 0;
