#N canvas 521 314 493 349 10;
#X declare -path /Users/porres/Documents/pd/externals/else;
#X declare -path else;
#X obj 76 28 inlet;
#N canvas 757 340 304 277 messages 0;
#X obj 32 27 inlet;
#X msg 65 206 vis \$1;
#X msg 32 173 1;
#X msg 65 173 0;
#X obj 65 232 send pd-\$0-buffers;
#N canvas 744 85 316 282 norm 0;
#X obj 71 27 inlet;
#X obj 71 119 v ch_\$0;
#X obj 71 91 trigger bang float;
#X obj 71 147 loop;
#X msg 230 150 set \$1;
#X obj 71 175 pack2 float buffer_\$0 float;
#X msg 71 209 \; \$1-\$2 normalize \$3;
#X obj 71 64 route float;
#X connect 0 0 7 0;
#X connect 1 0 3 0;
#X connect 2 0 1 0;
#X connect 2 1 4 0;
#X connect 3 0 5 0;
#X connect 4 0 5 2;
#X connect 5 0 6 0;
#X connect 7 0 2 0;
#X restore 133 142 pd norm;
#X obj 99 173 s \$0-sr;
#N canvas 356 245 468 477 load 0;
#X obj 156 207 symbol;
#X obj 87 126 route bang, f 12;
#X obj 87 186 openpanel;
#X obj 100 27 inlet;
#X obj 183 321 list trim;
#X obj 183 349 soundfiler;
#X obj 183 398 s \$0-size;
#X obj 183 291 list append;
#X obj 267 291 r \$0-buflist;
#X obj 156 235 t b s;
#X obj 51 233 r \$0-file;
#X obj 51 259 t b s;
#X obj 51 290 v autostart_\$0;
#X obj 51 320 sel 1;
#X obj 172 161 click;
#X obj 183 266 list prepend read -resize;
#X obj 274 145 symbol;
#X obj 100 63 route open set reload;
#X obj 280 418 outlet;
#X obj 282 113 r \$0-file;
#X obj 156 426 s \$0-tabplayer~;
#X connect 0 0 9 0;
#X connect 1 0 2 0;
#X connect 1 1 0 0;
#X connect 2 0 0 0;
#X connect 3 0 17 0;
#X connect 4 0 5 0;
#X connect 5 0 6 0;
#X connect 7 0 4 0;
#X connect 8 0 7 1;
#X connect 9 0 20 0;
#X connect 9 1 15 0;
#X connect 10 0 11 0;
#X connect 11 0 12 0;
#X connect 11 1 15 0;
#X connect 12 0 13 0;
#X connect 13 0 20 0;
#X connect 14 0 2 0;
#X connect 15 0 7 0;
#X connect 16 0 0 1;
#X connect 17 0 1 0;
#X connect 17 1 16 0;
#X connect 17 2 0 0;
#X connect 17 3 18 0;
#X connect 19 0 16 0;
#X restore 167 89 pd load;
#X obj 32 60 route show hide sr norm;
#N canvas 1027 348 442 492 tabplayer~ 0;
#X obj 148 35 inlet;
#X obj 253 410 s \$0-tabplayer~;
#X obj 148 74 route range reset, f 18;
#X obj 162 160 clip 0 1;
#X obj 92 133 unpack f f;
#X obj 92 160 clip 0 1;
#X obj 177 184 r \$0-size;
#X obj 177 209 samps2ms;
#X obj 92 239 pack2 0 f;
#X obj 162 238 pack2 1 f;
#X obj 162 269 *;
#X obj 92 267 *;
#X obj 47 74 r \$0-set-range;
#X msg 92 351 range \$1 \$2;
#X obj 92 318 pack;
#X connect 0 0 2 0;
#X connect 2 0 4 0;
#X connect 2 2 1 0;
#X connect 3 0 9 0;
#X connect 4 0 5 0;
#X connect 4 1 3 0;
#X connect 5 0 8 0;
#X connect 6 0 7 0;
#X connect 7 0 8 1;
#X connect 7 0 9 1;
#X connect 8 0 11 0;
#X connect 9 0 10 0;
#X connect 10 0 14 1;
#X connect 11 0 14 0;
#X connect 12 0 4 0;
#X connect 13 0 1 0;
#X connect 14 0 13 0;
#X restore 167 111 pd tabplayer~;
#X connect 0 0 8 0;
#X connect 1 0 4 0;
#X connect 2 0 1 0;
#X connect 3 0 1 0;
#X connect 7 0 9 0;
#X connect 8 0 2 0;
#X connect 8 1 3 0;
#X connect 8 2 6 0;
#X connect 8 3 5 0;
#X connect 8 4 7 0;
#X restore 76 59 pd messages;
#X obj 71 91 namecanvas \$0-sampler;
#N canvas 665 178 600 186 init 0;
#N canvas 369 114 958 663 load-args 0;
#X obj 219 193 samplerate~;
#X obj 219 214 s \$0-sr;
#X obj 220 140 send pd-\$0-buffers;
#X msg 220 93 clear;
#X obj 67 178 args;
#X obj 628 400 r \$0-size;
#X obj 487 424 loop;
#X obj 487 447 pack2 f buffer_\$0 f;
#X msg 628 423 set \$1;
#X text 261 87 if abstraction got corrupted, f 14;
#N canvas 266 331 522 301 init-buffers 0;
#X obj 134 200 send pd-\$0-buffers;
#X msg 134 69 \$1;
#X obj 107 45 t l l;
#X obj 107 15 inlet;
#X obj 232 107 - 1;
#X obj 183 82 + 20;
#X obj 183 104 t f f;
#X obj 183 59 * 100;
#X obj 134 133 pack float float float \$0;
#X obj 31 167 list append \$0;
#X obj 134 91 t f f;
#X msg 134 162 obj 6 \$2 cnv 15 448 80 empty empty empty 3 10 2 14
-233017 -66577 0 \, obj 5 \$3 pd ch\$1_\$4;
#X msg 70 230 \; pd-ch\$1_\$4 array \$1-\$2 \$3 float 2 \, coords 0
1 \$3 -1 450 82 2 0 0 \, vis 0;
#X connect 1 0 10 0;
#X connect 2 0 9 0;
#X connect 2 1 1 0;
#X connect 3 0 2 0;
#X connect 4 0 8 2;
#X connect 5 0 6 0;
#X connect 6 0 8 1;
#X connect 6 1 4 0;
#X connect 7 0 5 0;
#X connect 8 0 11 0;
#X connect 9 0 12 0;
#X connect 10 0 8 0;
#X connect 10 1 7 0;
#X connect 11 0 0 0;
#X connect 12 0 0 0;
#X restore 487 476 pd init-buffers;
#X obj 441 504 list prepend;
#X obj 441 528 list;
#X msg 441 476 \$1-\$2;
#X obj 441 551 s \$0-buflist;
#X obj 67 24 inlet;
#X obj 211 165 s \$0-init-buflist;
#X obj 233 119 send pd-\$0-tabread;
#X obj 67 211 break -;
#X obj 56 525 sel 0;
#X msg 35 556 1;
#X obj 112 546 b;
#X obj 112 570 v ch_\$0;
#X obj 166 492 s \$0-speed;
#X obj 166 465 route float;
#X obj 67 141 trigger bang bang;
#X obj 143 546 s \$0-loop;
#X msg 397 225 \$1;
#X msg 538 237 1;
#X obj 538 264 v sym_\$0;
#X obj 397 278 int;
#X obj 487 365 clip 1 64;
#X obj 487 238 t a b;
#X obj 487 265 symbol;
#X text 484 215 1st arg is symbol;
#X obj 397 252 route float;
#X obj 487 393 v ch_\$0;
#X obj 527 287 s \$0-symbol_arg;
#N canvas 306 125 270 184 get-channels 0;
#X obj 21 76 soundfiler;
#X msg 78 100 \$3;
#X obj 120 19 inlet;
#X obj 78 129 outlet;
#X obj 21 48 pack2 read s;
#X connect 0 1 1 0;
#X connect 1 0 3 0;
#X connect 2 0 4 1;
#X connect 4 0 0 0;
#X restore 487 332 pd get-channels;
#N canvas 233 265 355 389 other 0;
#X obj 72 22 inlet;
#X obj 99 342 s \$0-file;
#X obj 119 254 r \$0-symbol_arg;
#X obj 72 254 symbol;
#X obj 99 108 v sym_\$0;
#X obj 99 132 sel 0 1;
#X obj 177 177 list;
#X obj 142 176 list;
#N canvas 67 279 425 422 1st_is_not_filename 0;
#X obj 87 31 inlet;
#X text 222 347 3nd is autostart;
#X text 229 288 4th is loop;
#X obj 121 263 unpack;
#X obj 114 133 list split 1;
#X obj 87 236 list split 2;
#X msg 205 184 \$1;
#X obj 205 254 s \$0-symbol_arg;
#X obj 148 161 route bang;
#X obj 205 206 routetype anything;
#X obj 205 230 symbol;
#X text 239 184 2nd is filename;
#X obj 87 110 t l l;
#X obj 154 289 s \$0-loop;
#X obj 121 316 != 0;
#X obj 121 344 v autostart_\$0;
#X connect 0 0 12 0;
#X connect 3 0 14 0;
#X connect 3 1 13 0;
#X connect 4 1 8 0;
#X connect 5 1 3 0;
#X connect 6 0 9 0;
#X connect 8 1 6 0;
#X connect 9 0 10 0;
#X connect 10 0 7 0;
#X connect 12 0 5 0;
#X connect 12 1 4 0;
#X connect 14 0 15 0;
#X restore 142 226 pd 1st_is_not_filename;
#N canvas 184 344 358 270 1st_is_filename 0;
#X obj 64 63 inlet;
#X text 197 206 2nd is autostart;
#X text 223 172 3nd is loop;
#X obj 64 108 list split 1;
#X obj 98 137 unpack;
#X obj 147 173 s \$0-loop;
#X obj 98 170 != 0;
#X obj 98 202 v autostart_\$0;
#X connect 0 0 3 0;
#X connect 3 1 4 0;
#X connect 4 0 6 0;
#X connect 4 1 5 0;
#X connect 6 0 7 0;
#X restore 177 202 pd 1st_is_filename;
#X obj 99 83 trigger bang anything;
#X obj 72 58 t b a;
#X obj 117 317 symbol;
#X obj 72 283 t s b;
#X obj 72 316 sel s;
#X connect 0 0 11 0;
#X connect 2 0 3 1;
#X connect 3 0 13 0;
#X connect 4 0 5 0;
#X connect 5 0 7 0;
#X connect 5 1 6 0;
#X connect 6 0 9 0;
#X connect 7 0 8 0;
#X connect 10 0 4 0;
#X connect 10 1 6 1;
#X connect 10 1 7 1;
#X connect 11 0 3 0;
#X connect 11 1 10 0;
#X connect 12 0 14 1;
#X connect 13 0 14 0;
#X connect 13 1 12 0;
#X connect 14 1 1 0;
#X restore 292 331 pd other args;
#X obj 292 261 trigger a b a;
#X obj 397 198 list;
#X obj 487 286 t s s;
#X msg 143 522 1;
#X obj 531 503 r \$0-init-buflist;
#X obj 363 80 send pd-\$0-path;
#X obj 199 60 dir 1;
#X msg 363 56 clear \, obj 30 20 declare -path \$1;
#N canvas 169 23 493 100 \$0-path 0;
#X obj 30 20 declare -path /Users/porres/Documents/pd/externals/else
;
#X restore 465 80 pd \$0-path;
#X msg 166 254 100;
#X obj 34 584 t b f;
#X obj 34 616 s \$0-load-buffer;
#X obj 554 370 r \$0-load-buffer;
#X msg 200 34 dir;
#X obj 67 287 route bang -loop -speed -range;
#X msg 213 239 1;
#X obj 199 357 s \$0-range;
#X obj 213 261 v max_\$0;
#X msg 215 324 0 1;
#X connect 0 0 1 0;
#X connect 3 0 2 0;
#X connect 3 0 17 0;
#X connect 4 0 18 0;
#X connect 5 0 8 0;
#X connect 6 0 7 0;
#X connect 7 0 10 0;
#X connect 7 0 13 0;
#X connect 8 0 7 2;
#X connect 11 0 12 0;
#X connect 12 0 11 1;
#X connect 12 0 14 0;
#X connect 13 0 11 0;
#X connect 15 0 25 0;
#X connect 18 0 54 0;
#X connect 19 0 20 0;
#X connect 20 0 50 0;
#X connect 21 0 22 0;
#X connect 22 0 19 0;
#X connect 24 0 23 0;
#X connect 25 0 4 0;
#X connect 25 1 0 0;
#X connect 25 1 3 0;
#X connect 25 1 16 0;
#X connect 25 1 49 0;
#X connect 25 1 53 0;
#X connect 25 1 55 0;
#X connect 25 1 58 0;
#X connect 27 0 35 0;
#X connect 28 0 29 0;
#X connect 30 0 31 0;
#X connect 31 0 36 0;
#X connect 32 0 33 0;
#X connect 32 1 28 0;
#X connect 33 0 42 0;
#X connect 35 0 30 0;
#X connect 35 1 32 0;
#X connect 36 0 6 0;
#X connect 38 0 31 0;
#X connect 40 0 39 0;
#X connect 40 1 36 0;
#X connect 40 2 41 0;
#X connect 41 0 27 0;
#X connect 42 0 38 0;
#X connect 42 1 37 0;
#X connect 43 0 26 0;
#X connect 44 0 11 1;
#X connect 46 1 47 0;
#X connect 47 0 45 0;
#X connect 49 0 24 0;
#X connect 50 0 51 0;
#X connect 50 1 22 0;
#X connect 52 0 36 0;
#X connect 53 0 46 0;
#X connect 54 0 20 0;
#X connect 54 1 21 0;
#X connect 54 1 43 0;
#X connect 54 2 24 0;
#X connect 54 2 21 0;
#X connect 54 3 56 0;
#X connect 54 4 40 0;
#X connect 55 0 57 0;
#X connect 58 0 56 0;
#X restore 273 69 pd load-args;
#X text 34 45 Dynamic Patching;
#N canvas 871 121 479 442 \$0-buffers 0;
#X obj 6 20 cnv 15 448 80 empty empty empty 3 10 2 14 -233017 -66577
0;
#N canvas 0 22 450 300 ch0_1033 0;
#X array 0-buffer_1033 87741 float 2;
#X coords 0 1 87741 -1 450 82 2 0 0;
#X restore 5 19 pd ch0_1033;
#X obj 6 120 cnv 15 448 80 empty empty empty 3 10 2 14 -233017 -66577
0;
#N canvas 0 22 450 300 ch1_1033 0;
#X array 1-buffer_1033 87741 float 2;
#X coords 0 1 87741 -1 450 82 2 0 0;
#X restore 5 119 pd ch1_1033;
#X coords 0 0 0 0 10 20 0;
#X restore 395 110 pd \$0-buffers;
#X obj 390 69 declare -path else;
#N canvas 667 411 736 572 dynamic-patching 0;
#X obj 155 67 inlet;
#X obj 292 188 loop;
#X obj 292 238 * 60;
#X obj 292 257 + 20;
#X obj 155 96 v ch_\$0;
#X obj 292 367 s \$0-sampler;
#X obj 292 295 pack f f f;
#X obj 328 151 f \$0;
#X obj 292 212 t f f, f 6;
#X obj 358 241 s \$0-sampler;
#X obj 358 178 pack f f;
#X msg 358 200 obj 20 150 r \$1-tabplayer~ \, obj 20 175 tabplayer~
buffer_\$1 \$2 \, connect 4 0 5 0, f 32;
#X msg 292 326 obj \$1 200 outlet~ \, connect 5 \$2 \$3 0, f 19;
#X obj 329 270 + 6;
#X obj 139 166 * 60;
#X obj 139 185 + 20;
#X obj 136 212 pack f f f;
#X obj 154 125 trigger float float float bang float;
#X msg 136 240 obj \$1 200 outlet \, connect 5 \$2 \$3 0, f 22;
#X obj 210 171 + 6;
#X connect 0 0 4 0;
#X connect 1 0 8 0;
#X connect 2 0 3 0;
#X connect 3 0 6 0;
#X connect 4 0 17 0;
#X connect 6 0 12 0;
#X connect 7 0 10 0;
#X connect 8 0 2 0;
#X connect 8 1 6 1;
#X connect 8 1 13 0;
#X connect 10 0 11 0;
#X connect 11 0 9 0;
#X connect 12 0 5 0;
#X connect 13 0 6 2;
#X connect 14 0 15 0;
#X connect 15 0 16 0;
#X connect 16 0 18 0;
#X connect 17 0 14 0;
#X connect 17 1 16 1;
#X connect 17 1 19 0;
#X connect 17 2 1 0;
#X connect 17 3 7 0;
#X connect 17 4 10 1;
#X connect 18 0 5 0;
#X connect 19 0 16 2;
#X restore 208 101 pd dynamic-patching;
#X obj 144 45 loadbanger -init 3, f 22;
#N canvas 377 95 545 534 set 0;
#X obj 191 55 inlet;
#X obj 275 370 s \$0-tabplayer~;
#X obj 315 131 r \$0-range;
#X obj 195 202 r \$0-speed;
#X obj 179 226 f;
#X obj 89 271 f;
#X obj 275 159 message;
#X obj 104 224 r \$0-loop;
#X obj 104 245 != 0;
#X obj 275 189 s \$0-set-range;
#X connect 0 0 6 0;
#X connect 0 0 4 0;
#X connect 0 0 5 0;
#X connect 2 0 6 1;
#X connect 3 0 4 1;
#X connect 4 0 1 0;
#X connect 5 0 1 0;
#X connect 6 0 9 0;
#X connect 7 0 8 0;
#X connect 8 0 5 1;
#X restore 144 101 pd set;
#X connect 5 0 6 0;
#X connect 5 1 4 0;
#X connect 5 2 0 0;
#X restore 70 114 pd init;
#X connect 0 0 1 0;
