#N canvas 558 153 618 260 10;
#X declare -path else;
#X text 246 49 cents;
#X text 191 47 speed;
#X obj 195 71 inlet;
#X obj 248 71 inlet;
#X obj 168 203 outlet~;
#X text 352 139 Alexandre Torres Porres (2018) \; Part of ELSE:;
#X text 353 173 https://github.com/porres/pd-else;
#X obj 109 69 inlet~ fwd;
#N canvas 639 91 772 707 pvoc 0;
#X obj 344 274 pack float float float;
#X obj 442 37 inlet;
#X obj 461 661 outlet~;
#X msg 344 303 \$1 \, \$2 \$3;
#X obj 129 133 bang~;
#X obj 173 180 +;
#X obj 129 174 f;
#X obj 188 31 inlet;
#X obj 613 200 r \$0-window_ms;
#X obj 230 180 r \$0-buff_ms;
#X obj 563 364 r \$0-buff_ms;
#X obj 461 569 rifft~;
#X obj 419 495 rfft~;
#X obj 500 496 rfft~;
#X obj 344 429 delread4~ \$0-buffer;
#X obj 500 427 delread4~ \$0-buffer;
#X obj 183 316 r \$0-block;
#X obj 183 342 block~;
#X obj 461 597 hann~;
#X obj 419 468 hann~;
#X obj 500 472 hann~;
#X obj 500 400 wrap2~;
#X obj 344 397 wrap2~;
#X obj 173 202 wrap2;
#X obj 442 111 cents2ratio;
#X obj 539 598 r \$0-window;
#X obj 539 623 expr 2 / ($f1 * 3);
#X obj 344 331 line~;
#X obj 456 84 r \$0-cents;
#X obj 202 95 r \$0-speed;
#X obj 461 628 *~ 0;
#X obj 344 369 +~ 0;
#X msg 76 129 0;
#N canvas 489 138 550 543 phase-accum 0;
#X obj 289 482 outlet~;
#X obj 393 485 outlet~;
#X obj 183 33 inlet~;
#X obj 233 33 inlet~;
#X obj 304 33 inlet~;
#X obj 358 33 inlet~;
#N canvas 324 144 529 288 phase_lock 0;
#X obj 406 127 lrshift~ 1;
#X obj 321 127 lrshift~ -1;
#X obj 303 188 +~;
#X obj 303 234 outlet~;
#X obj 301 41 inlet~;
#X obj 321 157 +~;
#X obj 158 131 lrshift~ 1;
#X obj 73 131 lrshift~ -1;
#X obj 55 198 +~;
#X obj 55 238 outlet~;
#X obj 53 45 inlet~;
#X obj 73 167 +~;
#X connect 0 0 5 1;
#X connect 1 0 5 0;
#X connect 2 0 3 0;
#X connect 4 0 0 0;
#X connect 4 0 1 0;
#X connect 4 0 2 0;
#X connect 5 0 2 1;
#X connect 6 0 11 1;
#X connect 7 0 11 0;
#X connect 8 0 9 0;
#X connect 10 0 6 0;
#X connect 10 0 7 0;
#X connect 10 0 8 0;
#X connect 11 0 8 1;
#X restore 168 243 pd phase_lock;
#N canvas 584 111 470 247 norm 0;
#X obj 305 188 outlet~;
#X obj 74 199 outlet~;
#X obj 306 41 inlet~;
#X obj 74 32 inlet~;
#X obj 74 74 expr~ if($v1 == 0 && $v2 == 0 \, 1 \, $v1) \; $v2;
#X obj 74 153 /~;
#X obj 305 153 /~;
#X obj 89 125 mag~;
#X obj 320 126 mag~;
#X connect 2 0 4 1;
#X connect 3 0 4 0;
#X connect 4 0 5 0;
#X connect 4 0 7 0;
#X connect 4 1 6 0;
#X connect 4 1 8 0;
#X connect 5 0 1 0;
#X connect 6 0 0 0;
#X connect 7 0 5 1;
#X connect 8 0 6 1;
#X restore 204 277 pd norm;
#X obj 168 182 *~;
#X obj 168 212 +~;
#X obj 197 182 *~;
#X obj 230 180 *~;
#X obj 258 176 *~;
#X obj 243 210 -~;
#X obj 289 373 *~;
#X obj 289 419 -~;
#X obj 343 379 *~;
#X obj 426 365 *~;
#X obj 393 366 *~;
#X obj 393 417 +~;
#X obj 403 452 tabsend~ \$0-im;
#X obj 297 452 tabsend~ \$0-re;
#X obj 20 76 tabreceive~ \$0-re, f 11;
#X obj 95 77 tabreceive~ \$0-im, f 11;
#X connect 2 0 8 1;
#X connect 2 0 11 1;
#X connect 3 0 10 1;
#X connect 3 0 12 1;
#X connect 4 0 14 1;
#X connect 4 0 17 1;
#X connect 5 0 16 1;
#X connect 5 0 18 1;
#X connect 6 0 7 0;
#X connect 6 1 7 1;
#X connect 7 0 14 0;
#X connect 7 0 18 0;
#X connect 7 1 16 0;
#X connect 7 1 17 0;
#X connect 8 0 9 0;
#X connect 9 0 6 0;
#X connect 10 0 9 1;
#X connect 11 0 13 0;
#X connect 12 0 13 1;
#X connect 13 0 6 1;
#X connect 14 0 15 0;
#X connect 15 0 0 0;
#X connect 15 0 21 0;
#X connect 16 0 15 1;
#X connect 17 0 19 1;
#X connect 18 0 19 0;
#X connect 19 0 1 0;
#X connect 19 0 20 0;
#X connect 22 0 8 0;
#X connect 22 0 12 0;
#X connect 23 0 10 0;
#X connect 23 0 11 0;
#X restore 436 534 pd phase-accum;
#X obj 188 519 table \$0-re 1024;
#X obj 188 538 table \$0-im 1024;
#X obj 473 234 expr $f1 / overlap_\$0;
#X obj 442 305 expr ($f1 * $f2) / overlap_\$0;
#X obj 442 328 expr $f1 / overlap_\$0;
#X obj 129 226 expr $f1 / overlap_\$0 \; ($f1 + ((1 - $f2) * window_ms_\$0))
/ overlap_\$0;
#X obj 188 120 expr ((1 - $f1/100) * window_ms_\$0) / overlap_\$0,
f 35;
#X floatatom 508 262 5 0 0 0 - - -;
#X floatatom 483 192 5 0 0 0 - - -;
#X obj 78 33 inlet;
#X obj 79 88 route bang;
#X obj 23 43 inlet~;
#X connect 0 0 3 0;
#X connect 1 0 24 0;
#X connect 3 0 27 0;
#X connect 4 0 6 0;
#X connect 5 0 23 0;
#X connect 6 0 5 0;
#X connect 6 0 39 0;
#X connect 7 0 40 0;
#X connect 8 0 36 0;
#X connect 8 0 37 1;
#X connect 9 0 23 2;
#X connect 10 0 21 2;
#X connect 10 0 22 2;
#X connect 11 0 18 0;
#X connect 12 0 33 0;
#X connect 12 1 33 1;
#X connect 13 0 33 2;
#X connect 13 1 33 3;
#X connect 14 0 19 0;
#X connect 15 0 20 0;
#X connect 16 0 17 0;
#X connect 18 0 30 0;
#X connect 19 0 12 0;
#X connect 20 0 13 0;
#X connect 21 0 15 0;
#X connect 22 0 14 0;
#X connect 23 0 6 1;
#X connect 24 0 37 0;
#X connect 24 0 39 1;
#X connect 25 0 26 0;
#X connect 26 0 30 1;
#X connect 27 0 21 0;
#X connect 27 0 31 0;
#X connect 28 0 24 0;
#X connect 29 0 40 0;
#X connect 30 0 2 0;
#X connect 31 0 22 0;
#X connect 32 0 6 1;
#X connect 33 0 11 0;
#X connect 33 1 11 1;
#X connect 36 0 0 2;
#X connect 36 0 41 0;
#X connect 37 0 38 0;
#X connect 38 0 31 1;
#X connect 39 0 0 0;
#X connect 39 1 0 1;
#X connect 40 0 5 1;
#X connect 42 0 36 0;
#X connect 43 0 44 0;
#X connect 44 0 32 0;
#X restore 169 161 pd pvoc;
#N canvas 353 473 324 371 \$0-delwrite 0;
#X obj 100 164 inlet~;
#X obj 102 245 outlet~;
#X restore 61 126 pd \$0-delwrite;
#N canvas 561 35 415 469 init 0;
#X obj 139 244 s \$0-buff_ms;
#X obj 82 60 args;
#X obj 82 90 trigger anything bang;
#N canvas 772 236 410 351 init 0;
#X obj 187 120 s \$0-window;
#X obj 63 204 s \$0-cents;
#X obj 105 175 s \$0-speed;
#X msg 187 93 2048;
#X msg 105 150 100;
#X msg 63 182 0;
#X obj 270 141 v overlap_\$0;
#X msg 270 115 4;
#X obj 220 253 v window_ms_\$0;
#X msg 237 168 set \$1 4;
#X obj 187 280 s \$0-window_ms;
#X obj 237 197 s \$0-block;
#X obj 214 222 samps2ms;
#X obj 187 143 r \$0-window;
#X obj 105 28 inlet;
#X obj 105 69 trigger bang bang bang, f 28;
#X obj 187 168 t b f;
#X obj 187 253 f;
#X connect 3 0 0 0;
#X connect 4 0 2 0;
#X connect 5 0 1 0;
#X connect 7 0 6 0;
#X connect 9 0 11 0;
#X connect 12 0 8 0;
#X connect 12 0 17 1;
#X connect 13 0 16 0;
#X connect 14 0 15 0;
#X connect 15 0 4 0;
#X connect 15 0 5 0;
#X connect 15 1 3 0;
#X connect 15 2 7 0;
#X connect 16 0 17 0;
#X connect 16 1 12 0;
#X connect 16 1 9 0;
#X connect 17 0 10 0;
#X restore 205 119 pd init;
#X obj 139 209 max 100;
#X obj 139 153 unpack float float float;
#X obj 280 187 s \$0-cents;
#X obj 209 188 s \$0-speed;
#X obj 82 122 route bang;
#X obj 139 181 f \$1;
#X obj 81 277 r \$0-buff_ms;
#X obj 83 358 s pd-\$0-delwrite;
#X msg 83 329 obj 100 200 delwrite~ \\\$0-buffer \$1 \, connect 0 0
2 0;
#X obj 80 306 + 150;
#X msg 82 198 5000;
#X obj 82 29 lb -init;
#X connect 1 0 2 0;
#X connect 2 0 8 0;
#X connect 2 1 3 0;
#X connect 4 0 0 0;
#X connect 5 0 9 0;
#X connect 5 1 7 0;
#X connect 5 2 6 0;
#X connect 8 0 14 0;
#X connect 8 1 5 0;
#X connect 9 0 4 0;
#X connect 10 0 13 0;
#X connect 12 0 11 0;
#X connect 13 0 12 0;
#X connect 14 0 0 0;
#X connect 15 0 1 0;
#X restore 248 157 pd init;
#X obj 373 95 declare -path else;
#X connect 2 0 8 2;
#X connect 3 0 8 3;
#X connect 7 0 9 0;
#X connect 7 1 8 1;
#X connect 8 0 4 0;
#X connect 9 0 8 0;
