#N canvas 704 281 463 195 10;
#X declare -path else;
#N canvas 672 186 418 226 guts 0;
#X obj 58 18 inlet;
#N canvas 699 106 444 412 output 0;
#X obj 125 195 spigot;
#X obj 225 137 != 2;
#X obj 192 195 spigot;
#X obj 68 73 trigger2 0 0;
#X obj 266 297 outlet;
#X obj 192 263 list trim;
#X obj 192 297 outlet;
#X obj 266 137 sel 2;
#X obj 68 47 inlet;
#X obj 125 228 text delete \$0-stack;
#X obj 167 102 text get \$0-stack;
#X connect 0 0 9 0;
#X connect 1 0 0 1;
#X connect 1 0 2 1;
#X connect 2 0 5 0;
#X connect 3 0 0 0;
#X connect 3 1 10 0;
#X connect 5 0 6 0;
#X connect 7 0 4 0;
#X connect 8 0 3 0;
#X connect 10 0 2 0;
#X connect 10 1 1 0;
#X connect 10 1 7 0;
#X restore 96 131 pd output;
#N canvas 748 131 482 449 dump 0;
#X obj 141 266 spigot;
#X obj 241 238 != 2;
#X obj 208 266 spigot;
#X obj 90 144 trigger2 0 0;
#X obj 315 368 outlet;
#X obj 208 334 list trim;
#X obj 208 368 outlet;
#X obj 90 42 inlet;
#X obj 90 109 until;
#X obj 288 208 == 2;
#X obj 288 280 spigot;
#X obj 190 112 sel 1;
#X obj 288 308 t b f;
#X obj 315 333 sel 1;
#X msg 334 300 0;
#X obj 90 80 trigger2 bang 1, f 39;
#X obj 189 173 text get \$0-stack;
#X obj 141 299 text delete \$0-stack;
#X connect 0 0 17 0;
#X connect 1 0 0 1;
#X connect 1 0 2 1;
#X connect 2 0 5 0;
#X connect 3 0 0 0;
#X connect 3 1 16 0;
#X connect 5 0 6 0;
#X connect 7 0 15 0;
#X connect 8 0 3 0;
#X connect 9 0 11 0;
#X connect 9 0 10 0;
#X connect 10 0 12 0;
#X connect 11 0 8 1;
#X connect 12 0 14 0;
#X connect 12 1 13 0;
#X connect 13 0 4 0;
#X connect 14 0 10 1;
#X connect 15 0 8 0;
#X connect 15 1 10 1;
#X connect 16 0 2 0;
#X connect 16 1 1 0;
#X connect 16 1 9 0;
#X restore 39 131 pd dump;
#X obj 96 192 outlet;
#X obj 147 192 outlet;
#N canvas 595 162 450 300 clear 0;
#X obj 130 94 until;
#X msg 130 122 0;
#X obj 229 176 == 2;
#X obj 229 201 sel 1;
#X obj 130 58 inlet;
#X obj 256 230 text delete \$0-stack;
#X obj 130 150 text get \$0-stack;
#X connect 0 0 1 0;
#X connect 1 0 6 0;
#X connect 2 0 3 0;
#X connect 3 0 0 1;
#X connect 3 1 5 0;
#X connect 4 0 0 0;
#X connect 6 1 2 0;
#X restore 173 105 pd clear;
#N canvas 288 147 422 416 set 0;
#X obj 101 177 v \$0_dir;
#X obj 60 20 inlet;
#X msg 60 148 1e+16;
#X msg 101 148 0;
#X obj 78 97 list trim;
#X msg 183 98 fifo;
#X text 220 98 default;
#X obj 181 288 savestate;
#X obj 239 247 text tolist \$0-stack;
#X obj 181 319 text fromlist \$0-stack;
#X obj 182 220 router 2 1;
#X obj 78 75 args -;
#X msg 160 164 2;
#X obj 60 123 route fifo lifo -store store;
#X obj 239 172 != 0;
#X obj 239 195 + 1;
#X obj 78 53 loadbanger -init 2;
#X connect 1 0 13 0;
#X connect 2 0 0 0;
#X connect 3 0 0 0;
#X connect 4 0 13 0;
#X connect 5 0 13 0;
#X connect 7 0 9 0;
#X connect 7 1 10 0;
#X connect 8 0 7 0;
#X connect 10 0 7 0;
#X connect 10 1 8 0;
#X connect 11 0 4 0;
#X connect 12 0 10 1;
#X connect 13 0 2 0;
#X connect 13 1 3 0;
#X connect 13 2 12 0;
#X connect 13 3 14 0;
#X connect 14 0 15 0;
#X connect 15 0 10 1;
#X connect 16 0 11 0;
#X connect 16 1 5 0;
#X restore 291 96 pd set;
#X obj 258 165 text define \$0-stack;
#X msg 258 127 click;
#X msg 301 128 close;
#X obj 257 49 click;
#N canvas 601 511 482 449 export 0;
#X obj 241 238 != 2;
#X obj 208 266 spigot;
#X obj 315 368 outlet;
#X obj 208 334 list trim;
#X obj 208 368 outlet;
#X obj 90 42 inlet;
#X obj 90 109 until;
#X obj 288 208 == 2;
#X obj 288 280 spigot;
#X obj 236 133 sel 1;
#X obj 288 308 t b f;
#X obj 315 333 sel 1;
#X msg 334 300 0;
#X obj 189 173 text get \$0-stack;
#X obj 90 135 count;
#X obj 90 80 trigger2 bang bang 1, f 39;
#X msg 205 102 reset;
#X connect 0 0 1 1;
#X connect 1 0 3 0;
#X connect 3 0 4 0;
#X connect 5 0 15 0;
#X connect 6 0 14 0;
#X connect 7 0 9 0;
#X connect 7 0 8 0;
#X connect 8 0 10 0;
#X connect 9 0 6 1;
#X connect 10 0 12 0;
#X connect 10 1 11 0;
#X connect 11 0 2 0;
#X connect 12 0 8 1;
#X connect 13 0 1 0;
#X connect 13 1 0 0;
#X connect 13 1 7 0;
#X connect 14 0 13 0;
#X connect 15 0 6 0;
#X connect 15 1 16 0;
#X connect 15 2 8 1;
#X connect 16 0 14 0;
#X restore 163 131 pd export;
#X obj 58 75 route dump bang export clear open close;
#X connect 0 0 12 0;
#X connect 1 0 3 0;
#X connect 1 1 4 0;
#X connect 2 0 3 0;
#X connect 2 1 4 0;
#X connect 8 0 7 0;
#X connect 9 0 7 0;
#X connect 10 0 8 0;
#X connect 11 0 3 0;
#X connect 11 1 4 0;
#X connect 12 0 2 0;
#X connect 12 1 1 0;
#X connect 12 2 11 0;
#X connect 12 3 5 0;
#X connect 12 4 8 0;
#X connect 12 5 9 0;
#X connect 12 6 6 0;
#X restore 53 94 pd guts;
#X obj 109 32 inlet;
#X obj 53 142 outlet;
#X obj 103 142 outlet;
#X obj 53 32 inlet;
#X text 213 112 Part of ELSE \; https://github.com/porres/pd-else;
#X text 215 93 Alexandre Torres Porres (2017);
#N canvas 1125 293 430 355 store 0;
#X obj 69 67 inlet;
#X obj 175 225 t a b;
#X obj 233 225 v \$0_dir;
#X obj 175 245 text insert \$0-stack;
#X obj 69 121 routetype anything float list symbol;
#X obj 229 156 list prepend symbol;
#N canvas 372 272 445 318 list 0;
#X obj 101 93 pick 1;
#X obj 101 142 b;
#X obj 200 194 list;
#X obj 101 62 trigger list list, f 20;
#X obj 264 197 list;
#X obj 154 146 b;
#X obj 101 117 route float symbol;
#X obj 264 227 list prepend list;
#X obj 264 260 outlet;
#X obj 101 30 inlet;
#X connect 0 0 6 0;
#X connect 1 0 2 0;
#X connect 2 0 8 0;
#X connect 3 0 0 0;
#X connect 3 1 2 1;
#X connect 3 1 4 1;
#X connect 4 0 7 0;
#X connect 5 0 4 0;
#X connect 6 0 1 0;
#X connect 6 1 5 0;
#X connect 7 0 8 0;
#X connect 9 0 3 0;
#X restore 175 156 pd list;
#X obj 69 177 list;
#X connect 0 0 4 0;
#X connect 1 0 3 0;
#X connect 1 1 2 0;
#X connect 2 0 3 1;
#X connect 4 0 7 0;
#X connect 4 1 1 0;
#X connect 4 2 6 0;
#X connect 4 3 5 0;
#X connect 5 0 1 0;
#X connect 6 0 1 0;
#X connect 7 0 1 0;
#X restore 109 94 pd store;
#X obj 245 64 declare -path else;
#X connect 0 0 2 0;
#X connect 0 1 3 0;
#X connect 1 0 7 0;
#X connect 4 0 0 0;
