#N canvas 837 46 647 577 10;
#X obj 193 182 adc~ 1 2, f 11;
#X obj 193 209 delwrite~ \$0-delay1 1000;
#X obj 256 240 delwrite~ \$0-delay2 1000;
#X obj 196 350 dac~ 1 2, f 18;
#N canvas 0 22 761 341 chorus1 1;
#X obj 33 63 osc~ 0.05;
#X obj 33 88 *~ 10;
#X obj 113 88 *~ 10;
#X obj 33 113 +~ 11;
#X obj 113 113 +~ 21;
#X obj 113 63 osc~ 0.08;
#X obj 193 88 *~ 10;
#X obj 273 88 *~ 10;
#X obj 193 63 osc~ 0.13;
#X obj 193 113 +~ 13;
#X obj 273 63 osc~ 0.21;
#X obj 273 113 +~ 34;
#X obj 363 88 *~ 10;
#X obj 363 113 +~ 55;
#X obj 363 63 osc~ 0.03;
#X obj 253 297 outlet~ chorus signal;
#X text 16 3 Multi Read Head Controled By LFO For Chorus Variable Delay
;
#X obj 443 113 +~ 87;
#X obj 443 63 osc~ 0.015;
#X obj 533 63 osc~ 0.12;
#X obj 533 113 +~ 67;
#X obj 253 272 /~ 8;
#X obj 533 88 *~ 5;
#X obj 443 88 *~ 15;
#X obj 533 141 vd~ \$0-delay1;
#X obj 625 141 delread~ \$0-delay1 0;
#X obj 443 141 vd~ \$0-delay1;
#X obj 363 141 vd~ \$0-delay1;
#X obj 273 141 vd~ \$0-delay1;
#X obj 193 141 vd~ \$0-delay1;
#X obj 113 141 vd~ \$0-delay1;
#X obj 33 141 vd~ \$0-delay1;
#X connect 0 0 1 0;
#X connect 1 0 3 0;
#X connect 2 0 4 0;
#X connect 3 0 31 0;
#X connect 4 0 30 0;
#X connect 5 0 2 0;
#X connect 6 0 9 0;
#X connect 7 0 11 0;
#X connect 8 0 6 0;
#X connect 9 0 29 0;
#X connect 10 0 7 0;
#X connect 11 0 28 0;
#X connect 12 0 13 0;
#X connect 13 0 27 0;
#X connect 14 0 12 0;
#X connect 17 0 26 0;
#X connect 18 0 23 0;
#X connect 19 0 22 0;
#X connect 20 0 24 0;
#X connect 21 0 15 0;
#X connect 22 0 20 0;
#X connect 23 0 17 0;
#X connect 24 0 21 0;
#X connect 25 0 21 0;
#X connect 26 0 21 0;
#X connect 27 0 21 0;
#X connect 28 0 21 0;
#X connect 29 0 21 0;
#X connect 30 0 21 0;
#X connect 31 0 21 0;
#X restore 196 311 pd chorus1;
#N canvas 0 22 729 331 chorus2 0;
#X obj 33 63 osc~ 0.05;
#X obj 33 88 *~ 10;
#X obj 113 88 *~ 10;
#X obj 33 113 +~ 11;
#X obj 113 113 +~ 21;
#X obj 113 63 osc~ 0.08;
#X obj 193 88 *~ 10;
#X obj 273 88 *~ 10;
#X obj 193 63 osc~ 0.13;
#X obj 193 113 +~ 13;
#X obj 273 63 osc~ 0.21;
#X obj 273 113 +~ 34;
#X obj 363 88 *~ 10;
#X obj 363 113 +~ 55;
#X obj 363 63 osc~ 0.03;
#X obj 253 297 outlet~ chorus signal;
#X text 16 3 Multi Read Head Controled By LFO For Chorus Variable Delay
;
#X obj 443 113 +~ 87;
#X obj 443 63 osc~ 0.015;
#X obj 533 63 osc~ 0.12;
#X obj 533 113 +~ 67;
#X obj 253 272 /~ 8;
#X obj 533 88 *~ 5;
#X obj 443 88 *~ 15;
#X obj 33 141 vd~ \$0-delay2;
#X obj 113 141 vd~ \$0-delay2;
#X obj 193 141 vd~ \$0-delay2;
#X obj 273 141 vd~ \$0-delay2;
#X obj 363 141 vd~ \$0-delay2;
#X obj 443 141 vd~ \$0-delay2;
#X obj 533 141 vd~ \$0-delay2;
#X obj 625 141 delread~ \$0-delay2 0;
#X connect 0 0 1 0;
#X connect 1 0 3 0;
#X connect 2 0 4 0;
#X connect 3 0 24 0;
#X connect 4 0 25 0;
#X connect 5 0 2 0;
#X connect 6 0 9 0;
#X connect 7 0 11 0;
#X connect 8 0 6 0;
#X connect 9 0 26 0;
#X connect 10 0 7 0;
#X connect 11 0 27 0;
#X connect 12 0 13 0;
#X connect 13 0 28 0;
#X connect 14 0 12 0;
#X connect 17 0 29 0;
#X connect 18 0 23 0;
#X connect 19 0 22 0;
#X connect 20 0 30 0;
#X connect 21 0 15 0;
#X connect 22 0 20 0;
#X connect 23 0 17 0;
#X connect 24 0 21 0;
#X connect 25 0 21 0;
#X connect 26 0 21 0;
#X connect 27 0 21 0;
#X connect 28 0 21 0;
#X connect 29 0 21 0;
#X connect 30 0 21 0;
#X connect 31 0 21 0;
#X restore 301 311 pd chorus2;
#X text 34 19 A chorus effet without any parameter..., f 23;
#X connect 0 0 1 0;
#X connect 0 1 2 0;
#X connect 4 0 3 0;
#X connect 5 0 3 1;
#X coords 0 -1 1 1 206 70 2 0 0;
