#N canvas 377 41 324 486 10;
#X obj 59 67 hsl 128 15 0 22050 0 0 \$0-rate-s \$0-rate Rate_Hz -3
-6 0 10 -262144 -1 -1 127 1;
#X obj 195 67 nbx 5 15 0 22050 0 0 empty \$0-rate empty 0 -8 0 10 -262144
-1 -1 220 256;
#X obj 64 229 adc~ 1 2, f 11;
#X obj 64 431 dac~ 1 2, f 11;
#X obj 148 203 osc~;
#X obj 64 383 *~, f 4;
#X obj 127 383 *~, f 4;
#X text 106 36 Ring Modulation;
#X obj 59 97 hsl 128 15 0 100 0 0 \$0-depth-s \$0-depth Depth_% -3
-6 0 10 -262144 -1 -1 12700 1;
#X obj 195 97 nbx 5 15 0 100 0 0 empty \$0-depth empty 0 -8 0 10 -262144
-1 -1 100 256;
#X obj 218 196 / 100;
#X obj 218 218 \$1 20;
#X obj 218 240 line~;
#X obj 148 274 *~;
#X obj 203 282 -~;
#X obj 218 166 clip 0 100;
#X obj 203 261 sig~ 1;
#X obj 142 345 *~;
#X obj 79 345 *~;
#N canvas 0 22 450 300 (subpatch) 0;
#X obj 14 18 inlet;
#X msg 14 40 set \$1;
#X obj 14 62 outlet;
#X connect 0 0 1 0;
#X connect 1 0 2 0;
#X restore 32 50 pd;
#N canvas 0 22 450 300 (subpatch) 0;
#X obj 14 18 inlet;
#X msg 14 40 set \$1;
#X obj 14 62 outlet;
#X connect 0 0 1 0;
#X connect 1 0 2 0;
#X restore 32 80 pd;
#N canvas 0 22 450 300 init 0;
#X obj 35 41 loadbang;
#X obj 28 97 s \$0-rate;
#X obj 39 140 s \$0-depth;
#X msg 28 75 220;
#X msg 39 118 100;
#X connect 0 0 3 0;
#X connect 0 0 4 0;
#X connect 3 0 1 0;
#X connect 4 0 2 0;
#X restore 21 161 pd init;
#X obj 148 174 r \$0-rate-s;
#X obj 218 144 r \$0-depth-s;
#X obj 64 405 +~;
#X obj 127 405 +~;
#X connect 0 0 19 0;
#X connect 1 0 0 0;
#X connect 2 0 5 0;
#X connect 2 0 18 0;
#X connect 2 1 6 0;
#X connect 2 1 17 0;
#X connect 4 0 13 0;
#X connect 5 0 24 0;
#X connect 6 0 25 0;
#X connect 8 0 20 0;
#X connect 9 0 8 0;
#X connect 10 0 11 0;
#X connect 11 0 12 0;
#X connect 12 0 13 1;
#X connect 12 0 14 1;
#X connect 13 0 6 1;
#X connect 13 0 5 1;
#X connect 14 0 17 1;
#X connect 14 0 18 1;
#X connect 15 0 10 0;
#X connect 16 0 14 0;
#X connect 17 0 25 1;
#X connect 18 0 24 1;
#X connect 19 0 1 0;
#X connect 20 0 9 0;
#X connect 22 0 4 0;
#X connect 23 0 15 0;
#X connect 24 0 3 0;
#X connect 25 0 3 1;
#X coords 0 -1 1 1 206 90 2 50 30;
