#N canvas 104 23 438 401 10;
#X obj 155 309 outlet~;
#X obj 155 289 *~, f 24;
#X obj 296 264 line~;
#X obj 296 244 pack f 20;
#X obj 155 101 phasor~ 0.1;
#N canvas 0 23 182 247 rand~ 0;
#X obj 18 64 samphold~;
#X obj 18 42 noise~;
#X obj 33 154 *~;
#X obj 18 109 samphold~, f 14;
#X obj 18 87 rzero_rev~ 0;
#X obj 18 177 +~;
#X obj 33 134 -~;
#X obj 99 20 inlet~;
#X obj 18 198 outlet~;
#X connect 0 0 4 0;
#X connect 0 0 6 0;
#X connect 1 0 0 0;
#X connect 2 0 5 1;
#X connect 3 0 5 0;
#X connect 3 0 6 1;
#X connect 4 0 3 0;
#X connect 5 0 8 0;
#X connect 6 0 2 0;
#X connect 7 0 0 1;
#X connect 7 0 2 1;
#X connect 7 0 3 1;
#X restore 224 153 pd rand~;
#N canvas 0 23 182 247 tria~ 0;
#X obj 21 34 inlet~;
#X obj 21 55 -~ 0.5;
#X obj 21 77 abs~;
#X obj 21 99 *~ 4;
#X obj 21 121 -~ 1;
#X obj 21 142 outlet~;
#X connect 0 0 1 0;
#X connect 1 0 2 0;
#X connect 2 0 3 0;
#X connect 3 0 4 0;
#X connect 4 0 5 0;
#X restore 155 153 pd tria~;
#N canvas 0 23 112 127 cosi~ 0;
#X obj 24 30 inlet~;
#X obj 24 51 cos~;
#X obj 24 72 outlet~;
#X connect 0 0 1 0;
#X connect 1 0 2 0;
#X restore 85 153 pd cosi~;
#N canvas 0 23 112 189 squa~ 0;
#X obj 24 30 inlet~;
#X obj 24 51 cos~;
#X obj 24 114 outlet~;
#X obj 24 93 clip~ -1 1;
#X obj 24 72 *~ 8192;
#X connect 0 0 1 0;
#X connect 1 0 4 0;
#X connect 3 0 2 0;
#X connect 4 0 3 0;
#X restore 15 153 pd squa~;
#N canvas 0 23 189 239 sel~ 0;
#X obj 78 33 clip -1 1;
#X obj 78 54 abs;
#X obj 78 75 t b f;
#X obj 78 97 f 1;
#X obj 78 119 -, f 5;
#X obj 78 140 pack f 20;
#X obj 78 161 line~;
#X obj 78 11 inlet;
#X obj 33 161 inlet~;
#X obj 33 182 *~, f 8;
#X obj 33 203 outlet~;
#X connect 0 0 1 0;
#X connect 1 0 2 0;
#X connect 2 0 3 0;
#X connect 2 1 4 1;
#X connect 3 0 4 0;
#X connect 4 0 5 0;
#X connect 5 0 6 0;
#X connect 6 0 9 1;
#X connect 7 0 0 0;
#X connect 8 0 9 0;
#X connect 9 0 10 0;
#X restore 15 219 pd sel~;
#X obj 54 200 - 0;
#N canvas 0 23 189 239 sel~ 0;
#X obj 78 33 clip -1 1;
#X obj 78 54 abs;
#X obj 78 75 t b f;
#X obj 78 97 f 1;
#X obj 78 119 -, f 5;
#X obj 78 140 pack f 20;
#X obj 78 161 line~;
#X obj 78 11 inlet;
#X obj 33 161 inlet~;
#X obj 33 182 *~, f 8;
#X obj 33 203 outlet~;
#X connect 0 0 1 0;
#X connect 1 0 2 0;
#X connect 2 0 3 0;
#X connect 2 1 4 1;
#X connect 3 0 4 0;
#X connect 4 0 5 0;
#X connect 5 0 6 0;
#X connect 6 0 9 1;
#X connect 7 0 0 0;
#X connect 8 0 9 0;
#X connect 9 0 10 0;
#X restore 85 219 pd sel~;
#X obj 124 200 - 1;
#N canvas 0 23 189 239 sel~ 0;
#X obj 78 33 clip -1 1;
#X obj 78 54 abs;
#X obj 78 75 t b f;
#X obj 78 97 f 1;
#X obj 78 119 -, f 5;
#X obj 78 140 pack f 20;
#X obj 78 161 line~;
#X obj 78 11 inlet;
#X obj 33 161 inlet~;
#X obj 33 182 *~, f 8;
#X obj 33 203 outlet~;
#X connect 0 0 1 0;
#X connect 1 0 2 0;
#X connect 2 0 3 0;
#X connect 2 1 4 1;
#X connect 3 0 4 0;
#X connect 4 0 5 0;
#X connect 5 0 6 0;
#X connect 6 0 9 1;
#X connect 7 0 0 0;
#X connect 8 0 9 0;
#X connect 9 0 10 0;
#X restore 155 219 pd sel~;
#X obj 194 200 - 2;
#N canvas 0 23 189 239 sel~ 0;
#X obj 78 33 clip -1 1;
#X obj 78 54 abs;
#X obj 78 75 t b f;
#X obj 78 97 f 1;
#X obj 78 119 -, f 5;
#X obj 78 140 pack f 20;
#X obj 78 161 line~;
#X obj 78 11 inlet;
#X obj 33 161 inlet~;
#X obj 33 182 *~, f 8;
#X obj 33 203 outlet~;
#X connect 0 0 1 0;
#X connect 1 0 2 0;
#X connect 2 0 3 0;
#X connect 2 1 4 1;
#X connect 3 0 4 0;
#X connect 4 0 5 0;
#X connect 5 0 6 0;
#X connect 6 0 9 1;
#X connect 7 0 0 0;
#X connect 8 0 9 0;
#X connect 9 0 10 0;
#X restore 224 219 pd sel~;
#X obj 263 200 - 3;
#X obj 54 32 clip 0 3;
#X obj 54 11 inlet waveform;
#X obj 155 11 inlet frequency;
#X obj 296 11 inlet depth;
#X connect 1 0 0 0;
#X connect 2 0 1 1;
#X connect 3 0 2 0;
#X connect 4 0 5 0;
#X connect 4 0 6 0;
#X connect 4 0 7 0;
#X connect 4 0 8 0;
#X connect 5 0 15 0;
#X connect 6 0 13 0;
#X connect 7 0 11 0;
#X connect 8 0 9 0;
#X connect 9 0 1 0;
#X connect 10 0 9 1;
#X connect 11 0 1 0;
#X connect 12 0 11 1;
#X connect 13 0 1 0;
#X connect 14 0 13 1;
#X connect 15 0 1 0;
#X connect 16 0 15 1;
#X connect 17 0 10 0;
#X connect 17 0 12 0;
#X connect 17 0 14 0;
#X connect 17 0 16 0;
#X connect 18 0 17 0;
#X connect 19 0 4 0;
#X connect 20 0 3 0;
