#N canvas 277 23 413 493 10;
#X obj 79 302 / 100;
#X obj 31 41 sel 0, f 14;
#X obj 31 89 t b b, f 6;
#X obj 31 144 f 0;
#X obj 64 327 f;
#X obj 31 421 line~;
#X obj 103 227 r \$0-attack;
#X obj 181 63 route attack decay sustain release;
#X obj 181 220 clip 0 10000;
#X obj 181 241 s \$0-attack;
#X obj 231 177 clip 0 10000;
#X obj 115 325 r \$0-decay;
#X obj 231 198 s \$0-decay;
#X obj 331 94 clip 0 10000;
#X obj 181 40 inlet;
#X obj 10 462 outlet~;
#X obj 64 349 pack f 20;
#X obj 142 359 pack f 20;
#X obj 281 158 s \$0-sustain;
#X obj 281 137 clip 0 100;
#X obj 331 115 s \$0-release;
#X obj 79 280 r \$0-sustain;
#X obj 31 15 inlet;
#X obj 82 140 r \$0-release;
#X obj 31 166 pack f 20;
#X msg 64 110 claer;
#X obj 112 111 t f f;
#X obj 64 249 pipe 20;
#X obj 10 442 *~, f 4;
#X obj 10 396 inlet~;
#X connect 0 0 4 1;
#X connect 1 0 2 0;
#X connect 1 1 26 0;
#X connect 2 0 3 0;
#X connect 2 1 25 0;
#X connect 3 0 24 0;
#X connect 4 0 16 0;
#X connect 5 0 28 1;
#X connect 6 0 17 1;
#X connect 6 0 27 1;
#X connect 7 0 8 0;
#X connect 7 1 10 0;
#X connect 7 2 19 0;
#X connect 7 3 13 0;
#X connect 8 0 9 0;
#X connect 10 0 12 0;
#X connect 11 0 16 1;
#X connect 13 0 20 0;
#X connect 14 0 7 0;
#X connect 16 0 5 0;
#X connect 17 0 5 0;
#X connect 19 0 18 0;
#X connect 21 0 0 0;
#X connect 22 0 1 0;
#X connect 23 0 24 1;
#X connect 24 0 5 0;
#X connect 25 0 27 0;
#X connect 26 0 27 0;
#X connect 26 1 17 0;
#X connect 27 0 4 0;
#X connect 28 0 15 0;
#X connect 29 0 28 0;
