#N canvas 632 23 382 789 10;
#X obj 11 511 mtof~;
#X obj 11 32 unpack;
#X obj 11 207 line~;
#X obj 11 371 +~;
#X obj 26 299 *;
#X obj 26 321 pack f 30;
#X obj 26 343 line~;
#X obj 11 730 *~;
#X obj 26 707 line~;
#X obj 11 185 pack;
#X obj 11 537 phasor~;
#X obj 11 559 *~ 2045;
#X obj 11 581 +~ 1;
#X obj 26 685 pack f 20;
#X obj 11 10 r \$0-note;
#X msg 64 582 set \$1;
#X obj 29 392 inlet~;
#X obj 11 753 outlet~;
#X obj 11 608 tabread4~;
#X obj 64 560 makefilename wf-\$0-%d;
#X obj 11 485 +~;
#X obj 26 660 dbtorms;
#X obj 29 464 *~, f 9;
#X obj 80 419 line~;
#X obj 80 397 pack f 20;
#X obj 161 419 line~;
#X obj 161 397 pack f 20;
#X obj 80 441 *~, f 14;
#X obj 80 374 / 100;
#X obj 161 374 / 100;
#X obj 183 118 param.get 5;
#N canvas 0 23 450 300 pitcher--------------- 0;
#N canvas 0 23 85 191 octaver 0;
#X obj 26 33 inlet;
#X obj 11 7 inlet;
#X obj 11 130 +, f 4;
#X obj 26 78 * 12;
#X obj 26 100 t b f;
#X obj 26 57 - 4;
#X obj 11 152 outlet;
#X connect 0 0 5 0;
#X connect 1 0 2 0;
#X connect 2 0 6 0;
#X connect 3 0 4 0;
#X connect 4 0 2 0;
#X connect 4 1 2 1;
#X connect 5 0 3 0;
#X restore 11 47 pd octaver;
#N canvas 940 249 85 191 toner 0;
#X obj 26 33 inlet;
#X obj 11 7 inlet;
#X obj 11 130 +, f 4;
#X obj 26 100 t b f;
#X obj 26 57 - 4;
#X obj 11 152 outlet;
#X obj 26 78 * 2;
#X connect 0 0 4 0;
#X connect 1 0 2 0;
#X connect 2 0 5 0;
#X connect 3 0 2 0;
#X connect 3 1 2 1;
#X connect 4 0 6 0;
#X connect 6 0 3 0;
#X restore 11 89 pd toner;
#N canvas 940 249 85 191 halftoner 0;
#X obj 26 33 inlet;
#X obj 11 7 inlet;
#X obj 11 130 +, f 4;
#X obj 26 100 t b f;
#X obj 26 57 - 4;
#X obj 11 152 outlet;
#X connect 0 0 4 0;
#X connect 1 0 2 0;
#X connect 2 0 5 0;
#X connect 3 0 2 0;
#X connect 3 1 2 1;
#X connect 4 0 3 0;
#X restore 11 131 pd halftoner;
#X obj 68 19 inlet;
#X obj 11 19 inlet;
#X obj 128 19 inlet;
#X obj 188 19 inlet;
#X obj 11 213 outlet;
#X obj 248 19 inlet;
#N canvas 940 249 85 191 center 0;
#X obj 26 33 inlet;
#X obj 11 7 inlet;
#X obj 11 130 +, f 4;
#X obj 26 100 t b f;
#X obj 11 152 outlet;
#X obj 26 57 / 100, f 29;
#X connect 0 0 5 0;
#X connect 1 0 2 0;
#X connect 2 0 4 0;
#X connect 3 0 2 0;
#X connect 3 1 2 1;
#X connect 5 0 3 0;
#X restore 11 169 pd center;
#X connect 0 0 1 0;
#X connect 1 0 2 0;
#X connect 2 0 9 0;
#X connect 3 0 0 1;
#X connect 4 0 0 0;
#X connect 5 0 1 1;
#X connect 6 0 2 1;
#X connect 8 0 9 1;
#X connect 9 0 7 0;
#X restore 11 141 pd pitcher---------------;
#X obj 26 636 param.get 7;
#X obj 54 78 + 3;
#X obj 97 98 + 3;
#X obj 140 120 + 3;
#X obj 54 56 param.get 2;
#X obj 97 76 param.get 3;
#X obj 140 98 param.get 4;
#X obj 80 352 param.get 6;
#X obj 41 275 param.get 38;
#X obj 26 232 bendin;
#X obj 26 254 / 8192;
#X obj 32 162 param.get 37;
#X obj 64 537 param.get 1;
#X obj 161 352 param.get 25;
#X connect 0 0 10 0;
#X connect 1 0 31 0;
#X connect 2 0 3 0;
#X connect 3 0 20 0;
#X connect 4 0 5 0;
#X connect 5 0 6 0;
#X connect 6 0 3 1;
#X connect 7 0 17 0;
#X connect 8 0 7 1;
#X connect 9 0 2 0;
#X connect 10 0 11 0;
#X connect 11 0 12 0;
#X connect 12 0 18 0;
#X connect 13 0 8 0;
#X connect 14 0 1 0;
#X connect 15 0 18 0;
#X connect 16 0 22 0;
#X connect 18 0 7 0;
#X connect 19 0 15 0;
#X connect 20 0 0 0;
#X connect 21 0 13 0;
#X connect 22 0 20 1;
#X connect 23 0 27 0;
#X connect 24 0 23 0;
#X connect 25 0 27 1;
#X connect 26 0 25 0;
#X connect 27 0 22 1;
#X connect 28 0 24 0;
#X connect 29 0 26 0;
#X connect 30 0 31 4;
#X connect 31 0 9 0;
#X connect 32 0 21 0;
#X connect 33 0 31 1;
#X connect 34 0 31 2;
#X connect 35 0 31 3;
#X connect 36 0 33 0;
#X connect 37 0 34 0;
#X connect 38 0 35 0;
#X connect 39 0 28 0;
#X connect 40 0 4 1;
#X connect 41 0 42 0;
#X connect 42 0 4 0;
#X connect 43 0 9 1;
#X connect 44 0 19 0;
#X connect 45 0 29 0;
