#N canvas 591 38 489 540 10;
#X obj 11 218 mtof~;
#X obj 11 116 +~, f 14;
#X obj 11 456 *~;
#X obj 26 435 line~;
#X obj 11 239 phasor~;
#X obj 11 332 +~ 1;
#X obj 26 415 pack f 20;
#X msg 119 309 set \$1;
#X obj 11 477 outlet~;
#X obj 11 355 tabread4~;
#X obj 26 395 dbtorms;
#X obj 11 10 inlet note;
#X obj 11 52 *;
#X obj 171 10 inlet note;
#X obj 171 132 s \$0-pitch;
#X obj 26 31 r \$0-pitch;
#X obj 223 112 s \$0-slide;
#X obj 56 52 r \$0-slide;
#X obj 11 73 pack f 5;
#X obj 11 94 line~;
#X obj 92 94 line~;
#X obj 92 10 inlet bend;
#X obj 92 73 pack f 20;
#X obj 26 178 modulation~, f 17;
#X obj 11 198 +~;
#X obj 26 137 r \$0-modulation;
#X obj 275 91 s \$0-modulation;
#X obj 26 158 route waveform rate depth;
#X obj 11 311 *~ 2048, f 9;
#X obj 62 231 r \$0-waveform;
#X obj 62 290 array size;
#X obj 379 50 s \$0-waveform;
#X obj 171 31 route pitch slide modulation volume waveform;
#X obj 327 70 s \$0-volume;
#X obj 26 375 r \$0-volume;
#X obj 62 251 symbol;
#X obj 62 271 t b s, f 10;
#X connect 0 0 4 0;
#X connect 1 0 24 0;
#X connect 2 0 8 0;
#X connect 3 0 2 1;
#X connect 4 0 28 0;
#X connect 5 0 9 0;
#X connect 6 0 3 0;
#X connect 7 0 9 0;
#X connect 9 0 2 0;
#X connect 10 0 6 0;
#X connect 11 0 12 0;
#X connect 12 0 18 0;
#X connect 13 0 32 0;
#X connect 15 0 12 1;
#X connect 17 0 18 1;
#X connect 18 0 19 0;
#X connect 19 0 1 0;
#X connect 20 0 1 1;
#X connect 21 0 22 0;
#X connect 22 0 20 0;
#X connect 23 0 24 1;
#X connect 24 0 0 0;
#X connect 25 0 27 0;
#X connect 27 0 23 0;
#X connect 27 1 23 1;
#X connect 27 2 23 2;
#X connect 28 0 5 0;
#X connect 29 0 35 0;
#X connect 30 0 28 1;
#X connect 32 0 14 0;
#X connect 32 1 16 0;
#X connect 32 2 26 0;
#X connect 32 3 33 0;
#X connect 32 4 31 0;
#X connect 34 0 10 0;
#X connect 35 0 36 0;
#X connect 36 0 30 0;
#X connect 36 1 30 1;
#X connect 36 1 7 0;
