#N canvas 582 337 177 319 10;
#X obj 26 28 r param;
#X obj 26 50 route \$1;
#X obj 53 120 outlet;
#X obj 26 72 change -1e+37;
#X obj 71 170 symbol \$2;
#X obj 26 261 send \$2;
#X obj 26 237 spigot 0;
#X obj 26 94 t f f;
#X obj 71 193 sel \$2;
#X obj 71 147 loadbang;
#X obj 71 215 f 1;
#X connect 0 0 1 0;
#X connect 1 0 3 0;
#X connect 3 0 7 0;
#X connect 4 0 8 0;
#X connect 6 0 5 0;
#X connect 7 0 6 0;
#X connect 7 1 2 0;
#X connect 8 0 10 0;
#X connect 9 0 4 0;
#X connect 10 0 6 1;
