#N canvas 277 23 413 493 10;
#X obj 58 302 / 100;
#X obj 10 41 sel 0, f 14;
#X obj 10 89 t b b, f 6;
#X msg 43 110 stop;
#X obj 10 144 f 0;
#X obj 91 89 f 1;
#X obj 91 64 bang;
#X obj 43 327 f;
#X obj 91 111 t b f;
#X obj 10 421 line~;
#X obj 76 227 r \$0-attack;
#X obj 160 63 route attack decay sustain release;
#X obj 160 220 clip 0 10000;
#X obj 160 241 s \$0-attack;
#X obj 210 177 clip 0 10000;
#X obj 94 325 r \$0-decay;
#X obj 210 198 s \$0-decay;
#X obj 310 94 clip 0 10000;
#X obj 160 40 inlet;
#X obj 10 442 outlet~;
#X obj 43 349 pack f 20;
#X obj 121 359 pack f 20;
#X obj 43 249 del 20;
#X obj 260 158 s \$0-sustain;
#X obj 260 137 clip 0 100;
#X obj 310 115 s \$0-release;
#X obj 58 280 r \$0-sustain;
#X obj 10 15 inlet;
#X obj 61 140 r \$0-release;
#X obj 10 166 pack f 20;
#X connect 0 0 7 1;
#X connect 1 0 2 0;
#X connect 1 1 6 0;
#X connect 2 0 4 0;
#X connect 2 1 3 0;
#X connect 3 0 22 0;
#X connect 4 0 29 0;
#X connect 5 0 8 0;
#X connect 6 0 5 0;
#X connect 7 0 20 0;
#X connect 8 0 22 0;
#X connect 8 1 21 0;
#X connect 9 0 19 0;
#X connect 10 0 21 1;
#X connect 10 0 22 1;
#X connect 11 0 12 0;
#X connect 11 1 14 0;
#X connect 11 2 24 0;
#X connect 11 3 17 0;
#X connect 12 0 13 0;
#X connect 14 0 16 0;
#X connect 15 0 20 1;
#X connect 17 0 25 0;
#X connect 18 0 11 0;
#X connect 20 0 9 0;
#X connect 21 0 9 0;
#X connect 22 0 7 0;
#X connect 24 0 23 0;
#X connect 26 0 0 0;
#X connect 27 0 1 0;
#X connect 28 0 29 1;
#X connect 29 0 9 0;
