#N canvas 129 23 883 280 10;
#X obj 20 233 outlet~;
#X obj 20 190 inlet~;
#X obj 20 211 bob~, f 43;
#X obj 275 181 line~;
#X obj 147 120 *~;
#X obj 147 185 +~, f 6;
#X obj 162 77 pack f 20;
#X obj 180 120 r \$0-minimum-hz;
#X obj 180 141 pack f 20;
#X obj 180 162 line~;
#X obj 162 98 line~;
#X obj 275 139 r \$0-resonance;
#X obj 275 160 pack f 20;
#X obj 760 103 samplerate~;
#X obj 760 62 r pd;
#X obj 760 83 route dsp;
#X obj 760 124 s \$0-samplerate;
#X obj 372 143 clip 0 44100;
#X obj 372 184 s \$0-minimum-hz;
#X obj 378 101 r \$0-samplerate;
#X obj 378 122 t b f, f 11;
#X obj 487 156 -, f 5;
#X obj 499 115 r \$0-minimum-hz;
#X obj 499 136 t b f;
#X obj 487 177 t b f, f 12;
#X obj 487 91 r \$0-samplerate;
#X obj 479 200 clip 0 44100;
#X obj 372 164 change;
#X obj 479 243 s \$0-range-hz;
#X obj 162 56 r \$0-range-hz;
#X obj 479 221 change;
#X obj 586 141 clip 0 12;
#X obj 586 162 s \$0-resonance;
#X obj 372 61 route minimum range resonance, f 54;
#X obj 693 82 s \$0-adsr;
#X obj 210 12 r \$0-adsr;
#X obj 147 11 inlet;
#X obj 147 33 reson.adsr~;
#X obj 372 40 inlet;
#X connect 1 0 2 0;
#X connect 2 0 0 0;
#X connect 3 0 2 2;
#X connect 4 0 5 0;
#X connect 5 0 2 1;
#X connect 6 0 10 0;
#X connect 7 0 8 0;
#X connect 8 0 9 0;
#X connect 9 0 5 1;
#X connect 10 0 4 1;
#X connect 11 0 12 0;
#X connect 12 0 3 0;
#X connect 13 0 16 0;
#X connect 14 0 15 0;
#X connect 15 0 13 0;
#X connect 17 0 27 0;
#X connect 19 0 20 0;
#X connect 20 0 17 0;
#X connect 20 1 17 2;
#X connect 21 0 24 0;
#X connect 22 0 23 0;
#X connect 23 0 21 0;
#X connect 23 1 21 1;
#X connect 24 0 26 0;
#X connect 24 1 26 2;
#X connect 25 0 21 0;
#X connect 26 0 30 0;
#X connect 27 0 18 0;
#X connect 29 0 6 0;
#X connect 30 0 28 0;
#X connect 31 0 32 0;
#X connect 33 0 17 0;
#X connect 33 1 26 0;
#X connect 33 2 31 0;
#X connect 33 3 34 0;
#X connect 35 0 37 1;
#X connect 36 0 37 0;
#X connect 37 0 4 0;
#X connect 38 0 33 0;
