#N canvas 376 23 975 808 10;
#X obj 34 6 bng 15 250 50 0 \$0-load empty empty 17 7 0 10 -262144
-1 -1;
#X text 50 6 Load a patch;
#X obj 451 34 r \$0-load;
#X msg 451 55 openpanel -s;
#X obj 451 76 s camomile;
#X obj 451 101 r openpanel;
#X obj 478 290 text define \$0-patch;
#X obj 451 311 text size \$0-patch;
#X obj 451 248 t b a;
#X obj 451 122 symbol;
#X msg 478 269 read \$1;
#X obj 451 332 - 1;
#X obj 484 375 text get \$0-patch 1 1;
#X obj 484 396 symbol;
#X obj 484 417 sel coords;
#X obj 541 438 bang;
#X obj 541 459 symbol;
#X obj 451 227 t s s, f 21;
#X obj 541 480 print no graph-on-parent;
#X obj 451 505 text get \$0-patch 6 2;
#X obj 451 353 t f f, f 6;
#X obj 484 438 f 1;
#X obj 451 470 spigot;
#X obj 451 207 t s b, f 10;
#X obj 508 438 f 0;
#X obj 574 249 t s s, f 8;
#X obj 532 76 openpanel;
#X obj 619 355 list split;
#X obj 676 313 list length;
#X obj 676 334 - 3;
#X obj 619 270 list fromsymbol;
#X obj 619 291 t l l, f 10;
#X obj 619 376 list tosymbol;
#X obj 451 143 t s b;
#X msg 478 165 clear;
#X obj 619 418 send pd-\$0-internal;
#X obj 478 186 send pd-\$0-internal;
#X obj 478 546 t l l;
#X obj 505 590 send pd-\$0-internal;
#X obj 478 614 unpack f f;
#X obj 478 656 pack f f, f 10;
#X obj 478 698 send pd-CamomileFx.pd;
#X obj 451 742 s camomile;
#X msg 451 721 program updated \, gui resize;
#X obj 451 526 t b l;
#X obj 535 635 + 26;
#X msg 505 568 donecanvasdialog 1 -1 2 0 -1 1 1 \$1 \$2 0 0;
#X msg 619 397 obj 0 0 \$1;
#X obj 478 635 + 0;
#X msg 478 677 donecanvasdialog 1 -1 2 0 -1 1 1 \$1 \$2 0 0;
#X obj 300 620 r save;
#X obj 300 661 symbol;
#X obj 372 593 bng 15 250 50 0 empty empty empty 17 7 0 10 -262144
-1 -1;
#X msg 359 631 symbol zaza;
#X obj 300 682 route;
#X obj 183 567 text define;
#X obj 183 508 openpanel;
#X obj 219 460 bng 15 250 50 0 empty empty empty 17 7 0 10 -262144
-1 -1;
#X msg 183 530 read -c \$1;
#X msg 267 530 write -c \$1;
#X obj 252 473 bng 15 250 50 0 empty empty empty 17 7 0 10 -262144
-1 -1;
#X obj 267 508 savepanel;
#N canvas 0 23 450 300 \$0-internal 0;
#X obj 0 0 /Users/pierre/Documents/Projects/Camomile/Plugins/Examples/Castafiore/Castafiore
;
#X coords 0 -1 1 1 301 201 2 0 0;
#X restore 0 26 pd \$0-internal;
#X connect 2 0 3 0;
#X connect 2 0 26 0;
#X connect 3 0 4 0;
#X connect 5 0 9 0;
#X connect 7 0 11 0;
#X connect 8 0 7 0;
#X connect 8 1 10 0;
#X connect 9 0 33 0;
#X connect 10 0 6 0;
#X connect 11 0 20 0;
#X connect 12 0 13 0;
#X connect 13 0 14 0;
#X connect 14 0 21 0;
#X connect 14 1 15 0;
#X connect 15 0 16 0;
#X connect 16 0 18 0;
#X connect 17 0 8 0;
#X connect 17 1 25 0;
#X connect 19 0 44 0;
#X connect 20 0 22 0;
#X connect 20 1 12 0;
#X connect 21 0 22 1;
#X connect 22 0 19 0;
#X connect 23 0 17 0;
#X connect 23 1 24 0;
#X connect 24 0 22 1;
#X connect 25 0 16 1;
#X connect 25 1 30 0;
#X connect 26 0 9 0;
#X connect 27 0 32 0;
#X connect 28 0 29 0;
#X connect 29 0 27 1;
#X connect 30 0 31 0;
#X connect 31 0 27 0;
#X connect 31 1 28 0;
#X connect 32 0 47 0;
#X connect 33 0 23 0;
#X connect 33 1 34 0;
#X connect 34 0 36 0;
#X connect 37 0 39 0;
#X connect 37 1 46 0;
#X connect 39 0 48 0;
#X connect 39 1 45 0;
#X connect 40 0 49 0;
#X connect 43 0 42 0;
#X connect 44 0 43 0;
#X connect 44 1 37 0;
#X connect 45 0 40 1;
#X connect 46 0 38 0;
#X connect 47 0 35 0;
#X connect 48 0 40 0;
#X connect 49 0 41 0;
#X connect 50 0 51 0;
#X connect 51 0 54 0;
#X connect 52 0 51 0;
#X connect 53 0 51 0;
#X connect 56 0 58 0;
#X connect 57 0 56 0;
#X connect 58 0 55 0;
#X connect 59 0 55 0;
#X connect 60 0 61 0;
#X connect 61 0 59 0;
#X coords 0 -1 1 1 301 227 2 0 0;
