#N canvas 232 57 818 736 10;
#X obj 34 8 bng 15 250 50 0 \$0-load empty empty 17 7 0 10 -262144
-1 -1;
#X text 50 8 Load a patch;
#X obj 471 184 r \$0-load;
#X msg 471 205 openpanel -s;
#X obj 471 226 s camomile;
#X obj 471 251 r openpanel;
#X obj 498 376 text define \$0-patch;
#X obj 471 397 text size \$0-patch;
#X obj 471 334 t b a;
#X obj 471 272 symbol;
#X msg 498 355 read \$1;
#X obj 471 418 - 1;
#X obj 504 461 text get \$0-patch 1 1;
#X obj 504 482 symbol;
#X obj 504 503 sel coords;
#X obj 561 524 bang;
#X obj 561 545 symbol;
#X obj 471 313 t s s, f 21;
#X obj 561 566 print no graph-on-parent;
#X obj 471 612 print;
#X obj 471 591 text get \$0-patch 6 2;
#X obj 471 439 t f f, f 6;
#X obj 504 524 f 1;
#X obj 471 556 spigot;
#X obj 471 293 t s b, f 10;
#X obj 528 524 f 0;
#X obj 594 335 t s s, f 8;
#X obj 660 103 openpanel;
#X obj 664 60 bng 15 250 50 0 empty empty empty 17 7 0 10 -262144 -1
-1;
#X obj 639 441 list split;
#X obj 696 399 list length;
#X obj 696 420 - 3;
#X obj 639 356 list fromsymbol;
#X obj 639 377 t l l, f 10;
#X obj 639 462 list tosymbol;
#X msg 639 483 obj 20 20 \$1;
#X obj 639 504 send pd-CamomileFx.pd;
#X connect 2 0 3 0;
#X connect 3 0 4 0;
#X connect 5 0 9 0;
#X connect 7 0 11 0;
#X connect 8 0 7 0;
#X connect 8 1 10 0;
#X connect 9 0 24 0;
#X connect 10 0 6 0;
#X connect 11 0 21 0;
#X connect 12 0 13 0;
#X connect 13 0 14 0;
#X connect 14 0 22 0;
#X connect 14 1 15 0;
#X connect 15 0 16 0;
#X connect 16 0 18 0;
#X connect 17 0 8 0;
#X connect 17 1 26 0;
#X connect 20 0 19 0;
#X connect 21 0 23 0;
#X connect 21 1 12 0;
#X connect 22 0 23 1;
#X connect 23 0 20 0;
#X connect 24 0 17 0;
#X connect 24 1 25 0;
#X connect 25 0 23 1;
#X connect 26 0 16 1;
#X connect 26 1 32 0;
#X connect 27 0 9 0;
#X connect 28 0 27 0;
#X connect 29 0 34 0;
#X connect 30 0 31 0;
#X connect 31 0 29 1;
#X connect 32 0 33 0;
#X connect 33 0 29 0;
#X connect 33 1 30 0;
#X connect 34 0 35 0;
#X connect 35 0 36 0;
#X coords 0 -1 1 1 460 160 1 2 2;
