#N canvas 611 89 606 669 10;
#X obj 96 12 bng 15 250 50 0 \$0-load empty empty 17 7 0 10 -262144
-1 -1;
#X text 17 12 Load a patch;
#X obj 62 166 r \$0-load;
#X msg 62 187 openpanel -s;
#X obj 62 208 s camomile;
#X obj 62 233 r openpanel;
#X obj 89 358 text define \$0-patch;
#X obj 62 379 text size \$0-patch;
#X obj 62 316 t b a;
#X obj 62 254 symbol;
#X msg 89 337 read \$1;
#X obj 62 400 - 1;
#X obj 95 443 text get \$0-patch 1 1;
#X obj 95 464 symbol;
#X obj 95 485 sel coords;
#X obj 152 506 bang;
#X obj 152 527 symbol;
#X obj 62 295 t s s;
#X obj 152 548 print no graph-on-parent;
#X obj 62 594 print;
#X obj 62 573 text get \$0-patch 6 2;
#X obj 62 421 t f f, f 6;
#X obj 95 506 f 1;
#X obj 62 538 spigot;
#X obj 62 275 t s b;
#X obj 121 506 f 0;
#X connect 2 0 3 0;
#X connect 3 0 4 0;
#X connect 5 0 9 0;
#X connect 7 0 11 0;
#X connect 8 0 7 0;
#X connect 8 1 10 0;
#X connect 9 0 24 0;
#X connect 10 0 6 0;
#X connect 11 0 21 0;
#X connect 12 0 13 0;
#X connect 13 0 14 0;
#X connect 14 0 22 0;
#X connect 14 1 15 0;
#X connect 15 0 16 0;
#X connect 16 0 18 0;
#X connect 17 0 8 0;
#X connect 17 1 16 1;
#X connect 20 0 19 0;
#X connect 21 0 23 0;
#X connect 21 1 12 0;
#X connect 22 0 23 1;
#X connect 23 0 20 0;
#X connect 24 0 17 0;
#X connect 24 1 25 0;
#X connect 25 0 23 1;
#X coords 0 -1 1 1 460 160 1 2 2;
