#N canvas 507 65 718 307 10;
#X obj 125 7 bng 15 250 50 0 \$0-load empty empty 17 7 0 10 -262144
-1 -1;
#N canvas 0 23 450 300 \$0-internal 0;
#X obj 0 0 /Users/pierre/Documents/Projects/Camomile/Plugins/Examples/Bulgroz/Bulgroz
;
#X coords 0 -1 1 1 460 160 2 0 0;
#X restore 2 28 pd \$0-internal;
#X obj 171 7 bng 15 250 50 0 \$0-reload empty empty 17 7 0 10 -262144
-1 -1;
#X text 188 7 Reload;
#X text 141 7 Load;
#X symbolatom 34 7 14 0 0 0 - #0-name -, f 14;
#N canvas 0 23 210 221 dynamic.patch 0;
#N canvas 286 128 599 669 update.gui 0;
#X obj 44 185 text define \$0-patch;
#X obj 17 206 text size \$0-patch;
#X obj 17 143 t b a;
#X msg 44 164 read \$1;
#X obj 17 227 - 1;
#X obj 50 270 text get \$0-patch 1 1;
#X obj 50 291 symbol;
#X obj 50 312 sel coords;
#X obj 107 333 bang;
#X obj 107 354 symbol;
#X obj 17 122 t s s, f 21;
#X obj 107 375 print no graph-on-parent;
#X obj 17 400 text get \$0-patch 6 2;
#X obj 17 248 t f f, f 6;
#X obj 50 333 f 1;
#X obj 17 365 spigot;
#X obj 17 102 t s b, f 10;
#X obj 74 333 f 0;
#X obj 140 144 t s s, f 8;
#X obj 185 250 list split;
#X obj 242 208 list length;
#X obj 242 229 - 3;
#X obj 185 165 list fromsymbol;
#X obj 185 186 t l l, f 10;
#X obj 185 301 list tosymbol;
#X obj 17 38 t s b;
#X msg 44 60 clear;
#X obj 185 343 send pd-\$0-internal;
#X obj 44 81 send pd-\$0-internal;
#X obj 44 441 t l l;
#X obj 71 485 send pd-\$0-internal;
#X obj 44 509 unpack f f;
#X obj 44 551 pack f f, f 10;
#X obj 17 421 t b l;
#X obj 101 530 + 26;
#X msg 71 463 donecanvasdialog 1 -1 2 0 -1 1 1 \$1 \$2 0 0;
#X msg 185 322 obj 0 0 \$1;
#X obj 44 530 + 0;
#X obj 17 637 send camomile;
#X obj 17 15 inlet;
#X msg 17 616 gui resize;
#X msg 44 572 donecanvasdialog 1 -1 2 0 -1 1 1 \$1 \$2 2 2;
#X obj 44 593 send pd-PdStalFx.pd;
#X obj 344 437 list store;
#X obj 344 245 t l l, f 10;
#X obj 344 266 list length;
#X obj 344 287 - 1;
#X obj 344 353 until;
#X obj 344 330 t f f, f 7;
#X obj 344 374 f, f 7;
#X obj 394 374 - 1;
#X msg 344 415 get \$1 1;
#X obj 344 569 list tosymbol;
#X obj 344 395 t f f;
#X obj 344 308 t f f;
#X obj 344 544 list split;
#X obj 344 479 t b b b;
#X obj 321 515 list;
#X obj 344 458 select 47;
#X obj 363 502 f, f 5;
#X obj 363 523 + 1;
#X obj 344 590 s \$0-name;
#X connect 1 0 4 0;
#X connect 2 0 1 0;
#X connect 2 1 3 0;
#X connect 3 0 0 0;
#X connect 4 0 13 0;
#X connect 5 0 6 0;
#X connect 6 0 7 0;
#X connect 7 0 14 0;
#X connect 7 1 8 0;
#X connect 8 0 9 0;
#X connect 9 0 11 0;
#X connect 10 0 2 0;
#X connect 10 1 18 0;
#X connect 12 0 33 0;
#X connect 13 0 15 0;
#X connect 13 1 5 0;
#X connect 14 0 15 1;
#X connect 15 0 12 0;
#X connect 16 0 10 0;
#X connect 16 1 17 0;
#X connect 17 0 15 1;
#X connect 18 0 9 1;
#X connect 18 1 22 0;
#X connect 19 0 24 0;
#X connect 19 0 44 0;
#X connect 20 0 21 0;
#X connect 21 0 19 1;
#X connect 22 0 23 0;
#X connect 23 0 19 0;
#X connect 23 1 20 0;
#X connect 24 0 36 0;
#X connect 25 0 16 0;
#X connect 25 1 26 0;
#X connect 26 0 28 0;
#X connect 29 0 31 0;
#X connect 29 1 35 0;
#X connect 31 0 37 0;
#X connect 31 1 34 0;
#X connect 32 0 41 0;
#X connect 33 0 40 0;
#X connect 33 1 29 0;
#X connect 34 0 32 1;
#X connect 35 0 30 0;
#X connect 36 0 27 0;
#X connect 37 0 32 0;
#X connect 39 0 25 0;
#X connect 40 0 38 0;
#X connect 41 0 42 0;
#X connect 43 0 58 0;
#X connect 44 0 45 0;
#X connect 44 1 43 1;
#X connect 44 1 57 1;
#X connect 45 0 46 0;
#X connect 46 0 54 0;
#X connect 47 0 49 0;
#X connect 48 0 47 0;
#X connect 48 1 49 1;
#X connect 49 0 53 0;
#X connect 49 0 50 0;
#X connect 50 0 49 1;
#X connect 51 0 43 0;
#X connect 52 0 61 0;
#X connect 53 0 51 0;
#X connect 53 1 59 1;
#X connect 54 0 48 0;
#X connect 55 1 52 0;
#X connect 56 0 57 0;
#X connect 56 1 59 0;
#X connect 56 2 47 1;
#X connect 57 0 55 0;
#X connect 58 0 56 0;
#X connect 59 0 60 0;
#X connect 60 0 55 1;
#X restore 45 131 pd update.gui;
#N canvas 563 302 279 318 save.program 0;
#X obj 34 24 r save;
#X obj 34 66 symbol;
#X obj 109 150 select symbol;
#X msg 184 129 symbol;
#X obj 109 108 t s b, f 13;
#X obj 184 170 bang;
#X obj 34 212 spigot, f 13;
#X msg 34 233 save patch \$1;
#X obj 34 254 send camomile;
#X obj 67 44 inlet;
#X obj 109 171 bang;
#X obj 34 87 t s s, f 13;
#X obj 109 191 f 0;
#X obj 184 191 f 1;
#X connect 0 0 1 0;
#X connect 1 0 11 0;
#X connect 2 0 10 0;
#X connect 2 1 5 0;
#X connect 3 0 2 1;
#X connect 4 0 2 0;
#X connect 4 1 3 0;
#X connect 5 0 13 0;
#X connect 6 0 7 0;
#X connect 7 0 8 0;
#X connect 9 0 1 1;
#X connect 10 0 12 0;
#X connect 11 0 6 0;
#X connect 11 1 4 0;
#X connect 12 0 6 1;
#X connect 13 0 6 1;
#X restore 72 111 pd save.program;
#X msg 18 152 program updated;
#X obj 18 173 send camomile;
#N canvas 839 388 283 184 load.program 0;
#X obj 32 22 r load;
#X obj 32 111 outlet;
#X obj 32 43 list trim;
#X obj 32 64 route patch;
#X connect 0 0 2 0;
#X connect 2 0 3 0;
#X connect 3 0 1 0;
#X restore 56 38 pd load.program;
#N canvas 381 122 178 187 load.patch 0;
#X obj 18 26 r \$0-load;
#X msg 18 47 openpanel -s;
#X obj 18 68 s camomile;
#X obj 18 93 r openpanel;
#X obj 99 68 openpanel;
#X obj 18 135 outlet;
#X obj 96 94 r \$0-reload;
#X connect 0 0 1 0;
#X connect 0 0 4 0;
#X connect 1 0 2 0;
#X connect 3 0 5 0;
#X connect 4 0 5 0;
#X connect 6 0 5 0;
#X restore 18 17 pd load.patch;
#X obj 45 90 t s s;
#X obj 45 67 symbol;
#X obj 18 38 t b a;
#X connect 2 0 3 0;
#X connect 4 0 7 0;
#X connect 5 0 8 0;
#X connect 6 0 0 0;
#X connect 6 1 1 0;
#X connect 7 0 6 0;
#X connect 8 0 2 0;
#X connect 8 1 7 0;
#X restore 236 7 pd dynamic.patch;
#X coords 0 -1 1 1 460 186 2 2 2;
