#N canvas 685 83 718 307 10;
#N canvas 0 23 450 300 \$0-internal 0;
#X coords 0 -1 1 1 460 160 2 2 2;
#X restore 2 28 pd \$0-internal;
#X obj 2 2 cnv 25 460 25 empty \$0-header empty 20 12 0 14 -228856
-66577 0;
#X obj 125 8 bng 15 250 50 0 \$0-load empty empty 17 7 0 10 -262144
-1 -1;
#X obj 171 8 bng 15 250 50 0 \$0-reload empty empty 17 7 0 10 -262144
-1 -1;
#X text 188 7 Reload;
#X text 141 8 Load;
#X symbolatom 34 8 14 0 0 0 - #0-name #0-name-s;
#N canvas 339 72 264 266 dynamic.patch 0;
#N canvas 428 23 704 817 update.gui 0;
#X obj 112 225 text define \$0-patch;
#X obj 85 246 text size \$0-patch;
#X obj 85 183 t b a;
#X msg 112 204 read \$1;
#X obj 85 267 - 1;
#X obj 118 340 text get \$0-patch 1 1;
#X obj 118 361 symbol;
#X obj 118 382 sel coords;
#X obj 175 403 bang;
#X obj 175 424 symbol;
#X obj 85 162 t s s, f 21;
#X obj 85 490 text get \$0-patch 6 2;
#X obj 85 288 t f f, f 6;
#X obj 118 403 f 1;
#X obj 85 435 spigot;
#X obj 85 142 t s b, f 10;
#X obj 142 403 f 0;
#X obj 208 184 t s s, f 8;
#X obj 253 290 list split;
#X obj 310 248 list length;
#X obj 310 269 - 3;
#X obj 253 205 list fromsymbol;
#X obj 253 226 t l l, f 10;
#X obj 280 378 list tosymbol;
#X obj 10 48 t s b;
#X obj 280 420 send pd-\$0-internal;
#X obj 37 91 send pd-\$0-internal;
#X obj 112 593 t l l;
#X obj 139 637 send pd-\$0-internal;
#X obj 112 661 unpack f f;
#X obj 112 703 pack f f, f 10;
#X obj 85 573 t b l;
#X obj 169 682 + 26;
#X msg 139 615 donecanvasdialog 1 -1 2 0 -1 1 1 \$1 \$2 0 0;
#X obj 112 682 + 0;
#X obj 85 789 send camomile;
#X obj 10 5 inlet;
#X msg 85 768 gui resize;
#X msg 112 724 donecanvasdialog 1 -1 2 0 -1 1 1 \$1 \$2 2 2;
#X obj 112 745 send pd-PdStalFx.pd;
#X obj 463 547 list store;
#X obj 436 355 t l l, f 15;
#X obj 436 376 list length;
#X obj 436 397 - 1;
#X obj 463 463 until;
#X obj 463 440 t f f, f 7;
#X obj 463 484 f, f 7;
#X obj 513 484 - 1;
#X msg 463 525 get \$1 1;
#X obj 434 677 list tosymbol;
#X obj 463 505 t f f, f 14;
#X obj 406 654 list split;
#X obj 463 568 select 47;
#X obj 463 612 f, f 14;
#X obj 463 633 + 1;
#X obj 434 768 s \$0-name;
#X obj 436 418 t b f;
#X obj 463 589 bang;
#X obj 406 333 t l l, f 6;
#X obj 520 656 r \$0-name-s;
#X obj 520 677 bang;
#X msg 434 749 set \$1;
#X obj 51 6 r \$0-close;
#X obj 85 511 unpack f f;
#X obj 85 553 pack f f, f 10;
#X obj 85 532 max 284;
#X obj 142 532 max 100;
#X obj 193 787 send \$0-header;
#X msg 193 766 vis_size \$1 25;
#X msg 280 399 obj 0 0 \$1;
#X obj 253 311 t l l, f 26;
#X obj 253 332 t b l;
#X msg 253 355 loadbang;
#X obj 10 121 sel undefined;
#N canvas 0 23 391 282 undefined 0;
#X obj 38 170 send pd-\$0-internal;
#X obj 21 214 send camomile;
#X msg 21 193 gui redraw;
#X msg 55 127 send pd-PdStalFx.pd;
#X obj 21 15 inlet;
#X msg 55 106 donecanvasdialog 1 -1 2 0 -1 1 1 460 186 2 2;
#X msg 38 149 donecanvasdialog 1 -1 2 0 -1 1 1 460 160 2 2;
#X obj 21 36 t b b b b;
#X obj 72 80 s \$0-name-internal;
#X msg 72 59 symbol undefined;
#X connect 2 0 1 0;
#X connect 4 0 7 0;
#X connect 5 0 3 0;
#X connect 6 0 0 0;
#X connect 7 0 2 0;
#X connect 7 1 6 0;
#X connect 7 2 5 0;
#X connect 7 3 9 0;
#X connect 9 0 8 0;
#X restore 10 211 pd undefined;
#X msg 37 70 clear;
#X obj 442 696 r \$0-name-internal;
#X obj 434 727 symbol undefined;
#X obj 175 465 print pd.stalFx - no graph-on-parent;
#X obj 280 443 print pd.stalFx - loaded;
#X connect 1 0 4 0;
#X connect 2 0 1 0;
#X connect 2 1 3 0;
#X connect 3 0 0 0;
#X connect 4 0 12 0;
#X connect 5 0 6 0;
#X connect 6 0 7 0;
#X connect 7 0 13 0;
#X connect 7 1 8 0;
#X connect 8 0 9 0;
#X connect 9 0 78 0;
#X connect 10 0 2 0;
#X connect 10 1 17 0;
#X connect 11 0 63 0;
#X connect 12 0 14 0;
#X connect 12 1 5 0;
#X connect 13 0 14 1;
#X connect 14 0 11 0;
#X connect 15 0 10 0;
#X connect 15 1 16 0;
#X connect 16 0 14 1;
#X connect 17 0 9 1;
#X connect 17 1 21 0;
#X connect 18 0 70 0;
#X connect 19 0 20 0;
#X connect 20 0 18 1;
#X connect 21 0 22 0;
#X connect 22 0 18 0;
#X connect 22 1 19 0;
#X connect 23 0 69 0;
#X connect 24 0 73 0;
#X connect 24 1 75 0;
#X connect 27 0 29 0;
#X connect 27 1 33 0;
#X connect 29 0 34 0;
#X connect 29 1 32 0;
#X connect 30 0 38 0;
#X connect 31 0 37 0;
#X connect 31 1 27 0;
#X connect 32 0 30 1;
#X connect 33 0 28 0;
#X connect 34 0 30 0;
#X connect 34 0 68 0;
#X connect 36 0 24 0;
#X connect 37 0 35 0;
#X connect 38 0 39 0;
#X connect 40 0 52 0;
#X connect 41 0 42 0;
#X connect 41 1 40 1;
#X connect 42 0 43 0;
#X connect 43 0 56 0;
#X connect 44 0 46 0;
#X connect 45 0 44 0;
#X connect 45 1 46 1;
#X connect 46 0 50 0;
#X connect 46 0 47 0;
#X connect 47 0 46 1;
#X connect 48 0 40 0;
#X connect 49 0 77 0;
#X connect 50 0 48 0;
#X connect 50 1 53 1;
#X connect 51 1 49 0;
#X connect 52 0 57 0;
#X connect 53 0 54 0;
#X connect 54 0 51 1;
#X connect 56 1 45 0;
#X connect 57 0 53 0;
#X connect 57 0 44 1;
#X connect 58 0 51 0;
#X connect 58 1 41 0;
#X connect 59 0 60 0;
#X connect 60 0 77 0;
#X connect 61 0 55 0;
#X connect 63 0 65 0;
#X connect 63 1 66 0;
#X connect 64 0 31 0;
#X connect 65 0 64 0;
#X connect 66 0 64 1;
#X connect 68 0 67 0;
#X connect 69 0 25 0;
#X connect 70 0 71 0;
#X connect 70 1 58 0;
#X connect 71 0 72 0;
#X connect 71 1 23 0;
#X connect 72 0 25 0;
#X connect 73 0 74 0;
#X connect 73 1 15 0;
#X connect 75 0 26 0;
#X connect 76 0 77 0;
#X connect 77 0 61 0;
#X restore 85 131 pd update.gui;
#N canvas 563 302 336 322 save.program 0;
#X obj 34 24 r save;
#X obj 34 66 symbol;
#X obj 109 156 select symbol;
#X msg 184 135 symbol;
#X obj 109 114 t s b, f 13;
#X obj 184 176 bang;
#X obj 34 218 spigot, f 13;
#X msg 34 239 save patch \$1;
#X obj 34 260 send camomile;
#X obj 67 44 inlet;
#X obj 109 177 bang;
#X obj 34 93 t s s, f 13;
#X obj 109 197 f 0;
#X obj 184 197 f 1;
#X connect 0 0 1 0;
#X connect 1 0 11 0;
#X connect 2 0 10 0;
#X connect 2 1 5 0;
#X connect 3 0 2 1;
#X connect 4 0 2 0;
#X connect 4 1 3 0;
#X connect 5 0 13 0;
#X connect 6 0 7 0;
#X connect 7 0 8 0;
#X connect 9 0 1 1;
#X connect 10 0 12 0;
#X connect 11 0 6 0;
#X connect 11 1 4 0;
#X connect 12 0 6 1;
#X connect 13 0 6 1;
#X restore 112 111 pd save.program;
#X msg 58 152 program updated;
#X obj 58 173 send camomile;
#N canvas 839 388 283 184 load.program 0;
#X obj 32 22 r load;
#X obj 32 111 outlet;
#X obj 32 43 list trim;
#X obj 32 64 route patch;
#X connect 0 0 2 0;
#X connect 2 0 3 0;
#X connect 3 0 1 0;
#X restore 96 38 pd load.program;
#N canvas 381 122 236 261 load.patch 0;
#X obj 18 26 r \$0-load;
#X msg 18 47 openpanel -s;
#X obj 18 68 s camomile;
#X obj 18 93 r openpanel;
#X obj 99 68 openpanel;
#X obj 18 175 outlet;
#X obj 96 94 r \$0-reload;
#X obj 96 116 r \$0-close;
#X msg 96 137 symbol undefined;
#X obj 166 116 loadbang;
#X connect 0 0 1 0;
#X connect 0 0 4 0;
#X connect 1 0 2 0;
#X connect 3 0 5 0;
#X connect 4 0 5 0;
#X connect 6 0 5 0;
#X connect 7 0 8 0;
#X connect 8 0 5 0;
#X connect 9 0 8 0;
#X restore 58 17 pd load.patch;
#X obj 85 90 t s s;
#X obj 58 38 t b a;
#X obj 25 216 send pd;
#X msg 25 195 dsp 0 \, dsp 1;
#X obj 85 67 symbol undefined;
#X connect 2 0 3 0;
#X connect 4 0 10 0;
#X connect 5 0 7 0;
#X connect 6 0 0 0;
#X connect 6 1 1 0;
#X connect 7 0 2 0;
#X connect 7 0 9 0;
#X connect 7 1 10 0;
#X connect 9 0 8 0;
#X connect 10 0 6 0;
#X restore 286 7 pd dynamic.patch;
#X obj 230 8 bng 15 250 50 0 \$0-close empty empty 17 7 0 10 -262144
-1 -1;
#X text 247 7 Close;
#X coords 0 -1 1 1 460 186 2 2 2;
