#N canvas 685 83 718 307 10;
#N canvas 0 23 450 300 \$0-internal 0;
#X coords 0 -1 1 1 460 160 2 0 0;
#X restore 2 28 pd \$0-internal;
#X obj 2 2 cnv 25 460 25 empty \$0-header empty 20 12 0 14 -228856
-66577 0;
#X obj 125 8 bng 15 250 50 0 \$0-load empty empty 17 7 0 10 -262144
-1 -1;
#X obj 171 8 bng 15 250 50 0 \$0-reload empty empty 17 7 0 10 -262144
-1 -1;
#X text 188 7 Reload;
#X text 141 8 Load;
#X symbolatom 34 8 14 0 0 0 - #0-name #0-name-s, f 14;
#N canvas 0 23 264 266 dynamic.patch 0;
#N canvas 576 23 603 807 update.gui 0;
#X obj 44 185 text define \$0-patch;
#X obj 17 206 text size \$0-patch;
#X obj 17 143 t b a;
#X msg 44 164 read \$1;
#X obj 17 227 - 1;
#X obj 50 320 text get \$0-patch 1 1;
#X obj 50 341 symbol;
#X obj 50 362 sel coords;
#X obj 107 383 bang;
#X obj 107 404 symbol;
#X obj 17 122 t s s, f 21;
#X obj 107 425 print no graph-on-parent;
#X obj 17 470 text get \$0-patch 6 2;
#X obj 17 248 t f f, f 6;
#X obj 50 383 f 1;
#X obj 17 415 spigot;
#X obj 17 102 t s b, f 10;
#X obj 74 383 f 0;
#X obj 140 144 t s s, f 8;
#X obj 185 250 list split;
#X obj 242 208 list length;
#X obj 242 229 - 3;
#X obj 185 165 list fromsymbol;
#X obj 185 186 t l l, f 10;
#X obj 212 338 list tosymbol;
#X obj 17 38 t s b;
#X msg 44 60 clear;
#X obj 212 380 send pd-\$0-internal;
#X obj 44 81 send pd-\$0-internal;
#X obj 44 573 t l l;
#X obj 71 617 send pd-\$0-internal;
#X obj 44 641 unpack f f;
#X obj 44 683 pack f f, f 10;
#X obj 17 553 t b l;
#X obj 101 662 + 26;
#X msg 71 595 donecanvasdialog 1 -1 2 0 -1 1 1 \$1 \$2 0 0;
#X obj 44 662 + 0;
#X obj 17 769 send camomile;
#X obj 17 15 inlet;
#X msg 17 748 gui resize;
#X msg 44 704 donecanvasdialog 1 -1 2 0 -1 1 1 \$1 \$2 2 2;
#X obj 44 725 send pd-PdStalFx.pd;
#X obj 395 507 list store;
#X obj 368 315 t l l, f 15;
#X obj 368 336 list length;
#X obj 368 357 - 1;
#X obj 395 423 until;
#X obj 395 400 t f f, f 7;
#X obj 395 444 f, f 7;
#X obj 445 444 - 1;
#X msg 395 485 get \$1 1;
#X obj 366 637 list tosymbol;
#X obj 395 465 t f f, f 14;
#X obj 338 614 list split;
#X obj 395 528 select 47;
#X obj 395 572 f, f 14;
#X obj 395 593 + 1;
#X obj 366 708 s \$0-name;
#X obj 368 378 t b f;
#X obj 395 549 bang;
#X obj 338 293 t l l, f 6;
#X obj 452 616 r \$0-name-s;
#X obj 452 637 bang;
#X obj 366 668 symbol;
#X obj 526 616 loadbang;
#X msg 526 637 undefined;
#X msg 366 689 set \$1;
#X obj 58 16 r \$0-close;
#X obj 165 104 send camomile;
#X obj 58 37 t b b;
#X msg 165 83 gui redraw;
#X obj 17 491 unpack f f;
#X obj 17 533 pack f f, f 10;
#X obj 17 512 max 284;
#X obj 74 512 max 100;
#X obj 125 767 send \$0-header;
#X msg 125 746 vis_size \$1 25;
#X msg 212 359 obj 0 0 \$1;
#X obj 185 271 t l l, f 26;
#X obj 185 292 t b l;
#X msg 185 315 loadbang;
#X connect 1 0 4 0;
#X connect 2 0 1 0;
#X connect 2 1 3 0;
#X connect 3 0 0 0;
#X connect 4 0 13 0;
#X connect 5 0 6 0;
#X connect 6 0 7 0;
#X connect 7 0 14 0;
#X connect 7 1 8 0;
#X connect 8 0 9 0;
#X connect 9 0 11 0;
#X connect 10 0 2 0;
#X connect 10 1 18 0;
#X connect 12 0 71 0;
#X connect 13 0 15 0;
#X connect 13 1 5 0;
#X connect 14 0 15 1;
#X connect 15 0 12 0;
#X connect 16 0 10 0;
#X connect 16 1 17 0;
#X connect 17 0 15 1;
#X connect 18 0 9 1;
#X connect 18 1 22 0;
#X connect 19 0 78 0;
#X connect 20 0 21 0;
#X connect 21 0 19 1;
#X connect 22 0 23 0;
#X connect 23 0 19 0;
#X connect 23 1 20 0;
#X connect 24 0 77 0;
#X connect 25 0 16 0;
#X connect 25 1 26 0;
#X connect 26 0 28 0;
#X connect 29 0 31 0;
#X connect 29 1 35 0;
#X connect 31 0 36 0;
#X connect 31 1 34 0;
#X connect 32 0 40 0;
#X connect 33 0 39 0;
#X connect 33 1 29 0;
#X connect 34 0 32 1;
#X connect 35 0 30 0;
#X connect 36 0 32 0;
#X connect 36 0 76 0;
#X connect 38 0 25 0;
#X connect 39 0 37 0;
#X connect 40 0 41 0;
#X connect 42 0 54 0;
#X connect 43 0 44 0;
#X connect 43 1 42 1;
#X connect 44 0 45 0;
#X connect 45 0 58 0;
#X connect 46 0 48 0;
#X connect 47 0 46 0;
#X connect 47 1 48 1;
#X connect 48 0 52 0;
#X connect 48 0 49 0;
#X connect 49 0 48 1;
#X connect 50 0 42 0;
#X connect 51 0 63 0;
#X connect 52 0 50 0;
#X connect 52 1 55 1;
#X connect 53 1 51 0;
#X connect 54 0 59 0;
#X connect 55 0 56 0;
#X connect 56 0 53 1;
#X connect 58 1 47 0;
#X connect 59 0 55 0;
#X connect 59 0 46 1;
#X connect 60 0 53 0;
#X connect 60 1 43 0;
#X connect 61 0 62 0;
#X connect 62 0 63 0;
#X connect 63 0 66 0;
#X connect 64 0 65 0;
#X connect 65 0 63 0;
#X connect 66 0 57 0;
#X connect 67 0 69 0;
#X connect 69 0 70 0;
#X connect 69 1 26 0;
#X connect 70 0 68 0;
#X connect 71 0 73 0;
#X connect 71 1 74 0;
#X connect 72 0 33 0;
#X connect 73 0 72 0;
#X connect 74 0 72 1;
#X connect 76 0 75 0;
#X connect 77 0 27 0;
#X connect 78 0 79 0;
#X connect 78 1 60 0;
#X connect 79 0 80 0;
#X connect 79 1 24 0;
#X connect 80 0 27 0;
#X restore 85 131 pd update.gui;
#N canvas 563 302 279 318 save.program 0;
#X obj 34 24 r save;
#X obj 34 66 symbol;
#X obj 109 150 select symbol;
#X msg 184 129 symbol;
#X obj 109 108 t s b, f 13;
#X obj 184 170 bang;
#X obj 34 212 spigot, f 13;
#X msg 34 233 save patch \$1;
#X obj 34 254 send camomile;
#X obj 67 44 inlet;
#X obj 109 171 bang;
#X obj 34 87 t s s, f 13;
#X obj 109 191 f 0;
#X obj 184 191 f 1;
#X connect 0 0 1 0;
#X connect 1 0 11 0;
#X connect 2 0 10 0;
#X connect 2 1 5 0;
#X connect 3 0 2 1;
#X connect 4 0 2 0;
#X connect 4 1 3 0;
#X connect 5 0 13 0;
#X connect 6 0 7 0;
#X connect 7 0 8 0;
#X connect 9 0 1 1;
#X connect 10 0 12 0;
#X connect 11 0 6 0;
#X connect 11 1 4 0;
#X connect 12 0 6 1;
#X connect 13 0 6 1;
#X restore 112 111 pd save.program;
#X msg 58 152 program updated;
#X obj 58 173 send camomile;
#N canvas 839 388 283 184 load.program 0;
#X obj 32 22 r load;
#X obj 32 111 outlet;
#X obj 32 43 list trim;
#X obj 32 64 route patch;
#X connect 0 0 2 0;
#X connect 2 0 3 0;
#X connect 3 0 1 0;
#X restore 96 38 pd load.program;
#N canvas 381 122 178 187 load.patch 0;
#X obj 18 26 r \$0-load;
#X msg 18 47 openpanel -s;
#X obj 18 68 s camomile;
#X obj 18 93 r openpanel;
#X obj 99 68 openpanel;
#X obj 18 135 outlet;
#X obj 96 94 r \$0-reload;
#X connect 0 0 1 0;
#X connect 0 0 4 0;
#X connect 1 0 2 0;
#X connect 3 0 5 0;
#X connect 4 0 5 0;
#X connect 6 0 5 0;
#X restore 58 17 pd load.patch;
#X obj 85 90 t s s;
#X obj 85 67 symbol;
#X obj 58 38 t b a;
#X obj 25 216 send pd;
#X msg 25 195 dsp 0 \, dsp 1;
#X connect 2 0 3 0;
#X connect 4 0 7 0;
#X connect 5 0 8 0;
#X connect 6 0 0 0;
#X connect 6 1 1 0;
#X connect 7 0 6 0;
#X connect 8 0 2 0;
#X connect 8 0 10 0;
#X connect 8 1 7 0;
#X connect 10 0 9 0;
#X restore 286 7 pd dynamic.patch;
#X obj 230 8 bng 15 250 50 0 \$0-close empty empty 17 7 0 10 -262144
-1 -1;
#X text 247 7 Close;
#X coords 0 -1 1 1 460 186 2 2 2;
