#N canvas 87 69 1244 757 10;
#X text 245 37 16';
#X text 245 58 5'1/3;
#X text 245 78 8';
#X text 245 98 4';
#X text 245 118 2'2/3;
#X text 245 139 2';
#X text 245 158 1'3/5;
#X text 245 178 1'1/3;
#X text 245 198 1';
#X text 487 37 16';
#X text 487 57 5'1/3;
#X text 487 77 8';
#X text 487 97 4';
#X text 487 117 2'2/3;
#X text 487 138 2';
#X text 487 157 1'3/5;
#X text 487 177 1'1/3;
#X text 487 197 1';
#X obj 538 47 hsl 128 15 0 100 0 0 \$0-attack-sld-s \$0-attack-sld-r
empty -2 -8 0 10 -262144 -1 -1 0 1;
#X obj 538 79 hsl 128 15 0 1000 0 0 \$0-decay-sld-s \$0-decay-sld-r
empty -2 -8 0 10 -262144 -1 -1 0 1;
#X obj 538 143 hsl 128 15 0 1000 0 0 \$0-release-sld-s \$0-release-sld-r
empty -2 -8 0 10 -262144 -1 -1 0 1;
#X obj 673 47 nbx 5 15 0 100 0 0 \$0-attack-nbx-s \$0-attack-nbx-r
empty 0 -8 0 10 -262144 -1 -1 0 256;
#X obj 673 79 nbx 5 15 0 1000 0 0 \$0-decay-nbx-s \$0-decay-nbx-r empty
0 -8 0 10 -262144 -1 -1 0 256;
#X obj 673 143 nbx 5 15 0 1000 0 0 \$0-release-nbx-s \$0-release-nbx-r
empty 0 -8 0 10 -262144 -1 -1 0 256;
#X obj 538 111 hsl 128 15 0 100 0 0 \$0-sustain-sld-s \$0-sustain-sld-r
empty -2 -8 0 10 -262144 -1 -1 0 1;
#X obj 673 111 nbx 5 15 0 100 0 0 \$0-sustain-nbx-s \$0-sustain-nbx-r
empty 0 -8 0 10 -262144 -1 -1 0 256;
#X text 533 15 ENVELOPE;
#X text 290 15 ORGAN HARMONICS;
#N canvas 826 307 438 500 init 0;
#X obj 137 55 loadbang;
#X msg 37 112 100;
#X obj 57 134 s \$0-harmonic-organ-1;
#X obj 57 154 s \$0-harmonic-organ-2;
#X obj 57 174 s \$0-harmonic-organ-3;
#X obj 57 194 s \$0-harmonic-percussive-1;
#X obj 57 234 s \$0-harmonic-percussive-3;
#X obj 57 214 s \$0-harmonic-percussive-2;
#X msg 239 109 20;
#X obj 239 131 s \$0-attack;
#X obj 239 152 s \$0-decay;
#X obj 239 172 s \$0-release;
#X obj 239 192 s \$0-sustain;
#X msg 193 114 100;
#X obj 251 243 s \$0-volume;
#X obj 218 284 s \$0-lfo;
#X msg 216 256 0.3;
#X obj 147 284 s \$0-overdrive;
#X msg 145 256 0;
#X connect 0 0 1 0;
#X connect 0 0 8 0;
#X connect 0 0 13 0;
#X connect 0 0 16 0;
#X connect 0 0 18 0;
#X connect 1 0 2 0;
#X connect 1 0 3 0;
#X connect 1 0 4 0;
#X connect 1 0 5 0;
#X connect 1 0 7 0;
#X connect 1 0 6 0;
#X connect 8 0 9 0;
#X connect 8 0 10 0;
#X connect 8 0 11 0;
#X connect 13 0 12 0;
#X connect 13 0 14 0;
#X connect 16 0 15 0;
#X connect 18 0 17 0;
#X restore 816 357 pd init;
#N canvas 539 227 579 443 multisynthesizer 0;
#X obj 147 309 outlet~;
#X restore 16 415 pd multisynthesizer;
#X obj 16 585 dac~, f 9;
#X obj 672 207 nbx 5 15 0 100 0 0 \$0-overdrive-nbx-s \$0-overdrive-nbx-r
empty 0 -8 0 10 -262144 -1 -1 0 256;
#X obj 536 239 hsl 128 15 0 15 0 0 \$0-leslie-rate-sld-s \$0-leslie-rate-sld-r
empty -2 -8 0 10 -262144 -1 -1 12700 1;
#X obj 671 239 nbx 5 15 0 15 0 0 \$0-leslie-rate-nbx-s \$0-leslie-rate-nbx-r
empty 0 -8 0 10 -262144 -1 -1 15 256;
#X obj 536 271 hsl 128 15 0 100 0 0 \$0-volume-sld-s \$0-volume-sld-r
empty -2 -8 0 10 -262144 -1 -1 8700 1;
#X obj 671 271 nbx 5 15 0 100 0 0 \$0-volume-nbx-s \$0-volume-nbx-r
empty 0 -8 0 10 -262144 -1 -1 68.5039 256;
#X obj 738 414 param.change;
#X text 48 15 HARMONICS PERCUSSION;
#X obj 53 37 hsl 128 15 0 100 0 0 \$0-harmonic-percussive-1-sld-s \$0-harmonic-percussive-1-sld-r
empty -2 -8 0 10 -262144 -1 -1 0 1;
#X obj 53 58 hsl 128 15 0 100 0 0 \$0-harmonic-percussive-2-sld-s \$0-harmonic-percussive-2-sld-r
empty -2 -8 0 10 -262144 -1 -1 0 1;
#X obj 53 78 hsl 128 15 0 100 0 0 \$0-harmonic-percussive-3-sld-s \$0-harmonic-percussive-3-sld-r
empty -2 -8 0 10 -262144 -1 -1 0 1;
#X obj 53 98 hsl 128 15 0 100 0 0 \$0-harmonic-percussive-4-sld-s \$0-harmonic-percussive-4-sld-r
empty -2 -8 0 10 -262144 -1 -1 0 1;
#X obj 53 118 hsl 128 15 0 100 0 0 \$0-harmonic-percussive-5-sld-s
\$0-harmonic-percussive-5-sld-r empty -2 -8 0 10 -262144 -1 -1 0 1
;
#X obj 53 138 hsl 128 15 0 100 0 0 \$0-harmonic-percussive-6-sld-s
\$0-harmonic-percussive-6-sld-r empty -2 -8 0 10 -262144 -1 -1 0 1
;
#X obj 53 158 hsl 128 15 0 100 0 0 \$0-harmonic-percussive-7-sld-s
\$0-harmonic-percussive-7-sld-r empty -2 -8 0 10 -262144 -1 -1 0 1
;
#X obj 53 178 hsl 128 15 0 100 0 0 \$0-harmonic-percussive-8-sld-s
\$0-harmonic-percussive-8-sld-r empty -2 -8 0 10 -262144 -1 -1 0 1
;
#X obj 53 198 hsl 128 15 0 100 0 0 \$0-harmonic-percussive-9-sld-s
\$0-harmonic-percussive-9-sld-r empty -2 -8 0 10 -262144 -1 -1 0 1
;
#X obj 188 37 nbx 5 15 0 100 0 0 \$0-harmonic-percussive-1-nbx-s \$0-harmonic-percussive-1-nbx-r
empty -8 0 0 10 -262144 -1 -262144 0 256;
#X obj 188 58 nbx 5 15 0 100 0 0 \$0-harmonic-percussive-2-nbx-s \$0-harmonic-percussive-2-nbx-r
empty 0 -8 0 10 -262144 -1 -1 0 256;
#X obj 188 78 nbx 5 15 0 100 0 0 \$0-harmonic-percussive-3-nbx-s \$0-harmonic-percussive-3-nbx-r
empty 0 -8 0 10 -262144 -1 -1 0 256;
#X obj 188 98 nbx 5 15 0 100 0 0 \$0-harmonic-percussive-4-nbx-s \$0-harmonic-percussive-4-nbx-r
empty 0 -8 0 10 -262144 -1 -1 0 256;
#X obj 188 118 nbx 5 15 0 100 0 0 \$0-harmonic-percussive-5-nbx-s \$0-harmonic-percussive-5-nbx-r
empty 0 -8 0 10 -262144 -1 -1 0 256;
#X obj 188 138 nbx 5 15 0 100 0 0 \$0-harmonic-percussive-6-nbx-s \$0-harmonic-percussive-6-nbx-r
empty 0 -8 0 10 -262144 -1 -1 0 256;
#X obj 188 158 nbx 5 15 0 100 0 0 \$0-harmonic-percussive-7-nbx-s \$0-harmonic-percussive-7-nbx-r
empty 0 -8 0 10 -262144 -1 -1 0 256;
#X obj 188 178 nbx 5 15 0 100 0 0 \$0-harmonic-percussive-8-nbx-s \$0-harmonic-percussive-8-nbx-r
empty 0 -8 0 10 -262144 -1 -1 0 256;
#X obj 188 198 nbx 5 15 0 100 0 0 \$0-harmonic-percussive-9-nbx-s \$0-harmonic-percussive-9-nbx-r
empty 0 -8 0 10 -262144 -1 -1 0 256;
#X obj 295 37 hsl 128 15 0 100 0 0 \$0-harmonic-organ-1-sld-s \$0-harmonic-organ-1-sld-r
empty -2 -8 0 10 -262144 -1 -1 0 1;
#X obj 295 57 hsl 128 15 0 100 0 0 \$0-harmonic-organ-2-sld-s \$0-harmonic-organ-2-sld-r
empty -2 -8 0 10 -262144 -1 -1 0 1;
#X obj 295 77 hsl 128 15 0 100 0 0 \$0-harmonic-organ-3-sld-s \$0-harmonic-organ-3-sld-r
empty -2 -8 0 10 -262144 -1 -1 0 1;
#X obj 295 97 hsl 128 15 0 100 0 0 \$0-harmonic-organ-4-sld-s \$0-harmonic-organ-4-sld-r
empty -2 -8 0 10 -262144 -1 -1 0 1;
#X obj 295 117 hsl 128 15 0 100 0 0 \$0-harmonic-organ-5-sld-s \$0-harmonic-organ-5-sld-r
empty -2 -8 0 10 -262144 -1 -1 0 1;
#X obj 295 137 hsl 128 15 0 100 0 0 \$0-harmonic-organ-6-sld-s \$0-harmonic-organ-6-sld-r
empty -2 -8 0 10 -262144 -1 -1 0 1;
#X obj 295 157 hsl 128 15 0 100 0 0 \$0-harmonic-organ-7-sld-s \$0-harmonic-organ-7-sld-r
empty -2 -8 0 10 -262144 -1 -1 0 1;
#X obj 295 177 hsl 128 15 0 100 0 0 \$0-harmonic-organ-8-sld-s \$0-harmonic-organ-8-sld-r
empty -2 -8 0 10 -262144 -1 -1 0 1;
#X obj 295 197 hsl 128 15 0 100 0 0 \$0-harmonic-organ-9-sld-s \$0-harmonic-organ-9-sld-r
empty -2 -8 0 10 -262144 -1 -1 0 1;
#X obj 431 37 nbx 5 15 0 100 0 0 \$0-harmonic-organ-1-nbx-s \$0-harmonic-organ-1-nbx-r
empty 0 -8 0 10 -262144 -1 -1 0 256;
#X obj 431 57 nbx 5 15 0 100 0 0 \$0-harmonic-organ-2-nbx-s \$0-harmonic-organ-2-nbx-r
empty 0 -8 0 10 -262144 -1 -1 0 256;
#X obj 431 77 nbx 5 15 0 100 0 0 \$0-harmonic-organ-3-nbx-s \$0-harmonic-organ-3-nbx-r
empty 0 -8 0 10 -262144 -1 -1 0 256;
#X obj 431 97 nbx 5 15 0 100 0 0 \$0-harmonic-organ-4-nbx-s \$0-harmonic-organ-4-nbx-r
empty 0 -8 0 10 -262144 -1 -1 0 256;
#X obj 431 117 nbx 5 15 0 100 0 0 \$0-harmonic-organ-5-nbx-s \$0-harmonic-organ-5-nbx-r
empty 0 -8 0 10 -262144 -1 -1 0 256;
#X obj 431 137 nbx 5 15 0 100 0 0 \$0-harmonic-organ-6-nbx-s \$0-harmonic-organ-6-nbx-r
empty 0 -8 0 10 -262144 -1 -1 0 256;
#X obj 431 157 nbx 5 15 0 100 0 0 \$0-harmonic-organ-7-nbx-s \$0-harmonic-organ-7-nbx-r
empty 0 -8 0 10 -262144 -1 -1 0 256;
#X obj 431 177 nbx 5 15 0 100 0 0 \$0-harmonic-organ-8-nbx-s \$0-harmonic-organ-8-nbx-r
empty 0 -8 0 10 -262144 -1 -1 0 256;
#X obj 431 197 nbx 5 15 0 100 0 0 \$0-harmonic-organ-9-nbx-s \$0-harmonic-organ-9-nbx-r
empty 0 -8 0 10 -262144 -1 -1 0 256;
#X text 532 177 EFFECTS;
#X obj 537 207 hsl 128 15 0 100 0 0 \$0-overdrive-sld-s \$0-overdrive-sld-r
empty -2 -8 0 10 -262144 -1 -1 0 1;
#X text 532 191 Overdrive;
#X text 531 223 Leslie LFO rate;
#X text 727 239 Hz;
#X text 727 271 dB;
#X text 531 255 Volume;
#X text 728 47 ms;
#X text 533 31 Attack;
#X text 728 79 ms;
#X text 533 63 Decay;
#X text 728 111 %;
#X text 533 95 Sustain;
#X text 728 143 ms;
#X text 533 127 Release;
#X text 728 207 %;
#X obj 608 515 gui.link 5 \$0-overdrive;
#X obj 838 216 ctlin 2;
#X obj 838 238 / 1.27;
#X obj 838 262 s \$0-overdrive;
#X obj 16 471 overdrive~;
#X obj 73 450 r \$0-overdrive;
#X obj 408 415 gui.link 17 \$0-harmonic-organ-1;
#X obj 608 415 gui.link 1 \$0-attack;
#X obj 608 435 gui.link 2 \$0-decay;
#X obj 608 455 gui.link 3 \$0-sustain;
#X obj 608 475 gui.link 4 \$0-release;
#X obj 608 535 gui.link 6 \$0-leslie-rate;
#X obj 608 555 gui.link 7 \$0-volume;
#X obj 178 415 gui.link 8 \$0-harmonic-percussive-1;
#X obj 178 435 gui.link 9 \$0-harmonic-percussive-2;
#X obj 178 455 gui.link 10 \$0-harmonic-percussive-3;
#X obj 178 475 gui.link 11 \$0-harmonic-percussive-4;
#X obj 178 495 gui.link 12 \$0-harmonic-percussive-5;
#X obj 178 515 gui.link 13 \$0-harmonic-percussive-6;
#X obj 178 535 gui.link 14 \$0-harmonic-percussive-7;
#X obj 178 555 gui.link 15 \$0-harmonic-percussive-8;
#X obj 178 575 gui.link 16 \$0-harmonic-percussive-9;
#X obj 408 435 gui.link 18 \$0-harmonic-organ-2;
#X obj 408 455 gui.link 19 \$0-harmonic-organ-3;
#X obj 408 475 gui.link 20 \$0-harmonic-organ-4;
#X obj 408 495 gui.link 21 \$0-harmonic-organ-5;
#X obj 408 515 gui.link 22 \$0-harmonic-organ-6;
#X obj 408 535 gui.link 23 \$0-harmonic-organ-7;
#X obj 408 555 gui.link 24 \$0-harmonic-organ-8;
#X obj 408 575 gui.link 25 \$0-harmonic-organ-9;
#X obj 838 148 ctlin 1;
#X obj 16 516 leslie~, f 9;
#X obj 67 495 r \$0-leslie-rate;
#X obj 838 170 / 8.46667;
#X obj 838 194 s \$0-leslie-rate;
#X obj 838 284 ctlin 7;
#X obj 838 328 s \$0-volume;
#X obj 838 306 / 1.27;
#X obj 16 560 volume~, f 9;
#X obj 67 538 r \$0-volume;
#N canvas 268 473 597 279 synthesizer 1;
#X obj 31 99 / 2;
#X obj 31 79 mtof;
#X obj 31 154 *~, f 23;
#X obj 31 46 unpack f f, f 23;
#X obj 171 226 outlet~;
#X obj 161 13 inlet;
#N canvas 569 347 586 474 adsr 0;
#X obj 229 223 pack f f;
#X obj 160 63 t b b;
#X obj 160 338 f 0;
#X obj 160 360 pack f f;
#X obj 160 19 inlet;
#X obj 160 42 sel 0, f 12;
#X obj 229 398 line~;
#X obj 326 49 inlet;
#X obj 405 49 inlet;
#X obj 186 203 delay;
#X msg 186 144 stop;
#X obj 229 65 t b f b;
#X obj 229 420 outlet~, f 8;
#X connect 0 0 6 0;
#X connect 1 0 2 0;
#X connect 1 1 10 0;
#X connect 2 0 3 0;
#X connect 3 0 6 0;
#X connect 4 0 5 0;
#X connect 5 0 1 0;
#X connect 5 1 11 0;
#X connect 6 0 12 0;
#X connect 7 0 0 1;
#X connect 7 0 9 1;
#X connect 8 0 3 1;
#X connect 9 0 2 0;
#X connect 10 0 9 0;
#X connect 11 0 9 0;
#X connect 11 1 0 0;
#X connect 11 2 10 0;
#X restore 166 104 pd adsr;
#X obj 291 99 / 2;
#X obj 291 79 mtof;
#X obj 291 154 *~, f 23;
#X obj 291 46 unpack f f, f 23;
#X obj 291 132 tabosc4~ wf-organ-\$0;
#N canvas 854 280 586 474 adsr 0;
#X obj 229 253 pack f f;
#X obj 160 123 t b b;
#X obj 160 338 f 0;
#X obj 160 360 pack f f;
#X msg 187 144 clear;
#X obj 160 49 inlet;
#X obj 160 72 sel 0, f 12;
#X obj 229 398 line~;
#X obj 250 49 inlet;
#X obj 274 79 inlet;
#X obj 304 109 inlet;
#X obj 394 139 inlet, f 14;
#X obj 304 186 / 100;
#X obj 229 216 *, f 13;
#X obj 229 420 outlet~;
#X obj 229 105 t f b;
#X obj 229 187 pipe, f 9;
#X connect 0 0 7 0;
#X connect 1 0 2 0;
#X connect 1 1 4 0;
#X connect 2 0 3 0;
#X connect 3 0 7 0;
#X connect 4 0 16 0;
#X connect 5 0 6 0;
#X connect 6 0 1 0;
#X connect 6 1 15 0;
#X connect 7 0 14 0;
#X connect 8 0 16 1;
#X connect 9 0 0 1;
#X connect 10 0 12 0;
#X connect 11 0 3 1;
#X connect 12 0 13 1;
#X connect 13 0 0 0;
#X connect 15 0 16 0;
#X connect 16 0 13 0;
#X restore 426 129 pd adsr;
#X obj 31 132 tabosc4~ wf-percussion-\$0;
#X obj 188 46 r \$0-attack-s;
#X obj 211 66 r \$0-decay-s;
#X obj 438 46 r \$0-attack-s;
#X obj 451 66 r \$0-decay-s;
#X obj 464 87 r \$0-sustain-s;
#X obj 477 108 r \$0-release-s;
#X connect 0 0 13 0;
#X connect 1 0 0 0;
#X connect 2 0 4 0;
#X connect 3 0 1 0;
#X connect 3 1 6 0;
#X connect 5 0 3 0;
#X connect 5 0 10 0;
#X connect 6 0 2 1;
#X connect 7 0 11 0;
#X connect 8 0 7 0;
#X connect 9 0 4 0;
#X connect 10 0 8 0;
#X connect 10 1 12 0;
#X connect 11 0 9 0;
#X connect 12 0 9 1;
#X connect 13 0 2 0;
#X connect 14 0 6 1;
#X connect 15 0 6 2;
#X connect 16 0 12 1;
#X connect 17 0 12 2;
#X connect 18 0 12 3;
#X connect 19 0 12 4;
#X restore 848 521 pd synthesizer;
#N canvas 332 289 597 279 synthesizer 0;
#X obj 31 99 / 2;
#X obj 31 79 mtof;
#X obj 31 154 *~, f 23;
#X obj 31 46 unpack f f, f 23;
#X obj 171 226 outlet~;
#X obj 161 13 inlet;
#N canvas 569 347 586 474 adsr 0;
#X obj 229 223 pack f f;
#X obj 160 63 t b b;
#X obj 160 338 f 0;
#X obj 160 360 pack f f;
#X obj 160 19 inlet;
#X obj 160 42 sel 0, f 12;
#X obj 229 398 line~;
#X obj 326 49 inlet;
#X obj 405 49 inlet;
#X obj 186 203 delay;
#X msg 186 144 stop;
#X obj 229 65 t b f b;
#X obj 229 420 outlet~, f 8;
#X connect 0 0 6 0;
#X connect 1 0 2 0;
#X connect 1 1 10 0;
#X connect 2 0 3 0;
#X connect 3 0 6 0;
#X connect 4 0 5 0;
#X connect 5 0 1 0;
#X connect 5 1 11 0;
#X connect 6 0 12 0;
#X connect 7 0 0 1;
#X connect 7 0 9 1;
#X connect 8 0 3 1;
#X connect 9 0 2 0;
#X connect 10 0 9 0;
#X connect 11 0 9 0;
#X connect 11 1 0 0;
#X connect 11 2 10 0;
#X restore 166 104 pd adsr;
#X obj 291 99 / 2;
#X obj 291 79 mtof;
#X obj 291 154 *~, f 23;
#X obj 291 46 unpack f f, f 23;
#X obj 291 132 tabosc4~ wf-organ-\$0;
#N canvas 882 280 586 474 adsr 0;
#X obj 229 253 pack f f;
#X obj 160 123 t b b;
#X obj 160 338 f 0;
#X obj 160 360 pack f f;
#X msg 187 144 clear;
#X obj 160 49 inlet;
#X obj 160 72 sel 0, f 12;
#X obj 229 398 line~;
#X obj 250 49 inlet;
#X obj 274 79 inlet;
#X obj 304 109 inlet;
#X obj 394 139 inlet, f 14;
#X obj 304 186 / 100;
#X obj 229 216 *, f 13;
#X obj 229 420 outlet~;
#X obj 229 105 t f b;
#X obj 229 187 pipe, f 9;
#X connect 0 0 7 0;
#X connect 1 0 2 0;
#X connect 1 1 4 0;
#X connect 2 0 3 0;
#X connect 3 0 7 0;
#X connect 4 0 16 0;
#X connect 5 0 6 0;
#X connect 6 0 1 0;
#X connect 6 1 15 0;
#X connect 7 0 14 0;
#X connect 8 0 16 1;
#X connect 9 0 0 1;
#X connect 10 0 12 0;
#X connect 11 0 3 1;
#X connect 12 0 13 1;
#X connect 13 0 0 0;
#X connect 15 0 16 0;
#X connect 16 0 13 0;
#X restore 426 129 pd adsr;
#X obj 31 132 tabosc4~ wf-percussion-\$0;
#X obj 188 46 r \$0-attack-s;
#X obj 211 66 r \$0-decay-s;
#X obj 438 46 r \$0-attack-s;
#X obj 451 66 r \$0-decay-s;
#X obj 464 87 r \$0-sustain-s;
#X obj 477 108 r \$0-release-s;
#X connect 0 0 13 0;
#X connect 1 0 0 0;
#X connect 2 0 4 0;
#X connect 3 0 1 0;
#X connect 3 1 6 0;
#X connect 5 0 3 0;
#X connect 5 0 10 0;
#X connect 6 0 2 1;
#X connect 7 0 11 0;
#X connect 8 0 7 0;
#X connect 9 0 4 0;
#X connect 10 0 8 0;
#X connect 10 1 12 0;
#X connect 11 0 9 0;
#X connect 12 0 9 1;
#X connect 13 0 2 0;
#X connect 14 0 6 1;
#X connect 15 0 6 2;
#X connect 16 0 12 1;
#X connect 17 0 12 2;
#X connect 18 0 12 3;
#X connect 19 0 12 4;
#X restore 876 541 pd synthesizer;
#N canvas 332 289 597 279 synthesizer 0;
#X obj 31 99 / 2;
#X obj 31 79 mtof;
#X obj 31 154 *~, f 23;
#X obj 31 46 unpack f f, f 23;
#X obj 171 226 outlet~;
#X obj 161 13 inlet;
#N canvas 569 347 586 474 adsr 0;
#X obj 229 223 pack f f;
#X obj 160 63 t b b;
#X obj 160 338 f 0;
#X obj 160 360 pack f f;
#X obj 160 19 inlet;
#X obj 160 42 sel 0, f 12;
#X obj 229 398 line~;
#X obj 326 49 inlet;
#X obj 405 49 inlet;
#X obj 186 203 delay;
#X msg 186 144 stop;
#X obj 229 65 t b f b;
#X obj 229 420 outlet~, f 8;
#X connect 0 0 6 0;
#X connect 1 0 2 0;
#X connect 1 1 10 0;
#X connect 2 0 3 0;
#X connect 3 0 6 0;
#X connect 4 0 5 0;
#X connect 5 0 1 0;
#X connect 5 1 11 0;
#X connect 6 0 12 0;
#X connect 7 0 0 1;
#X connect 7 0 9 1;
#X connect 8 0 3 1;
#X connect 9 0 2 0;
#X connect 10 0 9 0;
#X connect 11 0 9 0;
#X connect 11 1 0 0;
#X connect 11 2 10 0;
#X restore 166 104 pd adsr;
#X obj 291 99 / 2;
#X obj 291 79 mtof;
#X obj 291 154 *~, f 23;
#X obj 291 46 unpack f f, f 23;
#X obj 291 132 tabosc4~ wf-organ-\$0;
#N canvas 882 280 586 474 adsr 0;
#X obj 229 253 pack f f;
#X obj 160 123 t b b;
#X obj 160 338 f 0;
#X obj 160 360 pack f f;
#X msg 187 144 clear;
#X obj 160 49 inlet;
#X obj 160 72 sel 0, f 12;
#X obj 229 398 line~;
#X obj 250 49 inlet;
#X obj 274 79 inlet;
#X obj 304 109 inlet;
#X obj 394 139 inlet, f 14;
#X obj 304 186 / 100;
#X obj 229 216 *, f 13;
#X obj 229 420 outlet~;
#X obj 229 105 t f b;
#X obj 229 187 pipe, f 9;
#X connect 0 0 7 0;
#X connect 1 0 2 0;
#X connect 1 1 4 0;
#X connect 2 0 3 0;
#X connect 3 0 7 0;
#X connect 4 0 16 0;
#X connect 5 0 6 0;
#X connect 6 0 1 0;
#X connect 6 1 15 0;
#X connect 7 0 14 0;
#X connect 8 0 16 1;
#X connect 9 0 0 1;
#X connect 10 0 12 0;
#X connect 11 0 3 1;
#X connect 12 0 13 1;
#X connect 13 0 0 0;
#X connect 15 0 16 0;
#X connect 16 0 13 0;
#X restore 426 129 pd adsr;
#X obj 31 132 tabosc4~ wf-percussion-\$0;
#X obj 188 46 r \$0-attack-s;
#X obj 211 66 r \$0-decay-s;
#X obj 438 46 r \$0-attack-s;
#X obj 451 66 r \$0-decay-s;
#X obj 464 87 r \$0-sustain-s;
#X obj 477 108 r \$0-release-s;
#X connect 0 0 13 0;
#X connect 1 0 0 0;
#X connect 2 0 4 0;
#X connect 3 0 1 0;
#X connect 3 1 6 0;
#X connect 5 0 3 0;
#X connect 5 0 10 0;
#X connect 6 0 2 1;
#X connect 7 0 11 0;
#X connect 8 0 7 0;
#X connect 9 0 4 0;
#X connect 10 0 8 0;
#X connect 10 1 12 0;
#X connect 11 0 9 0;
#X connect 12 0 9 1;
#X connect 13 0 2 0;
#X connect 14 0 6 1;
#X connect 15 0 6 2;
#X connect 16 0 12 1;
#X connect 17 0 12 2;
#X connect 18 0 12 3;
#X connect 19 0 12 4;
#X restore 905 561 pd synthesizer;
#N canvas 332 289 597 279 synthesizer 0;
#X obj 31 99 / 2;
#X obj 31 79 mtof;
#X obj 31 154 *~, f 23;
#X obj 31 46 unpack f f, f 23;
#X obj 171 226 outlet~;
#X obj 161 13 inlet;
#N canvas 569 347 586 474 adsr 0;
#X obj 229 223 pack f f;
#X obj 160 63 t b b;
#X obj 160 338 f 0;
#X obj 160 360 pack f f;
#X obj 160 19 inlet;
#X obj 160 42 sel 0, f 12;
#X obj 229 398 line~;
#X obj 326 49 inlet;
#X obj 405 49 inlet;
#X obj 186 203 delay;
#X msg 186 144 stop;
#X obj 229 65 t b f b;
#X obj 229 420 outlet~, f 8;
#X connect 0 0 6 0;
#X connect 1 0 2 0;
#X connect 1 1 10 0;
#X connect 2 0 3 0;
#X connect 3 0 6 0;
#X connect 4 0 5 0;
#X connect 5 0 1 0;
#X connect 5 1 11 0;
#X connect 6 0 12 0;
#X connect 7 0 0 1;
#X connect 7 0 9 1;
#X connect 8 0 3 1;
#X connect 9 0 2 0;
#X connect 10 0 9 0;
#X connect 11 0 9 0;
#X connect 11 1 0 0;
#X connect 11 2 10 0;
#X restore 166 104 pd adsr;
#X obj 291 99 / 2;
#X obj 291 79 mtof;
#X obj 291 154 *~, f 23;
#X obj 291 46 unpack f f, f 23;
#X obj 291 132 tabosc4~ wf-organ-\$0;
#N canvas 882 280 586 474 adsr 0;
#X obj 229 253 pack f f;
#X obj 160 123 t b b;
#X obj 160 338 f 0;
#X obj 160 360 pack f f;
#X msg 187 144 clear;
#X obj 160 49 inlet;
#X obj 160 72 sel 0, f 12;
#X obj 229 398 line~;
#X obj 250 49 inlet;
#X obj 274 79 inlet;
#X obj 304 109 inlet;
#X obj 394 139 inlet, f 14;
#X obj 304 186 / 100;
#X obj 229 216 *, f 13;
#X obj 229 420 outlet~;
#X obj 229 105 t f b;
#X obj 229 187 pipe, f 9;
#X connect 0 0 7 0;
#X connect 1 0 2 0;
#X connect 1 1 4 0;
#X connect 2 0 3 0;
#X connect 3 0 7 0;
#X connect 4 0 16 0;
#X connect 5 0 6 0;
#X connect 6 0 1 0;
#X connect 6 1 15 0;
#X connect 7 0 14 0;
#X connect 8 0 16 1;
#X connect 9 0 0 1;
#X connect 10 0 12 0;
#X connect 11 0 3 1;
#X connect 12 0 13 1;
#X connect 13 0 0 0;
#X connect 15 0 16 0;
#X connect 16 0 13 0;
#X restore 426 129 pd adsr;
#X obj 31 132 tabosc4~ wf-percussion-\$0;
#X obj 188 46 r \$0-attack-s;
#X obj 211 66 r \$0-decay-s;
#X obj 438 46 r \$0-attack-s;
#X obj 451 66 r \$0-decay-s;
#X obj 464 87 r \$0-sustain-s;
#X obj 477 108 r \$0-release-s;
#X connect 0 0 13 0;
#X connect 1 0 0 0;
#X connect 2 0 4 0;
#X connect 3 0 1 0;
#X connect 3 1 6 0;
#X connect 5 0 3 0;
#X connect 5 0 10 0;
#X connect 6 0 2 1;
#X connect 7 0 11 0;
#X connect 8 0 7 0;
#X connect 9 0 4 0;
#X connect 10 0 8 0;
#X connect 10 1 12 0;
#X connect 11 0 9 0;
#X connect 12 0 9 1;
#X connect 13 0 2 0;
#X connect 14 0 6 1;
#X connect 15 0 6 2;
#X connect 16 0 12 1;
#X connect 17 0 12 2;
#X connect 18 0 12 3;
#X connect 19 0 12 4;
#X restore 934 581 pd synthesizer;
#N canvas 332 289 597 279 synthesizer 0;
#X obj 31 99 / 2;
#X obj 31 79 mtof;
#X obj 31 154 *~, f 23;
#X obj 31 46 unpack f f, f 23;
#X obj 171 226 outlet~;
#X obj 161 13 inlet;
#N canvas 569 347 586 474 adsr 0;
#X obj 229 223 pack f f;
#X obj 160 63 t b b;
#X obj 160 338 f 0;
#X obj 160 360 pack f f;
#X obj 160 19 inlet;
#X obj 160 42 sel 0, f 12;
#X obj 229 398 line~;
#X obj 326 49 inlet;
#X obj 405 49 inlet;
#X obj 186 203 delay;
#X msg 186 144 stop;
#X obj 229 65 t b f b;
#X obj 229 420 outlet~, f 8;
#X connect 0 0 6 0;
#X connect 1 0 2 0;
#X connect 1 1 10 0;
#X connect 2 0 3 0;
#X connect 3 0 6 0;
#X connect 4 0 5 0;
#X connect 5 0 1 0;
#X connect 5 1 11 0;
#X connect 6 0 12 0;
#X connect 7 0 0 1;
#X connect 7 0 9 1;
#X connect 8 0 3 1;
#X connect 9 0 2 0;
#X connect 10 0 9 0;
#X connect 11 0 9 0;
#X connect 11 1 0 0;
#X connect 11 2 10 0;
#X restore 166 104 pd adsr;
#X obj 291 99 / 2;
#X obj 291 79 mtof;
#X obj 291 154 *~, f 23;
#X obj 291 46 unpack f f, f 23;
#X obj 291 132 tabosc4~ wf-organ-\$0;
#N canvas 882 280 586 474 adsr 0;
#X obj 229 253 pack f f;
#X obj 160 123 t b b;
#X obj 160 338 f 0;
#X obj 160 360 pack f f;
#X msg 187 144 clear;
#X obj 160 49 inlet;
#X obj 160 72 sel 0, f 12;
#X obj 229 398 line~;
#X obj 250 49 inlet;
#X obj 274 79 inlet;
#X obj 304 109 inlet;
#X obj 394 139 inlet, f 14;
#X obj 304 186 / 100;
#X obj 229 216 *, f 13;
#X obj 229 420 outlet~;
#X obj 229 105 t f b;
#X obj 229 187 pipe, f 9;
#X connect 0 0 7 0;
#X connect 1 0 2 0;
#X connect 1 1 4 0;
#X connect 2 0 3 0;
#X connect 3 0 7 0;
#X connect 4 0 16 0;
#X connect 5 0 6 0;
#X connect 6 0 1 0;
#X connect 6 1 15 0;
#X connect 7 0 14 0;
#X connect 8 0 16 1;
#X connect 9 0 0 1;
#X connect 10 0 12 0;
#X connect 11 0 3 1;
#X connect 12 0 13 1;
#X connect 13 0 0 0;
#X connect 15 0 16 0;
#X connect 16 0 13 0;
#X restore 426 129 pd adsr;
#X obj 31 132 tabosc4~ wf-percussion-\$0;
#X obj 188 46 r \$0-attack-s;
#X obj 211 66 r \$0-decay-s;
#X obj 438 46 r \$0-attack-s;
#X obj 451 66 r \$0-decay-s;
#X obj 464 87 r \$0-sustain-s;
#X obj 477 108 r \$0-release-s;
#X connect 0 0 13 0;
#X connect 1 0 0 0;
#X connect 2 0 4 0;
#X connect 3 0 1 0;
#X connect 3 1 6 0;
#X connect 5 0 3 0;
#X connect 5 0 10 0;
#X connect 6 0 2 1;
#X connect 7 0 11 0;
#X connect 8 0 7 0;
#X connect 9 0 4 0;
#X connect 10 0 8 0;
#X connect 10 1 12 0;
#X connect 11 0 9 0;
#X connect 12 0 9 1;
#X connect 13 0 2 0;
#X connect 14 0 6 1;
#X connect 15 0 6 2;
#X connect 16 0 12 1;
#X connect 17 0 12 2;
#X connect 18 0 12 3;
#X connect 19 0 12 4;
#X restore 962 602 pd synthesizer;
#N canvas 332 289 597 279 synthesizer 0;
#X obj 31 99 / 2;
#X obj 31 79 mtof;
#X obj 31 154 *~, f 23;
#X obj 31 46 unpack f f, f 23;
#X obj 171 226 outlet~;
#X obj 161 13 inlet;
#N canvas 569 347 586 474 adsr 0;
#X obj 229 223 pack f f;
#X obj 160 63 t b b;
#X obj 160 338 f 0;
#X obj 160 360 pack f f;
#X obj 160 19 inlet;
#X obj 160 42 sel 0, f 12;
#X obj 229 398 line~;
#X obj 326 49 inlet;
#X obj 405 49 inlet;
#X obj 186 203 delay;
#X msg 186 144 stop;
#X obj 229 65 t b f b;
#X obj 229 420 outlet~, f 8;
#X connect 0 0 6 0;
#X connect 1 0 2 0;
#X connect 1 1 10 0;
#X connect 2 0 3 0;
#X connect 3 0 6 0;
#X connect 4 0 5 0;
#X connect 5 0 1 0;
#X connect 5 1 11 0;
#X connect 6 0 12 0;
#X connect 7 0 0 1;
#X connect 7 0 9 1;
#X connect 8 0 3 1;
#X connect 9 0 2 0;
#X connect 10 0 9 0;
#X connect 11 0 9 0;
#X connect 11 1 0 0;
#X connect 11 2 10 0;
#X restore 166 104 pd adsr;
#X obj 291 99 / 2;
#X obj 291 79 mtof;
#X obj 291 154 *~, f 23;
#X obj 291 46 unpack f f, f 23;
#X obj 291 132 tabosc4~ wf-organ-\$0;
#N canvas 882 280 586 474 adsr 0;
#X obj 229 253 pack f f;
#X obj 160 123 t b b;
#X obj 160 338 f 0;
#X obj 160 360 pack f f;
#X msg 187 144 clear;
#X obj 160 49 inlet;
#X obj 160 72 sel 0, f 12;
#X obj 229 398 line~;
#X obj 250 49 inlet;
#X obj 274 79 inlet;
#X obj 304 109 inlet;
#X obj 394 139 inlet, f 14;
#X obj 304 186 / 100;
#X obj 229 216 *, f 13;
#X obj 229 420 outlet~;
#X obj 229 105 t f b;
#X obj 229 187 pipe, f 9;
#X connect 0 0 7 0;
#X connect 1 0 2 0;
#X connect 1 1 4 0;
#X connect 2 0 3 0;
#X connect 3 0 7 0;
#X connect 4 0 16 0;
#X connect 5 0 6 0;
#X connect 6 0 1 0;
#X connect 6 1 15 0;
#X connect 7 0 14 0;
#X connect 8 0 16 1;
#X connect 9 0 0 1;
#X connect 10 0 12 0;
#X connect 11 0 3 1;
#X connect 12 0 13 1;
#X connect 13 0 0 0;
#X connect 15 0 16 0;
#X connect 16 0 13 0;
#X restore 426 129 pd adsr;
#X obj 31 132 tabosc4~ wf-percussion-\$0;
#X obj 188 46 r \$0-attack-s;
#X obj 211 66 r \$0-decay-s;
#X obj 438 46 r \$0-attack-s;
#X obj 451 66 r \$0-decay-s;
#X obj 464 87 r \$0-sustain-s;
#X obj 477 108 r \$0-release-s;
#X connect 0 0 13 0;
#X connect 1 0 0 0;
#X connect 2 0 4 0;
#X connect 3 0 1 0;
#X connect 3 1 6 0;
#X connect 5 0 3 0;
#X connect 5 0 10 0;
#X connect 6 0 2 1;
#X connect 7 0 11 0;
#X connect 8 0 7 0;
#X connect 9 0 4 0;
#X connect 10 0 8 0;
#X connect 10 1 12 0;
#X connect 11 0 9 0;
#X connect 12 0 9 1;
#X connect 13 0 2 0;
#X connect 14 0 6 1;
#X connect 15 0 6 2;
#X connect 16 0 12 1;
#X connect 17 0 12 2;
#X connect 18 0 12 3;
#X connect 19 0 12 4;
#X restore 990 521 pd synthesizer;
#N canvas 332 289 597 279 synthesizer 0;
#X obj 31 99 / 2;
#X obj 31 79 mtof;
#X obj 31 154 *~, f 23;
#X obj 31 46 unpack f f, f 23;
#X obj 171 226 outlet~;
#X obj 161 13 inlet;
#N canvas 569 347 586 474 adsr 0;
#X obj 229 223 pack f f;
#X obj 160 63 t b b;
#X obj 160 338 f 0;
#X obj 160 360 pack f f;
#X obj 160 19 inlet;
#X obj 160 42 sel 0, f 12;
#X obj 229 398 line~;
#X obj 326 49 inlet;
#X obj 405 49 inlet;
#X obj 186 203 delay;
#X msg 186 144 stop;
#X obj 229 65 t b f b;
#X obj 229 420 outlet~, f 8;
#X connect 0 0 6 0;
#X connect 1 0 2 0;
#X connect 1 1 10 0;
#X connect 2 0 3 0;
#X connect 3 0 6 0;
#X connect 4 0 5 0;
#X connect 5 0 1 0;
#X connect 5 1 11 0;
#X connect 6 0 12 0;
#X connect 7 0 0 1;
#X connect 7 0 9 1;
#X connect 8 0 3 1;
#X connect 9 0 2 0;
#X connect 10 0 9 0;
#X connect 11 0 9 0;
#X connect 11 1 0 0;
#X connect 11 2 10 0;
#X restore 166 104 pd adsr;
#X obj 291 99 / 2;
#X obj 291 79 mtof;
#X obj 291 154 *~, f 23;
#X obj 291 46 unpack f f, f 23;
#X obj 291 132 tabosc4~ wf-organ-\$0;
#N canvas 882 280 586 474 adsr 0;
#X obj 229 253 pack f f;
#X obj 160 123 t b b;
#X obj 160 338 f 0;
#X obj 160 360 pack f f;
#X msg 187 144 clear;
#X obj 160 49 inlet;
#X obj 160 72 sel 0, f 12;
#X obj 229 398 line~;
#X obj 250 49 inlet;
#X obj 274 79 inlet;
#X obj 304 109 inlet;
#X obj 394 139 inlet, f 14;
#X obj 304 186 / 100;
#X obj 229 216 *, f 13;
#X obj 229 420 outlet~;
#X obj 229 105 t f b;
#X obj 229 187 pipe, f 9;
#X connect 0 0 7 0;
#X connect 1 0 2 0;
#X connect 1 1 4 0;
#X connect 2 0 3 0;
#X connect 3 0 7 0;
#X connect 4 0 16 0;
#X connect 5 0 6 0;
#X connect 6 0 1 0;
#X connect 6 1 15 0;
#X connect 7 0 14 0;
#X connect 8 0 16 1;
#X connect 9 0 0 1;
#X connect 10 0 12 0;
#X connect 11 0 3 1;
#X connect 12 0 13 1;
#X connect 13 0 0 0;
#X connect 15 0 16 0;
#X connect 16 0 13 0;
#X restore 426 129 pd adsr;
#X obj 31 132 tabosc4~ wf-percussion-\$0;
#X obj 188 46 r \$0-attack-s;
#X obj 211 66 r \$0-decay-s;
#X obj 438 46 r \$0-attack-s;
#X obj 451 66 r \$0-decay-s;
#X obj 464 87 r \$0-sustain-s;
#X obj 477 108 r \$0-release-s;
#X connect 0 0 13 0;
#X connect 1 0 0 0;
#X connect 2 0 4 0;
#X connect 3 0 1 0;
#X connect 3 1 6 0;
#X connect 5 0 3 0;
#X connect 5 0 10 0;
#X connect 6 0 2 1;
#X connect 7 0 11 0;
#X connect 8 0 7 0;
#X connect 9 0 4 0;
#X connect 10 0 8 0;
#X connect 10 1 12 0;
#X connect 11 0 9 0;
#X connect 12 0 9 1;
#X connect 13 0 2 0;
#X connect 14 0 6 1;
#X connect 15 0 6 2;
#X connect 16 0 12 1;
#X connect 17 0 12 2;
#X connect 18 0 12 3;
#X connect 19 0 12 4;
#X restore 1019 541 pd synthesizer;
#N canvas 332 289 597 279 synthesizer 0;
#X obj 31 99 / 2;
#X obj 31 79 mtof;
#X obj 31 154 *~, f 23;
#X obj 31 46 unpack f f, f 23;
#X obj 171 226 outlet~;
#X obj 161 13 inlet;
#N canvas 569 347 586 474 adsr 0;
#X obj 229 223 pack f f;
#X obj 160 63 t b b;
#X obj 160 338 f 0;
#X obj 160 360 pack f f;
#X obj 160 19 inlet;
#X obj 160 42 sel 0, f 12;
#X obj 229 398 line~;
#X obj 326 49 inlet;
#X obj 405 49 inlet;
#X obj 186 203 delay;
#X msg 186 144 stop;
#X obj 229 65 t b f b;
#X obj 229 420 outlet~, f 8;
#X connect 0 0 6 0;
#X connect 1 0 2 0;
#X connect 1 1 10 0;
#X connect 2 0 3 0;
#X connect 3 0 6 0;
#X connect 4 0 5 0;
#X connect 5 0 1 0;
#X connect 5 1 11 0;
#X connect 6 0 12 0;
#X connect 7 0 0 1;
#X connect 7 0 9 1;
#X connect 8 0 3 1;
#X connect 9 0 2 0;
#X connect 10 0 9 0;
#X connect 11 0 9 0;
#X connect 11 1 0 0;
#X connect 11 2 10 0;
#X restore 166 104 pd adsr;
#X obj 291 99 / 2;
#X obj 291 79 mtof;
#X obj 291 154 *~, f 23;
#X obj 291 46 unpack f f, f 23;
#X obj 291 132 tabosc4~ wf-organ-\$0;
#N canvas 882 280 586 474 adsr 0;
#X obj 229 253 pack f f;
#X obj 160 123 t b b;
#X obj 160 338 f 0;
#X obj 160 360 pack f f;
#X msg 187 144 clear;
#X obj 160 49 inlet;
#X obj 160 72 sel 0, f 12;
#X obj 229 398 line~;
#X obj 250 49 inlet;
#X obj 274 79 inlet;
#X obj 304 109 inlet;
#X obj 394 139 inlet, f 14;
#X obj 304 186 / 100;
#X obj 229 216 *, f 13;
#X obj 229 420 outlet~;
#X obj 229 105 t f b;
#X obj 229 187 pipe, f 9;
#X connect 0 0 7 0;
#X connect 1 0 2 0;
#X connect 1 1 4 0;
#X connect 2 0 3 0;
#X connect 3 0 7 0;
#X connect 4 0 16 0;
#X connect 5 0 6 0;
#X connect 6 0 1 0;
#X connect 6 1 15 0;
#X connect 7 0 14 0;
#X connect 8 0 16 1;
#X connect 9 0 0 1;
#X connect 10 0 12 0;
#X connect 11 0 3 1;
#X connect 12 0 13 1;
#X connect 13 0 0 0;
#X connect 15 0 16 0;
#X connect 16 0 13 0;
#X restore 426 129 pd adsr;
#X obj 31 132 tabosc4~ wf-percussion-\$0;
#X obj 188 46 r \$0-attack-s;
#X obj 211 66 r \$0-decay-s;
#X obj 438 46 r \$0-attack-s;
#X obj 451 66 r \$0-decay-s;
#X obj 464 87 r \$0-sustain-s;
#X obj 477 108 r \$0-release-s;
#X connect 0 0 13 0;
#X connect 1 0 0 0;
#X connect 2 0 4 0;
#X connect 3 0 1 0;
#X connect 3 1 6 0;
#X connect 5 0 3 0;
#X connect 5 0 10 0;
#X connect 6 0 2 1;
#X connect 7 0 11 0;
#X connect 8 0 7 0;
#X connect 9 0 4 0;
#X connect 10 0 8 0;
#X connect 10 1 12 0;
#X connect 11 0 9 0;
#X connect 12 0 9 1;
#X connect 13 0 2 0;
#X connect 14 0 6 1;
#X connect 15 0 6 2;
#X connect 16 0 12 1;
#X connect 17 0 12 2;
#X connect 18 0 12 3;
#X connect 19 0 12 4;
#X restore 1047 561 pd synthesizer;
#N canvas 332 289 597 279 synthesizer 0;
#X obj 31 99 / 2;
#X obj 31 79 mtof;
#X obj 31 154 *~, f 23;
#X obj 31 46 unpack f f, f 23;
#X obj 171 226 outlet~;
#X obj 161 13 inlet;
#N canvas 569 347 586 474 adsr 0;
#X obj 229 223 pack f f;
#X obj 160 63 t b b;
#X obj 160 338 f 0;
#X obj 160 360 pack f f;
#X obj 160 19 inlet;
#X obj 160 42 sel 0, f 12;
#X obj 229 398 line~;
#X obj 326 49 inlet;
#X obj 405 49 inlet;
#X obj 186 203 delay;
#X msg 186 144 stop;
#X obj 229 65 t b f b;
#X obj 229 420 outlet~, f 8;
#X connect 0 0 6 0;
#X connect 1 0 2 0;
#X connect 1 1 10 0;
#X connect 2 0 3 0;
#X connect 3 0 6 0;
#X connect 4 0 5 0;
#X connect 5 0 1 0;
#X connect 5 1 11 0;
#X connect 6 0 12 0;
#X connect 7 0 0 1;
#X connect 7 0 9 1;
#X connect 8 0 3 1;
#X connect 9 0 2 0;
#X connect 10 0 9 0;
#X connect 11 0 9 0;
#X connect 11 1 0 0;
#X connect 11 2 10 0;
#X restore 166 104 pd adsr;
#X obj 291 99 / 2;
#X obj 291 79 mtof;
#X obj 291 154 *~, f 23;
#X obj 291 46 unpack f f, f 23;
#X obj 291 132 tabosc4~ wf-organ-\$0;
#N canvas 882 280 586 474 adsr 0;
#X obj 229 253 pack f f;
#X obj 160 123 t b b;
#X obj 160 338 f 0;
#X obj 160 360 pack f f;
#X msg 187 144 clear;
#X obj 160 49 inlet;
#X obj 160 72 sel 0, f 12;
#X obj 229 398 line~;
#X obj 250 49 inlet;
#X obj 274 79 inlet;
#X obj 304 109 inlet;
#X obj 394 139 inlet, f 14;
#X obj 304 186 / 100;
#X obj 229 216 *, f 13;
#X obj 229 420 outlet~;
#X obj 229 105 t f b;
#X obj 229 187 pipe, f 9;
#X connect 0 0 7 0;
#X connect 1 0 2 0;
#X connect 1 1 4 0;
#X connect 2 0 3 0;
#X connect 3 0 7 0;
#X connect 4 0 16 0;
#X connect 5 0 6 0;
#X connect 6 0 1 0;
#X connect 6 1 15 0;
#X connect 7 0 14 0;
#X connect 8 0 16 1;
#X connect 9 0 0 1;
#X connect 10 0 12 0;
#X connect 11 0 3 1;
#X connect 12 0 13 1;
#X connect 13 0 0 0;
#X connect 15 0 16 0;
#X connect 16 0 13 0;
#X restore 426 129 pd adsr;
#X obj 31 132 tabosc4~ wf-percussion-\$0;
#X obj 188 46 r \$0-attack-s;
#X obj 211 66 r \$0-decay-s;
#X obj 438 46 r \$0-attack-s;
#X obj 451 66 r \$0-decay-s;
#X obj 464 87 r \$0-sustain-s;
#X obj 477 108 r \$0-release-s;
#X connect 0 0 13 0;
#X connect 1 0 0 0;
#X connect 2 0 4 0;
#X connect 3 0 1 0;
#X connect 3 1 6 0;
#X connect 5 0 3 0;
#X connect 5 0 10 0;
#X connect 6 0 2 1;
#X connect 7 0 11 0;
#X connect 8 0 7 0;
#X connect 9 0 4 0;
#X connect 10 0 8 0;
#X connect 10 1 12 0;
#X connect 11 0 9 0;
#X connect 12 0 9 1;
#X connect 13 0 2 0;
#X connect 14 0 6 1;
#X connect 15 0 6 2;
#X connect 16 0 12 1;
#X connect 17 0 12 2;
#X connect 18 0 12 3;
#X connect 19 0 12 4;
#X restore 1076 581 pd synthesizer;
#N canvas 332 289 597 279 synthesizer 0;
#X obj 31 99 / 2;
#X obj 31 79 mtof;
#X obj 31 154 *~, f 23;
#X obj 31 46 unpack f f, f 23;
#X obj 171 226 outlet~;
#X obj 161 13 inlet;
#N canvas 569 347 586 474 adsr 0;
#X obj 229 223 pack f f;
#X obj 160 63 t b b;
#X obj 160 338 f 0;
#X obj 160 360 pack f f;
#X obj 160 19 inlet;
#X obj 160 42 sel 0, f 12;
#X obj 229 398 line~;
#X obj 326 49 inlet;
#X obj 405 49 inlet;
#X obj 186 203 delay;
#X msg 186 144 stop;
#X obj 229 65 t b f b;
#X obj 229 420 outlet~, f 8;
#X connect 0 0 6 0;
#X connect 1 0 2 0;
#X connect 1 1 10 0;
#X connect 2 0 3 0;
#X connect 3 0 6 0;
#X connect 4 0 5 0;
#X connect 5 0 1 0;
#X connect 5 1 11 0;
#X connect 6 0 12 0;
#X connect 7 0 0 1;
#X connect 7 0 9 1;
#X connect 8 0 3 1;
#X connect 9 0 2 0;
#X connect 10 0 9 0;
#X connect 11 0 9 0;
#X connect 11 1 0 0;
#X connect 11 2 10 0;
#X restore 166 104 pd adsr;
#X obj 291 99 / 2;
#X obj 291 79 mtof;
#X obj 291 154 *~, f 23;
#X obj 291 46 unpack f f, f 23;
#X obj 291 132 tabosc4~ wf-organ-\$0;
#N canvas 882 280 586 474 adsr 0;
#X obj 229 253 pack f f;
#X obj 160 123 t b b;
#X obj 160 338 f 0;
#X obj 160 360 pack f f;
#X msg 187 144 clear;
#X obj 160 49 inlet;
#X obj 160 72 sel 0, f 12;
#X obj 229 398 line~;
#X obj 250 49 inlet;
#X obj 274 79 inlet;
#X obj 304 109 inlet;
#X obj 394 139 inlet, f 14;
#X obj 304 186 / 100;
#X obj 229 216 *, f 13;
#X obj 229 420 outlet~;
#X obj 229 105 t f b;
#X obj 229 187 pipe, f 9;
#X connect 0 0 7 0;
#X connect 1 0 2 0;
#X connect 1 1 4 0;
#X connect 2 0 3 0;
#X connect 3 0 7 0;
#X connect 4 0 16 0;
#X connect 5 0 6 0;
#X connect 6 0 1 0;
#X connect 6 1 15 0;
#X connect 7 0 14 0;
#X connect 8 0 16 1;
#X connect 9 0 0 1;
#X connect 10 0 12 0;
#X connect 11 0 3 1;
#X connect 12 0 13 1;
#X connect 13 0 0 0;
#X connect 15 0 16 0;
#X connect 16 0 13 0;
#X restore 426 129 pd adsr;
#X obj 31 132 tabosc4~ wf-percussion-\$0;
#X obj 188 46 r \$0-attack-s;
#X obj 211 66 r \$0-decay-s;
#X obj 438 46 r \$0-attack-s;
#X obj 451 66 r \$0-decay-s;
#X obj 464 87 r \$0-sustain-s;
#X obj 477 108 r \$0-release-s;
#X connect 0 0 13 0;
#X connect 1 0 0 0;
#X connect 2 0 4 0;
#X connect 3 0 1 0;
#X connect 3 1 6 0;
#X connect 5 0 3 0;
#X connect 5 0 10 0;
#X connect 6 0 2 1;
#X connect 7 0 11 0;
#X connect 8 0 7 0;
#X connect 9 0 4 0;
#X connect 10 0 8 0;
#X connect 10 1 12 0;
#X connect 11 0 9 0;
#X connect 12 0 9 1;
#X connect 13 0 2 0;
#X connect 14 0 6 1;
#X connect 15 0 6 2;
#X connect 16 0 12 1;
#X connect 17 0 12 2;
#X connect 18 0 12 3;
#X connect 19 0 12 4;
#X restore 1104 601 pd synthesizer;
#X obj 848 500 route 1 2 3 4 5 6 7 8 9 10, f 48;
#X obj 972 684 +~;
#X obj 848 403 notein, f 22;
#X obj 848 474 pack f f f, f 11;
#X obj 912 429 / 127;
#X obj 848 452 poly 10 1, f 11;
#N canvas 0 23 1044 795 wf 0;
#X obj 16 13 r \$0-harmonic-organ-1-s;
#X obj 56 75 t b f;
#X obj 84 148 t b f;
#X obj 112 233 t b f;
#X obj 139 316 t b f;
#X obj 112 191 r \$0-harmonic-organ-4-s;
#X obj 139 274 r \$0-harmonic-organ-5-s;
#X obj 66 33 r \$0-harmonic-organ-3-s;
#X obj 124 116 r \$0-harmonic-organ-2-s;
#X obj 167 412 t b f;
#X obj 195 507 t b f;
#X obj 222 592 t b f;
#X obj 56 710 pack 0 0 0 0 0 0 0 0 0 0, f 42;
#X obj 278 677 t b f;
#X obj 167 360 r \$0-harmonic-organ-6-s;
#X obj 195 455 r \$0-harmonic-organ-7-s;
#X obj 222 550 r \$0-harmonic-organ-8-s;
#X obj 278 635 r \$0-harmonic-organ-9-s;
#X obj 56 732 list prepend cosinesum 2048 0;
#X obj 16 55 / 100;
#X obj 83 97 / 100;
#X msg 56 798 normalize 1;
#X obj 56 754 list trim;
#X obj 56 776 t b a;
#X obj 111 170 / 100;
#X obj 139 255 / 100;
#X obj 166 338 / 100;
#X obj 194 434 / 100;
#X obj 222 529 / 100;
#X obj 249 614 / 100;
#X obj 305 699 / 100;
#X obj 792 41 array define wf-organ-\$0 2051;
#X obj 56 825 s wf-organ-\$0;
#X obj 466 85 t b f;
#X obj 494 148 t b f;
#X obj 522 233 t b f;
#X obj 549 316 t b f;
#X obj 577 402 t b f;
#X obj 605 487 t b f;
#X obj 632 572 t b f;
#X obj 466 700 pack 0 0 0 0 0 0 0 0 0 0, f 42;
#X obj 688 657 t b f;
#X obj 466 722 list prepend cosinesum 2048 0;
#X obj 426 65 / 100;
#X obj 493 107 / 100;
#X msg 466 788 normalize 1;
#X obj 466 744 list trim;
#X obj 466 766 t b a;
#X obj 521 170 / 100;
#X obj 549 255 / 100;
#X obj 576 338 / 100;
#X obj 604 424 / 100;
#X obj 632 509 / 100;
#X obj 659 594 / 100;
#X obj 715 679 / 100;
#X obj 792 71 array define wf-percussion-\$0 2051;
#X obj 426 13 r \$0-harmonic-percussive-1-s;
#X obj 466 43 r \$0-harmonic-percussive-3-s;
#X obj 544 106 r \$0-harmonic-percussive-2-s;
#X obj 522 190 r \$0-harmonic-percussive-4-s;
#X obj 549 274 r \$0-harmonic-percussive-5-s;
#X obj 577 360 r \$0-harmonic-percussive-6-s;
#X obj 605 445 r \$0-harmonic-percussive-7-s;
#X obj 642 530 r \$0-harmonic-percussive-8-s;
#X obj 688 615 r \$0-harmonic-percussive-9-s;
#X obj 466 815 s wf-percussion-\$0;
#X obj 426 35 change;
#X obj 688 637 change;
#X obj 632 552 change;
#X obj 605 467 change;
#X obj 577 382 change;
#X obj 549 296 change;
#X obj 522 213 change;
#X obj 544 128 change;
#X obj 466 65 change;
#X obj 16 35 change;
#X obj 278 657 change;
#X obj 222 572 change;
#X obj 195 477 change;
#X obj 167 382 change;
#X obj 139 296 change;
#X obj 112 213 change;
#X obj 124 138 change;
#X obj 66 55 change;
#X connect 0 0 75 0;
#X connect 1 0 12 0;
#X connect 1 1 20 0;
#X connect 2 0 12 0;
#X connect 2 1 24 0;
#X connect 3 0 12 0;
#X connect 3 1 25 0;
#X connect 4 0 12 0;
#X connect 4 1 26 0;
#X connect 5 0 81 0;
#X connect 6 0 80 0;
#X connect 7 0 83 0;
#X connect 8 0 82 0;
#X connect 9 0 12 0;
#X connect 9 1 27 0;
#X connect 10 0 12 0;
#X connect 10 1 28 0;
#X connect 11 0 12 0;
#X connect 11 1 29 0;
#X connect 12 0 18 0;
#X connect 13 0 12 0;
#X connect 13 1 30 0;
#X connect 14 0 79 0;
#X connect 15 0 78 0;
#X connect 16 0 77 0;
#X connect 17 0 76 0;
#X connect 18 0 22 0;
#X connect 19 0 12 0;
#X connect 20 0 12 1;
#X connect 21 0 32 0;
#X connect 22 0 23 0;
#X connect 23 0 21 0;
#X connect 23 1 32 0;
#X connect 24 0 12 2;
#X connect 25 0 12 3;
#X connect 26 0 12 4;
#X connect 27 0 12 5;
#X connect 28 0 12 6;
#X connect 29 0 12 7;
#X connect 30 0 12 9;
#X connect 33 0 40 0;
#X connect 33 1 44 0;
#X connect 34 0 40 0;
#X connect 34 1 48 0;
#X connect 35 0 40 0;
#X connect 35 1 49 0;
#X connect 36 0 40 0;
#X connect 36 1 50 0;
#X connect 37 0 40 0;
#X connect 37 1 51 0;
#X connect 38 0 40 0;
#X connect 38 1 52 0;
#X connect 39 0 40 0;
#X connect 39 1 53 0;
#X connect 40 0 42 0;
#X connect 41 0 40 0;
#X connect 41 1 54 0;
#X connect 42 0 46 0;
#X connect 43 0 40 0;
#X connect 44 0 40 1;
#X connect 45 0 65 0;
#X connect 46 0 47 0;
#X connect 47 0 45 0;
#X connect 47 1 65 0;
#X connect 48 0 40 2;
#X connect 49 0 40 3;
#X connect 50 0 40 4;
#X connect 51 0 40 5;
#X connect 52 0 40 6;
#X connect 53 0 40 7;
#X connect 54 0 40 9;
#X connect 56 0 66 0;
#X connect 57 0 74 0;
#X connect 58 0 73 0;
#X connect 59 0 72 0;
#X connect 60 0 71 0;
#X connect 61 0 70 0;
#X connect 62 0 69 0;
#X connect 63 0 68 0;
#X connect 64 0 67 0;
#X connect 66 0 43 0;
#X connect 67 0 41 0;
#X connect 68 0 39 0;
#X connect 69 0 38 0;
#X connect 70 0 37 0;
#X connect 71 0 36 0;
#X connect 72 0 35 0;
#X connect 73 0 34 0;
#X connect 74 0 33 0;
#X connect 75 0 19 0;
#X connect 76 0 13 0;
#X connect 77 0 11 0;
#X connect 78 0 10 0;
#X connect 79 0 9 0;
#X connect 80 0 4 0;
#X connect 81 0 3 0;
#X connect 82 0 2 0;
#X connect 83 0 1 0;
#X restore 1120 429 pd wf;
#X obj 775 605 clone -s 1 12 voice~;
#X connect 29 0 94 0;
#X connect 91 0 92 0;
#X connect 92 0 93 0;
#X connect 94 0 121 0;
#X connect 95 0 94 1;
#X connect 120 0 123 0;
#X connect 121 0 128 0;
#X connect 121 1 128 1;
#X connect 122 0 121 1;
#X connect 123 0 124 0;
#X connect 125 0 127 0;
#X connect 127 0 126 0;
#X connect 128 0 30 0;
#X connect 128 1 30 1;
#X connect 129 0 128 2;
#X connect 130 0 141 0;
#X connect 130 0 141 1;
#X connect 131 0 141 0;
#X connect 131 0 141 1;
#X connect 132 0 141 0;
#X connect 132 0 141 1;
#X connect 133 0 141 0;
#X connect 133 0 141 1;
#X connect 134 0 141 0;
#X connect 134 0 141 1;
#X connect 135 0 141 0;
#X connect 135 0 141 1;
#X connect 136 0 141 0;
#X connect 136 0 141 1;
#X connect 137 0 141 0;
#X connect 137 0 141 1;
#X connect 138 0 141 0;
#X connect 138 0 141 1;
#X connect 139 0 141 0;
#X connect 139 0 141 1;
#X connect 140 0 130 0;
#X connect 140 1 131 0;
#X connect 140 2 132 0;
#X connect 140 3 133 0;
#X connect 140 4 134 0;
#X connect 140 5 135 0;
#X connect 140 6 136 0;
#X connect 140 7 137 0;
#X connect 140 8 138 0;
#X connect 140 9 139 0;
#X connect 142 0 145 0;
#X connect 142 1 144 0;
#X connect 143 0 140 0;
#X connect 144 0 145 1;
#X connect 145 0 143 0;
#X connect 145 1 143 1;
#X connect 145 2 143 2;
#X coords 0 -1 1 1 780 320 2 5 5;
