#N canvas 241 183 473 142 10;
#X obj 11 33 change;
#X obj 11 54 t b f;
#X obj 38 75 / 100;
#X obj 38 98 array set \$3;
#X obj 72 12 loadbang;
#X obj 72 54 - 1;
#X obj 11 119 outlet;
#X obj 11 12 r \$2-\$1;
#X obj 72 33 f \$1;
#X connect 0 0 1 0;
#X connect 1 0 6 0;
#X connect 1 1 2 0;
#X connect 2 0 3 0;
#X connect 4 0 8 0;
#X connect 5 0 3 1;
#X connect 7 0 0 0;
#X connect 8 0 5 0;
