#N canvas 508 186 382 306 10;
#X obj 59 19 ctlin \$1;
#X msg 87 219 set \$1;
#X obj 78 191 / 1;
#X text 155 21 \$1 - MIDI ctrl voice number;
#X obj 59 40 t b f b;
#X obj 98 85 pack f \$2;
#X msg 98 106 param change \$2 \$1;
#X obj 98 127 s camomile;
#X msg 98 61 1;
#X msg 59 61 0;
#X obj 107 243 s \$3-sld-r;
#X obj 87 263 s \$3-nbx-r;
#X obj 78 285 s \$3;
#X text 155 37 \$2 - Parameter voice number;
#X text 155 53 \$3 - Parameter name & GUI;
#X obj 30 126 loadbang;
#X obj 30 167 moses 1e-07;
#X obj 30 147 f \$4;
#X connect 0 0 4 0;
#X connect 1 0 10 0;
#X connect 1 0 11 0;
#X connect 2 0 1 0;
#X connect 2 0 12 0;
#X connect 4 0 9 0;
#X connect 4 1 2 0;
#X connect 4 2 8 0;
#X connect 5 0 6 0;
#X connect 6 0 7 0;
#X connect 8 0 5 0;
#X connect 9 0 5 0;
#X connect 15 0 17 0;
#X connect 16 1 2 1;
#X connect 17 0 16 0;
