#N canvas 272 140 661 324 10;
#X obj 31 129 / 2;
#X obj 31 109 mtof;
#X obj 31 184 *~, f 23;
#X obj 31 76 unpack f f, f 23;
#X obj 31 256 outlet~;
#X obj 291 129 / 2;
#X obj 291 109 mtof;
#X obj 291 184 *~, f 23;
#X obj 291 76 unpack f f, f 23;
#X obj 291 162 tabosc4~ wf-organ-\$0;
#N canvas 562 210 266 396 adsr 1;
#X obj 89 193 pack f f;
#X obj 20 63 t b b;
#X obj 20 228 f 0;
#X obj 20 250 pack f f;
#X msg 47 84 clear;
#X obj 20 19 inlet;
#X obj 20 42 sel 0, f 12;
#X obj 20 288 line~;
#X obj 164 123 / 100;
#X obj 89 147 *, f 13;
#X obj 20 310 outlet~;
#X obj 89 63 t f b;
#X obj 89 127 pipe, f 9;
#X obj 65 226 r \$0-release;
#X obj 164 102 r \$0-sustain;
#X obj 134 171 r \$0-decay;
#X obj 140 79 r \$0-attack;
#X connect 0 0 7 0;
#X connect 1 0 2 0;
#X connect 1 1 4 0;
#X connect 2 0 3 0;
#X connect 3 0 7 0;
#X connect 4 0 12 0;
#X connect 5 0 6 0;
#X connect 6 0 1 0;
#X connect 6 1 11 0;
#X connect 7 0 10 0;
#X connect 8 0 9 1;
#X connect 9 0 0 0;
#X connect 11 0 12 0;
#X connect 12 0 9 0;
#X connect 13 0 3 1;
#X connect 14 0 8 0;
#X connect 15 0 0 1;
#X connect 16 0 12 1;
#X restore 426 159 pd adsr;
#X obj 31 162 tabosc4~ wf-percussion-\$0;
#X obj 31 43 route \$1;
#X obj 31 20 inlet;
#X obj 111 20 inlet;
#X obj 435 76 r \$0-attack;
#X obj 445 96 r \$0-decay;
#X obj 455 117 r \$0-sustain;
#X obj 465 138 r \$0-release;
#N canvas 569 347 281 302 ar 0;
#X obj 116 146 pack f f;
#X obj 28 56 t b b;
#X obj 28 181 f 0;
#X obj 28 203 pack f f;
#X obj 28 12 inlet;
#X obj 28 35 sel 0, f 12;
#X obj 28 231 line~;
#X obj 54 146 delay;
#X msg 55 107 stop;
#X obj 97 58 t b f b;
#X obj 28 253 outlet~, f 8;
#X obj 161 102 r \$0-attack;
#X obj 73 181 r \$0-decay;
#X connect 0 0 6 0;
#X connect 1 0 2 0;
#X connect 1 1 8 0;
#X connect 2 0 3 0;
#X connect 3 0 6 0;
#X connect 4 0 5 0;
#X connect 5 0 1 0;
#X connect 5 1 9 0;
#X connect 6 0 10 0;
#X connect 7 0 2 0;
#X connect 8 0 7 0;
#X connect 9 0 7 0;
#X connect 9 1 0 0;
#X connect 9 2 8 0;
#X connect 11 0 0 1;
#X connect 11 0 7 1;
#X connect 12 0 3 1;
#X restore 166 134 pd ar;
#X obj 111 41 s \$0-attack;
#X connect 0 0 11 0;
#X connect 1 0 0 0;
#X connect 2 0 4 0;
#X connect 3 0 1 0;
#X connect 3 1 19 0;
#X connect 5 0 9 0;
#X connect 6 0 5 0;
#X connect 7 0 4 0;
#X connect 8 0 6 0;
#X connect 8 1 10 0;
#X connect 9 0 7 0;
#X connect 10 0 7 1;
#X connect 11 0 2 0;
#X connect 12 0 3 0;
#X connect 12 0 8 0;
#X connect 13 0 12 0;
#X connect 14 0 20 0;
#X connect 19 0 2 1;
