#N canvas 129 23 175 164 10;
#X obj 26 80 until;
#X obj 26 102 f, f 8;
#X obj 85 103 + 1;
#X obj 71 80 f 0;
#X obj 26 17 inlet;
#X obj 26 124 outlet;
#X obj 26 59 t f b, f 8;
#X obj 26 38 f \$1;
#X connect 0 0 1 0;
#X connect 1 0 2 0;
#X connect 1 0 5 0;
#X connect 2 0 1 1;
#X connect 3 0 1 1;
#X connect 4 0 7 0;
#X connect 6 0 0 0;
#X connect 6 1 3 0;
#X connect 7 0 6 0;
