#N canvas 93 94 707 537 10;
#N canvas 494 152 450 300 counter 0;
#X obj 36 91 until;
#X obj 36 113 f;
#X obj 68 114 + 1;
#X obj 36 69 f 2048;
#X obj 81 69 f 0;
#X obj 36 24 inlet;
#X obj 36 46 t b b, f 8;
#X obj 36 135 outlet;
#X connect 0 0 1 0;
#X connect 1 0 2 0;
#X connect 1 0 7 0;
#X connect 2 0 1 1;
#X connect 3 0 0 0;
#X connect 4 0 1 1;
#X connect 5 0 6 0;
#X connect 6 0 3 0;
#X connect 6 1 4 0;
#X restore 23 123 pd counter;
#N canvas 325 350 450 300 gen-tri 0;
#X obj 51 10 inlet;
#X obj 51 32 t f f, f 9;
#X obj 51 265 pack, f 9;
#X obj 51 287 outlet;
#X obj 51 54 moses 1024;
#X obj 51 172 / 511.5;
#X obj 51 214 - 1;
#X obj 108 100 t b f;
#X obj 108 144 -, f 5;
#X obj 108 122 f 1023;
#X obj 108 78 - 1024;
#X obj 51 236 * 10;
#X connect 0 0 1 0;
#X connect 1 0 4 0;
#X connect 1 1 2 1;
#X connect 2 0 3 0;
#X connect 4 0 5 0;
#X connect 4 1 10 0;
#X connect 5 0 6 0;
#X connect 6 0 11 0;
#X connect 7 0 9 0;
#X connect 7 1 8 1;
#X connect 8 0 5 0;
#X connect 9 0 8 0;
#X connect 10 0 7 0;
#X connect 11 0 2 0;
#X restore 83 144 pd gen-tri;
#N canvas 927 219 458 534 gen-saw-tri 0;
#X obj 51 10 inlet;
#X obj 51 32 t f f, f 9;
#X obj 51 435 pack, f 9;
#X obj 51 457 outlet;
#X obj 51 54 moses 1024;
#X obj 51 172 / 511.5;
#X obj 108 100 t b f;
#X obj 108 144 -, f 5;
#X obj 108 122 f 1023;
#X obj 108 78 - 1024;
#X obj 108 166 / 1023;
#X obj 51 354 - 1;
#X connect 0 0 1 0;
#X connect 1 0 4 0;
#X connect 1 1 2 1;
#X connect 2 0 3 0;
#X connect 4 0 5 0;
#X connect 4 1 9 0;
#X connect 5 0 11 0;
#X connect 6 0 8 0;
#X connect 6 1 7 1;
#X connect 7 0 10 0;
#X connect 8 0 7 0;
#X connect 9 0 6 0;
#X connect 10 0 11 0;
#X connect 11 0 2 0;
#X restore 73 186 pd gen-saw-tri;
#N canvas 946 390 450 300 gen-saw 0;
#X obj 51 10 inlet;
#X obj 51 32 t f f, f 9;
#X obj 51 255 pack, f 9;
#X obj 51 277 outlet;
#X obj 51 194 - 1;
#X obj 51 112 / 1024;
#X obj 51 220 / 3;
#X connect 0 0 1 0;
#X connect 1 0 5 0;
#X connect 1 1 2 1;
#X connect 2 0 3 0;
#X connect 4 0 6 0;
#X connect 5 0 4 0;
#X connect 6 0 2 0;
#X restore 63 227 pd gen-saw;
#N canvas 687 263 450 300 gen-sqr 0;
#X obj 51 10 inlet;
#X obj 51 32 t f f, f 9;
#X obj 51 215 pack, f 9;
#X obj 51 237 outlet;
#X obj 51 54 moses 1024;
#X msg 51 76 2;
#X msg 108 76 0;
#X obj 51 142 - 1;
#X obj 51 193 / 5;
#X connect 0 0 1 0;
#X connect 1 0 4 0;
#X connect 1 1 2 1;
#X connect 2 0 3 0;
#X connect 4 0 5 0;
#X connect 4 1 6 0;
#X connect 5 0 7 0;
#X connect 6 0 7 0;
#X connect 7 0 8 0;
#X connect 8 0 2 0;
#X restore 53 268 pd gen-sqr;
#N canvas 687 263 450 300 gen-wrect 0;
#X obj 51 10 inlet;
#X obj 51 32 t f f, f 9;
#X obj 51 215 pack, f 9;
#X obj 51 237 outlet;
#X obj 51 54 moses 1536;
#X msg 51 76 2;
#X msg 108 76 0;
#X obj 51 171 - 1;
#X obj 51 193 / 5;
#X connect 0 0 1 0;
#X connect 1 0 4 0;
#X connect 1 1 2 1;
#X connect 2 0 3 0;
#X connect 4 0 5 0;
#X connect 4 1 6 0;
#X connect 5 0 7 0;
#X connect 6 0 7 0;
#X connect 7 0 8 0;
#X connect 8 0 2 0;
#X restore 43 309 pd gen-wrect;
#N canvas 687 263 450 300 gen-nrect 0;
#X obj 51 10 inlet;
#X obj 51 32 t f f, f 9;
#X obj 51 215 pack, f 9;
#X obj 51 237 outlet;
#X obj 51 54 moses 512;
#X obj 51 171 - 1;
#X msg 108 76 0;
#X msg 51 76 2;
#X obj 51 193 / 5;
#X connect 0 0 1 0;
#X connect 1 0 4 0;
#X connect 1 1 2 1;
#X connect 2 0 3 0;
#X connect 4 0 7 0;
#X connect 4 1 6 0;
#X connect 5 0 8 0;
#X connect 6 0 5 0;
#X connect 7 0 5 0;
#X connect 8 0 2 0;
#X restore 33 350 pd gen-nrect;
#N canvas 309 200 450 300 gen-rsaw 0;
#X obj 51 10 inlet;
#X obj 51 32 t f f, f 9;
#X obj 51 255 pack, f 9;
#X obj 51 277 outlet;
#X obj 51 54 / 1024;
#X obj 51 171 - 1;
#X obj 51 195 * -1;
#X obj 51 231 / 3;
#X connect 0 0 1 0;
#X connect 1 0 4 0;
#X connect 1 1 2 1;
#X connect 2 0 3 0;
#X connect 4 0 5 0;
#X connect 5 0 6 0;
#X connect 6 0 7 0;
#X connect 7 0 2 0;
#X restore 23 391 pd gen-rsaw;
#X obj 83 167 tabwrite wf-\$0-0;
#X obj 73 208 tabwrite wf-\$0-1;
#X obj 63 249 tabwrite wf-\$0-2;
#X obj 53 290 tabwrite wf-\$0-3;
#X obj 43 331 tabwrite wf-\$0-4;
#X obj 33 372 tabwrite wf-\$0-5;
#X obj 23 413 tabwrite wf-\$0-6;
#N canvas 494 152 450 300 counter 0;
#X obj 36 91 until;
#X obj 36 113 f;
#X obj 68 114 + 1;
#X obj 81 69 f 0;
#X obj 36 24 inlet;
#X obj 36 46 t b b, f 8;
#X obj 36 135 outlet;
#X obj 36 69 f 7;
#X connect 0 0 1 0;
#X connect 1 0 2 0;
#X connect 1 0 6 0;
#X connect 2 0 1 1;
#X connect 3 0 1 1;
#X connect 4 0 5 0;
#X connect 5 0 7 0;
#X connect 5 1 3 0;
#X connect 7 0 0 0;
#X restore 266 279 pd counter;
#X obj 300 226 bng 15 250 50 0 empty empty empty 17 7 0 10 -262144
-1 -1;
#X obj 266 301 t b f;
#X obj 362 332 makefilename wf-\$0-%d;
#X obj 266 434 s;
#X obj 23 97 bng 15 250 50 0 empty empty empty 17 7 0 10 -262144 -1
-1;
#X msg 266 330 normalize 0.7;
#X obj 26 68 counter 2048;
#X obj 29 35 t b b b b;
#X obj 152 83 triangular \$1-0;
#X obj 171 60 bng 15 250 50 0 empty empty empty 17 7 0 10 -262144 -1
-1;
#X connect 0 0 1 0;
#X connect 0 0 2 0;
#X connect 0 0 3 0;
#X connect 0 0 4 0;
#X connect 0 0 5 0;
#X connect 0 0 6 0;
#X connect 0 0 7 0;
#X connect 1 0 8 0;
#X connect 2 0 9 0;
#X connect 3 0 10 0;
#X connect 4 0 11 0;
#X connect 5 0 12 0;
#X connect 6 0 13 0;
#X connect 7 0 14 0;
#X connect 15 0 17 0;
#X connect 16 0 15 0;
#X connect 17 0 21 0;
#X connect 17 1 18 0;
#X connect 18 0 19 1;
#X connect 20 0 0 0;
#X connect 21 0 19 0;
#X connect 25 0 24 0;
