#N canvas 508 186 353 195 10;
#X obj 11 45 text get \$0-wf-options;
#X obj 11 66 list trim;
#X obj 11 87 symbol;
#X obj 158 45 text search \$0-wf-options;
#X obj 158 66 route -1;
#X obj 158 87 f 0, f 10;
#X msg 158 128 set \$1;
#X obj 11 23 r \$1-hr-s;
#X obj 11 108 s \$1-sym-r;
#X obj 158 24 r \$1-sym-s;
#X obj 215 66 r \$1-hr-s;
#X obj 158 148 s \$1-sym-r;
#X obj 11 170 text define -k \$0-wf-options;
#A set Triangular \; Sawtooth-Tri \; Sawtooth \; Square \; Wide-Rect
\; Narrow-Rect \; Reverse-Saw \;;
#X obj 158 108 text get \$0-wf-options;
#X connect 0 0 1 0;
#X connect 1 0 2 0;
#X connect 2 0 8 0;
#X connect 3 0 4 0;
#X connect 4 0 5 0;
#X connect 5 0 13 0;
#X connect 6 0 11 0;
#X connect 7 0 0 0;
#X connect 9 0 3 0;
#X connect 10 0 5 1;
#X connect 13 0 6 0;
