#N canvas 661 295 156 342 10;
#X obj 22 80 counter 2048;
#X obj 22 19 inlet;
#X obj 22 60 t f f, f 7;
#X obj 22 121 - 1;
#X obj 22 101 t f f;
#X obj 49 121 s \$0-i;
#X obj 56 281 r \$0-i;
#X obj 61 101 - 3;
#X obj 22 40 array size \$1;
#X obj 22 303 array set \$1;
#X obj 61 141 / 2;
#X obj 22 183 /;
#X obj 22 162 moses, f 7;
#X obj 22 142 mod, f 4;
#X obj 61 183 /;
#X obj 61 204 t b f;
#X obj 61 246 -, f 5;
#X obj 61 225 f 2;
#X connect 0 0 4 0;
#X connect 1 0 8 0;
#X connect 2 0 0 0;
#X connect 2 1 7 0;
#X connect 3 0 13 0;
#X connect 4 0 3 0;
#X connect 4 1 5 0;
#X connect 6 0 9 1;
#X connect 7 0 10 0;
#X connect 7 0 13 1;
#X connect 8 0 2 0;
#X connect 10 0 11 1;
#X connect 10 0 12 1;
#X connect 10 0 14 1;
#X connect 11 0 9 0;
#X connect 12 0 11 0;
#X connect 12 1 14 0;
#X connect 13 0 12 0;
#X connect 14 0 15 0;
#X connect 15 0 17 0;
#X connect 15 1 16 1;
#X connect 16 0 9 0;
#X connect 17 0 16 0;
