#N canvas 233 83 570 392 10;
#X obj 34 190 delwrite~ \$0-del-1 22000;
#X obj 36 86 hsl 180 15 0 10000 0 0 \$0-window-size-s \$0-window-size-r
empty -2 -8 0 10 -262144 -1 -1 0 1;
#X obj 34 264 line~;
#X obj 87 166 delwrite~ \$0-del-2 22000;
#X text 103 22 Eviv Bulgroz !;
#X text 45 42 Eht tseb tceffe ni eht dlrow !;
#X obj 323 10 param.change;
#X obj 229 86 nbx 5 15 -1e+37 1e+37 0 0 empty \$0-window-size-r empty
0 -8 0 10 -262144 -1 -1 0 256;
#X msg 229 61 set \$1;
#X obj 34 349 dac~ 1 2, f 13;
#X obj 34 143 adc~ 1 2;
#X text 31 66 Window Size (ms);
#X msg 34 239 \$1 100;
#X obj 323 32 param.set 1 \$0-window-size-s;
#X obj 34 217 param.get 1;
#X obj 256 250 array define \$0-env 515;
#N canvas 0 23 320 653 delback~ 0;
#X obj 36 282 *~ 512;
#X obj 36 304 +~ 1;
#X obj 149 229 +~ 0.5;
#X obj 149 251 wrap~;
#X obj 149 282 *~ 512;
#X obj 149 304 +~ 1;
#X obj 36 327 tabread4~ \$0-env;
#X obj 149 327 tabread4~ \$0-env;
#X obj 36 518 *~;
#X obj 149 518 *~;
#X obj 167 475 +~ 1.5;
#X obj 54 475 +~ 1.5;
#X obj 36 180 phasor~;
#X obj 36 602 outlet~ backward signal;
#X obj 117 62 max~ 0.02;
#X obj 117 40 inlet~ window size;
#X obj 36 146 *~ 2;
#X obj 36 67 sig~ 1000;
#X obj 36 89 /~, f 12;
#X obj 167 451 *~;
#X obj 54 451 *~;
#X obj 54 496 vd~ \$0-del-1;
#X obj 167 496 vd~ \$0-del-1;
#X connect 0 0 1 0;
#X connect 1 0 6 0;
#X connect 2 0 3 0;
#X connect 3 0 4 0;
#X connect 3 0 19 0;
#X connect 4 0 5 0;
#X connect 5 0 7 0;
#X connect 6 0 8 0;
#X connect 7 0 9 0;
#X connect 8 0 13 0;
#X connect 9 0 13 0;
#X connect 10 0 22 0;
#X connect 11 0 21 0;
#X connect 12 0 0 0;
#X connect 12 0 2 0;
#X connect 12 0 20 0;
#X connect 14 0 18 1;
#X connect 14 0 19 1;
#X connect 14 0 20 1;
#X connect 15 0 14 0;
#X connect 16 0 12 0;
#X connect 17 0 18 0;
#X connect 18 0 16 0;
#X connect 19 0 10 0;
#X connect 20 0 11 0;
#X connect 21 0 8 1;
#X connect 22 0 9 1;
#X restore 34 314 pd delback~;
#N canvas 0 23 450 300 gen_array 0;
#N canvas 0 22 450 300 counter 0;
#X obj 66 121 until;
#X obj 66 96 f 512;
#X obj 66 146 f 0, f 8;
#X obj 146 146 + 1;
#X obj 66 46 inlet;
#X obj 66 71 t b b, f 8;
#X obj 127 96 f 0;
#X obj 66 171 outlet;
#X connect 0 0 2 0;
#X connect 1 0 0 0;
#X connect 2 0 3 0;
#X connect 2 0 7 0;
#X connect 3 0 2 1;
#X connect 4 0 5 0;
#X connect 5 0 1 0;
#X connect 5 1 6 0;
#X connect 6 0 2 1;
#X restore 48 86 pd counter;
#X obj 48 190 array set \$0-env, f 28;
#X obj 48 111 t f f, f 14;
#X obj 144 158 + 1;
#N canvas 0 23 450 300 mapcos 0;
#X obj 79 81 * 6.28319;
#X obj 79 106 - 3.14159;
#X obj 79 159 + 1;
#X obj 79 182 * 0.5;
#X obj 79 134 cos;
#X obj 79 27 inlet;
#X obj 79 207 outlet;
#X connect 0 0 1 0;
#X connect 1 0 4 0;
#X connect 2 0 3 0;
#X connect 3 0 6 0;
#X connect 4 0 2 0;
#X connect 5 0 0 0;
#X restore 48 158 pd mapcos;
#X obj 48 133 / 512;
#X msg 48 62 512;
#X obj 48 36 loadbang;
#X connect 0 0 2 0;
#X connect 2 0 5 0;
#X connect 2 1 3 0;
#X connect 3 0 1 1;
#X connect 4 0 1 0;
#X connect 5 0 4 0;
#X connect 6 0 0 0;
#X connect 7 0 6 0;
#X restore 256 228 pd gen_array;
#N canvas 0 23 320 653 delback~ 0;
#X obj 36 282 *~ 512;
#X obj 36 304 +~ 1;
#X obj 149 229 +~ 0.5;
#X obj 149 251 wrap~;
#X obj 149 282 *~ 512;
#X obj 149 304 +~ 1;
#X obj 36 327 tabread4~ \$0-env;
#X obj 149 327 tabread4~ \$0-env;
#X obj 36 518 *~;
#X obj 149 518 *~;
#X obj 167 475 +~ 1.5;
#X obj 54 475 +~ 1.5;
#X obj 36 180 phasor~;
#X obj 36 602 outlet~ backward signal;
#X obj 117 62 max~ 0.02;
#X obj 117 40 inlet~ window size;
#X obj 36 146 *~ 2;
#X obj 36 67 sig~ 1000;
#X obj 36 89 /~, f 12;
#X obj 167 451 *~;
#X obj 54 451 *~;
#X obj 167 496 vd~ \$0-del-2;
#X obj 54 496 vd~ \$0-del-2;
#X connect 0 0 1 0;
#X connect 1 0 6 0;
#X connect 2 0 3 0;
#X connect 3 0 4 0;
#X connect 3 0 19 0;
#X connect 4 0 5 0;
#X connect 5 0 7 0;
#X connect 6 0 8 0;
#X connect 7 0 9 0;
#X connect 8 0 13 0;
#X connect 9 0 13 0;
#X connect 10 0 21 0;
#X connect 11 0 22 0;
#X connect 12 0 0 0;
#X connect 12 0 2 0;
#X connect 12 0 20 0;
#X connect 14 0 18 1;
#X connect 14 0 19 1;
#X connect 14 0 20 1;
#X connect 15 0 14 0;
#X connect 16 0 12 0;
#X connect 17 0 18 0;
#X connect 18 0 16 0;
#X connect 19 0 10 0;
#X connect 20 0 11 0;
#X connect 21 0 9 1;
#X connect 22 0 8 1;
#X restore 122 314 pd delback~;
#X msg 97 239 set \$1;
#X obj 97 261 s \$0-window-size-r;
#X connect 1 0 8 0;
#X connect 2 0 16 0;
#X connect 2 0 18 0;
#X connect 7 0 1 0;
#X connect 8 0 7 0;
#X connect 10 0 0 0;
#X connect 10 1 3 0;
#X connect 12 0 2 0;
#X connect 14 0 12 0;
#X connect 14 0 19 0;
#X connect 16 0 9 0;
#X connect 18 0 9 1;
#X connect 19 0 20 0;
#X coords 0 -1 1 1 300 120 1 2 2;
