#N canvas 611 73 875 634 10;
#X obj 134 342 bng 15 250 50 0 empty empty empty 17 7 0 10 -262144
-13381 -1;
#X obj 137 201 bng 15 250 50 0 empty empty empty 17 7 0 10 -262144
-257985 -1;
#X obj 198 243 bng 15 250 50 0 empty empty empty 17 7 0 10 -262144
-180161 -1;
#X obj 324 312 bng 15 250 50 0 empty empty empty 17 7 0 10 -262144
-92417 -1;
#X obj 200 402 bng 15 250 50 0 empty empty empty 17 7 0 10 -262144
-4371 -1;
#X obj 201 65 bng 15 250 50 0 empty empty empty 17 7 0 10 -262144 -258113
-1;
#X obj 263 105 bng 15 250 50 0 empty empty empty 17 7 0 10 -262144
-260097 -1;
#X obj 155 123 bng 15 250 50 0 empty empty empty 17 7 0 10 -262144
-260097 -1;
#X obj 320 257 bng 15 250 50 0 empty empty empty 17 7 0 10 -262144
-180161 -1;
#X obj 222 145 bng 15 250 50 0 empty empty empty 17 7 0 10 -262144
-260097 -1;
#X obj 300 169 bng 15 250 50 0 empty empty empty 17 7 0 10 -262144
-257985 -1;
#X obj 372 306 bng 15 250 50 0 empty empty empty 17 7 0 10 -262144
-92417 -1;
#X obj 121 440 bng 15 250 50 0 empty empty empty 17 7 0 10 -262144
-23 -1;
#X obj 87 261 bng 15 250 50 0 empty empty empty 17 7 0 10 -262144 -180161
-1;
#X obj 80 353 bng 15 250 50 0 empty empty empty 17 7 0 10 -262144 -13330
-1;
#X obj 264 383 bng 15 250 50 0 empty empty empty 17 7 0 10 -262144
-13330 -1;
#X obj 241 335 bng 15 250 50 0 empty empty empty 17 7 0 10 -262144
-13381 -1;
#X obj 240 219 bng 15 250 50 0 empty empty empty 17 7 0 10 -262144
-257985 -1;
#X obj 330 412 bng 15 250 50 0 empty empty empty 17 7 0 10 -262144
-4371 -1;
#X obj 394 376 bng 15 250 50 0 empty empty empty 17 7 0 10 -262144
-13330 -1;
#X obj 371 345 bng 15 250 50 0 empty empty empty 17 7 0 10 -262144
-13381 -1;
#X obj 51 430 bng 15 250 50 0 empty empty empty 17 7 0 10 -262144 -8664
-1;
#X obj 371 475 bng 15 250 50 0 empty empty empty 17 7 0 10 -262144
-23 -1;
#X obj 201 515 bng 15 250 50 0 empty empty empty 17 7 0 10 -262144
-19 -1;
#X obj 168 293 bng 15 250 50 0 empty empty empty 17 7 0 10 -262144
-92417 -1;
#X obj 506 563 != 0;
#X obj 506 584 sel 1;
#X obj 521 13 adc~;
#X obj 534 127 >= 100;
#X obj 534 148 sel 1;
#X obj 534 192 sel 1;
#X obj 534 169 >= 98.5;
#X obj 584 192 sel 1;
#X obj 584 169 >= 95.5;
#X obj 634 192 sel 1;
#X obj 634 169 >= 92.5;
#X obj 534 242 sel 1;
#X obj 534 219 >= 89.5;
#X obj 587 242 sel 1;
#X obj 587 219 >= 86.5;
#X obj 637 242 sel 1;
#X obj 637 219 >= 83.5;
#X obj 534 292 sel 1;
#X obj 587 292 sel 1;
#X obj 637 292 sel 1;
#X obj 534 269 >= 80.5;
#X obj 587 269 >= 77.5;
#X obj 637 269 >= 74.5;
#X obj 534 340 sel 1;
#X obj 587 340 sel 1;
#X obj 637 340 sel 1;
#X obj 534 317 >= 71.5;
#X obj 587 317 >= 68.5;
#X obj 637 317 >= 65.5;
#X obj 534 388 sel 1;
#X obj 587 388 sel 1;
#X obj 637 388 sel 1;
#X obj 534 365 >= 62.5;
#X obj 534 438 sel 1;
#X obj 587 438 sel 1;
#X obj 637 438 sel 1;
#X obj 587 365 >= 59.5;
#X obj 637 365 >= 56.5;
#X obj 534 415 >= 53.5;
#X obj 587 415 >= 50.5;
#X obj 637 415 >= 47.5;
#X obj 534 488 sel 1;
#X obj 587 488 sel 1;
#X obj 637 488 sel 1;
#X obj 534 465 >= 44.5;
#X obj 587 465 >= 41.5;
#X obj 637 465 >= 38.5;
#X obj 534 538 sel 1;
#X obj 587 538 sel 1;
#X obj 534 515 >= 35.5;
#X obj 587 515 >= 32.5;
#X obj 521 36 env~ 16384 8192;
#X obj 506 104 f;
#X obj 506 80 metro 20;
#X obj 506 59 loadbang;
#X connect 25 0 26 0;
#X connect 26 0 23 0;
#X connect 27 0 76 0;
#X connect 27 1 76 0;
#X connect 28 0 29 0;
#X connect 29 0 5 0;
#X connect 30 0 6 0;
#X connect 31 0 30 0;
#X connect 32 0 7 0;
#X connect 33 0 32 0;
#X connect 34 0 9 0;
#X connect 35 0 34 0;
#X connect 36 0 10 0;
#X connect 37 0 36 0;
#X connect 38 0 1 0;
#X connect 39 0 38 0;
#X connect 40 0 17 0;
#X connect 41 0 40 0;
#X connect 42 0 2 0;
#X connect 43 0 8 0;
#X connect 44 0 13 0;
#X connect 45 0 42 0;
#X connect 46 0 43 0;
#X connect 47 0 44 0;
#X connect 48 0 24 0;
#X connect 49 0 11 0;
#X connect 50 0 3 0;
#X connect 51 0 48 0;
#X connect 52 0 49 0;
#X connect 53 0 50 0;
#X connect 54 0 16 0;
#X connect 55 0 0 0;
#X connect 56 0 20 0;
#X connect 57 0 54 0;
#X connect 58 0 14 0;
#X connect 59 0 19 0;
#X connect 60 0 15 0;
#X connect 61 0 55 0;
#X connect 62 0 56 0;
#X connect 63 0 58 0;
#X connect 64 0 59 0;
#X connect 65 0 60 0;
#X connect 66 0 4 0;
#X connect 67 0 18 0;
#X connect 68 0 21 0;
#X connect 69 0 66 0;
#X connect 70 0 67 0;
#X connect 71 0 68 0;
#X connect 72 0 12 0;
#X connect 73 0 22 0;
#X connect 74 0 72 0;
#X connect 75 0 73 0;
#X connect 76 0 77 1;
#X connect 77 0 25 0;
#X connect 77 0 28 0;
#X connect 77 0 31 0;
#X connect 77 0 33 0;
#X connect 77 0 35 0;
#X connect 77 0 37 0;
#X connect 77 0 39 0;
#X connect 77 0 41 0;
#X connect 77 0 45 0;
#X connect 77 0 46 0;
#X connect 77 0 47 0;
#X connect 77 0 51 0;
#X connect 77 0 52 0;
#X connect 77 0 53 0;
#X connect 77 0 57 0;
#X connect 77 0 61 0;
#X connect 77 0 62 0;
#X connect 77 0 63 0;
#X connect 77 0 64 0;
#X connect 77 0 65 0;
#X connect 77 0 69 0;
#X connect 77 0 70 0;
#X connect 77 0 71 0;
#X connect 77 0 74 0;
#X connect 77 0 75 0;
#X connect 78 0 77 0;
#X connect 79 0 78 0;
#X coords 0 -1 1 1 461 598 2 2 2;
