#N canvas 229 338 1068 652 10;
#X obj 110 275 adc~ 1 2;
#X obj 69 482 dac~ 1 2;
#X obj 865 414 loadbang;
#X obj 865 590 s camomile;
#X obj 895 500 + 1;
#X obj 865 478 until;
#X obj 865 458 route float;
#X obj 865 567 list trim;
#X obj 29 257 r param;
#X obj 29 309 route 1;
#X obj 499 425 notein, f 7;
#X obj 499 459 noteout;
#X obj 342 218 r program;
#X obj 342 240 print program;
#X obj 737 115 samplerate~;
#X obj 737 88 r pd-dsp-started;
#X obj 822 245 r channels;
#X obj 822 266 route inputs outputs;
#X obj 822 311 print inputs;
#X obj 890 289 print outputs;
#X obj 165 339 dbtorms;
#X obj 165 293 r param;
#X obj 165 315 route 2;
#X obj 42 434 *~;
#X msg 165 361 \$1 20;
#X obj 165 383 line~;
#X obj 29 339 phasor~ 220;
#X obj 865 500 f 0;
#X obj 865 392 text define -k config;
#A set param 1 -name Frequency -label Hz -min 0 -max 22050 -default
220 -nsteps 0 \; param 2 -name Volume -label dB -min 0 -max 100 -default
0 \; param 3 -name Mute -list Off/On -default On \; param 4 -name Dummy
-list Off/On -default On -auto false -meta false \; program 1 John
\; program 2 Hammond 321 12 \; channels -inputs 1/2/8/12 -outputs 1/2
\; options -midiin true -midiout true -playhead true -midionly false
\; uniqueid zaed \;;
#X obj 865 522 text get config;
#X obj 865 436 text size config;
#X obj 865 544 list prepend define;
#X obj 730 472 r playhead;
#X obj 730 494 print playhead;
#X obj 27 26 tgl 15 0 empty empty empty 17 7 0 10 -262144 -1 -1 0 1
;
#X obj 27 46 print toggle;
#X obj 198 17 vsl 15 80 0 11 0 0 \$0-vslider empty empty 0 -9 0 10
-262144 -1 -1 0 1;
#X obj 30 69 hsl 128 15 21 2 0 0 empty empty empty -2 -8 0 10 -262144
-1 -1 0 1;
#X obj 27 89 print hslider;
#X obj 325 30 vradio 15 1 0 3 empty empty empty 0 -8 0 10 -262144 -1
-1 0;
#X obj 325 80 print vradio;
#X obj 50 141 hradio 15 1 0 12 empty empty empty 0 -8 0 10 -262144
-1 -1 7.79747;
#X msg 50 181 set \$1;
#X obj 135 26 bng 15 250 50 0 empty empty empty 17 7 0 10 -262144 -1
-1;
#X obj 135 46 print bang;
#X obj 637 144 r gui;
#X obj 433 24 r \$0-vslider;
#X obj 637 166 route mouse;
#X obj 585 350 s camomile;
#X obj 433 68 t f b;
#X obj 585 303 pack f f, f 22;
#X msg 585 326 param change \$1 \$2;
#X obj 433 46 * 10;
#X obj 465 94 f 2;
#X obj 465 116 s \$0-pindex;
#X obj 433 160 s camomile;
#X obj 637 188 route 1;
#X obj 683 210 t b f, f 8;
#X obj 585 261 spigot 1;
#X obj 585 283 t f b, f 8;
#X obj 648 283 f 0;
#X obj 585 119 r \$0-pindex;
#X msg 433 139 param set 2 \$1;
#X obj 637 210 f 1;
#X obj 637 232 t f f;
#X connect 2 0 30 0;
#X connect 4 0 27 1;
#X connect 5 0 27 0;
#X connect 6 0 5 0;
#X connect 7 0 3 0;
#X connect 8 0 9 0;
#X connect 9 0 26 0;
#X connect 12 0 13 0;
#X connect 15 0 14 0;
#X connect 16 0 17 0;
#X connect 17 0 18 0;
#X connect 17 1 19 0;
#X connect 20 0 24 0;
#X connect 21 0 22 0;
#X connect 22 0 20 0;
#X connect 23 0 1 0;
#X connect 23 0 1 1;
#X connect 24 0 25 0;
#X connect 25 0 23 1;
#X connect 26 0 23 0;
#X connect 27 0 4 0;
#X connect 27 0 29 0;
#X connect 29 0 31 0;
#X connect 30 0 6 0;
#X connect 31 0 7 0;
#X connect 34 0 35 0;
#X connect 36 0 41 0;
#X connect 37 0 38 0;
#X connect 39 0 40 0;
#X connect 41 0 42 0;
#X connect 42 0 36 0;
#X connect 43 0 44 0;
#X connect 43 0 34 0;
#X connect 45 0 47 0;
#X connect 46 0 52 0;
#X connect 47 0 56 0;
#X connect 49 0 62 0;
#X connect 49 1 53 0;
#X connect 50 0 51 0;
#X connect 51 0 48 0;
#X connect 52 0 49 0;
#X connect 53 0 54 0;
#X connect 56 0 63 0;
#X connect 56 1 57 0;
#X connect 57 0 50 0;
#X connect 57 1 50 1;
#X connect 58 0 59 0;
#X connect 59 0 50 0;
#X connect 59 1 60 0;
#X connect 60 0 58 1;
#X connect 61 0 58 0;
#X connect 62 0 55 0;
#X connect 63 0 64 0;
#X connect 64 0 58 1;
#X connect 64 1 50 1;
#X coords 0 -1 1 1 400 240 1 2 2;
