#N canvas 372 170 1068 652 10;
#X obj 110 239 adc~ 1 2;
#X obj 110 381 dac~ 1 2;
#X obj 624 229 loadbang;
#X obj 624 405 s camomile;
#X obj 654 315 + 1;
#X obj 624 293 until;
#X obj 624 273 route float;
#X obj 624 382 list trim;
#X obj 29 221 r param;
#X obj 29 273 route 1;
#X obj 285 365 random 100;
#X obj 266 292 loadbang;
#X obj 266 314 metro 100;
#X obj 266 420 s camomile;
#X obj 499 425 notein, f 7;
#X obj 499 459 noteout;
#X obj 342 218 r program;
#X obj 342 240 print program;
#X obj 467 296 samplerate~;
#X obj 467 269 r pd-dsp-started;
#X obj 467 342 print samplerate;
#X obj 822 245 r channels;
#X obj 822 266 route inputs outputs;
#X obj 822 311 print inputs;
#X obj 890 289 print outputs;
#X obj 165 303 dbtorms;
#X obj 165 257 r param;
#X obj 165 279 route 2;
#X obj 29 325 *~;
#X msg 165 325 \$1 20;
#X obj 165 347 line~;
#X obj 29 303 phasor~ 220;
#X obj 624 315 f 0;
#X msg 285 387 param set 2 \$1;
#X obj 266 336 t b b b;
#X msg 385 387 param change 2 1;
#X msg 175 387 param change 2 0;
#X obj 624 207 text define -k config;
#A set param 1 -name Frequency -label Hz -min 0 -max 22050 -default
220 -nsteps 0 \; param 2 -name Volume -label dB -min 0 -max 100 -default
0 \; param 3 -name Mute -list Off/On -default On \; param 4 -name Dummy
-list Off/On -default On -auto false -meta false \; program 1 John
\; program 2 Hammond 321 12 \; channels -inputs 1/2/8/12 -outputs 1/2
\; options -midiin true -midiout true -playhead true -midionly false
\; uniqueid zaed \;;
#X obj 179 470 r param;
#X obj 179 492 route 4;
#X obj 624 337 text get config;
#X obj 624 251 text size config;
#X obj 624 359 list prepend define;
#X obj 237 636 s camomile;
#X msg 256 603 param set 2 \$1;
#X msg 356 603 param change 2 1;
#X msg 146 603 param change 2 0;
#X obj 237 563 t b f b;
#X obj 519 560 r gui;
#X obj 519 582 route mousedown mouseup;
#X obj 519 604 route \$0-slider-r;
#X obj 586 634 route \$0-slider-r;
#X obj 730 472 r playhead;
#X obj 730 494 print playhead;
#X obj 27 26 tgl 15 0 empty empty empty 17 7 0 10 -262144 -1 -1 0 1
;
#X obj 27 46 print toggle;
#X obj 198 17 vsl 15 80 0 11 0 0 empty empty empty 0 -9 0 10 -262144
-1 -1 6600 1;
#X obj 198 105 print vslider;
#X obj 30 69 hsl 128 15 21 2 0 0 empty empty empty -2 -8 0 10 -262144
-1 -1 0 1;
#X obj 27 89 print hslider;
#X obj 325 30 vradio 15 1 0 3 empty empty empty 0 -8 0 10 -262144 -1
-1 0;
#X obj 325 80 print vradio;
#X obj 50 141 hradio 15 1 0 12 empty empty empty 0 -8 0 10 -262144
-1 -1 0;
#X obj 50 161 print hradio;
#X msg 50 181 set \$1;
#X obj 135 26 bng 15 250 50 0 empty empty empty 17 7 0 10 -262144 -1
-1;
#X obj 135 46 print bang;
#X connect 2 0 41 0;
#X connect 4 0 32 1;
#X connect 5 0 32 0;
#X connect 6 0 5 0;
#X connect 7 0 3 0;
#X connect 8 0 9 0;
#X connect 9 0 31 0;
#X connect 10 0 33 0;
#X connect 11 0 12 0;
#X connect 12 0 34 0;
#X connect 16 0 17 0;
#X connect 19 0 18 0;
#X connect 21 0 22 0;
#X connect 22 0 23 0;
#X connect 22 1 24 0;
#X connect 25 0 29 0;
#X connect 26 0 27 0;
#X connect 27 0 25 0;
#X connect 28 0 1 0;
#X connect 28 0 1 1;
#X connect 29 0 30 0;
#X connect 30 0 28 1;
#X connect 31 0 28 0;
#X connect 32 0 4 0;
#X connect 32 0 40 0;
#X connect 33 0 13 0;
#X connect 34 0 36 0;
#X connect 34 1 10 0;
#X connect 34 2 35 0;
#X connect 35 0 13 0;
#X connect 36 0 13 0;
#X connect 38 0 39 0;
#X connect 40 0 42 0;
#X connect 41 0 6 0;
#X connect 42 0 7 0;
#X connect 44 0 43 0;
#X connect 45 0 43 0;
#X connect 46 0 43 0;
#X connect 47 1 44 0;
#X connect 48 0 49 0;
#X connect 49 0 50 0;
#X connect 49 1 51 0;
#X connect 50 0 45 0;
#X connect 51 0 46 0;
#X connect 54 0 55 0;
#X connect 56 0 57 0;
#X connect 56 0 62 0;
#X connect 58 0 59 0;
#X connect 60 0 61 0;
#X connect 62 0 63 0;
#X connect 62 0 64 0;
#X connect 64 0 56 0;
#X connect 65 0 66 0;
#X connect 65 0 54 0;
#X coords 0 -1 1 1 400 240 1 2 2;
