#N canvas 443 170 1068 652 10;
#X obj 110 159 adc~ 1 2;
#X obj 110 301 dac~ 1 2;
#X obj 624 149 loadbang;
#X obj 624 325 s camomile;
#X obj 654 235 + 1;
#X obj 624 213 until;
#X obj 624 193 route float;
#X obj 624 302 list trim;
#X obj 29 141 r param;
#X obj 29 193 route 1;
#X obj 285 285 random 100;
#X obj 266 212 loadbang;
#X obj 266 234 metro 100;
#X obj 266 340 s camomile;
#X obj 499 345 notein, f 7;
#X obj 499 379 noteout;
#X obj 342 138 r program;
#X obj 342 160 print program;
#X obj 467 216 samplerate~;
#X obj 467 189 r pd-dsp-started;
#X floatatom 467 243 7 0 0 0 - - -, f 7;
#X obj 467 262 print samplerate;
#X obj 822 165 r channels;
#X obj 822 186 route inputs outputs;
#X obj 822 231 print inputs;
#X obj 890 209 print outputs;
#X obj 165 223 dbtorms;
#X obj 165 177 r param;
#X obj 165 199 route 2;
#X obj 29 245 *~;
#X msg 165 245 \$1 20;
#X obj 165 267 line~;
#X obj 29 223 phasor~ 220;
#X obj 624 235 f 0;
#X msg 285 307 param set 2 \$1;
#X obj 266 256 t b b b;
#X msg 385 307 param change 2 1;
#X msg 175 307 param change 2 0;
#X obj 624 127 text define -k config;
#A set param 1 -name Frequency -label Hz -min 0 -max 22050 -default
220 -nsteps 0 \; param 2 -name Volume -label dB -min 0 -max 100 -default
0 \; param 3 -name Mute -list Off/On -default On \; param 4 -name Dummy
-list Off/On -default On -auto false -meta false \; program 1 John
\; program 2 Hammond 321 12 \; channels -inputs 1/2/8/12 -outputs 1/2
\; options -midiin true -midiout true -playhead true -midionly false
\; uniqueid zaed \;;
#X obj 179 390 r param;
#X obj 179 412 route 4;
#X obj 624 257 text get config;
#X obj 624 171 text size config;
#X obj 624 279 list prepend define;
#X obj 240 463 hsl 128 15 0 127 0 0 \$0-slider-s \$0-slider-r empty
-2 -8 0 10 -262144 -1 -1 0 1;
#X obj 237 556 s camomile;
#X msg 256 523 param set 2 \$1;
#X msg 356 523 param change 2 1;
#X msg 146 523 param change 2 0;
#X obj 237 483 t b f b;
#X obj 519 480 r gui;
#X obj 519 502 route mousedown mouseup;
#X obj 519 524 route \$0-slider-r;
#X obj 586 554 route \$0-slider-r;
#X obj 29 12 cnv 15 100 60 empty empty empty 20 12 0 14 -233017 -66577
0;
#X obj 171 15 bng 15 250 50 0 empty empty empty 17 7 0 10 -262144 -1
-1;
#X text 149 84 samit;
#X obj 730 392 r playhead;
#X obj 730 414 print playhead;
#X connect 2 0 42 0;
#X connect 4 0 33 1;
#X connect 5 0 33 0;
#X connect 6 0 5 0;
#X connect 7 0 3 0;
#X connect 8 0 9 0;
#X connect 9 0 32 0;
#X connect 10 0 34 0;
#X connect 11 0 12 0;
#X connect 12 0 35 0;
#X connect 16 0 17 0;
#X connect 18 0 20 0;
#X connect 19 0 18 0;
#X connect 20 0 21 0;
#X connect 22 0 23 0;
#X connect 23 0 24 0;
#X connect 23 1 25 0;
#X connect 26 0 30 0;
#X connect 27 0 28 0;
#X connect 28 0 26 0;
#X connect 29 0 1 0;
#X connect 29 0 1 1;
#X connect 30 0 31 0;
#X connect 31 0 29 1;
#X connect 32 0 29 0;
#X connect 33 0 4 0;
#X connect 33 0 41 0;
#X connect 34 0 13 0;
#X connect 35 0 37 0;
#X connect 35 1 10 0;
#X connect 35 2 36 0;
#X connect 36 0 13 0;
#X connect 37 0 13 0;
#X connect 39 0 40 0;
#X connect 41 0 43 0;
#X connect 42 0 6 0;
#X connect 43 0 7 0;
#X connect 44 0 49 0;
#X connect 46 0 45 0;
#X connect 47 0 45 0;
#X connect 48 0 45 0;
#X connect 49 1 46 0;
#X connect 50 0 51 0;
#X connect 51 0 52 0;
#X connect 51 1 53 0;
#X connect 52 0 47 0;
#X connect 53 0 48 0;
#X connect 57 0 58 0;
#X coords 0 -1 1 1 240 120 1 2 2;
