#N canvas 318 277 840 279 10;
#X obj 100 39 adc~ 1 2;
#X obj 100 131 dac~ 1 2;
#X obj 260 54 r param1;
#X obj 260 76 print p1;
#X obj 340 54 r param2;
#X obj 340 76 print p2;
#X obj 444 29 loadbang;
#X obj 444 182 s camomile;
#X obj 444 51 text size \$0-config;
#X obj 444 115 f 0;
#X obj 474 115 + 1;
#X obj 444 93 until;
#X obj 444 73 route float;
#X obj 563 20 text define -k \$0-config;
#A set ninputs 8 \; noutputs 8 \; param Frequency Hz 0 22050 220 0
1 0 \; param Volume dB 0 100 0 0 1 0 \; param Mute dB 0 100 0 0 1 0
\;;
#X obj 444 137 text get \$0-config;
#X obj 444 159 list trim;
#X connect 0 0 1 0;
#X connect 0 1 1 1;
#X connect 2 0 3 0;
#X connect 4 0 5 0;
#X connect 6 0 8 0;
#X connect 8 0 12 0;
#X connect 9 0 10 0;
#X connect 9 0 14 0;
#X connect 10 0 9 1;
#X connect 11 0 9 0;
#X connect 12 0 11 0;
#X connect 14 0 15 0;
#X connect 15 0 7 0;
