#N canvas 318 277 840 279 10;
#X obj 100 39 adc~ 1 2;
#X obj 100 131 dac~ 1 2;
#X obj 260 54 r param1;
#X obj 260 76 print p1;
#X obj 340 54 r param2;
#X obj 340 76 print p2;
#X obj 440 29 r camomile;
#X obj 444 171 s camo.infos;
#X obj 440 51 route nparameters parameter;
#X obj 440 126 text define config;
#X connect 0 0 1 0;
#X connect 0 1 1 1;
#X connect 2 0 3 0;
#X connect 4 0 5 0;
#X connect 6 0 8 0;
