#N canvas 23 128 1068 652 10;
#X obj 110 275 adc~ 1 2;
#X obj 69 482 dac~ 1 2;
#X obj 29 257 r param;
#X obj 29 309 route 1;
#X obj 499 425 notein, f 7;
#X obj 499 459 noteout;
#X obj 342 337 r program;
#X obj 342 359 print program;
#X obj 737 115 samplerate~;
#X obj 737 88 r pd-dsp-started;
#X obj 165 339 dbtorms;
#X obj 165 293 r param;
#X obj 165 315 route 2;
#X obj 42 434 *~;
#X msg 165 361 \$1 20;
#X obj 165 383 line~;
#X obj 29 339 phasor~ 220;
#X obj 730 472 r playhead;
#X obj 730 494 print playhead;
#X obj 27 26 tgl 15 0 empty empty empty 17 7 0 10 -262144 -1 -1 0 1
;
#X obj 27 46 print toggle;
#X obj 215 37 vsl 15 80 0 11 0 0 \$0-vslider empty empty 0 -9 0 10
-262144 -1 -1 0 1;
#X obj 30 69 hsl 128 15 21 2 0 0 empty empty empty -2 -8 0 10 -262144
-1 -1 0 1;
#X obj 27 89 print hslider;
#X obj 325 30 vradio 15 1 0 3 empty empty empty 0 -8 0 10 -262144 -1
-1 2;
#X obj 325 80 print vradio;
#X obj 50 141 hradio 15 1 0 12 empty empty empty 0 -8 0 10 -262144
-1 -1 7.79747;
#X msg 50 181 set \$1;
#X obj 135 26 bng 15 250 50 0 empty empty empty 17 7 0 10 -262144 -1
-1;
#X obj 135 46 print bang;
#X obj 638 144 r gui;
#X obj 433 24 r \$0-vslider;
#X obj 638 166 route mouse;
#X obj 585 400 s camomile;
#X obj 433 68 t f b;
#X obj 585 343 pack f f, f 22;
#X msg 585 376 param change \$1 \$2;
#X obj 433 46 * 10;
#X obj 465 94 f 2;
#X obj 465 116 s \$0-pindex;
#X obj 433 160 s camomile;
#X obj 638 188 route 1;
#X obj 684 260 t b f, f 8;
#X obj 585 119 r \$0-pindex;
#X msg 433 139 param set 2 \$1;
#X obj 638 210 f 1;
#X text 265 161 Salut Nounou;
#X obj 279 114 nbx 5 14 -1e+37 1e+37 0 0 empty empty empty 0 -8 0 10
-262144 -1 -1 2 256;
#X obj 822 245 r channels;
#X obj 822 266 route inputs outputs;
#X obj 822 311 print inputs;
#X obj 890 289 print outputs;
#X obj 638 232 t b f, f 14;
#N canvas 0 23 156 140 one.time.1 0;
#X obj 15 62 spigot 1;
#X obj 15 84 t f b, f 8;
#X obj 78 84 f 0;
#X obj 15 19 inlet;
#X obj 68 19 inlet;
#X obj 15 106 outlet;
#X obj 68 41 f 1;
#X connect 0 0 1 0;
#X connect 1 0 5 0;
#X connect 1 1 2 0;
#X connect 2 0 0 1;
#X connect 3 0 0 0;
#X connect 4 0 6 0;
#X connect 6 0 0 1;
#X restore 585 262 pd one.time.1;
#N canvas 0 23 156 140 one.time.0 0;
#X obj 89 69 f 0;
#X obj 15 19 inlet;
#X obj 68 19 inlet;
#X obj 15 106 outlet;
#X obj 68 41 f 1;
#X obj 15 62 spigot 0;
#X obj 15 84 t b b, f 8;
#X connect 0 0 5 1;
#X connect 1 0 5 0;
#X connect 2 0 4 0;
#X connect 4 0 5 1;
#X connect 5 0 6 0;
#X connect 6 0 3 0;
#X connect 6 1 0 0;
#X restore 684 302 pd one.time.0;
#X obj 585 284 t b f;
#X msg 684 212 0;
#X connect 2 0 3 0;
#X connect 3 0 16 0;
#X connect 9 0 8 0;
#X connect 10 0 14 0;
#X connect 11 0 12 0;
#X connect 12 0 10 0;
#X connect 13 0 1 0;
#X connect 13 0 1 1;
#X connect 14 0 15 0;
#X connect 15 0 13 1;
#X connect 16 0 13 0;
#X connect 19 0 20 0;
#X connect 21 0 26 0;
#X connect 22 0 23 0;
#X connect 24 0 25 0;
#X connect 24 0 47 0;
#X connect 26 0 27 0;
#X connect 27 0 21 0;
#X connect 28 0 29 0;
#X connect 28 0 19 0;
#X connect 30 0 32 0;
#X connect 31 0 37 0;
#X connect 32 0 41 0;
#X connect 34 0 44 0;
#X connect 34 1 38 0;
#X connect 35 0 36 0;
#X connect 36 0 33 0;
#X connect 37 0 34 0;
#X connect 38 0 39 0;
#X connect 41 0 45 0;
#X connect 41 1 56 0;
#X connect 42 0 54 0;
#X connect 42 1 35 1;
#X connect 43 0 53 0;
#X connect 44 0 40 0;
#X connect 45 0 52 0;
#X connect 48 0 49 0;
#X connect 52 0 53 1;
#X connect 52 1 35 1;
#X connect 53 0 55 0;
#X connect 54 0 35 0;
#X connect 55 0 54 1;
#X connect 55 1 35 0;
#X connect 56 0 42 0;
#X coords 0 -1 1 1 400 240 1 2 2;
