#N canvas 835 417 230 229 10;
#X obj 26 28 inlet;
#X obj 26 168 s camomile;
#X obj 26 120 pack f \$1;
#X obj 26 50 t f b;
#X obj 58 72 f \$1;
#X obj 58 94 s camo.param.change;
#X msg 26 144 param set \$2 \$1;
#X connect 0 0 3 0;
#X connect 2 0 6 0;
#X connect 3 0 2 0;
#X connect 3 1 4 0;
#X connect 4 0 5 0;
#X connect 6 0 1 0;
