#N canvas 852 105 485 347 10;
#X declare -path else;
#N canvas 348 60 465 617 \$0-Allpass-stages 0;
#X obj 60 19 inlet~;
#X obj 60 864 outlet~;
#X restore 62 163 pd \$0-Allpass-stages;
#N canvas 652 370 484 311 set 0;
#X obj 199 195 s~ \$0-q;
#X obj 148 265 outlet~;
#X obj 108 91 - 10;
#X obj 63 186 s~ \$0-freq;
#X obj 64 28 inlet~;
#X obj 63 118 clip~ 10;
#X obj 108 67 sr~;
#X obj 199 29 inlet~;
#X obj 199 135 max~ 0.1;
#X connect 2 0 5 2;
#X connect 4 0 5 0;
#X connect 5 0 3 0;
#X connect 6 0 2 0;
#X connect 7 0 8 0;
#X connect 8 0 0 0;
#X restore 120 127 pd set;
#X obj 62 91 inlet~;
#X obj 62 216 outlet~;
#X text 221 160 Part of ELSE \; https://github.com/porres/pd-else;
#X text 223 141 Alexandre Torres Porres (2017);
#X obj 120 91 inlet~;
#X obj 120 60 r \$0-hz;
#X obj 175 60 r \$0-q;
#X obj 175 91 inlet~;
#N canvas 723 101 551 466 init 0;
#X obj 176 238 loop;
#X obj 149 215 t f f;
#X obj 176 262 sel 0;
#X obj 176 333 f \$0;
#X obj 149 333 + 1;
#X obj 104 122 select 0;
#X obj 149 150 clip 2 64;
#X obj 149 171 / 2;
#X obj 149 192 int;
#X msg 104 183 1;
#X obj 234 419 s pd-\$0-Allpass-stages;
#X msg 149 375 connect \$1 0 1 0, f 8;
#X obj 203 283 expr 50 + 25 * $f1 \; $f1 + 1 \; $f1 + 2;
#X obj 233 334 pack f f f \$0;
#X obj 104 50 args;
#X obj 104 95 unpack float float float;
#X obj 180 122 s \$0-hz;
#X obj 258 122 s \$0-q;
#X obj 104 22 lb -init 2;
#X msg 258 95 1;
#X msg 180 69 10;
#X obj 47 72 route bang;
#X msg 233 358 obj 60 \$1 allpass_unit \$4 \, connect \$2 0 \$3 0,
f 47;
#X msg 242 388 obj 60 50 allpass_unit \$1 \, connect 0 0 2 0;
#X connect 0 0 2 0;
#X connect 1 0 4 0;
#X connect 1 1 0 0;
#X connect 2 0 3 0;
#X connect 2 1 12 0;
#X connect 3 0 23 0;
#X connect 4 0 11 0;
#X connect 5 0 9 0;
#X connect 5 1 6 0;
#X connect 6 0 7 0;
#X connect 7 0 8 0;
#X connect 8 0 1 0;
#X connect 9 0 1 0;
#X connect 11 0 10 0;
#X connect 12 0 13 0;
#X connect 12 1 13 1;
#X connect 12 2 13 2;
#X connect 13 0 22 0;
#X connect 14 0 21 0;
#X connect 15 0 5 0;
#X connect 15 1 16 0;
#X connect 15 2 17 0;
#X connect 18 0 14 0;
#X connect 18 1 19 0;
#X connect 18 1 20 0;
#X connect 19 0 17 0;
#X connect 20 0 16 0;
#X connect 21 0 9 0;
#X connect 21 1 15 0;
#X connect 22 0 10 0;
#X connect 23 0 10 0;
#X restore 239 91 pd init;
#X obj 278 217 declare -path else;
#X connect 0 0 3 0;
#X connect 1 0 0 0;
#X connect 2 0 0 0;
#X connect 6 0 1 0;
#X connect 7 0 6 0;
#X connect 8 0 9 0;
#X connect 9 0 1 1;
