#N canvas 725 236 626 520 12;
#X declare -path else;
#X obj 345 302 array define \$0-scale;
#X f 22;
#X obj 237 270 - 60;
#X obj 344 238 array max \$0-scale;
#X obj 344 266 / 100;
#X obj 344 126 t b l l;
#X obj 367 186 array set \$0-scale;
#X obj 418 125 list length;
#X obj 418 149 array size \$0-scale;
#X obj 77 45 inlet;
#X obj 237 299 wrap2 0 12;
#X obj 160 259 v i_\$0;
#X obj 160 284 tabread \$0-scale, f 8;
#X obj 160 321 / 100;
#X obj 160 360 -;
#X obj 142 394 +;
#X obj 137 222 t f b f;
#N canvas 1052 561 424 442 find-index 0;
#X obj 135 35 inlet;
#X obj 196 134 array get \$0-scale, f 9;
#X obj 196 182 iterate;
#X obj 135 62 * 100;
#X msg 181 263 1e+20;
#X obj 187 292 f;
#X obj 140 292 min;
#X obj 140 326 change;
#X obj 140 361 t f b;
#X obj 210 326 f;
#X obj 228 239 count;
#X obj 196 208 t f b;
#X obj 210 361 v i_\$0;
#X obj 140 239 -;
#X obj 140 263 abs;
#X obj 135 91 t b f b;
#X msg 284 132 reset;
#X msg 77 258 set -1;
#X connect 0 0 3 0;
#X connect 1 0 2 0;
#X connect 2 0 11 0;
#X connect 3 0 15 0;
#X connect 4 0 6 1;
#X connect 5 0 6 1;
#X connect 6 0 7 0;
#X connect 7 0 8 0;
#X connect 8 0 5 0;
#X connect 8 1 9 0;
#X connect 9 0 12 0;
#X connect 10 0 9 1;
#X connect 11 0 13 0;
#X connect 11 1 10 0;
#X connect 13 0 14 0;
#X connect 14 0 6 0;
#X connect 15 0 1 0;
#X connect 15 1 13 1;
#X connect 15 2 16 0;
#X connect 15 2 4 0;
#X connect 15 2 17 0;
#X connect 16 0 10 0;
#X connect 17 0 7 0;
#X restore 237 336 pd find-index;
#X obj 344 45 inlet;
#N canvas 999 363 599 403 init 0;
#X obj 201 369 outlet;
#X msg 395 194 0 100 200 300 400 500 600 700 800 900 1000 1100 1200
, f 26;
#X obj 202 217 list split 1;
#X obj 201 275 route bang;
#X obj 107 41 lb -init 2, f 28;
#X obj 96 273 s \$0-base;
#X obj 107 76 args -;
#X obj 107 112 route bang list -base -bypass;
#X obj 256 146 s \$0-bp;
#X connect 1 0 0 0;
#X connect 2 0 5 0;
#X connect 2 1 3 0;
#X connect 3 1 0 0;
#X connect 4 0 6 0;
#X connect 4 1 1 0;
#X connect 6 0 7 0;
#X connect 7 1 0 0;
#X connect 7 2 2 0;
#X connect 7 3 8 0;
#X restore 355 91 pd init;
#X obj 77 458 outlet;
#X obj 449 80 declare -path else;
#X obj 261 204 r \$0-base;
#X text 247 395 Part of ELSE \; https://github.com/porres/pd-else;
#X text 249 376 Alexandre Torres Porres (2020);
#X obj 77 93 route float bypass base;
#N canvas 931 463 309 350 bypass 0;
#X obj 73 239 router 2 2;
#X obj 139 108 == 1;
#X msg 139 194 1;
#X obj 139 132 sel 1 0;
#X msg 175 194 2;
#X obj 139 75 != 0;
#X obj 184 161 r \$0-bp;
#X obj 136 44 inlet;
#X obj 65 42 inlet;
#X obj 77 290 outlet;
#X obj 148 292 outlet;
#X connect 0 0 9 0;
#X connect 0 1 10 0;
#X connect 1 0 3 0;
#X connect 2 0 0 1;
#X connect 3 0 2 0;
#X connect 3 1 4 0;
#X connect 4 0 0 1;
#X connect 5 0 1 0;
#X connect 6 0 2 0;
#X connect 7 0 5 0;
#X connect 8 0 0 0;
#X restore 77 134 pd bypass;
#X connect 1 0 9 0;
#X connect 2 0 3 0;
#X connect 3 0 9 2;
#X connect 4 0 2 0;
#X connect 4 1 5 0;
#X connect 4 2 6 0;
#X connect 6 0 7 0;
#X connect 8 0 24 0;
#X connect 9 0 13 1;
#X connect 9 0 16 0;
#X connect 10 0 11 0;
#X connect 11 0 12 0;
#X connect 12 0 13 0;
#X connect 13 0 14 1;
#X connect 14 0 19 0;
#X connect 15 0 14 0;
#X connect 15 1 10 0;
#X connect 15 2 1 0;
#X connect 17 0 4 0;
#X connect 18 0 4 0;
#X connect 21 0 1 1;
#X connect 24 0 25 0;
#X connect 24 1 25 1;
#X connect 24 2 1 1;
#X connect 25 0 19 0;
#X connect 25 1 15 0;
