#N canvas 645 183 514 455 10;
#X declare -path else;
#X obj 145 253 wrap;
#X obj 145 278 sel 0;
#X obj 94 178 + 1;
#X obj 106 207 / 1;
#X obj 257 119 args;
#X obj 257 146 route float list;
#X obj 257 174 unpack;
#X obj 296 222 s \$0-div;
#X obj 316 191 s \$0-start;
#X obj 257 200 moses 1;
#X obj 77 150 r \$0-start;
#X obj 219 350 s \$0-start;
#X msg 219 326 0;
#X obj 145 344 t b b;
#X obj 145 384 outlet;
#X obj 122 180 r \$0-div;
#X obj 56 25 inlet;
#X text 267 288 Part of ELSE \; https://github.com/porres/pd-else;
#X text 269 269 Alexandre Torres Porres (2017);
#X obj 106 230 moses 1;
#X obj 56 177 f -1;
#X obj 316 172 - 1;
#X obj 92 281 sel 0;
#X obj 92 310 nbang 1;
#X obj 56 55 route bang div start;
#X obj 95 85 route float;
#X obj 178 120 s \$0-start;
#X obj 178 101 - 1;
#X obj 178 81 route float;
#X obj 257 97 lb -init;
#X obj 313 61 declare -path else;
#X obj 186 313 b;
#X obj 203 384 outlet;
#X connect 0 0 1 0;
#X connect 1 0 13 0;
#X connect 1 1 31 0;
#X connect 2 0 3 0;
#X connect 2 0 20 1;
#X connect 3 0 19 0;
#X connect 4 0 5 0;
#X connect 5 0 6 0;
#X connect 5 1 6 0;
#X connect 6 0 9 0;
#X connect 6 1 21 0;
#X connect 9 1 7 0;
#X connect 10 0 20 1;
#X connect 12 0 11 0;
#X connect 13 0 14 0;
#X connect 13 1 12 0;
#X connect 15 0 3 1;
#X connect 16 0 24 0;
#X connect 19 0 22 0;
#X connect 19 1 0 0;
#X connect 20 0 2 0;
#X connect 21 0 8 0;
#X connect 22 0 23 0;
#X connect 22 1 31 0;
#X connect 23 0 13 0;
#X connect 24 0 20 0;
#X connect 24 1 25 0;
#X connect 24 2 28 0;
#X connect 25 0 9 0;
#X connect 27 0 26 0;
#X connect 28 0 27 0;
#X connect 29 0 4 0;
#X connect 31 0 32 0;
