#N canvas 532 97 969 408 10;
#X declare -path else;
#X obj 175 70 inlet~ fwd;
#N canvas 931 564 561 522 guts 0;
#X obj 103 38 inlet;
#X obj 138 283 trigger float float bang, f 25;
#X msg 211 325 fast-forward \$1;
#X obj 211 349 send pd;
#X obj 138 315 delay;
#X obj 285 85 canvas.setname \$0-patch 1;
#X obj 138 254 max 10;
#N canvas 1191 348 652 496 dynamic-patching 0;
#X obj 208 194 loop;
#X obj 208 217 t f f, f 6;
#X obj 208 243 * 15;
#N canvas 895 293 733 366 load_args 0;
#X obj 151 22 inlet;
#X obj 151 75 args;
#X obj 151 129 break -;
#X obj 358 157 v ch_\$0;
#X msg 358 130 1;
#X obj 230 270 v ch_\$0;
#X obj 230 247 clip 1 64;
#X obj 114 264 route float;
#X obj 151 103 trigger anything bang;
#X obj 99 209 unmerge 2;
#X obj 151 158 route bang symbol float list;
#X obj 427 210 s \$0-array;
#X obj 192 295 s \$0-array;
#X obj 426 140 dollsym 1;
#X obj 425 97 symbol sample_\\\$0;
#X connect 0 0 1 0;
#X connect 1 0 8 0;
#X connect 2 0 10 0;
#X connect 4 0 3 0;
#X connect 6 0 5 0;
#X connect 7 1 12 0;
#X connect 8 0 2 0;
#X connect 8 1 4 0;
#X connect 8 1 14 0;
#X connect 9 0 7 0;
#X connect 9 1 6 0;
#X connect 10 1 12 0;
#X connect 10 2 6 0;
#X connect 10 3 9 0;
#X connect 10 4 6 0;
#X connect 13 0 11 0;
#X connect 14 0 13 0;
#X restore 182 49 pd load_args;
#X obj 207 94 v ch_\$0;
#X obj 207 126 trigger float float, f 25;
#X obj 219 405 s \$0-patch;
#X obj 207 150 - 1;
#X obj 207 172 moses 1;
#X obj 208 272 + 250;
#X obj 219 300 pack f f f;
#X obj 276 271 + 7;
#X msg 219 325 obj \$1 70 inlet~ \, connect \$3 0 6 \$2, f 19;
#X obj 247 272 + 2;
#X msg 354 329 obj 175 175 tabwriter~ -ch \$1 \, connect 0 0 6 1 \,
connect 2 0 6 0, f 35;
#X obj 95 23 lb -init 3;
#X obj 128 110 r \$0-array;
#X obj 95 146 symbol;
#X obj 95 176 s \$0-filename;
#X connect 0 0 1 0;
#X connect 1 0 2 0;
#X connect 1 1 11 0;
#X connect 1 1 13 0;
#X connect 2 0 9 0;
#X connect 4 0 5 0;
#X connect 5 0 7 0;
#X connect 5 1 14 0;
#X connect 7 0 8 0;
#X connect 8 1 0 0;
#X connect 9 0 10 0;
#X connect 10 0 12 0;
#X connect 11 0 10 2;
#X connect 12 0 6 0;
#X connect 13 0 10 1;
#X connect 14 0 6 0;
#X connect 15 0 17 0;
#X connect 15 1 4 0;
#X connect 15 2 3 0;
#X connect 16 0 17 1;
#X connect 17 0 18 0;
#X restore 351 113 pd dynamic-patching;
#X obj 336 434 s \$0-rec;
#X obj 137 398 s \$0-done;
#X msg 164 349 stop;
#X msg 336 310 rec;
#X obj 365 366 r \$0-filename;
#X msg 365 393 set \$1;
#X obj 103 85 route bang rec set;
#X obj 173 136 s \$0-filename;
#N canvas 490 446 360 316 array_size 0;
#X obj 99 204 array size;
#X obj 193 116 expr ch_\$0 > 1;
#X obj 130 158 router;
#X obj 193 137 + 1;
#X obj 130 132 t s f;
#X msg 193 180 symbol 0-\$1;
#X obj 126 106 symbol;
#X obj 99 78 t b b;
#X obj 99 47 inlet;
#X obj 99 243 outlet;
#X obj 159 82 r \$0-filename;
#X connect 0 0 9 0;
#X connect 1 0 3 0;
#X connect 2 0 0 1;
#X connect 2 1 5 0;
#X connect 3 0 2 1;
#X connect 4 0 2 0;
#X connect 4 1 1 0;
#X connect 5 0 0 1;
#X connect 6 0 4 0;
#X connect 7 0 0 0;
#X connect 7 1 6 0;
#X connect 8 0 7 0;
#X connect 10 0 6 1;
#X restore 157 217 pd array_size;
#X obj 173 111 symbol;
#X obj 354 155 declare -path else;
#X connect 0 0 14 0;
#X connect 1 0 4 0;
#X connect 1 1 2 0;
#X connect 1 2 11 0;
#X connect 2 0 3 0;
#X connect 4 0 10 0;
#X connect 4 0 9 0;
#X connect 6 0 1 0;
#X connect 10 0 8 0;
#X connect 11 0 8 0;
#X connect 12 0 13 0;
#X connect 13 0 8 0;
#X connect 14 0 16 0;
#X connect 14 1 6 0;
#X connect 14 2 17 0;
#X connect 16 0 6 0;
#X connect 17 0 15 0;
#X restore 106 107 pd guts;
#X obj 101 137 r \$0-rec;
#X obj 99 211 r \$0-done;
#X obj 99 236 outlet;
#X text 93 299 Alexandre Torres Porres (2020) \; Part of ELSE \; https://github.com/porres/pd-else
;
#X connect 0 1 1 0;
#X connect 3 0 4 0;
