#N canvas 654 250 507 296 10;
#X declare -path else;
#X obj 68 32 inlet;
#X obj 144 30 inlet;
#X obj 68 246 outlet;
#X obj 144 97 f \$1;
#X obj 189 69 list length;
#X obj 68 73 t b a b a, f 10;
#X obj 68 213 list store;
#X obj 87 164 list split;
#X obj 87 187 insert append;
#X obj 144 141 mod, f 8;
#X obj 144 119 * -1;
#X text 258 165 Part of ELSE \; https://github.com/porres/pd-else;
#X text 259 146 Alexandre Torres Porres (2019);
#X obj 287 116 declare -path else;
#X connect 0 0 5 0;
#X connect 1 0 3 0;
#X connect 3 0 10 0;
#X connect 4 0 9 1;
#X connect 5 0 6 0;
#X connect 5 1 7 0;
#X connect 5 2 3 0;
#X connect 5 3 4 0;
#X connect 6 0 2 0;
#X connect 7 0 8 0;
#X connect 7 1 6 1;
#X connect 8 0 6 0;
#X connect 9 0 7 1;
#X connect 10 0 9 0;
